<svg width="63" height="63" viewBox="0 0 63 63" fill="none" xmlns="http://www.w3.org/2000/svg">
<rect x="7" y="9" width="49" height="47" rx="23.5" stroke="url(#paint0_linear_193_17010)" stroke-opacity="0.6" stroke-width="4"/>
<rect x="7" y="9" width="49" height="47" rx="23.5" stroke="black" stroke-opacity="0.6" stroke-width="4"/>
<rect x="7" y="9" width="49" height="47" rx="23.5" stroke="url(#paint1_linear_193_17010)" stroke-width="2"/>
<g filter="url(#filter0_dd_193_17010)">
<rect x="7" y="9" width="49" height="47" rx="23.5" stroke="url(#paint2_linear_193_17010)" stroke-width="2"/>
</g>
<path d="M30.3125 20V21.1905H25.5625C24.6177 21.1905 23.7115 21.5668 23.0434 22.2365C22.3753 22.9063 22 23.8147 22 24.7619V28.3333C22 29.912 22.6256 31.426 23.7391 32.5423C24.8526 33.6586 26.3628 34.2857 27.9375 34.2857H35.0625C36.6372 34.2857 38.1474 33.6586 39.2609 32.5423C40.3744 31.426 41 29.912 41 28.3333V24.7619C41 23.8147 40.6247 22.9063 39.9566 22.2365C39.2885 21.5668 38.3823 21.1905 37.4375 21.1905H32.6875V20H30.3125ZM24.375 24.7619C24.375 24.4462 24.5001 24.1434 24.7228 23.9201C24.9455 23.6969 25.2476 23.5714 25.5625 23.5714H37.4375C37.7524 23.5714 38.0545 23.6969 38.2772 23.9201C38.4999 24.1434 38.625 24.4462 38.625 24.7619V28.3333C38.625 29.2805 38.2497 30.1889 37.5816 30.8587C36.9135 31.5285 36.0073 31.9048 35.0625 31.9048H27.9375C26.9927 31.9048 26.0865 31.5285 25.4184 30.8587C24.7503 30.1889 24.375 29.2805 24.375 28.3333V24.7619ZM28.5312 29.5238C29.0037 29.5238 29.4567 29.3357 29.7908 29.0008C30.1248 28.6659 30.3125 28.2117 30.3125 27.7381C30.3125 27.2645 30.1248 26.8103 29.7908 26.4754C29.4567 26.1405 29.0037 25.9524 28.5312 25.9524C28.0588 25.9524 27.6058 26.1405 27.2717 26.4754C26.9377 26.8103 26.75 27.2645 26.75 27.7381C26.75 28.2117 26.9377 28.6659 27.2717 29.0008C27.6058 29.3357 28.0588 29.5238 28.5312 29.5238ZM34.4688 29.5238C34.9412 29.5238 35.3942 29.3357 35.7283 29.0008C36.0623 28.6659 36.25 28.2117 36.25 27.7381C36.25 27.2645 36.0623 26.8103 35.7283 26.4754C35.3942 26.1405 34.9412 25.9524 34.4688 25.9524C33.9963 25.9524 33.5433 26.1405 33.2092 26.4754C32.8752 26.8103 32.6875 27.2645 32.6875 27.7381C32.6875 28.2117 32.8752 28.6659 33.2092 29.0008C33.5433 29.3357 33.9963 29.5238 34.4688 29.5238ZM24.375 45C24.375 43.1056 25.1257 41.2888 26.4619 39.9492C27.7981 38.6097 29.6103 37.8571 31.5 37.8571C33.3897 37.8571 35.2019 38.6097 36.5381 39.9492C37.8743 41.2888 38.625 43.1056 38.625 45H41C41 42.4741 39.9991 40.0517 38.2175 38.2656C36.4359 36.4796 34.0196 35.4762 31.5 35.4762C28.9804 35.4762 26.5641 36.4796 24.7825 38.2656C23.0009 40.0517 22 42.4741 22 45H24.375Z" fill="url(#paint3_linear_193_17010)"/>
<defs>
<filter id="filter0_dd_193_17010" x="0" y="0" width="63" height="63" filterUnits="userSpaceOnUse" color-interpolation-filters="sRGB">
<feFlood flood-opacity="0" result="BackgroundImageFix"/>
<feColorMatrix in="SourceAlpha" type="matrix" values="0 0 0 0 0 0 0 0 0 0 0 0 0 0 0 0 0 0 127 0" result="hardAlpha"/>
<feOffset/>
<feGaussianBlur stdDeviation="3"/>
<feColorMatrix type="matrix" values="0 0 0 0 1 0 0 0 0 0.919565 0 0 0 0 0.75 0 0 0 0.6 0"/>
<feBlend mode="normal" in2="BackgroundImageFix" result="effect1_dropShadow_193_17010"/>
<feColorMatrix in="SourceAlpha" type="matrix" values="0 0 0 0 0 0 0 0 0 0 0 0 0 0 0 0 0 0 127 0" result="hardAlpha"/>
<feOffset dy="-2"/>
<feGaussianBlur stdDeviation="3"/>
<feColorMatrix type="matrix" values="0 0 0 0 1 0 0 0 0 0.919565 0 0 0 0 0.75 0 0 0 0.6 0"/>
<feBlend mode="normal" in2="effect1_dropShadow_193_17010" result="effect2_dropShadow_193_17010"/>
<feBlend mode="normal" in="SourceGraphic" in2="effect2_dropShadow_193_17010" result="shape"/>
</filter>
<linearGradient id="paint0_linear_193_17010" x1="31.5" y1="9" x2="31.5" y2="56" gradientUnits="userSpaceOnUse">
<stop stop-color="#C8AA6E"/>
<stop offset="1" stop-color="#7A5C29"/>
</linearGradient>
<linearGradient id="paint1_linear_193_17010" x1="31.5" y1="9" x2="31.5" y2="56" gradientUnits="userSpaceOnUse">
<stop stop-color="#C8AA6E"/>
<stop offset="1" stop-color="#7A5C29"/>
</linearGradient>
<linearGradient id="paint2_linear_193_17010" x1="31.5" y1="9" x2="31.5" y2="56" gradientUnits="userSpaceOnUse">
<stop stop-color="#F0E5D7"/>
<stop offset="1" stop-color="#CFA958"/>
</linearGradient>
<linearGradient id="paint3_linear_193_17010" x1="31.5" y1="20" x2="31.5" y2="45" gradientUnits="userSpaceOnUse">
<stop offset="0.3" stop-color="#DDC28C"/>
<stop offset="1" stop-color="#77684B"/>
</linearGradient>
</defs>
</svg>
