<svg width="1280" height="77" viewBox="0 0 1280 77" fill="none" xmlns="http://www.w3.org/2000/svg">
<path fill-rule="evenodd" clip-rule="evenodd" d="M1272 65L1269 68H12.5L9.5 65H0V0.000289917H1280V65H1272Z" fill="#020B14" fill-opacity="0.95"/>
<path fill-rule="evenodd" clip-rule="evenodd" d="M9.5 65H2H0V63V2.00029V0.000289917H2H1278H1280V2.00029V63V65H1278H1272L1269 68H12.5L9.5 65ZM10.9142 65H1270.59L1268.59 67H12.9142L10.9142 65ZM2 63H1278V2.00029H2V63Z" fill="#E3C17D"/>
<path d="M651 64L640 75L629 64V63H651V64Z" fill="#020B14" fill-opacity="0.95"/>
<path d="M654 64H651L640 75L629 64H626" stroke="#E3C17D" stroke-width="2"/>
<path d="M632 67.5H636.5L640 71L643.5 67.5H648" stroke="#E3C17D"/>
</svg>
