<svg width="1280" height="77" viewBox="0 0 1280 77" fill="none" xmlns="http://www.w3.org/2000/svg">
<path fill-rule="evenodd" clip-rule="evenodd" d="M1272 65L1269 68H12.5L9.5 65H0V0.000289917H1280V65H1272Z" fill="#020B14" fill-opacity="0.95"/>
<path fill-rule="evenodd" clip-rule="evenodd" d="M9.5 65H2H0V63V2.00029V0.000289917H2H1278H1280V2.00029V63V65H1278H1272L1269 68H12.5L9.5 65ZM10.9142 65H1270.59L1268.59 67H12.9142L10.9142 65ZM2 63H1278V2.00029H2V63Z" fill="#E3C17D"/>
<path d="M651 64L640 75L629 64V63H651V64Z" fill="#020B14" fill-opacity="0.95"/>
<path d="M654 64H651L640 75L629 64H626" stroke="#E3C17D" stroke-width="2"/>
<path d="M632 67.5H636.5L640 71L643.5 67.5H648" stroke="#E3C17D"/>
<path d="M412.47 39.2017C412.47 42.7969 410.891 43.1665 410.656 43.2001H426.011L427.086 36.9505C425.843 39.2353 424.734 40.1089 421.845 40.1089H417.275V33.4225H421.038C423.39 33.4225 423.625 34.4305 423.659 34.5313V29.2225C423.592 29.4241 423.222 30.3649 420.971 30.3649H417.275V23.8801H421.509C424.331 23.8801 425.137 25.2913 425.608 26.8033V20.8225H410.387C410.723 20.8897 412.47 21.3265 412.47 24.5857V39.2017Z" fill="url(#paint0_linear_289_13765)"/>
<path d="M417.1 40.1089V40.2839H417.275H421.845C423.305 40.2839 424.343 40.0635 425.177 39.5342C425.792 39.1435 426.284 38.5922 426.751 37.8659L425.863 43.0251H411.418C411.54 42.9274 411.666 42.8027 411.789 42.6439C412.245 42.057 412.645 41.0231 412.645 39.2017V24.5857C412.645 22.9241 412.199 21.9541 411.684 21.3892C411.534 21.2252 411.381 21.0974 411.234 20.9975H425.433V25.8498C425.223 25.4059 424.948 24.9895 424.556 24.6436C423.903 24.0661 422.95 23.7051 421.509 23.7051H417.275H417.1V23.8801V30.3649V30.5399H417.275H420.971C422.12 30.5399 422.813 30.2999 423.232 30.0139C423.332 29.9464 423.415 29.8769 423.484 29.8086V33.9348C423.437 33.8894 423.383 33.8436 423.322 33.7985C422.925 33.5044 422.238 33.2475 421.038 33.2475H417.275H417.1V33.4225V40.1089Z" stroke="url(#paint1_linear_289_13765)" stroke-opacity="0.75" stroke-width="0.35" style="mix-blend-mode:screen"/>
<path d="M438.982 43.2001H442.409L449.532 25.0561C451.044 21.1921 452.523 20.8561 452.724 20.8225H444.963C445.231 20.8561 446.374 21.0913 446.374 22.4353C446.374 22.8385 446.206 23.3425 445.971 24.0481L441.435 36.0433L436.731 24.1825C436.395 23.3761 436.159 22.8049 436.159 22.3345C436.159 21.0577 437.302 20.8561 437.537 20.8225H428.499C428.767 20.8897 430.246 21.3265 431.691 24.9217L438.982 43.2001Z" fill="url(#paint2_linear_289_13765)"/>
<path d="M429.261 20.9975H436.619C436.278 21.2451 435.984 21.6606 435.984 22.3345C435.984 22.5973 436.05 22.8784 436.153 23.1878C436.256 23.4972 436.401 23.8474 436.568 24.2484L441.272 36.1078L441.438 36.5278L441.598 36.1052L446.134 24.11L446.134 24.1101L446.137 24.1034L446.147 24.0714C446.373 23.3937 446.549 22.8671 446.549 22.4353C446.549 21.7057 446.235 21.2598 445.874 20.9975H451.947C451.299 21.4579 450.336 22.5222 449.369 24.9922L429.261 20.9975ZM429.261 20.9975C429.416 21.1039 429.589 21.2426 429.775 21.4236C430.381 22.0119 431.124 23.0426 431.853 24.8565L431.853 24.8569L439.1 43.0251H442.29L449.369 24.9923L429.261 20.9975Z" stroke="url(#paint3_linear_289_13765)" stroke-opacity="0.75" stroke-width="0.35" style="mix-blend-mode:screen"/>
<path d="M455.87 39.2017C455.87 42.7969 454.291 43.1665 454.056 43.2001H469.411L470.486 36.9505C469.243 39.2353 468.134 40.1089 465.244 40.1089H460.675V33.4225H464.438C466.79 33.4225 467.025 34.4305 467.059 34.5313V29.2225C466.992 29.4241 466.622 30.3649 464.371 30.3649H460.675V23.8801H464.908C467.731 23.8801 468.537 25.2913 469.008 26.8033V20.8225H453.787C454.123 20.8897 455.87 21.3265 455.87 24.5857V39.2017Z" fill="url(#paint4_linear_289_13765)"/>
<path d="M460.5 40.1089V40.2839H460.675H465.244C466.705 40.2839 467.743 40.0635 468.576 39.5342C469.192 39.1435 469.683 38.5922 470.151 37.8659L469.263 43.0251H454.818C454.939 42.9274 455.066 42.8027 455.189 42.6439C455.645 42.057 456.045 41.0231 456.045 39.2017V24.5857C456.045 22.9241 455.599 21.9541 455.084 21.3892C454.934 21.2252 454.781 21.0974 454.633 20.9975H468.833V25.8498C468.623 25.4059 468.347 24.9895 467.956 24.6436C467.302 24.0661 466.35 23.7051 464.908 23.7051H460.675H460.5V23.8801V30.3649V30.5399H460.675H464.371C465.52 30.5399 466.213 30.2999 466.632 30.0139C466.732 29.9464 466.814 29.8769 466.884 29.8086V33.9348C466.837 33.8894 466.783 33.8436 466.722 33.7985C466.325 33.5044 465.637 33.2475 464.438 33.2475H460.675H460.5V33.4225V40.1089Z" stroke="url(#paint5_linear_289_13765)" stroke-opacity="0.75" stroke-width="0.35" style="mix-blend-mode:screen"/>
<path d="M476.128 39.4705C476.128 42.8641 474.582 43.1665 474.347 43.2001H482.445C482.176 43.1665 480.731 42.7633 480.731 39.4705V34.3969H481.202C482.075 34.3969 482.613 34.8001 483.419 36.3121L487.149 43.2001H493.97C493.634 43.1665 492.323 42.8977 491.046 40.6801L488.056 35.5057C487.552 34.5985 486.947 33.8929 486.376 33.5569C489.87 33.0865 491.853 30.4321 491.853 27.3745C491.853 24.0481 489.198 20.8225 483.923 20.8225H474.078C474.347 20.8897 476.128 21.3265 476.128 24.7201V39.4705ZM480.698 31.3729V23.8801H483.016C485.704 23.8801 487.048 25.6273 487.048 27.5089C487.048 29.4913 485.906 31.3729 483.05 31.3729H480.698Z" fill="url(#paint6_linear_289_13765)"/>
<path d="M475.138 43.0251C475.245 42.9409 475.354 42.8364 475.461 42.7067C475.911 42.1609 476.303 41.192 476.303 39.4705V24.7201C476.303 22.9921 475.849 21.9895 475.335 21.408C475.182 21.2348 475.025 21.101 474.877 20.9975H483.923C486.524 20.9975 488.462 21.7921 489.747 22.9797C491.033 24.1676 491.678 25.7585 491.678 27.3745C491.678 30.3499 489.755 32.9255 486.353 33.3835L485.851 33.451L486.287 33.7077C486.82 34.0212 487.406 34.6961 487.903 35.5907L487.903 35.5907L487.904 35.5933L490.895 40.7674L475.138 43.0251ZM475.138 43.0251H481.693M475.138 43.0251H481.693M481.693 43.0251C481.579 42.9311 481.462 42.8127 481.348 42.6638C480.922 42.1068 480.556 41.1408 480.556 39.4705V34.3969V34.2219H480.731H481.202C481.672 34.2219 482.067 34.3326 482.448 34.6536C482.819 34.9659 483.168 35.4696 483.573 36.2293C483.573 36.2295 483.574 36.2296 483.574 36.2298L487.253 43.0251H492.959C492.373 42.6893 491.625 42.0364 490.895 40.7677L481.693 43.0251ZM480.523 31.3729V31.5479H480.698H483.05C484.519 31.5479 485.569 31.0624 486.25 30.301C486.928 29.5431 487.223 28.5318 487.223 27.5089C487.223 26.5266 486.872 25.5733 486.164 24.8652C485.454 24.1557 484.399 23.7051 483.016 23.7051H480.698H480.523V23.8801V31.3729Z" stroke="url(#paint7_linear_289_13765)" stroke-opacity="0.75" stroke-width="0.35" style="mix-blend-mode:screen"/>
<path d="M502.999 39.4369C502.999 42.8641 501.487 43.1665 501.252 43.2001H509.551C509.282 43.1665 507.871 42.7633 507.871 39.4369V33.7921L513.247 24.7537C515.33 21.1921 516.574 20.8561 516.674 20.8225H509.383C509.585 20.8561 510.324 21.0913 510.324 22.0993C510.324 22.7377 509.954 23.6449 509.114 25.1233L506.258 30.0625L503.066 24.5185C502.428 23.4097 502.193 22.6705 502.193 22.1329C502.193 21.0241 503.033 20.8561 503.234 20.8225H494.196C494.431 20.8897 495.775 21.2929 497.724 24.6865L502.999 33.9601V39.4369Z" fill="url(#paint8_linear_289_13765)"/>
<path d="M508.812 43.0251H502.03C502.136 42.9396 502.244 42.8331 502.35 42.7006C502.791 42.1507 503.174 41.1741 503.174 39.4369V33.9601V33.9138L503.151 33.8736L497.876 24.6L497.876 24.5994C496.611 22.3965 495.59 21.4292 494.945 20.9975H502.458C502.212 21.2224 502.018 21.5796 502.018 22.1329C502.018 22.7175 502.272 23.4896 502.915 24.6058L506.107 30.1498L506.258 30.4127L506.41 30.1501L509.266 25.2109L509.267 25.2098C509.688 24.4678 509.995 23.8636 510.197 23.3615C510.398 22.8607 510.499 22.4505 510.499 22.0993C510.499 21.5724 510.313 21.2221 510.081 20.9975H515.996C515.876 21.0857 515.739 21.1965 515.586 21.3359C514.986 21.8845 514.144 22.8741 513.097 24.6648C513.096 24.665 513.096 24.6652 513.096 24.6654L507.721 33.7026L507.696 33.744V33.7921V39.4369C507.696 41.1228 508.054 42.0966 508.47 42.6576C508.583 42.8094 508.699 42.9298 508.812 43.0251Z" stroke="url(#paint9_linear_289_13765)" stroke-opacity="0.75" stroke-width="0.35" style="mix-blend-mode:screen"/>
<path d="M525.74 39.4369C525.74 42.8305 524.329 43.1665 524.026 43.2001H532.359C532.023 43.1665 530.646 42.7297 530.646 39.4369V23.8801H534.106C536.929 23.8801 537.634 25.3249 538.273 26.9041L537.769 20.8225H518.65C518.482 22.8721 518.314 24.8881 518.113 26.9041C518.818 25.3585 519.39 23.8801 521.674 23.8801H525.74V39.4369Z" fill="url(#paint10_linear_289_13765)"/>
<path d="M530.646 23.7051H530.471V23.8801V39.4369C530.471 41.1055 530.819 42.0791 531.235 42.6444C531.351 42.8021 531.472 42.9267 531.59 43.0251H524.812C524.92 42.9359 525.029 42.8243 525.136 42.6846C525.558 42.1306 525.915 41.1551 525.915 39.4369V23.8801V23.7051H525.74H521.674C520.487 23.7051 519.725 24.0925 519.172 24.6942C518.853 25.0424 518.606 25.4605 518.386 25.9018C518.54 24.276 518.676 22.6469 518.812 20.9975H537.608L538.013 25.8874C537.784 25.4393 537.507 25.0195 537.127 24.6709C536.478 24.0756 535.55 23.7051 534.106 23.7051H530.646Z" stroke="url(#paint11_linear_289_13765)" stroke-opacity="0.75" stroke-width="0.35" style="mix-blend-mode:screen"/>
<path d="M540.236 39.4369C540.236 42.8641 538.691 43.1665 538.456 43.2001H546.788C546.52 43.1665 545.075 42.7969 545.075 39.4369V33.4225H554.718V39.4369C554.718 42.8641 553.172 43.1665 552.937 43.2001H561.27C561.001 43.1665 559.556 42.7633 559.556 39.4369V24.5857C559.556 21.1921 561.035 20.8561 561.27 20.8225H552.937C553.24 20.8897 554.718 21.2929 554.718 24.5857V30.3649H545.075V24.5857C545.075 21.2257 546.553 20.8561 546.788 20.8225H538.456C538.758 20.8897 540.236 21.3265 540.236 24.5857V39.4369Z" fill="url(#paint12_linear_289_13765)"/>
<path d="M545.075 33.2475H544.9V33.4225V39.4369C544.9 41.1399 545.266 42.1147 545.692 42.6722C545.803 42.8174 545.917 42.9331 546.028 43.0251H539.244C539.351 42.9399 539.462 42.8339 539.57 42.7019C540.02 42.152 540.411 41.1749 540.411 39.4369V24.5857C540.411 22.9308 540.036 21.9647 539.598 21.3998C539.466 21.2308 539.331 21.0995 539.201 20.9975H546.043C545.932 21.0893 545.817 21.2047 545.705 21.3497C545.275 21.9069 544.9 22.8818 544.9 24.5857V30.3649V30.5399H545.075H554.718H554.893V30.3649V24.5857C554.893 22.9145 554.518 21.9479 554.079 21.3867C553.951 21.2236 553.82 21.0966 553.693 20.9975H560.514C560.406 21.0863 560.295 21.1975 560.187 21.3366C559.756 21.8901 559.381 22.8656 559.381 24.5857V39.4369C559.381 41.1236 559.748 42.0979 560.173 42.659C560.287 42.8102 560.405 42.9301 560.52 43.0251H553.726C553.833 42.9399 553.943 42.8339 554.051 42.7019C554.501 42.152 554.893 41.1749 554.893 39.4369V33.4225V33.2475H554.718H545.075Z" stroke="url(#paint13_linear_289_13765)" stroke-opacity="0.75" stroke-width="0.35" style="mix-blend-mode:screen"/>
<path d="M569.207 39.7393C569.207 42.8641 567.695 43.1665 567.46 43.2001H575.692C575.423 43.1665 573.978 42.7633 573.978 39.7393V24.4513C573.978 21.1921 575.557 20.8561 575.725 20.8225H567.46C567.695 20.8897 569.207 21.2929 569.207 24.4513V39.7393Z" fill="url(#paint14_linear_289_13765)"/>
<path d="M574.979 20.9975C574.873 21.0816 574.763 21.1857 574.655 21.3148C574.205 21.8509 573.803 22.7941 573.803 24.4513V39.7393C573.803 41.2784 574.171 42.1787 574.599 42.7019C574.706 42.8329 574.816 42.9392 574.923 43.0251H568.259C568.357 42.949 568.456 42.8563 568.554 42.7435C568.997 42.2316 569.382 41.3289 569.382 39.7393V24.4513C569.382 22.8446 568.997 21.9114 568.558 21.3677C568.433 21.2136 568.306 21.0926 568.184 20.9975H574.979Z" stroke="url(#paint15_linear_289_13765)" stroke-opacity="0.75" stroke-width="0.35" style="mix-blend-mode:screen"/>
<path d="M584.668 39.5377C584.668 42.8641 583.189 43.1665 582.954 43.2001H590.413C590.077 43.1665 588.397 42.7633 588.397 39.5377V28.1473L595.89 37.2865C598.645 40.6465 599.485 43.2001 599.485 43.2001H602.98V24.5185C602.98 21.1921 604.492 20.8561 604.727 20.8225H597.436C597.738 20.8897 599.284 21.2929 599.284 24.5185V34.0273L588.733 20.8225H581.61C581.845 20.9233 584.668 22.2001 584.668 24.7873V39.5377Z" fill="url(#paint16_linear_289_13765)"/>
<path d="M583.728 43.0251C583.829 42.9423 583.934 42.84 584.035 42.7135C584.468 42.1762 584.843 41.2248 584.843 39.5377V24.7873C584.843 23.4244 584.098 22.4147 583.344 21.7419C582.985 21.4225 582.62 21.1751 582.323 20.9975H588.649L599.147 34.1365L599.459 34.5267V34.0273V24.5185C599.459 22.8784 599.066 21.9273 598.608 21.3745C598.478 21.2173 598.344 21.0941 598.215 20.9975H603.956C603.848 21.084 603.737 21.1917 603.629 21.3257C603.188 21.8709 602.805 22.8304 602.805 24.5185V43.0251H599.609C599.608 43.0244 599.608 43.0237 599.608 43.0229C599.579 42.9444 599.534 42.8294 599.473 42.6812C599.349 42.3849 599.156 41.9561 598.876 41.4221C598.317 40.3542 597.411 38.8656 596.025 37.1756L588.533 28.0364L588.222 27.6578V28.1473V39.5377C588.222 41.1809 588.651 42.1347 589.15 42.6836C589.277 42.8233 589.407 42.9353 589.534 43.0251H583.728Z" stroke="url(#paint17_linear_289_13765)" stroke-opacity="0.75" stroke-width="0.35" style="mix-blend-mode:screen"/>
<path d="M619.194 39.9072C618.488 40.1424 617.682 40.344 616.674 40.344C612.541 40.344 609.55 36.8832 609.55 31.944C609.55 27.0048 612.574 23.6448 616.808 23.6448C620.504 23.6448 622.654 25.6272 623.629 27.4752V21.6624C622.789 21.2256 620.571 20.3184 617.144 20.3184C608.677 20.3184 604.477 26.4 604.477 32.5488C604.477 38.2608 608.307 43.7376 615.834 43.7376C618.421 43.7376 621.613 43.3008 623.83 42.3936V36.2448C623.83 33.5232 625.443 33.1536 625.678 33.12H617.245C617.48 33.1536 619.194 33.5568 619.194 36.3456V39.9072Z" fill="url(#paint18_linear_289_13765)"/>
<path d="M619.249 40.0732L619.369 40.0333V39.9072V36.3456C619.369 34.9124 618.927 34.0669 618.431 33.5752C618.318 33.4637 618.204 33.3713 618.092 33.295H624.843C624.744 33.3656 624.642 33.4502 624.542 33.5512C624.071 34.0269 623.655 34.8471 623.655 36.2448V42.2754C621.471 43.1414 618.365 43.5626 615.834 43.5626C612.116 43.5626 609.325 42.2115 607.462 40.1673C605.597 38.1203 604.652 35.3669 604.652 32.5488C604.652 29.513 605.689 26.4993 607.764 24.2463C609.837 21.9961 612.955 20.4934 617.144 20.4934C620.417 20.4934 622.57 21.3283 623.454 21.7696V26.8331C622.335 25.1178 620.207 23.4698 616.808 23.4698C614.642 23.4698 612.78 24.3305 611.46 25.8264C610.143 27.3208 609.375 29.439 609.375 31.944C609.375 36.9526 612.419 40.519 616.674 40.519C617.707 40.519 618.533 40.312 619.249 40.0732Z" stroke="url(#paint19_linear_289_13765)" stroke-opacity="0.75" stroke-width="0.35" style="mix-blend-mode:screen"/>
<path d="M640.607 39.7393C640.607 42.8641 639.095 43.1665 638.86 43.2001H647.092C646.823 43.1665 645.378 42.7633 645.378 39.7393V24.4513C645.378 21.1921 646.957 20.8561 647.125 20.8225H638.86C639.095 20.8897 640.607 21.2929 640.607 24.4513V39.7393Z" fill="url(#paint20_linear_289_13765)"/>
<path d="M646.379 20.9975C646.273 21.0816 646.163 21.1857 646.055 21.3148C645.605 21.8509 645.203 22.7941 645.203 24.4513V39.7393C645.203 41.2784 645.571 42.1787 645.999 42.7019C646.106 42.8329 646.216 42.9392 646.323 43.0251H639.659C639.756 42.949 639.856 42.8563 639.954 42.7435C640.397 42.2316 640.782 41.3289 640.782 39.7393V24.4513C640.782 22.8446 640.397 21.9114 639.958 21.3677C639.833 21.2136 639.705 21.0926 639.584 20.9975H646.379Z" stroke="url(#paint21_linear_289_13765)" stroke-opacity="0.75" stroke-width="0.35" style="mix-blend-mode:screen"/>
<path d="M648.773 42.0239C650.386 43.0319 652.906 43.7039 655.392 43.7039C660.231 43.7039 663.893 41.3519 663.893 36.9839C663.893 32.8847 660.6 31.2047 657.61 29.8607C655.291 28.7855 653.275 27.8783 653.275 26.0639C653.275 24.6863 654.351 23.6111 656.602 23.6111C659.256 23.6111 661.541 25.5599 662.415 27.2063V21.8639C661.205 21.0239 659.055 20.3519 656.904 20.3519C652.469 20.3519 648.874 22.6367 648.874 27.0383C648.874 30.1631 651.091 31.7759 653.41 32.9855C656.232 34.4639 659.29 35.4383 659.29 37.8239C659.29 39.4367 657.576 40.3775 655.527 40.3775C652.872 40.3775 650.419 39.2351 648.773 35.6735V42.0239Z" fill="url(#paint22_linear_289_13765)"/>
<path d="M657.536 30.0195L657.538 30.0203C659.034 30.6929 660.581 31.439 661.754 32.518C662.92 33.5899 663.718 34.9898 663.718 36.9839C663.718 39.1126 662.828 40.7407 661.352 41.8417C659.87 42.9469 657.786 43.5289 655.392 43.5289C652.974 43.5289 650.531 42.8855 648.948 41.9262V36.4169C649.721 37.8556 650.646 38.8538 651.678 39.5089C652.863 40.2611 654.174 40.5525 655.527 40.5525C656.575 40.5525 657.551 40.3123 658.271 39.8531C658.995 39.3912 659.465 38.7022 659.465 37.8239C659.465 36.5403 658.636 35.6545 657.504 34.9178C656.936 34.5485 656.281 34.2097 655.596 33.8727C655.392 33.7721 655.185 33.6718 654.977 33.5708C654.485 33.332 653.985 33.0893 653.491 32.8305L653.491 32.8304C651.179 31.6243 649.049 30.0556 649.049 27.0383C649.049 24.891 649.923 23.2709 651.333 22.1831C652.748 21.0913 654.714 20.5269 656.904 20.5269C658.981 20.5269 661.051 21.1639 662.24 21.9565V26.5833C661.769 25.8979 661.092 25.2061 660.275 24.6469C659.241 23.9389 657.972 23.4361 656.602 23.4361C655.45 23.4361 654.576 23.7109 653.985 24.1844C653.39 24.661 653.1 25.326 653.1 26.0639C653.1 27.0493 653.653 27.7755 654.469 28.3802C655.254 28.9616 656.311 29.4517 657.423 29.9672C657.461 29.9846 657.498 30.002 657.536 30.0195Z" stroke="url(#paint23_linear_289_13765)" stroke-opacity="0.75" stroke-width="0.35" style="mix-blend-mode:screen"/>
<path d="M821.14 39.4369C821.14 42.8305 819.729 43.1665 819.426 43.2001H827.759C827.423 43.1665 826.045 42.7297 826.045 39.4369V23.8801H829.506C832.329 23.8801 833.034 25.3249 833.673 26.9041L833.169 20.8225H814.05C813.882 22.8721 813.714 24.8881 813.513 26.9041C814.218 25.3585 814.789 23.8801 817.074 23.8801H821.14V39.4369Z" fill="url(#paint24_linear_289_13765)"/>
<path d="M826.045 23.7051H825.87V23.8801V39.4369C825.87 41.1055 826.219 42.0791 826.635 42.6444C826.751 42.8021 826.872 42.9267 826.99 43.0251H820.212C820.32 42.9359 820.429 42.8243 820.536 42.6846C820.958 42.1306 821.315 41.1551 821.315 39.4369V23.8801V23.7051H821.14H817.074C815.887 23.7051 815.125 24.0925 814.572 24.6942C814.253 25.0424 814.006 25.4605 813.786 25.9018C813.94 24.276 814.076 22.6469 814.212 20.9975H833.008L833.413 25.8874C833.184 25.4393 832.907 25.0195 832.527 24.6709C831.878 24.0756 830.949 23.7051 829.506 23.7051H826.045Z" stroke="url(#paint25_linear_289_13765)" stroke-opacity="0.75" stroke-width="0.35" style="mix-blend-mode:screen"/>
<path d="M857.618 39.0337C857.618 42.8305 856.039 43.1665 855.77 43.2001H865.548C873.914 43.2001 877.476 37.6561 877.476 31.7761C877.476 25.2913 872.974 20.8225 865.918 20.8225H855.535C855.871 20.8897 857.618 21.2929 857.618 24.5857V39.0337ZM862.457 40.1089V23.8801H864.775C869.95 23.8801 872.369 27.2401 872.369 32.0449C872.369 36.1441 870.286 40.1089 865.75 40.1089H862.457Z" fill="url(#paint26_linear_289_13765)"/>
<path d="M862.282 40.1089V40.2839H862.457H865.75C868.076 40.2839 869.783 39.2637 870.902 37.7167C872.017 36.1759 872.544 34.1211 872.544 32.0449C872.544 29.6155 871.932 27.5282 870.644 26.0459C869.353 24.5597 867.402 23.7051 864.775 23.7051H862.457H862.282V23.8801V40.1089ZM856.832 21.3761C856.686 21.2181 856.537 21.0944 856.394 20.9975H865.918C869.408 20.9975 872.252 22.1023 874.222 23.9937C876.191 25.8847 877.301 28.5755 877.301 31.7761C877.301 34.6823 876.421 37.493 874.52 39.5751C872.622 41.6542 869.69 43.0251 865.548 43.0251H856.558C856.682 42.9256 856.81 42.7979 856.934 42.6341C857.394 42.0297 857.793 40.9536 857.793 39.0337V24.5857C857.793 22.9079 857.348 21.9373 856.832 21.3761Z" stroke="url(#paint27_linear_289_13765)" stroke-opacity="0.75" stroke-width="0.35" style="mix-blend-mode:screen"/>
<path d="M726.768 39.5377C726.768 42.8641 725.289 43.1665 725.054 43.2001H732.513C732.177 43.1665 730.497 42.7633 730.497 39.5377V28.1473L737.99 37.2865C740.745 40.6465 741.585 43.2001 741.585 43.2001H745.08V24.5185C745.08 21.1921 746.592 20.8561 746.827 20.8225H739.536C739.838 20.8897 741.384 21.2929 741.384 24.5185V34.0273L730.833 20.8225H723.71C723.945 20.9233 726.768 22.2001 726.768 24.7873V39.5377Z" fill="url(#paint28_linear_289_13765)"/>
<path d="M725.828 43.0251C725.93 42.9423 726.034 42.84 726.136 42.7135C726.568 42.1762 726.943 41.2248 726.943 39.5377V24.7873C726.943 23.4244 726.198 22.4147 725.444 21.7419C725.085 21.4225 724.721 21.1751 724.423 20.9975H730.749L741.247 34.1365L741.559 34.5267V34.0273V24.5185C741.559 22.8784 741.166 21.9273 740.708 21.3745C740.578 21.2173 740.444 21.0941 740.315 20.9975H746.056C745.948 21.084 745.837 21.1917 745.729 21.3257C745.288 21.8709 744.905 22.8304 744.905 24.5185V43.0251H741.709C741.709 43.0244 741.708 43.0237 741.708 43.0229C741.679 42.9444 741.634 42.8294 741.573 42.6812C741.449 42.3849 741.256 41.9561 740.976 41.4221C740.417 40.3542 739.511 38.8656 738.126 37.1756L730.633 28.0364L730.322 27.6578V28.1473V39.5377C730.322 41.1809 730.751 42.1347 731.25 42.6836C731.377 42.8233 731.507 42.9353 731.634 43.0251H725.828Z" stroke="url(#paint29_linear_289_13765)" stroke-opacity="0.75" stroke-width="0.35" style="mix-blend-mode:screen"/>
<path d="M751.268 39.5377C751.268 42.8641 749.789 43.1665 749.554 43.2001H757.013C756.677 43.1665 754.997 42.7633 754.997 39.5377V28.1473L762.49 37.2865C765.245 40.6465 766.085 43.2001 766.085 43.2001H769.58V24.5185C769.58 21.1921 771.092 20.8561 771.327 20.8225H764.036C764.338 20.8897 765.884 21.2929 765.884 24.5185V34.0273L755.333 20.8225H748.21C748.445 20.9233 751.268 22.2001 751.268 24.7873V39.5377Z" fill="url(#paint30_linear_289_13765)"/>
<path d="M750.328 43.0251C750.43 42.9423 750.534 42.84 750.636 42.7135C751.068 42.1762 751.443 41.2248 751.443 39.5377V24.7873C751.443 23.4244 750.698 22.4147 749.944 21.7419C749.585 21.4225 749.221 21.1751 748.923 20.9975H755.249L765.747 34.1365L766.059 34.5267V34.0273V24.5185C766.059 22.8784 765.666 21.9273 765.208 21.3745C765.078 21.2173 764.944 21.0941 764.815 20.9975H770.556C770.448 21.084 770.337 21.1917 770.229 21.3257C769.788 21.8709 769.405 22.8304 769.405 24.5185V43.0251H766.209C766.209 43.0244 766.208 43.0237 766.208 43.0229C766.179 42.9444 766.134 42.8294 766.073 42.6812C765.949 42.3849 765.756 41.9561 765.476 41.4221C764.917 40.3542 764.011 38.8656 762.626 37.1756L755.133 28.0364L754.822 27.6578V28.1473V39.5377C754.822 41.1809 755.251 42.1347 755.75 42.6836C755.877 42.8233 756.007 42.9353 756.134 43.0251H750.328Z" stroke="url(#paint31_linear_289_13765)" stroke-opacity="0.75" stroke-width="0.35" style="mix-blend-mode:screen"/>
<path d="M838.07 39.2017C838.07 42.7969 836.491 43.1665 836.256 43.2001H851.611L852.686 36.9505C851.443 39.2353 850.334 40.1089 847.444 40.1089H842.875V33.4225H846.638C848.99 33.4225 849.225 34.4305 849.259 34.5313V29.2225C849.192 29.4241 848.822 30.3649 846.571 30.3649H842.875V23.8801H847.108C849.931 23.8801 850.737 25.2913 851.208 26.8033V20.8225H835.987C836.323 20.8897 838.07 21.3265 838.07 24.5857V39.2017Z" fill="url(#paint32_linear_289_13765)"/>
<path d="M842.7 40.1089V40.2839H842.875H847.444C848.905 40.2839 849.943 40.0635 850.776 39.5342C851.392 39.1435 851.883 38.5922 852.351 37.8659L851.463 43.0251H837.018C837.139 42.9274 837.266 42.8027 837.389 42.6439C837.845 42.057 838.245 41.0231 838.245 39.2017V24.5857C838.245 22.9241 837.799 21.9541 837.284 21.3892C837.134 21.2252 836.981 21.0974 836.833 20.9975H851.033V25.8498C850.823 25.4059 850.547 24.9895 850.156 24.6436C849.502 24.0661 848.55 23.7051 847.108 23.7051H842.875H842.7V23.8801V30.3649V30.5399H842.875H846.571C847.72 30.5399 848.413 30.2999 848.832 30.0139C848.931 29.9464 849.014 29.8769 849.084 29.8086V33.9348C849.037 33.8894 848.983 33.8436 848.922 33.7985C848.525 33.5044 847.837 33.2475 846.638 33.2475H842.875H842.7V33.4225V40.1089Z" stroke="url(#paint33_linear_289_13765)" stroke-opacity="0.75" stroke-width="0.35" style="mix-blend-mode:screen"/>
<path d="M775.07 39.2017C775.07 42.7969 773.491 43.1665 773.256 43.2001H788.611L789.686 36.9505C788.443 39.2353 787.334 40.1089 784.444 40.1089H779.875V33.4225H783.638C785.99 33.4225 786.225 34.4305 786.259 34.5313V29.2225C786.192 29.4241 785.822 30.3649 783.571 30.3649H779.875V23.8801H784.108C786.931 23.8801 787.737 25.2913 788.208 26.8033V20.8225H772.987C773.323 20.8897 775.07 21.3265 775.07 24.5857V39.2017Z" fill="url(#paint34_linear_289_13765)"/>
<path d="M779.7 40.1089V40.2839H779.875H784.444C785.905 40.2839 786.943 40.0635 787.776 39.5342C788.392 39.1435 788.883 38.5922 789.351 37.8659L788.463 43.0251H774.018C774.139 42.9274 774.266 42.8027 774.389 42.6439C774.845 42.057 775.245 41.0231 775.245 39.2017V24.5857C775.245 22.9241 774.799 21.9541 774.284 21.3892C774.134 21.2252 773.981 21.0974 773.833 20.9975H788.033V25.8498C787.823 25.4059 787.547 24.9895 787.156 24.6436C786.502 24.0661 785.55 23.7051 784.108 23.7051H779.875H779.7V23.8801V30.3649V30.5399H779.875H783.571C784.72 30.5399 785.413 30.2999 785.832 30.0139C785.931 29.9464 786.014 29.8769 786.084 29.8086V33.9348C786.037 33.8894 785.983 33.8436 785.922 33.7985C785.525 33.5044 784.837 33.2475 783.638 33.2475H779.875H779.7V33.4225V40.1089Z" stroke="url(#paint35_linear_289_13765)" stroke-opacity="0.75" stroke-width="0.35" style="mix-blend-mode:screen"/>
<path d="M711.615 43.704C718.704 43.704 723.24 38.2272 723.24 31.6752C723.24 25.3248 719.141 20.3184 712.388 20.3184C705.432 20.3184 700.661 25.6272 700.661 32.3472C700.661 38.664 704.828 43.704 711.615 43.704ZM712.388 40.2432C708.12 40.2432 705.567 36.6816 705.567 31.3056C705.567 26.4336 708.188 23.712 711.548 23.712C715.949 23.712 718.368 27.576 718.368 32.5824C718.368 37.3536 715.815 40.2432 712.388 40.2432Z" fill="url(#paint36_linear_289_13765)"/>
<path d="M723.065 31.6752C723.065 38.1439 718.595 43.529 711.615 43.529C708.267 43.529 705.576 42.2873 703.721 40.2757C701.865 38.2625 700.836 35.4674 700.836 32.3472C700.836 25.7155 705.537 20.4934 712.388 20.4934C715.718 20.4934 718.384 21.7266 720.217 23.7334C722.053 25.7421 723.065 28.5372 723.065 31.6752ZM705.392 31.3056C705.392 34.0188 706.036 36.2939 707.237 37.8954C708.442 39.5022 710.199 40.4182 712.388 40.4182C714.154 40.4182 715.699 39.6716 716.799 38.312C717.897 36.9551 718.543 34.998 718.543 32.5824C718.543 30.0536 717.933 27.7967 716.75 26.167C715.564 24.5317 713.807 23.537 711.548 23.537C709.817 23.537 708.272 24.2393 707.163 25.5697C706.055 26.8978 705.392 28.8392 705.392 31.3056Z" stroke="url(#paint37_linear_289_13765)" stroke-opacity="0.75" stroke-width="0.35" style="mix-blend-mode:screen"/>
<path d="M697.348 36.4968C695.668 38.6472 693.014 39.9576 690.628 39.9576C686.394 39.9576 683.74 36.3288 683.74 31.6248C683.74 26.988 686.462 23.46 690.527 23.46C693.686 23.46 695.87 25.2408 696.911 27.8616V21.4104C695.836 20.8392 693.82 20.1 690.897 20.1C682.799 20.1 678.7 26.1144 678.7 32.2632C678.7 38.0424 682.329 43.4856 690.023 43.4856C692.98 43.4856 695.769 42.1752 697.348 40.3608V36.4968Z" fill="url(#paint38_linear_289_13765)"/>
<path d="M690.628 40.1326C692.928 40.1326 695.457 38.9472 697.173 36.9831V40.2948C695.622 42.0431 692.906 43.3106 690.023 43.3106C686.22 43.3106 683.439 41.9672 681.606 39.9247C679.771 37.8791 678.875 35.1176 678.875 32.2632C678.875 29.2262 679.887 26.2287 681.892 23.9926C683.894 21.7595 686.895 20.275 690.897 20.275C693.707 20.275 695.663 20.9651 696.736 21.5164V27.0524C695.571 24.7836 693.456 23.285 690.527 23.285C686.333 23.285 683.565 26.9269 683.565 31.6248C683.565 34.0082 684.237 36.1322 685.46 37.6643C686.684 39.1997 688.456 40.1326 690.628 40.1326Z" stroke="url(#paint39_linear_289_13765)" stroke-opacity="0.75" stroke-width="0.35" style="mix-blend-mode:screen"/>
<path d="M810.748 36.4968C809.068 38.6472 806.414 39.9576 804.028 39.9576C799.794 39.9576 797.14 36.3288 797.14 31.6248C797.14 26.988 799.862 23.46 803.927 23.46C807.086 23.46 809.27 25.2408 810.311 27.8616V21.4104C809.236 20.8392 807.22 20.1 804.297 20.1C796.199 20.1 792.1 26.1144 792.1 32.2632C792.1 38.0424 795.729 43.4856 803.423 43.4856C806.38 43.4856 809.169 42.1752 810.748 40.3608V36.4968Z" fill="url(#paint40_linear_289_13765)"/>
<path d="M804.028 40.1326C806.328 40.1326 808.857 38.9472 810.573 36.9831V40.2948C809.022 42.0431 806.306 43.3106 803.423 43.3106C799.621 43.3106 796.839 41.9672 795.007 39.9247C793.171 37.8791 792.275 35.1176 792.275 32.2632C792.275 29.2262 793.288 26.2287 795.292 23.9926C797.294 21.7595 800.295 20.275 804.297 20.275C807.107 20.275 809.063 20.9651 810.136 21.5164V27.0524C808.971 24.7836 806.856 23.285 803.927 23.285C799.733 23.285 796.965 26.9269 796.965 31.6248C796.965 34.0082 797.637 36.1322 798.86 37.6643C800.085 39.1997 801.856 40.1326 804.028 40.1326Z" stroke="url(#paint41_linear_289_13765)" stroke-opacity="0.75" stroke-width="0.35" style="mix-blend-mode:screen"/>
<defs>
<linearGradient id="paint0_linear_289_13765" x1="418.65" y1="9.60012" x2="418.65" y2="52.3001" gradientUnits="userSpaceOnUse">
<stop stop-color="#CAB37D"/>
<stop offset="1" stop-color="#6B5830"/>
</linearGradient>
<linearGradient id="paint1_linear_289_13765" x1="418.65" y1="9.60012" x2="418.65" y2="52.3001" gradientUnits="userSpaceOnUse">
<stop stop-color="#CAB37D"/>
<stop offset="1" stop-color="#6B5830" stop-opacity="0"/>
</linearGradient>
<linearGradient id="paint2_linear_289_13765" x1="440.7" y1="9.60012" x2="440.7" y2="52.3001" gradientUnits="userSpaceOnUse">
<stop stop-color="#CAB37D"/>
<stop offset="1" stop-color="#6B5830"/>
</linearGradient>
<linearGradient id="paint3_linear_289_13765" x1="440.7" y1="9.60012" x2="440.7" y2="52.3001" gradientUnits="userSpaceOnUse">
<stop stop-color="#CAB37D"/>
<stop offset="1" stop-color="#6B5830" stop-opacity="0"/>
</linearGradient>
<linearGradient id="paint4_linear_289_13765" x1="462.05" y1="9.60012" x2="462.05" y2="52.3001" gradientUnits="userSpaceOnUse">
<stop stop-color="#CAB37D"/>
<stop offset="1" stop-color="#6B5830"/>
</linearGradient>
<linearGradient id="paint5_linear_289_13765" x1="462.05" y1="9.60012" x2="462.05" y2="52.3001" gradientUnits="userSpaceOnUse">
<stop stop-color="#CAB37D"/>
<stop offset="1" stop-color="#6B5830" stop-opacity="0"/>
</linearGradient>
<linearGradient id="paint6_linear_289_13765" x1="483.75" y1="9.60012" x2="483.75" y2="52.3001" gradientUnits="userSpaceOnUse">
<stop stop-color="#CAB37D"/>
<stop offset="1" stop-color="#6B5830"/>
</linearGradient>
<linearGradient id="paint7_linear_289_13765" x1="483.75" y1="9.60012" x2="483.75" y2="52.3001" gradientUnits="userSpaceOnUse">
<stop stop-color="#CAB37D"/>
<stop offset="1" stop-color="#6B5830" stop-opacity="0"/>
</linearGradient>
<linearGradient id="paint8_linear_289_13765" x1="505.45" y1="9.60012" x2="505.45" y2="52.3001" gradientUnits="userSpaceOnUse">
<stop stop-color="#CAB37D"/>
<stop offset="1" stop-color="#6B5830"/>
</linearGradient>
<linearGradient id="paint9_linear_289_13765" x1="505.45" y1="9.60012" x2="505.45" y2="52.3001" gradientUnits="userSpaceOnUse">
<stop stop-color="#CAB37D"/>
<stop offset="1" stop-color="#6B5830" stop-opacity="0"/>
</linearGradient>
<linearGradient id="paint10_linear_289_13765" x1="528.2" y1="9.60012" x2="528.2" y2="52.3001" gradientUnits="userSpaceOnUse">
<stop stop-color="#CAB37D"/>
<stop offset="1" stop-color="#6B5830"/>
</linearGradient>
<linearGradient id="paint11_linear_289_13765" x1="528.2" y1="9.60012" x2="528.2" y2="52.3001" gradientUnits="userSpaceOnUse">
<stop stop-color="#CAB37D"/>
<stop offset="1" stop-color="#6B5830" stop-opacity="0"/>
</linearGradient>
<linearGradient id="paint12_linear_289_13765" x1="549.9" y1="9.60012" x2="549.9" y2="52.3001" gradientUnits="userSpaceOnUse">
<stop stop-color="#CAB37D"/>
<stop offset="1" stop-color="#6B5830"/>
</linearGradient>
<linearGradient id="paint13_linear_289_13765" x1="549.9" y1="9.60012" x2="549.9" y2="52.3001" gradientUnits="userSpaceOnUse">
<stop stop-color="#CAB37D"/>
<stop offset="1" stop-color="#6B5830" stop-opacity="0"/>
</linearGradient>
<linearGradient id="paint14_linear_289_13765" x1="571.6" y1="9.60012" x2="571.6" y2="52.3001" gradientUnits="userSpaceOnUse">
<stop stop-color="#CAB37D"/>
<stop offset="1" stop-color="#6B5830"/>
</linearGradient>
<linearGradient id="paint15_linear_289_13765" x1="571.6" y1="9.60012" x2="571.6" y2="52.3001" gradientUnits="userSpaceOnUse">
<stop stop-color="#CAB37D"/>
<stop offset="1" stop-color="#6B5830" stop-opacity="0"/>
</linearGradient>
<linearGradient id="paint16_linear_289_13765" x1="593.65" y1="9.60012" x2="593.65" y2="52.3001" gradientUnits="userSpaceOnUse">
<stop stop-color="#CAB37D"/>
<stop offset="1" stop-color="#6B5830"/>
</linearGradient>
<linearGradient id="paint17_linear_289_13765" x1="593.65" y1="9.60012" x2="593.65" y2="52.3001" gradientUnits="userSpaceOnUse">
<stop stop-color="#CAB37D"/>
<stop offset="1" stop-color="#6B5830" stop-opacity="0"/>
</linearGradient>
<linearGradient id="paint18_linear_289_13765" x1="615" y1="9.59995" x2="615" y2="52.3" gradientUnits="userSpaceOnUse">
<stop stop-color="#CAB37D"/>
<stop offset="1" stop-color="#6B5830"/>
</linearGradient>
<linearGradient id="paint19_linear_289_13765" x1="615" y1="9.59995" x2="615" y2="52.3" gradientUnits="userSpaceOnUse">
<stop stop-color="#CAB37D"/>
<stop offset="1" stop-color="#6B5830" stop-opacity="0"/>
</linearGradient>
<linearGradient id="paint20_linear_289_13765" x1="643" y1="9.60012" x2="643" y2="52.3001" gradientUnits="userSpaceOnUse">
<stop stop-color="#CAB37D"/>
<stop offset="1" stop-color="#6B5830"/>
</linearGradient>
<linearGradient id="paint21_linear_289_13765" x1="643" y1="9.60012" x2="643" y2="52.3001" gradientUnits="userSpaceOnUse">
<stop stop-color="#CAB37D"/>
<stop offset="1" stop-color="#6B5830" stop-opacity="0"/>
</linearGradient>
<linearGradient id="paint22_linear_289_13765" x1="656.3" y1="9.59994" x2="656.3" y2="52.2999" gradientUnits="userSpaceOnUse">
<stop stop-color="#CAB37D"/>
<stop offset="1" stop-color="#6B5830"/>
</linearGradient>
<linearGradient id="paint23_linear_289_13765" x1="656.3" y1="9.59994" x2="656.3" y2="52.2999" gradientUnits="userSpaceOnUse">
<stop stop-color="#CAB37D"/>
<stop offset="1" stop-color="#6B5830" stop-opacity="0"/>
</linearGradient>
<linearGradient id="paint24_linear_289_13765" x1="823.6" y1="9.60012" x2="823.6" y2="52.3001" gradientUnits="userSpaceOnUse">
<stop stop-color="#CAB37D"/>
<stop offset="1" stop-color="#6B5830"/>
</linearGradient>
<linearGradient id="paint25_linear_289_13765" x1="823.6" y1="9.60012" x2="823.6" y2="52.3001" gradientUnits="userSpaceOnUse">
<stop stop-color="#CAB37D"/>
<stop offset="1" stop-color="#6B5830" stop-opacity="0"/>
</linearGradient>
<linearGradient id="paint26_linear_289_13765" x1="866.65" y1="9.60012" x2="866.65" y2="52.3001" gradientUnits="userSpaceOnUse">
<stop stop-color="#CAB37D"/>
<stop offset="1" stop-color="#6B5830"/>
</linearGradient>
<linearGradient id="paint27_linear_289_13765" x1="866.65" y1="9.60012" x2="866.65" y2="52.3001" gradientUnits="userSpaceOnUse">
<stop stop-color="#CAB37D"/>
<stop offset="1" stop-color="#6B5830" stop-opacity="0"/>
</linearGradient>
<linearGradient id="paint28_linear_289_13765" x1="735.75" y1="9.60012" x2="735.75" y2="52.3001" gradientUnits="userSpaceOnUse">
<stop stop-color="#CAB37D"/>
<stop offset="1" stop-color="#6B5830"/>
</linearGradient>
<linearGradient id="paint29_linear_289_13765" x1="735.75" y1="9.60012" x2="735.75" y2="52.3001" gradientUnits="userSpaceOnUse">
<stop stop-color="#CAB37D"/>
<stop offset="1" stop-color="#6B5830" stop-opacity="0"/>
</linearGradient>
<linearGradient id="paint30_linear_289_13765" x1="760.25" y1="9.60012" x2="760.25" y2="52.3001" gradientUnits="userSpaceOnUse">
<stop stop-color="#CAB37D"/>
<stop offset="1" stop-color="#6B5830"/>
</linearGradient>
<linearGradient id="paint31_linear_289_13765" x1="760.25" y1="9.60012" x2="760.25" y2="52.3001" gradientUnits="userSpaceOnUse">
<stop stop-color="#CAB37D"/>
<stop offset="1" stop-color="#6B5830" stop-opacity="0"/>
</linearGradient>
<linearGradient id="paint32_linear_289_13765" x1="844.25" y1="9.60012" x2="844.25" y2="52.3001" gradientUnits="userSpaceOnUse">
<stop stop-color="#CAB37D"/>
<stop offset="1" stop-color="#6B5830"/>
</linearGradient>
<linearGradient id="paint33_linear_289_13765" x1="844.25" y1="9.60012" x2="844.25" y2="52.3001" gradientUnits="userSpaceOnUse">
<stop stop-color="#CAB37D"/>
<stop offset="1" stop-color="#6B5830" stop-opacity="0"/>
</linearGradient>
<linearGradient id="paint34_linear_289_13765" x1="781.25" y1="9.60012" x2="781.25" y2="52.3001" gradientUnits="userSpaceOnUse">
<stop stop-color="#CAB37D"/>
<stop offset="1" stop-color="#6B5830"/>
</linearGradient>
<linearGradient id="paint35_linear_289_13765" x1="781.25" y1="9.60012" x2="781.25" y2="52.3001" gradientUnits="userSpaceOnUse">
<stop stop-color="#CAB37D"/>
<stop offset="1" stop-color="#6B5830" stop-opacity="0"/>
</linearGradient>
<linearGradient id="paint36_linear_289_13765" x1="711.95" y1="9.59995" x2="711.95" y2="52.3" gradientUnits="userSpaceOnUse">
<stop stop-color="#CAB37D"/>
<stop offset="1" stop-color="#6B5830"/>
</linearGradient>
<linearGradient id="paint37_linear_289_13765" x1="711.95" y1="9.59995" x2="711.95" y2="52.3" gradientUnits="userSpaceOnUse">
<stop stop-color="#CAB37D"/>
<stop offset="1" stop-color="#6B5830" stop-opacity="0"/>
</linearGradient>
<linearGradient id="paint38_linear_289_13765" x1="688.052" y1="9.38157" x2="688.052" y2="52.0816" gradientUnits="userSpaceOnUse">
<stop stop-color="#CAB37D"/>
<stop offset="1" stop-color="#6B5830"/>
</linearGradient>
<linearGradient id="paint39_linear_289_13765" x1="688.052" y1="9.38157" x2="688.052" y2="52.0816" gradientUnits="userSpaceOnUse">
<stop stop-color="#CAB37D"/>
<stop offset="1" stop-color="#6B5830" stop-opacity="0"/>
</linearGradient>
<linearGradient id="paint40_linear_289_13765" x1="801.452" y1="9.38157" x2="801.452" y2="52.0816" gradientUnits="userSpaceOnUse">
<stop stop-color="#CAB37D"/>
<stop offset="1" stop-color="#6B5830"/>
</linearGradient>
<linearGradient id="paint41_linear_289_13765" x1="801.452" y1="9.38157" x2="801.452" y2="52.0816" gradientUnits="userSpaceOnUse">
<stop stop-color="#CAB37D"/>
<stop offset="1" stop-color="#6B5830" stop-opacity="0"/>
</linearGradient>
</defs>
</svg>
