<svg width="278" height="68" viewBox="0 0 278 68" fill="none" xmlns="http://www.w3.org/2000/svg">
<g clip-path="url(#clip0_289_13541)">
<path fill-rule="evenodd" clip-rule="evenodd" d="M12.1871 4H242L272 34L242 64H12.1871C19.5158 56.1405 23.9999 45.5939 23.9999 34C23.9999 22.4061 19.5158 11.8595 12.1871 4Z" fill="#1E2328" fill-opacity="0.95"/>
<path d="M242 4L244.828 1.17157L243.657 0H242V4ZM12.1871 4V0H2.98817L9.26163 6.7279L12.1871 4ZM272 34L274.828 36.8284L277.657 34L274.828 31.1716L272 34ZM242 64V68H243.657L244.828 66.8284L242 64ZM12.1871 64L9.26163 61.2721L2.98817 68H12.1871V64ZM242 0H12.1871V8H242V0ZM274.828 31.1716L244.828 1.17157L239.172 6.82843L269.172 36.8284L274.828 31.1716ZM269.172 31.1716L239.172 61.1716L244.828 66.8284L274.828 36.8284L269.172 31.1716ZM12.1871 68H242V60H12.1871V68ZM19.9999 34C19.9999 44.542 15.9271 54.1238 9.26163 61.2721L15.1126 66.7279C23.1044 58.1572 27.9999 46.6459 27.9999 34H19.9999ZM9.26163 6.7279C15.9271 13.8762 19.9999 23.458 19.9999 34H27.9999C27.9999 21.3541 23.1044 9.84278 15.1126 1.2721L9.26163 6.7279Z" fill="black" fill-opacity="0.5"/>
<path d="M244 4L246.828 1.17157L245.657 0H244V4ZM12.1871 4V0H2.98817L9.26163 6.7279L12.1871 4ZM274 34L276.828 36.8284L279.657 34L276.828 31.1716L274 34ZM244 64V68H245.657L246.828 66.8284L244 64ZM12.1871 64L9.26163 61.2721L2.98817 68H12.1871V64ZM244 0H12.1871V8H244V0ZM276.828 31.1716L246.828 1.17157L241.172 6.82843L271.172 36.8284L276.828 31.1716ZM271.172 31.1716L241.172 61.1716L246.828 66.8284L276.828 36.8284L271.172 31.1716ZM12.1871 68H244V60H12.1871V68ZM19.9999 34C19.9999 44.542 15.9271 54.1238 9.26163 61.2721L15.1126 66.7279C23.1044 58.1572 27.9999 46.6459 27.9999 34H19.9999ZM9.26163 6.7279C15.9271 13.8762 19.9999 23.458 19.9999 34H27.9999C27.9999 21.3541 23.1044 9.84278 15.1126 1.2721L9.26163 6.7279Z" fill="black" fill-opacity="0.5"/>
<path d="M244 4L245.414 2.58579L244.828 2H244V4ZM12.1871 4V2H7.58765L10.7244 5.36395L12.1871 4ZM274 34L275.414 35.4142L276.828 34L275.414 32.5858L274 34ZM244 64V66H244.828L245.414 65.4142L244 64ZM12.1871 64L10.7244 62.6361L7.58765 66H12.1871V64ZM244 2H12.1871V6H244V2ZM275.414 32.5858L245.414 2.58579L242.586 5.41421L272.586 35.4142L275.414 32.5858ZM272.586 32.5858L242.586 62.5858L245.414 65.4142L275.414 35.4142L272.586 32.5858ZM12.1871 66H244V62H12.1871V66ZM21.9999 34C21.9999 45.0679 17.7214 55.1321 10.7244 62.6361L13.6499 65.3639C21.3101 57.1489 25.9999 46.1199 25.9999 34H21.9999ZM10.7244 5.36395C17.7214 12.8679 21.9999 22.9321 21.9999 34H25.9999C25.9999 21.8801 21.3101 10.8511 13.6499 2.63605L10.7244 5.36395Z" fill="url(#paint0_linear_289_13541)"/>
</g>
<defs>
<linearGradient id="paint0_linear_289_13541" x1="154.002" y1="2" x2="154.002" y2="66" gradientUnits="userSpaceOnUse">
<stop stop-color="#0593A7"/>
<stop offset="1" stop-color="#026F8F"/>
</linearGradient>
<clipPath id="clip0_289_13541">
<rect width="278" height="68" fill="white"/>
</clipPath>
</defs>
</svg>
