<svg width="1089" height="515" viewBox="0 0 1089 515" fill="none" xmlns="http://www.w3.org/2000/svg">
<line x1="1082" y1="0.999998" x2="6.00189" y2="3" stroke="#E3C17D" stroke-width="2"/>
<line x1="1082" y1="513" x2="6.00089" y2="514" stroke="#E3C17D" stroke-width="2"/>
<line y1="-1" x2="487" y2="-1" transform="matrix(0 -1 -1 0 0 501)" stroke="#E3C17D" stroke-width="2"/>
<line x1="1087" y1="500.998" x2="1088" y2="12.9979" stroke="#E3C17D" stroke-width="2"/>
<path d="M7 1C7 4.86599 3.86599 8 0 8" stroke="#E3C17D" stroke-width="2"/>
<path d="M0 14C5.40452 14 10.0388 10.702 12 6.0088" stroke="#E3C17D" stroke-width="2"/>
<path d="M1081 513C1081 509.134 1084.13 506 1088 506" stroke="#E3C17D" stroke-width="2"/>
<path d="M1088 500C1082.6 500 1077.96 503.298 1076 507.991" stroke="#E3C17D" stroke-width="2"/>
<path d="M1081 1C1081 4.86599 1084.13 8 1088 8" stroke="#E3C17D" stroke-width="2"/>
<path d="M1088 14C1082.6 14 1077.96 10.702 1076 6.0088" stroke="#E3C17D" stroke-width="2"/>
<path d="M7 513C7 509.134 3.86599 506 0 506" stroke="#E3C17D" stroke-width="2"/>
<path d="M0 500C5.40452 500 10.0388 503.298 12 507.991" stroke="#E3C17D" stroke-width="2"/>
</svg>
