<?xml version="1.0" encoding="UTF-8"?>
<svg version="1.1" viewBox="0 0 1600 895" width="1199" height="671" xmlns="http://www.w3.org/2000/svg">
<path transform="translate(0)" d="m0 0h1600v895h-1600z" fill="#072A3C"/>
<path transform="translate(828,471)" d="m0 0h39l49 2 30 3 26 4 21 4 30 6 14 4 25 7 36 12 14 6 9 4 13 5 16 7 32 16 19 10 10 6 11 6 4 4 7 4 20 12 32 24 15 12 13 10 8 7 5 5 17 16 5 5 9 8 7 8 14 14 9 11 10 11v2h2l10 14 6 8v2h2l9 13 10 13 8 12 13 22 9 15 13 24 6 12 9 21 4 10v3h-1278l1-7 5-11 4-10 3-8 8-16 13-23 8-14 7-12 9-13 16-24 12-15 8-11 7-8 11-13 10-13 8-9h2v-2h2v-2l8-7 6-7h2l2-4 10-10h2v-2l8-7 10-9 6-5h2l1-3 15-11 13-10 19-14 16-11 14-8 10-7 24-13 10-6 16-9 22-9 12-6 15-7 15-5 38-13 36-10 46-10 26-4 41-4z" fill="#5299D3"/>
<path transform="translate(945,564)" d="m0 0 12 1 12 3 1 3 14 2 13 3h4l-3-2 7 1 3 1v-2l7-3 9 1 14 3 5 1h16l2 1v2l5 1 10 4v2l10 3 9 4 2 2 18 5 8 4 7-1 12 3 11 5 16 7 16 8 17 8 12 6 4 3 7 3 12 6 8 5 5 3 5 2 24 16 11 9 3 2v2l4 2 15 14 14 14 7 6 7 8 4 4v2h2l7 8 14 15 8 11 13 16 12 17 10 14 11 18 9 16 5 10 4 6 3 7 5 12v4h-741l-2-3-1-7 6-17 4-16 3-3 4-2v-14l3-10 5-3 4-3 2 1v-3l12-2 1-2 6-2 1-5 8 1 9-1 7 2 2 2h12l1 3 3 1h13l4 2h4l-1-5 1-4h3l-3-3 1-1h12l3-1v2h20l4 2v2h2v2l10 1 4-2 6 1 10 10 1 7-2 1v9h2l2 5 3 6v2l2 1 6 8 1 3 4 2h5l4-8 1-10-3-7-3-13v-3l-2-1-2-9-2-1v-10l4-8 8-7 6-3v-2h5l6-8 9-2 5-4 6-2h6l1-2-2-1 7-3 1 1-1-6-2-9-3-1-1-2-2-18 2-1 2 9 2 3 1 7 6-9-1-5-2-4 7 1 4-5 4-9 6-2 12-1h17v-2h-5l-4-3v-8l4-6 24-6 3-2 10-2 10 1 5 1-2 2h-8l-7 4 1 5 3 2 5-1 5-5 16-3 5-1v-2l-13-1-11-4-8-6-3-5v-2l-7-1-3-3v-2l8 1 4-2-7-3-12-1-11 2-8 4-6 5-3-1 11-11 13-7h2l-2-2-5 1 1-5 3-2 2-1 5 2v3h2v-2l11-1 1 1 8 1 2-4-1-6 3-1-2-5 5 1 10-1 2-1-16-6-10-6v-2l-4-2-8-6-6-4-10-6-6-4-1 6-4 2h-9l-8-4-5-5v-4l-14-3-2-3-10-3-12-1-11-2v-2h5z" fill="#072A3C"/>
<path transform="translate(0)" d="m0 0h372v5l-6 10-4 4-5-1h-3l-3 1-1 5h-2l-1 3h-2l-2 4-5 5-8 10-6 4-1 2h-2l-1 4-8 7-1 3-3 3v8l-4 1v9l4 1 2 4h-5l3 6 2 1v2l-4 2v5h-2v14l2 5-1 2-3 1-1 3 4 1-9 25-3 23-1 5 1 3-6 12v8l-4 5v3l-2 7-6 4-5 6-5 2-2 5-13 9-4 2-2 4-8 6-6 5-6 8-6 1 2-3-9 3-7 3h-6l-8 2-1 3-12 2-16 4-12 4-6 1-1-1h-6l-8 3-15-1-4 4-6-2-16-1-1 2-1-1h-7l-2 2-8 3-6 7-6 4-5 6-11 9-5 5-6 7-3 6-5 5-5 4-7 1 2 4-4 5-3 1v-2l-4-2z" fill="#072A3C"/>
<path transform="translate(372)" d="m0 0h193l2 4 4 2-1 2-2-1 1 5-5 7-8 7h-2l-1 3h-4l-1 3h-2l-1 4-16 16-3 4h-2v2h-2l-2 4-8 4-2 5h-2v2h-3l-7 8-8 10h-2l-1 3h-2l-1 3-8 7h-2l-2 4-5 6-4 4h-2l-2 4-2 3-5 3-4 4h-2l-2 4-3 4-5 5-6 8-2 1v5h-2l-2 5-1 2-7 1 3 4h-3l-4-1-4 1-2 5-4 1v2h-2l-2 4-4 4-4 6-3 5 3-1 1 2-8 3-5-1h-14l-3 1-1 2 10 3 8 6 6 2 7 1 16 1 2 1v2l6 1 2 3v22h-6v-20l-4 1-1 19h-6l-1-9-3-5 1-9h-2v24h-6v-2l-3 2h-5l-3-2 1 4-4 2-7-1-1-2h-7l2 2-3 2-7-1-1-1v-6h-3l-1-4-3-1v-14l-3 1h-2l-4 8v6l-2 2-1-1h-8l-4 4h9l3 1-2 5-6-2h-6l-4 4 2 3-8 11-12 14-8 8-11 9-1 6h2v7l-4 8-9 4h-2v2h8l-4 5-6 2-7 4h-2l-1 4-9 2-3 1-1 3h-2l-2 6-4 3h-2l-1 4-8 5-4 4h-3v2l-4 4h-2l-1 4-4 3h-2l-1 3-5 4-5 6-5 3-3 4h-2v3l-4 3h-2l-1 4-6 7h-2l-1 4-5 2-1 4h-2v2l-4 4h-2l-1 3-5 1-1 3-5 5-7 9-7 4-4 4-5 4-1 2h-2l-2 4-5 5h-3l-1 4-5 3-6 9-5 4-5 6h-2l-2 4-5 4h-2v2h-2l-1 3-8 8h-2v2l-3 3h-2l-2 4-7 5-2 5h-2v3l-5 3-4 5-1 3-10 8-7-1-2-4-5-2-2-1v-194l4 2v2l5-5v-3l-2-4 6 1 7-4 4-2 5-10 6-7h2l2-4 10-9h2l2-4h2l2-4 6-4 5-6 9-4 1-1h7 2 16l6 2 4-4 15 1 8-3h6l5 1 7-3 26-7 9-1 3-3 9-2 6-1 11-5 4-1v2l-3 2 5-1 7-9 10-8 8-7 8-6 6-4 2-4 8-6 4-5 3-1 3-8v-3l3-4v-8l5-11-1-3 3-12 2-17 9-25-4-1 2-4h3l-1-5-1-7 1-9h2l-1-5 2-2h3v-2l-4-2-1-5 4-2-5-3-1-7 3-3h2l-1-8 8-10 5-4 1-3h2l2-4 5-3 5-7h2l2-5 5-4 4-5 2-2 1-3 4-3 7 2 4-4 5-10z" fill="#074159"/>
<path transform="translate(705,606)" d="m0 0h14v3l8 2h8l4-1h6l1 2 5 1v2l14 1v2l9 1 6 2 2 5 5 1v-3h5l6 5 1 4h2l3 4-2 4-2 1 2 4 2 9 5 2h2l1-5 3-5h2v-2l5 2 2 6 2 1 13 1 10-2 12 1 4 2 2 4-3 3-6 4-3 1v2l6-4 2 1-4 5-3 7-1 3v13l7-2 4-2 1-9v-6l4-7 15-5 9 3 1 1v6l-6 6 6-1v-2l5 1 3 6v2l5-2 2-8 1-1v-7l2 1v2l5 2 9 3 4 1 4-5 4-2h5l1-3h5l-1-1 4-1h2l1 2h12l14-4 3 1 5-1 11 1v3l5-3h2l2-5 5-4 8-3 14-1 9 2 5 3-1 2-7 1-5-2 5 5 5 1 6 9 9 5 7 2 11 1 2 1v2l-13 4-8 1-5 5-5 1-5-4 1-5 7-4h8l-7-2-11 1-7 2-8 3-17 4-3 5v8l3 2 5 1v2l-29 2-6 2-4 10-4 4-6-1 3 4-1 6-4 5-3 3-1-8-3-6-1-5 2 18 4 5 3 9v5l-3-1-5 2v4h-8l-8 5-7 2-4 2-5 7-5 2-10 6-6 8-1 3v10l5 11 4 16 3 7-1 10-4 8-1 1h-5l-5-5-5-6v-2l-2-1-4-6v-3l-2-1-1-2 1-2h-2l-1-9 2-2-2-7-8-8-6-1-6 2-6-1-2-1v-2h-2v-2l-4-1-20-1h-3-12l3 3-2 2v-2h-2l1 3v3l-1 4-6-1-3-1h-12l-4-4h-12l-4-3-6-1-12 1-4-1-1 4-3 2h-3l-1 3-12 1v3l-4 1-4 4h-3l-1 6-1 4v14l-7 5-6 23-4 10 1 8 1 2h-86l1-6-4-1v-11l-6-7-3-9-3-2v-4h-3v-7l-9-3-1-7 4-2v-5h-4v-3h-4l-2-4 1-6-4-1-3-5-1-6h-3v2h-2l1-4 1-1 1-17 2-3h-2l-1-2-8-2-3 12-3 1 2 6 1 2 5 1v4h-2v-3h-2v4h2l1 8 1 7 3 7v3h2l1 8v11l-2 8h3v-2l5 1 1 12-3 3-5 1-3-9-4-5-2-1v-3l-1 2-3-1 1-4-4-1 4-5 2-10-4-1-2-4-4-1v-2h-3l-5-9v-2l8 1 2-5 1-4-3-6-4-3 1-38-4-4v-3h-4l-1-2-7-1 1-4 3-5 1-12 2-4-2-1 2-6-2-2 3-6 2-7 1-3h5l-5 8h2l1-3 3-3v-5h5l5-1v4h-3l1 5 2 5h3v-5l-2-1v-3l3-1v-6l4-4h2v-5h3l2-7 4-2 1-4 5-2 2-5 5-5 4-3 7-2 3-5 10-7 3-3 7-2 7 3-1 11h-4l-4 8h2v3l3-2h11l1-2h6l1-3v2l4-1 5-7 2 2 4-1 1-4 4 2v-2l-3-2 3-16 4-1 1-7 5-3 1-3 11-8 11-2z" fill="#A4A282"/>
<path transform="translate(917,545)" d="m0 0 20 1 17 4 6 4v2l-4 3 1 4 13 4 5 2v2l8 1v1h-8l-5-2-1-2-12-3-12-1-1 2h-5v2l11 1 12 1 11 3 1 4 12 2 2 1 2 6 7 4 4 2h9l3-1 2-6 5 2 8 5 9 6 9 7 6 5 14 7 10 4-3 2-10 1-4-1 1 4-2 2 1 5-3 4h-8l-3-1h-9v2h-2v-3l-6-1-1 2-3 2v2l5-1 1 3-15 8-10 10 5-1-1 3-8 4v-3l-10-1-6 1-3-1-14 4h-11l-1-3h-2l-1 2-1 1h-6l-1 2-9 2-2 4-2 2-4-1-9-3-5-3-1-1v5l-2 3-2 7-5 1-4-8-4-1v2l-6 1 1-3 4-1v-8l-9-3-15 5-3 6v12l-3 5-4 2h-6l-1-5v-8l3-8 3-5h2l-1-2-4 3h-2v-2l9-6h2l-1-6-10-2-12 1-6 1-11-1-3-2-1-5-5-3v2h-2l-4 10-3 1-5-5-3-8v-4l3-2-2-6h-2l-7-8-5-1v3h-5l-2-6h-5l-1-1-9-1-1-2-13-2v-2h-6v-2h-8l-2 1h-8l-8-3-2-2h-12l-1 1-11 2-9 7h-2l-1 4-5 2-1 7-3 1-2 12-1 4 4 3-2 2-4-2-1 4-6 1-1-1-4 6-11 1-1 3h-11l-3 1v-3h-2l1-4 3-4h4l-1-5 2-6-9-2-6 3-6 5-7 5-2 4-9 3-5 4-4 7-5 3-1 3-3 2-3 7h-3l1 3-3 3h-2l-1 9-4 1v3l3 1-1 5-5-1-1-4-1-3 1-2h3v-4l-5 2-5-1 1 5-5 6h-2l2-5 1-2-3-1-2 10-3 6 2 4-2 4 1 4-1 3-1 10-5 9h7l1 3h4l1 3 4 4-1 31-1 7 4 2 2 2 2 7-4 7-8-1 4 8 1 3h3v2l5 1 2 4 3 1v7l-3 5-2 3 3 1 1 4 2-1v3l4 2 4 5 1 8 6-3 1-5-1-6-4-3v2h-3l1-9v-18h-2l-5-12v-13h-2v-4h2v3h2l-1-4-5-1-2-3v-5l2-1 3-12 2-1 8 3v2h2l-1 3-1 17-3 5h2v-2h3l4 10 4 2v6l1 4h4v3h4v5l-3 2v7l4 1 5 2v7h3l1 4 3 2 4 10 5 6v11l3 1-1 6h-305l2-6 9-16 13-23 10-15 5-7 3-6 8-11 9-13 2-3h2l2-5 10-13 7-8 9-11 10-10 7-8 9-10 8-7 6-7 9-7 2-3h2l2-4h2v-2l5-3 5-5 9-8 9-7 13-10 11-8 8-6 16-10 9-6 15-9 13-8 15-8 9-5 7-3 6-4 8-5 5-1v4l-1 2h-2v2h-2l-2 4-3 3-3 8-4 4v2l2 1 3 5 7 1 6-3 2-5 5-2v2l9-3v-2l6-2h4l-2 7h2l1 3 2-2 1 3-1 2 3-1 2-5v-5l2-1v3h2l2 4-1 2h4l2-7 1-7 8-7 10-3 4-2 9-2 12-5 13-1 6 2 2 5 7 2 1-4 2-1h7l2 1 1-4h3l1 1 1-3h-8l-5-2v-2l7-1 3 2v-2l8-2h5l1 3-1 4h8l7-3 8 1v2l9-1 7-2 3-4 7-1 10 4 7 3h5l2-2v-6l-9-1 2-4 5-5 10-5 15-3 6-3 16-2 4-3h2l1-3 16 1 4-2-1-5z" fill="#196FAC"/>
<path transform="translate(828,471)" d="m0 0h39l49 2 30 3 26 4 21 4 30 6 14 4 25 7 36 12 14 6 9 4 13 5 16 7 32 16 19 10 10 6 11 6 4 4 7 4 20 12 32 24 15 12 13 10 8 7 5 5 17 16 5 5 9 8 7 8 14 14 9 11 10 11v2h2l10 14 6 8v2h2l9 13 10 13 8 12 13 22 9 15 13 24 6 12 9 21 4 10v3h-24l-4-10-7-16-14-28-6-10-10-17-7-10-13-19-13-18-11-14-12-14-7-9-3-3v-2h-2l-8-10-2-1v-2h-2l-8-10-3-2v-2l-4-2-4-5-2-1v-2l-4-2-5-4-14-14-11-9-7-6-8-6v-2h-2v-2l-5-2-24-18-13-9-8-6-17-11-17-9-9-5-32-17-24-10-15-7-22-9-11-3-28-9-16-5-31-6-34-6-10-2-18-2-25-2-33-1h-24l-12 1-33 1-27 3-54 9-13 3-17 5-14 3-13 4-22 8-7 3-14 4-20 9-9 5-28 13-16 8-27 15-10 6-30 20-14 10-10 8-11 10-13 9-8 7-15 15-9 7-7 7-7 8-15 15-5 7-5 5-8 11h-2l-2 4h-2l-2 4-11 13-9 12-9 13-7 9-10 17-6 11-7 11-9 17-5 8-6 13-5 19-1 1h-59l1-7 5-11 4-10 3-8 8-16 13-23 8-14 7-12 9-13 16-24 12-15 8-11 7-8 11-13 10-13 8-9h2v-2h2v-2l8-7 6-7h2l2-4 10-10h2v-2l8-7 10-9 6-5h2l1-3 15-11 13-10 19-14 16-11 14-8 10-7 24-13 10-6 16-9 22-9 12-6 15-7 15-5 38-13 36-10 46-10 26-4 41-4z" fill="#196FAD"/>
<path transform="translate(1e3 707)" d="m0 0h21l2 5v4l8 5 1 2 6 3 4 8 3 13 4 6 3 12 3 6 3 10 1 7 4 9 2 12 3 11 1 16v9l1 14-2 31-3 5h-361l-2-3-1-7 6-17 4-16 3-3 4-2v-14l3-10 5-3 4-3 2 1v-3l12-2 1-2 6-2 1-5 8 1 9-1 7 2 2 2h12l1 3 3 1h13l4 2h4l-1-5 1-4h3l-3-3 1-1h12l3-1v2h20l4 2v2h2v2l10 1 4-2 6 1 10 10 1 7-2 1v9h2l2 5 3 6v2l2 1 6 8 1 3 4 2h5l4-8 1-10-3-7-3-13v-3l-2-1-2-9-2-1v-10l4-8 8-7 6-3v-2h5l6-8 9-2 5-4 6-2h6l1-2-2-1 7-3 1 1-1-6-2-9-3-1-1-2-2-18 2-1 2 9 2 3 1 7 6-9-1-5-2-4 7 1 4-5 4-9 6-2z" fill="#034F8E"/>
<path transform="translate(945,564)" d="m0 0 12 1 12 3 1 3 14 2 13 3 7 2 3 1v2l6 1v-2l2-1h10v2l18 2 28 7 4 2 10 1 4 1v2h2l2 2 4 2 9 4-1 5 5 4 2 2 16 7v2l12 6 15 7v2l12 4 16 9 8 4 10 7 9 5 3 3 3 2-3 1-6-2-5 2-6-1 1 2h-5l-3 1 2 2-10 1-4 1v2h-2l-3 12-3 8v11l4 2 2 17 2 9 5 12 6 12 3 13 2 12 4 11 2 5 2 15 4 13v10l-3 11-2 1v6h3v3h-3l1 9 4 6-1 2 4 1-3-6v-8l3-5 3-2h8l4 4 1 2v6h-15l3 6h6l3-3h3l-2 5-3 2-8 1 1 4h3l-1 5-1 1h-146l1-4 1-1 2-35-1-18v-9l-3-17-2-10-4-12-2-5-1-6-3-10-3-5-3-12-4-6-2-11-4-8-6-3-3-3-6-4v-6l-2-2-3-1v-2h-5l-4-3v-8l4-6 24-6 3-2 10-2 10 1 5 1-2 2h-8l-7 4 1 5 3 2 5-1 5-5 16-3 5-1v-2l-13-1-11-4-8-6-3-5v-2l-7-1-3-3v-2l8 1 4-2-7-3-12-1-11 2-8 4-6 5-3-1 11-11 13-7h2l-2-2-5 1 1-5 3-2 2-1 5 2v3h2v-2l11-1 1 1 8 1 2-4-1-6 3-1-2-5 5 1 10-1 2-1-16-6-10-6v-2l-4-2-8-6-6-4-10-6-6-4-1 6-4 2h-9l-8-4-5-5v-4l-14-3-2-3-10-3-12-1-11-2v-2h5z" fill="#043B73"/>
<path transform="translate(705,606)" d="m0 0h14v3l8 2h8l4-1h6l1 2 5 1v2l14 1v2l9 1 6 2 2 5 5 1v-3h5l6 5 1 4h2l3 4-2 4-2 1 2 4 2 9 5 2h2l1-5 3-5h2v-2l5 2 2 6 2 1 13 1 10-2 12 1 4 2 2 4-3 3-6 4-3 1v2l6-4 2 1-4 5-3 7-1 3v13l7-2 4-2 1-9v-6l4-7 15-5 9 3 1 1v6l-6 6 6-1v-2l5 1 3 6v2l5-2 2-8 1-1v-7l2 1v2l5 2 9 3 4 1 4-5 4-2h5l1-3h5l-1-1 4-1h2l1 2h12l14-4 3 1 5-1 11 1v3l5-3h2l2-5 5-4 8-3 14-1 9 2 5 3-1 2-7 1-5-2 5 5 5 1 6 9 9 5 7 2 11 1 2 1v2l-13 4-8 1-5 5-5 1-5-4 1-5 7-4h8l-7-2-11 1-7 2-8 3-17 4-3 5v8l3 2 5 1v2l-29 2-6 2-4 10-4 4-6-1 3 4-1 6-4 5-3 3-1-8-3-6-1-5 2 18 4 5 3 9v5l-3-1-5 2v4h-8l-8 5-7 2-4 2-5 7-5 2-10 6-6 8-1 3v10l5 11 4 16 3 7-1 10-4 8-1 1h-5l-5-5-5-6v-2l-2-1-4-6v-3l-2-1-1-2 1-2h-2l-1-9 2-2-2-7-8-8-6-1-6 2-6-1-2-1v-2h-2v-2l-4-1-20-1h-3-12l3 3-2 2v-2h-2l1 3v3l-1 4-6-1-3-1h-12l-4-4h-12l-4-3-6-1-12 1-4-1-1 4-3 2h-3l-1 3-12 1v3h-4l-1-6 2-5h2v-2h2v-3l-2-1v-2h3l1-5v-7l-3-3-3-10 4 2 2 5h4 2l1-4 2-3 5 1-5-4 1-4h2v-4l-7-2v-2l8-1v2l2-2-2-2-2-1 2-6 4-1 1-2h3l1-5-3-1v-3h6l7-6 4-4 2-5v-10l1-6-2-3-2-7-1-2h3l-1-9-3-4 5 2 1 2v16l12-3 3-3 1-11 2-4-4-7-1-6-10-2-1-1v-6l3-1-1-3-3-2-2-8-10-4-3-1-5-1-3-5-9-2-5-1-8-1-1-3-18-3-11 1-4 2h-6v2l-14 2-2 2 3 3-1 3-3 3-1 6h7l2 4h-5v6l1 5-2 3-2 8-3 1-1 2h2l-1 4-5 1-2-1v-2l-5 1-2 4-4 2-4-4 4-8 6-2 1-2-12-2-2 4-7 1-1 3-14-1-3-2-1-4-14 4h-4v2h-5v-3l-8 1-1 3h-3v4l2 1-2 6-5 3-3-1h-3l-1 5-3-1h2v-5h3l2-7 4-2 1-4 5-2 2-5 5-5 4-3 7-2 3-5 10-7 3-3 7-2 7 3-1 11h-4l-4 8h2v3l3-2h11l1-2h6l1-3v2l4-1 5-7 2 2 4-1 1-4 4 2v-2l-3-2 3-16 4-1 1-7 5-3 1-3 11-8 11-2z" fill="#588259"/>
<path transform="translate(917,545)" d="m0 0 20 1 17 4 6 4v2l-4 3 1 4 13 4 5 2v2l8 1v1h-8l-5-2-1-2-12-3-12-1-1 2h-5v2l11 1 12 1 11 3 1 4 12 2 2 1 2 6 7 4 4 2h9l3-1 2-6 5 2 8 5 9 6 9 7 6 5 14 7 10 4-3 2-10 1-4-1 1 4-2 2 1 5-3 4h-8l-3-1h-9v2h-2v-3l-6-1-1 2-3 2v2l5-1 1 3-15 8-10 10 5-1-1 3-8 4v-3l-10-1-6 1-3-1-14 4h-11l-1-3h-2l-1 2-1 1h-6l-1 2-9 2-2 4-2 2-4-1-9-3-5-3-1-1v5l-2 3-2 7-5 1-4-8-4-1v2l-6 1 1-3 4-1v-8l-9-3-15 5-3 6v12l-3 5-4 2h-6l-1-5v-8l3-8 3-5h2l-1-2-4 3h-2v-2l9-6h2l-1-6-10-2-12 1-6 1-11-1-3-2-1-5-5-3v2h-2l-4 10-3 1-5-5-3-8v-4l3-2-2-6h-2l-7-8-5-1v3h-5l-2-6h-5l-1-1-9-1-1-2-13-2v-2h-6v-2h-8l-2 1h-8l-8-3-2-2h-12l-1 1-11 2-9 7h-2l-1 4-5 2-1 7-3 1-2 12-1 4 4 3-2 2-4-2-1 4-6 1-1-1-4 6-11 1-1 3h-11l-3 1v-3h-2l1-4 3-4h4l-1-5 2-6-9-2-6 3-6 5-7 5-2 4-9 3-5 4-4 7-5 3-1 3-3 2-3 7h-3l1 3-3 3h-2l-1 9-4 1v3l3 1-1 5-5-1-1-4-1-3 1-2h3v-4l-5 2-5-1 1 5-5 6h-2l2-5 1-2-3-1-2 10-3 6 2 4-2 4 1 4-1 3-1 10-2 2-1-1v-10l2-5-1-5 1-14 3-4 4-8 8-9h2l1-5 10-11 8-7 5-6 5-5 8-9 5-5v-3l-3-5v-6l8-4 7-10 4-3-2 7-4 4v2l2 1 3 5 7 1 6-3 2-5 5-2v2l9-3v-2l6-2h4l-2 7h2l1 3 2-2 1 3-1 2 3-1 2-5v-5l2-1v3h2l2 4-1 2h4l2-7 1-7 8-7 10-3 4-2 9-2 12-5 13-1 6 2 2 5 7 2 1-4 2-1h7l2 1 1-4h3l1 1 1-3h-8l-5-2v-2l7-1 3 2v-2l8-2h5l1 3-1 4h8l7-3 8 1v2l9-1 7-2 3-4 7-1 10 4 7 3h5l2-2v-6l-9-1 2-4 5-5 10-5 15-3 6-3 16-2 4-3h2l1-3 16 1 4-2-1-5z" fill="#3F7170"/>
<path transform="translate(865,503)" d="m0 0h29l28 1 34 3 16 2 21 4 33 6 16 4 36 11 16 5 16 6 14 6 8 4 26 11 36 19 14 8 11 6 15 10 12 9 14 10 13 10 8 5v2h2v2l4 2 10 8 10 9 16 14v2l4 2 5 4v2l4 2 4 5 8 7 5 6v2h2v2l3 1 7 8v2h2l18 22 10 12 12 16 13 19 9 13 9 14 11 19 7 12 6 13 10 22 2 8h-9l-6-15-5-10v-3h-2l-3-7-12-22-10-16-6-9-8-11-6-10-14-19-6-7-9-12-9-10-13-15-1-3-3-1v-2l-4-2-10-11v-2l-4-2-5-5-7-6-5-5v-2h-2v-2l-4-2-9-7v-2l-6-3v-2l-5-2-3-2v-2l-5-2-15-12v-2l-5-2-19-13-10-7-11-7-10-6-11-6-28-15-12-6-12-5-12-6-15-6-27-10-11-4-31-10-29-7-40-7-36-5-18-1-45-3h-14l-17 1-22 1-25 2-39 6-44 9-47 14-11 4-21 8-11 5-12 5-13 5-23 13-12 6-18 10-21 13-20 14-19 13-13 10-10 8-11 9-17 14-3 3h-2l-2 4-7 6-1 2h-2l-2 4-13 12-13 15-11 12-1 2h-2l-2 4-12 16-10 13-14 19-14 21-8 13-13 24-9 19-3 7-1 7h-22l4-16 4-10 7-14 6-11 15-25 10-18 16-22 13-17 9-11 5-5 2-3h2l2-4 8-11 3-1 2-4 9-10 6-7 5-5 4-2 2-4 9-9 9-7 18-18 9-6 9-7 11-10 15-11 30-20 25-15 18-10 16-8 28-13 16-8 13-6 19-6 32-12 14-3 11-3 15-4 20-4 26-4 23-4 21-2 33-1z" fill="#3B8BCA"/>
<path transform="translate(141,57)" d="m0 0h18l13 2 16 6 10 5v2l5 2 8 7 8 10 4 4 6 12 4 10 3 13 1 10-2 19-4 15-5 10-4 7-12 13-10 9-10 6-18 6-13 3h-21l-21-6-16-8-9-7-7-8-7-10-6-11-4-10-3-12-1-7v-12l3-17 4-13 9-15 8-10 13-10 11-7 18-6z" fill="#598EA2"/>
<path transform="translate(945,771)" d="m0 0 1 3-2 5-5 8h-2l2 5 2 6v5l-2 2v9l-1 6 1 9-1 2-6 2 2 4 8 6 4 2-1 5h-4l5 2 1 2v6l1 1v5h-4l-1 5h3l2 9 4-2 2-5-2-6 9-1 3 2-1 5-5-1 2 5 6 8 6 1h3l2 6-7-1-1 4h-263l-2-3-1-7 6-17 4-16 3-3 4-2v-14l3-10 5-3 4-3 2 1v-3l12-2 1-2 6-2 1-5 8 1 9-1 7 2 2 2h12l1 3 3 1h13l4 2h4l-1-5 1-4h3l-3-3 1-1h12l3-1v2h20l4 2v2h2v2l10 1 4-2 6 1 10 10 1 7-2 1v9h2l2 5 3 6v2l2 1 6 8 1 3 4 2h5l4-8 1-10-3-7-3-13v-3l-2-1-2-9-2-1v-10l4-8 8-7 6-3v-2h5l4-5 8-2z" fill="#196FAC"/>
<path transform="translate(1051,678)" d="m0 0 10 1 5 1-2 2h-8l-7 4 1 5 3 2 5-1 5-5 20-3 4-1 4 6 7 4 3 6 2 19 5 14 5 6 4 15 5 9 3 11 4 11 1 4 3 3v10l3 13 3 9 3 13-1 9-2 8 3 5-1 4 2 2 2-2h7l3 2 2-2h7l3 2 1 19-4 1-1-18h-6l-1 2-1 16-4-1-1-17-3-1-4 4-1 15-3 1v3l3 1-1 3-5 3h-69l1-4 1-1 2-35-1-18v-9l-3-17-2-10-4-12-2-5-1-6-3-10-3-5-3-12-4-6-2-11-4-8-6-3-3-3-6-4v-6l-2-2-3-1v-2h-5l-4-3v-8l4-6 24-6 3-2z" fill="#0B4378"/>
<path transform="translate(877,538)" d="m0 0h11l-1 4 6-1 5 1v4l3 1 1-2h3l1-3 18-2h7l9 3h3l-1-2h28l19 3 16 5 24 7 13 6v4l16 8 10 3 2 1-1 3-5-1-3-1v-2h-18l-24-5-8 1-3 1v2l-7-1 1 2-11-1-7-2-9-3v-2l-5-1-15-5v-5l5-2-4-4-16-4-3-1-20-1 1 6-5 2-16-1-3 3-4 3-16 2-6 3-15 3-12 6-5 7 9 1 1 7-3 2-7-1-9-4-9-2-5 2-4 4-8 2-6-1v-2h-9l-6 3h-6l-3-3 1-5-11 3-4 2-1-2h-7v2l11 1 2 1v6l-4-4-2 4h-11l-1 4-5-1-4-4-1-2-5-1-13 1-18 7-6 1-9 3-6 4-4 5-1 9-2 3h-4l-1-6h-2-1l-1 6-3 4-3-1v-3l-2 1-1-3h-3l4-8-10 2v2l-4 3h-5-3l-2 1-2 5-6 3-7-1-3-3v-3l-3-1 2-4 3-3 3-8 5-6h2v-2h2l2-5 2 2 4-1 5-4h2l1-4 8-7 9-4 10-2 14-5 20-7 28-6h7l15-3 7-3 29-4h8l8 2v-2l7-2h10l30-3h6v-2h5v2h16z" fill="#588DA2"/>
<path transform="translate(705,606)" d="m0 0h14v3l8 2h8l4-1h6l1 2 5 1v2l8 1 4 2v5l3 1v3l5 2 15 2 2 3 3 1 1 2v12l-2 6 6-1 3 2 3 7v3l-1 3 5-2 9 3 6 9-1 9-2 9-2 3-4 1-1 6-1 3 2 5-10 2 1 3h6l1 6-6 6-4 1-5-1-11 4-4 2v2l4-3 7 1v2l5 1-1 4h-5l-1-3-6 2h-8v2h8l3 1v2l4 2v2l5 1v-3l13 1 3 3-5 4-7 1v2h3l-1 14-4 8h-4l-4-6-9 1h-3l1 5 2 4h-2l-2 5h-1v-6h-2l-1-6h-2l1 3v8l-3 5h-3l2 3h4l4-3 7-2h7l2 6v4l-8 1-9-2h-8l-4 2-8-1-1 4-3 2h-3l-1 3-12 1v3h-4l-1-6 2-5h2v-2h2v-3l-2-1v-2h3l1-5v-7l-3-3-3-10 4 2 2 5h4 2l1-4 2-3 5 1-5-4 1-4h2v-4l-7-2v-2l8-1v2l2-2-2-2-2-1 2-6 4-1 1-2h3l1-5-3-1v-3h6l7-6 4-4 2-5v-10l1-6-2-3-2-7-1-2h3l-1-9-3-4 5 2 1 2v16l12-3 3-3 1-11 2-4-4-7-1-6-10-2-1-1v-6l3-1-1-3-3-2-2-8-10-4-3-1-5-1-3-5-9-2-5-1-8-1-1-3-18-3-11 1-4 2h-6v2l-14 2-2 2 3 3-1 3-3 3-1 6h7l2 4h-5v6l1 5-2 3-2 8-3 1-1 2h2l-1 4-5 1-2-1v-2l-5 1-2 4-4 2-4-4 4-8 6-2 1-2-12-2-2 4-7 1-1 3-14-1-3-2-1-4-14 4h-4v2h-5v-3l-8 1-1 3h-3v4l2 1-2 6-5 3-3-1h-3l-1 5-3-1h2v-5h3l2-7 4-2 1-4 5-2 2-5 5-5 4-3 7-2 3-5 10-7 3-3 7-2 7 3-1 11h-4l-4 8h2v3l3-2h11l1-2h6l1-3v2l4-1 5-7 2 2 4-1 1-4 4 2v-2l-3-2 3-16 4-1 1-7 5-3 1-3 11-8 11-2z" fill="#728B6D"/>
<path transform="translate(1203,699)" d="m0 0 7 1 5-1 10 2 3 3 9 3 18 7 7 7 7 3 7 5v3l-6 1h-8l-3 2v3l-11 4-3 5-2 8 1 18v11l9 33 2 27 1-5h1l2 16 1 4-6 1 4 8v15l5 2 1 2v8h-51l2-6h-3l-2-5 9-1 4-4 1-2-5 3-1 1h-6l-3-5v-2h15l-2-8-3-3h-11l4-6h6l-2-4v-5l1-3-1-6-3-4 1-9-3-1v-2h2l-2-12-3-3 1-5-3-4v-5h2v-4h-2l-2-8 2-5-3-1-3-8v-4l-3-8-4-10-2-13 1-2 4 1-2-9v-12l3-7 5-3z" fill="#04345C"/>
<path transform="translate(142,42)" d="m0 0 24 1 10 3 12 4 8 5 9 5 10 8 3 3 3 2 10 11 6 11 7 14 4 9 2 17v16l-2 17-3 10-4 8h-2l-1 6-6 9h-2l-2 4-6 8-8 7-5 6-5 2-5 3-10 4-21 6-16 2-16-1-25-7-4-2v-2l-5-2-9-5-5-3v-2l-4-2-4-5-2-1-2-4-5-5-4-5-6-10-4-8-6-20-1-12v-18l2-13 6-17 13-20 12-13 13-10 17-8 14-4zm-1 15-18 4-13 5-12 8-10 8-10 13-8 14-5 21-1 7v12l3 16 4 12 4 6 5 9 6 8 7 8 10 7 16 8 19 5h21l20-5 13-5 9-6 12-11 10-11 4-9 5-10 4-18 1-16-1-9-6-20-6-10-3-6-5-5-8-9-8-6h-2v-2l-17-8-14-4-16-1z" fill="#357693"/>
<path transform="translate(144,94)" d="m0 0h15l13 4 10 7 5 5 6 7 5 12 1 5v17l-3 10-6 10-9 10-11 7-12 3h-15l-9-2-11-6-10-9-7-11-4-11v-17l4-13 6-10 9-9 9-5 8-3z" fill="#FBF5DB"/>
<path transform="translate(709,622)" d="m0 0 8 1 12 2 3 3 12 1 5 2 6 2 2 5h7l7 4 5 2 2 8 3 2v3l-2 1v6l5 1 5 2 4 10 1 3 2 1h-3l-1 14-4 4-12 2-1-18h-3l2 2v9l-2 1 2 2 2 8 1 5-1 2v10l-3 6-5 5-7 5-5-1 1 3 2 1-1 5h-3l-1 3-4 2-1 4 3 1 1 3-3 1v-2l-8 1v2l7 1 1 2-1 3-2 1v3l5 3-1 2-4-1-3 3-1 3-6 2-2-3v-4h-3l4 9 2 2v9l-2 4-3-1v2l3 1-1 3h-2v2h-2l-1 9-1 4-3 3-7 1-1-4 2-6 2-3-1-2-14-4-5-2 1-3 7-6 1-4 2-5v-4l10-10v-5l5-1 1-2h2l1-4-3-1 2-4 6-2 1-4h-2l1-4 6-1v-2l5-5 2-3 2-6 6-2 4-5 1-7h-6l-1-7 9-3 1-4-4-5 1-4 3-2v-5l-7-2-5-3-1-3-6-2-4-3-7-1v-2l-4 2h-7l-2-1 2 4h-6v2h-7v-2h-3l-2-7-10 1-1 3-5 3-2-1-4-8-6-2-2-6 1-4 4-2-1-1-7-1v-6l2-3h2v-4l-3-3 3-2 13-2 1-2h7l3-2z" fill="#97987D"/>
<path transform="translate(140,78)" d="m0 0h21l13 3 13 7 9 7 7 8 8 14 4 13 1 11-2 16-3 9-6 12-10 12-9 7-10 5-13 4-4 1h-17l-16-4-12-6-10-9-8-10-5-8-4-12-1-6v-21l4-15 8-14 4-5 13-10 13-6zm4 16-12 3-8 4-10 9-4 5-6 12-2 8v17l4 11 7 11 7 7 8 5 10 4 5 1h15l14-4 10-7 9-10 7-14 1-5v-17l-4-13-6-9-5-5-7-6-10-5-8-2z" fill="#A2AEA5"/>
<path transform="translate(621,667)" d="m0 0 2 1v4l2 1 12 1 2 1 1-4 7-1 2-3h7l5 2-1 3-6 2-3 8 4 2h3l-3 3-5-1-1-2-3 6v6l11-1v2l-11 3 2 5 13-1 4-2 1-2h4v2h2v-6l5-5 5 1 1-3h5v5l4 2-1 4h-2l-1 8 2 1-1 4-4 3-3 15h-4l-2 5-1 2-3 1-2 4-4 1-2-1v-4l-6 3-3-1 1-5 6-2-2-3v-3l-9-1-3-5 2-1 3 3v-2l-2-1 11 1v-2h5v-1l-8-2 3-6h-5l-1-2-8-1v2l-5-1-1-4-8 4-3 4-2 6-5 2-1 3h-4l-1 2-13 1-7 1-2-1 1-3 7-1 2 1 7-3 6 1v-3l-2-1 1-3h3l2-4 3-1v3l5-4-1-4-1-2 3-7-1 3-3-1 1-7h-4l-2 3-7 1-4 1-6 1-4 3-6 3-1 3-6 1-1 3 5-2 3-1v3l6-1-1 3-5 1-4 3h-11l-5 3-1 2 2 4-1 3h2l-1 3h-3l1 5 3-3 1 4-9 3-7-1-2 4h-2v2l-2 1-2 6 4-1 1 3-3 1h-8l-1 3v-3h-4l-1-2-7-1 1-4 3-5 1-12 2-4-2-1 2-6-2-2 3-6 2-7 1-3h5l-5 8h2l1-3 3-3v-5h5l5-1v4h-3l1 5 2 5h3v-5l-2-1v-3l3-1v-6l2-3h5l1-5 5-1h3l3-1 2-6-3-1v-5h4l1-2 9-2-1 3 5 1v-2l8-2 4-2z" fill="#96987E"/>
<path transform="translate(1127,614)" d="m0 0 4 1 7 2h5l6 3 20 5 10 4 20 10 19 10 30 18 3 3 9 5 20 14 12 8 7 5v2l4 2 21 18 3 3v2h2v2l4 2 7 7 9 11 10 11v2h2l11 14 12 15 8 11 10 14 14 22 13 22 8 14 8 17v2h-10l-4-11-10-16-6-12-4-5-5-9-6-10-6-8-8-13v-2h-2l-10-14-7-9-11-12-7-8-3-3v-2h-2v-2l-4-2-8-7v-2l-5-2v-2l-4-2-13-11-10-8-11-7-16-12-10-6-10-7-11-6-4-3-14-7-15-10-11-7-9-6-5-5-14-8-26-13v-2l-16-8z" fill="#0B4378"/>
<path transform="translate(623,586)" d="m0 0h5v3h5l-1 3-4 3-7 1-9 6-9 5-9 4-14 8-11 6-8 5-15 9-15 10-11 7-10 8-18 13-8 7-10 8-3 3h-2l-1 3-5 2v2l-6 5-9 9h-2l-1 3-8 8h-2l-1 3-8 7-7 8-9 10-10 11-7 9h-2l-2 5-10 13-4 5-12 17-7 10-5 9-7 10-8 13-7 12-6 11-8 15h-13l2-4 12-23 12-21 14-22 9-14 12-17 12-15 11-14 12-14 9-10 7-8 29-29h2v-2l8-7 13-12 9-7 9-8 14-10 18-13 18-12 26-16 24-13 16-8 15-7z" fill="#3B8BCA"/>
<path transform="translate(764,561)" d="m0 0h6v3h-2l-1 5h11l5-2 10 1 6 2 1 3-5 4 6 3 3-7 4-1h7l2 5 1 5-4 2-5 5-8 2-6-1v-2h-9l-6 3h-6l-3-3 1-5-11 3-4 2-1-2h-7v2l11 1 2 1v6l-4-4-2 4h-11l-1 4-5-1-4-4-1-2-5-1-13 1-18 7-6 1-9 3-6 4-4 5-1 9-2 3h-4l-1-6h-2-1l-1 6-3 4-3-1v-3l-2 1-1-3h-3l4-8-10 2v2l-3-1v-3l-14-1-1-4 8-8 2-4 8-1 10-3 6-1 3 3 2-4 9-7 5-4 5-5 10-1 8 1 15-3 6-1-2 5 2 1 6-5-1-3-4-1 17-4 4-2 17-1z" fill="#357693"/>
<path transform="translate(945,564)" d="m0 0 12 1 12 3 1 3 14 2 13 3 7 2 3 1v2l6 1v-2l2-1h10v2l18 2 28 7 4 2 10 1 4 1v2h2l2 2 4 2 9 4-1 5 5 4 2 2 16 7v2l12 6 15 7v2l12 4 16 9 8 4 1 2-11-2-9-3-17-9-11-3-13-1-12-7h-8l-12-2-10-4-4-1v2l-5 1v2l6-1 3-1 6 4 4 5-1 3-2 1h-9l2-1-2-3-5-1v-2h-2v2h-3l1-6-8-1v-3l1-2-2-1 6-2-16-6-10-6v-2l-4-2-8-6-6-4-10-6-6-4-1 6-4 2h-9l-8-4-5-5v-4l-14-3-2-3-10-3-12-1-11-2v-2h5z" fill="#0B4377"/>
<path transform="translate(895,563)" d="m0 0h2v3l5-2 4 1-1 4 11-1v-2l8-1 3 1v-2l6-1 4 1-1 3 2 2 1 8 3 2v4l-5 2v2l9 4 3 2 1 7-7 5-4 1h-10l4 5 2 5 2 6-2 4h-5l-4 1-11-8-1-2 8 1v-2l-8-1h-3v-9l1-3-19-2-19-6v-2l-9-2-8-2-11-1-1-1v-6h-4v-2l-2-1h2l1-3h2l1-2 4-1 29-2 13-3z" fill="#034D8A"/>
<path transform="translate(614,610)" d="m0 0 1 2-2 5-4 4v2l2 1 3 5 7 1 6-3 2-5 5-2v2l9-3v-2l6-2h4l-2 7h2l1 3 2-2 1 3-1 2 3-1 2-5v-5l2-1v3h2l2 4-1 2h4l1-2-1 4-3 4 5-1-2 13-1 4 4 3-2 2-4-2-1 4-6 1-1-1-4 6-11 1-1 3h-11l-3 1v-3h-2l1-4 3-4h4l-1-5 2-6-9-2-6 3-6 5-7 5-2 4-9 3-5 4-4 7-5 3-1 3-3 2-3 7h-3l1 3-3 3h-2l-1 9-4 1v3l3 1-1 5-5-1-1-4-1-3 1-2h3v-4l-5 2-5-1 1 5-5 6h-2l2-5 1-2-3-1-2 10-3 6 2 4-2 4 1 4-1 3-1 10-2 2-1-1v-10l2-5-1-5 1-14 3-4 4-8 8-9h2l1-5 10-11 8-7 5-6 5-5 8-9 5-5v-3l-3-5v-6l8-4 7-10z" fill="#417270"/>
<path transform="translate(1100,573)" d="m0 0 10 3 29 12 29 14 25 13 25 15 28 19 15 11 10 8 16 13 14 12 8 7 15 14 14 14 7 8 9 9 9 11 11 13 13 17 10 13 16 24 12 19 12 21 16 31v1h-6l-5-14-3-5-3-7-6-10-8-16-8-13-7-11-11-15-10-14-9-11-10-13-7-8-9-10-5-5v-2h-2l-7-8-1-3-3-1v-2l-3-1-27-27-10-8v-2l-4-2-15-12-15-9-5-4-7-3-9-5-11-6-5-3-7-3-8-5-12-5-16-8-32-15-11-4-10-1-3 1-8-4-14-4 2-3h6l5 4v-3l-7-4-2-4-4-3-1-4 6-1 2-1-8-4z" fill="#196FAC"/>
<path transform="translate(143,71)" d="m0 0h14l13 2 8 3 12 6 10 8 4 4v2l3 1 7 10 6 14 2 10v22l-4 16-7 14-11 12-4 2v2l-7 5-18 8-9 2-16 1-16-3-17-7-13-10-7-8-5-8-4-8-5-18v-21l4-16 8-15 11-12 5-4h2v-2l16-8 11-3zm-3 7-12 3-16 8-10 8-7 10-6 12-3 12v21l3 12 4 10 10 13 8 8 11 6 11 4 9 2h17l12-3 12-5 8-6 7-6 8-11 7-14 2-11 1-11-2-15-7-16-6-8-5-6-12-9-10-5-13-3z" fill="#799999"/>
<path transform="translate(576,740)" d="m0 0 3 1v2h-2l-1 5-7 2 4 1 5 1 3 3 1-1h6l1 5 7 2v4l10 1-2 6 2 2v3l-7-1-4-1v6l-5 1-3 1-1 5 5 1 3 3-8 5h-2l1 4 3 2 2 6-4 1-1 3-3 1-2-2-1-6h-3v2h-2l1-4 1-1 1-17 2-3h-2l-1-2-8-2-3 12-3 1 2 6 1 2 5 1v4h-2v-3h-2v4h2l1 8 1 7 3 7v3h2l1 8v11l-2 8h3v-2l5 1 1 12-3 3-5 1-3-9-4-5-2-1v-3l-1 2-3-1 1-4-4-1 4-5 2-10-4-1-2-4-4-1v-2h-3l-5-9v-2l8 1 2-5 1-4-3-6-4-3 1-38-3-3v-4l11-1-1-2h-4l1-6 1-1h11l5-1 2 1z" fill="#9FA187"/>
<path transform="translate(147,85)" d="m0 0h10l10 2 12 5 8 6 11 11 6 12 3 10 1 12-1 11-6 16-6 8-6 7-10 7-12 5-6 2h-19l-12-3-11-6-6-4v-2l-4-2v-2h-2l-7-10-5-13-2-16 2-14 5-12 7-11h2v-2h2l2-4 13-8 13-4zm-3 9-12 3-8 4-10 9-4 5-6 12-2 8v17l4 11 7 11 7 7 8 5 10 4 5 1h15l14-4 10-7 9-10 7-14 1-5v-17l-4-13-6-9-5-5-7-6-10-5-8-2z" fill="#C2BDB0"/>
<path transform="translate(144,94)" d="m0 0h15l13 4 10 7 5 5 6 7 5 12 1 5v17l-3 10-6 10-9 10-11 7-12 3h-15l-9-2-11-6-10-9-7-11-4-11v-17l4-13 6-10 9-9 9-5 8-3zm-1 9-10 3-9 6-8 9-4 8-1 5v16l4 11 7 9 8 6 9 4 4 1h15l11-4 8-6 6-7 5-10 1-4v-16l-4-11-6-8-8-7-10-4-4-1z" fill="#FBF5DB"/>
<path transform="translate(840,398)" d="m0 0h60l29 2 28 3 22 3 12 2v1l-13-1-45-5-36-2h-50l-37 2-36 4-29 4-32 6-44 11-34 10-32 11-25 10-32 14-29 14-26 14-28 17-16 10-16 11-18 13-17 13-16 13-11 9-11 10-8 7-17 16-23 23-7 8-5 4 2-4 14-15 16-17 9-9 8-7 9-9 8-7 14-12 16-13 17-13 18-13 33-22 20-12 23-13 23-12 32-15 23-10 20-7 10-4 27-9 26-8 24-6 38-8 32-5 24-3 33-3z" fill="#2375B3"/>
<path transform="translate(613,790)" d="m0 0h3l-1 4h2v-2l3 1 1 6-2 4 3 2v2l-4 1v6l1 3h3l-1 4-4 5 2 1v2h2l2 6h-3v2h2v3l5-3 1-2 3 1-3 8v2l3 1-5 2 3 1 1 3-4 3 2 2h-2v2l4-2-2 4h-3l4 1 2 4 4 2-1 3-4 1 2 1-1 6-1 4 2-1v-4h3v5l4-4 1 4-5 9 4-2v2l3 1-1 1h-21l1-6-4-1v-11l-6-7-2-5 1-5v-3l1-4h-2v-2l-2-1-1-9-3-1-2-1 1-3h2l2-4-6-1-1-3 4-2v-2h-2v-3l-3-1 3-5h-2l1-9 2-5 3 2h2v-7l2-5 2 1-1 2h2z" fill="#96987D"/>
<path transform="translate(141,57)" d="m0 0h18l13 2 16 6 10 5v2l5 2 8 7 8 10 4 4 6 12 4 10 3 13 1 10-2 19-4 15-5 10-4 7-12 13-10 9-10 6-18 6-13 3h-21l-21-6-16-8-9-7-7-8-7-10-6-11-4-10-3-12-1-7v-12l3-17 4-13 9-15 8-10 13-10 11-7 18-6zm-3 2-16 4-14 6-11 8-5 4v2l-4 2-8 10-6 12-5 12-2 11-1 16 4 19 5 12 5 9 6 9h2l1 3h2l2 4h2v2l9 6 16 8 10 3 10 2h20l16-4 15-5 5-4v-2l4-2 6-4 7-8 4-5 4-6 2-5 4-7 5-21v-18l-2-13-5-12-9-15-7-8h-2l-2-4-13-10-19-8-10-2-12-1z" fill="#55848B"/>
<path transform="translate(627,640)" d="m0 0 9 3-1 11h-4l-4 8h2v3l3-2h11l1-2h6l1-3v2l4-1 5-7 2 2 4-1 1-4 4 2 2-3h7v3h-2v6l1 5-2 3-2 8-3 1-1 2h2l-1 4-5 1-2-1v-2l-5 1-2 4-4 2-4-4 4-8 6-2 1-2-12-2-2 4-7 1-1 3-14-1-3-2-1-4-14 4h-4v2h-5v-3l-8 1-1 3h-3v4l2 1-2 6-5 3-3-1h-3l-1 5-3-1h2v-5h3l2-7 4-2 1-4 5-2 2-5 5-5 4-3 7-2 3-5 10-7 3-3z" fill="#738C6E"/>
<path transform="translate(945,564)" d="m0 0 12 1 12 3 1 3 14 2 13 3 7 2 3 1v2l6 1v-2l2-1h10v2l18 2 28 7 4 2 10 1 4 1v2h2l2 2 4 2 9 4-2 5-8-1-21-5-19-4h-14l-8-2-13-7-6-4-1 6-4 2h-9l-8-4-5-5v-4l-14-3-2-3-10-3-12-1-11-2v-2h5z" fill="#034E8B"/>
<path transform="translate(1032,651)" d="m0 0 12 1 8 4-1 2-7 1-5-2 5 5 5 1 6 9 9 5 7 2 11 1 2 1v2l-13 4-8 1-5 5-5 1-5-4 1-5 7-4h8l-7-2-11 1-7 2-8 3-12 2 2-3-6 1v-2l-10 4h-4l1-6-4 1-3-3 4-3 3 1 3-3 4-2 1-2h2l-1-7 1-2-2-1 6-5 8-3z" fill="#40726F"/>
<path transform="translate(1058,623)" d="m0 0 5 1 8 1-1 4h6v2l3-1-2 7h3v-2h2v2h6l1 4-5 3-3 3h-2l1 8-4 4-5 3h-6l5 4-1 4-4 3-4-1h-3l-1-1-4-2-4-4v-2l-7-1-3-3v-2l8 1 4-2-7-3-12-1-11 2-8 4-6 5-3-1 11-11 13-7h2l-2-2-5 1 1-5 3-2 2-1 5 2v3h2v-2l11-1 1 1 8 1 2-4-1-6 3-1z" fill="#0B4276"/>
<path transform="translate(942,541)" d="m0 0h28l19 3 16 5 24 7 13 6v4l16 8 10 3 2 1-1 3-5-1-3-1v-2h-18l-24-5-8 1-3 1v2l-7-1 1 2-11-1-7-2 2-2-1-3 3-2-5-6 1-2 12 3 8 4v-2l4-2-13-2-6-3-15-4-8-4-12-4-10-2z" fill="#196FAC"/>
<path transform="translate(917,545)" d="m0 0 20 1 17 4 6 4v2l-4 3 1 4 13 4 5 2v2l8 1v1h-8l-5-2-1-2-12-3-12-1-1 2h-5v2h6v1h-7l-1 2-1-4-2-2h3v-2h-10v2h-11v2l-3 1h-8v-4l-8 1v-3l-6 5-13 3-33 2-1 3h-2l-1 5-5-1 2-4 5-5 10-5 15-3 6-3 16-2 4-3h2l1-3 16 1 4-2-1-5z" fill="#1A6EAB"/>
<path transform="translate(576,740)" d="m0 0 3 1v2h-2l-1 5-7 2 4 1 5 1 3 3 1-1h6l1 5 7 2v4l10 1-2 6 2 2v3l-7-1-4-1v6l-5 1-3 1-1 5 5 1 3 3-8 5h-2l1 4 3 2 2 6-4 1-1 3-3 1-2-2-1-6h-3v2h-2l1-4 1-1 1-17 2-3h-2l-1-2-8-2-2 3-2-1 2-3h-3v-15l3-2-4-2 3-5h-5l-1-2h-4l1-6 1-1h11l5-1 2 1z" fill="#C0BCAF"/>
<path transform="translate(1024,61)" d="m0 0h12l7 4 4 7v7h-10l-2-7-1-1h-8l-2 2v31l3 3h6l3-6 1-6h-7v-8h17v28h-8l-1-3-5 4h-11l-7-6-2-5v-32l4-8z" fill="#F7F7F4"/>
<path transform="translate(683,689)" d="m0 0h5v5l4 2-1 4h-2l-1 8 2 1-1 4-4 3-3 15h-4l-2 5-1 2-3 1-2 4-4 1-2-1v-4l-6 3-3-1 1-5 6-2-2-3v-3l-9-1-3-5 2-1 3 3v-2l-2-1 11 1v-2h5v-1l-8-2 3-6h-3l1-3-4-1v-3h6l4-4h4v2h2v-6l5-5 5 1z" fill="#6E8A69"/>
<path transform="translate(1202,622)" d="m0 0 4 1 15 9 25 17 15 11 10 8 16 13 14 12 8 7 15 14 14 14 7 8 9 9 9 11 11 13 13 17 10 13 16 24 12 19 12 21 16 31v1h-6l-5-14-3-5-3-7-6-10-8-16-8-13-7-11-11-15-10-14-9-11-10-13-7-8-9-10-5-5v-2h-2l-7-8-1-3-3-1v-2l-3-1-27-27-10-8v-2l-4-2-15-12-7-4-5-5-9-7-11-8-16-11-7-5-9-5-10-6z" fill="#357694"/>
<path transform="translate(1225,75)" d="m0 0h13l5 3 3 6v22l-3 7-5 3h-12l-6-5-2-5v-21l4-8z" fill="#F6F6F4"/>
<path transform="translate(146,99)" d="m0 0h8l14 3 10 7 3 2v2h2l7 11 4 10v16l-4 11-6 9-7 7-14 7-7 2h-10l-13-4-10-6-8-8-6-13-2-8 1-15 3-9 7-9 7-7 14-7zm-3 4-10 3-9 6-8 9-4 8-1 5v16l4 11 7 9 8 6 9 4 4 1h15l11-4 8-6 6-7 5-10 1-4v-16l-4-11-6-8-8-7-10-4-4-1z" fill="#fff"/>
<path transform="translate(894,641)" d="m0 0h7l6 4h5l5-4 1 2 5 1v2h2v2h3l2 5-9 1 3 5 4 3 4-2 5-1h10l9 3 8 4 3 2h-10l-1-3h-2l-1 2-1 1h-6l-1 2-9 2-2 4-2 2-4-1-3-3-2-5-6-5v-2h-6l1-3-4-2-8-1-1 3-5-1v-3l-4-2-3-5 2-5z" fill="#4B756D"/>
<path transform="translate(1372,62)" d="m0 0h28v8h-18v14h16v7h-16v16h18v8h-28z" fill="#F4F4F2"/>
<path transform="translate(1184,63)" d="m0 0h9v15l5-4h6l5 3 2 3v35h-10l-1-32h-5l-1 1-1 31h-9z" fill="#F5F6F5"/>
<path transform="translate(926,63)" d="m0 0h9v15l4-3h9l4 4 1 2v34h-10l-1-32h-5l-1 1-1 31h-9z" fill="#F7F7F5"/>
<path transform="translate(1455,74)" d="m0 0h7l7 3 3 4 1 3v13h-18l1 10 5 1 2-6h9v8l-5 5-2 1h-10l-5-2-4-5-1-3v-23l4-6z" fill="#F4F4F2"/>
<path transform="translate(1329,74)" d="m0 0h8l6 3 3 4 1 4v12h-19l1 9 2 2h4l2-6h9v7l-5 6-2 1h-11l-5-3-4-6v-24l4-6z" fill="#F5F6F4"/>
<path transform="translate(844,558)" d="m0 0 8 1v2l5 1v-2h2v2l9 1v1l-15 3-12 6-5 7 9 1 1 7-3 2-7-1-9-4-10-3-2-10-11 2-2 6h-3l-6-3 4-3 2-2v-2l-10-2v-1l13-2h2v2l10-2 12-1 4-2 1 3 8-3 5-2z" fill="#52838B"/>
<path transform="translate(967,75)" d="m0 0h13l5 3 3 6v13h-19l1 9 2 2h4l2-6h10l-2 9-6 5h-11l-5-3-3-4-1-4v-22l4-6z" fill="#F6F7F5"/>
<path transform="translate(1120,75)" d="m0 0h14l6 5 1 3v14h-18l1 9 1 2 5-1 1-5h10l-1 8-5 5-2 1h-10l-6-3-3-5v-27z" fill="#F8F8F6"/>
<path transform="translate(1085,75)" d="m0 0h14l6 5 1 3v14h-18l1 9 1 2 5-1 1-5h9v8l-4 5-3 1h-10l-6-3-3-5v-27z" fill="#FAF9F7"/>
<path transform="translate(1163,74)" d="m0 0h6l5 3 2 3v35h-10l-1-31-4-1-2 2-1 30h-9v-39h9l1 2z" fill="#F6F6F2"/>
<path transform="translate(670,623)" d="m0 0 1 3-4 5 5-1-2 13-1 4 4 3-2 2-4-2-1 4-6 1-1-1-4 6-11 1-1 3h-11l-3 1v-3h-2l1-4 3-4h4l-1-5 2-6-7-2v-4l6-2 1 4 6 1 1 6h11l-1-6 2-2h3l1-2v6l4-1 2-6-5-1 1-7 5-2h4z" fill="#4C766C"/>
<path transform="translate(1254,75)" d="m0 0h9l1 32 4 1 2-3 1-30h9v40h-9l-1-3-4 4h-8l-4-4z" fill="#F5F5F3"/>
<path transform="translate(834,588)" d="m0 0 9 1 1-1h13l14 4 3 1v2l12 3 7 2 17 2 2 1-1 4h-23l-7 4-9-3-11-3-8-3-6-2-5-6-7-2z" fill="#4B766E"/>
<path transform="translate(1296,74)" d="m0 0h8l7 4 2 4v6h-9l-2-5h-5l1 5 10 7 5 5v9l-4 5-5 2h-10l-6-5-2-4v-5h10l1 6h5v-5l-12-9-3-6v-8l6-5z" fill="#F6F7F4"/>
<path transform="translate(840,398)" d="m0 0h60l29 2 28 3 22 3 12 2v1l-13-1-45-5-36-2h-50l-37 2-36 4-29 4-32 6-24 6h-5l3-2 4-1-1-2 38-8 32-5 24-3 33-3z" fill="#186EAC"/>
<path transform="translate(1488,74)" d="m0 0h8l5 3 4 5v7h-10l-1-7-4 1v23l1 2h3l2-9h9v10l-5 6-2 1h-11l-5-4-2-4v-26l3-5z" fill="#F5F6F4"/>
<path transform="translate(888,63)" d="m0 0h32v7h-11v45h-10v-45h-11z" fill="#FDFDFB"/>
<path transform="translate(1058,623)" d="m0 0 5 1 8 1-1 4h6v2l3-1-2 7h3v-2h2v2h6l1 4-9 4-7 2-4 1-6-1-1-1h-8l-2-1-22-1-2-2-5 1 1-5 3-2 2-1 5 2v3h2v-2l11-1 1 1 8 1 2-4-1-6 3-1z" fill="#092D41"/>
<path transform="translate(938,570)" d="m0 0h12l12 1 11 3 1 4 12 2v2l-5 4-7 2-5 1-2-2v-3l-4-1v2h-7v3h-2v2l-3 2v5l-2-1v-3l-4-2-9-4 1-3 5-1-1-4-3-2z" fill="#50828B"/>
<path transform="translate(787,615)" d="m0 0 9 1 3 2v3l-4 4 4-2h4l3 6-1 7h9l8 6 3 1 16 1-1 2-10 4-3 2h7l1 1h7l9-2 4-2 4 1-2 2 2 2h-10l-12 2-11-1-3-2-1-5-5-3v2h-2l-4 10-3 1-5-5-3-8v-4l3-2-2-6h-2l-7-8-5-1v3l-2-1-1-10z" fill="#4A756E"/>
<path transform="translate(501,491)" d="m0 0 1 2-7 6-21 12-24 15-19 13-18 13-17 13-16 13-11 9-11 10-8 7-17 16-23 23-7 8-5 4 2-4 14-15 16-17 9-9 8-7 9-9 8-7 14-12 16-13 17-13 18-13 33-22 20-12z" fill="#196FAD"/>
<path transform="translate(582,673)" d="m0 0 2 1-2 4-3 2-3 7h-3l1 3-3 3h-2l-1 9-4 1v3l3 1-1 5-5-1-1-4-1-3 1-2h3v-4l-5 2-5-1 1 5-5 6h-2l2-5 1-2-3-1-2 10-3 6 2 4-2 4 1 4-1 3-1 10-2 2-1-1v-10l2-5-1-5 1-14 3-4 4-8 8-9h2v-2l3-3 4-1 3-6 2-2h4l1 2 7-3z" fill="#4B766E"/>
<path transform="translate(862,639)" d="m0 0h7l6 2 2 4 7 2 3 6v4h-22l-9-5 1-2-11 3-4 1h-7l-5-1-4-1 8-5 14-4z" fill="#03487F"/>
<path transform="translate(698,601)" d="m0 0 6 1 11-1 6 3 10 2h9l1 1 18 1 2 1 9 1v2l6 1v6l4-1 1 5-1-2h-5l-1-1-9-1-1-2-13-2v-2h-6v-2h-8l-2 1h-8l-8-3-2-2h-12l-1 1-11 2-9 7h-2l-1 4-3 1 1-5 4-2 2-7 5-5z" fill="#4C766D"/>
<path transform="translate(1512,65)" d="m0 0h10v10h3v7h-3v26h3v7h-10l-3-4v-29h-3v-6h3z" fill="#F3F4F2"/>
<path transform="translate(1412,63)" d="m0 0h9v7h-4v5h4v7h-4v33h-9v-33h-4v-6h4v-10z" fill="#F6F5F3"/>
<path transform="translate(777,777)" d="m0 0 4 1 8-1 5 7 4-1-2 4-3 3 1 4 4 7 5 2 3 5v3l-9 1-4-4v-2l-3-1-1-9h-7l-8 3-7 3-2-1v-4l3-1 2-4v-11h2l1 6h2l1 4 3-4-3-5z" fill="#598259"/>
<path transform="translate(1431,63)" d="m0 0h9v7h-4v6h4v6h-4v33h-9v-33h-3v-6h3v-9z" fill="#FAFAF8"/>
<path transform="translate(554,722)" d="m0 0 3 1 2 6v11h3l-1 3h-2v2l-2 1-2 6 4-1 1 3-3 1h-8l-1 3v-3h-4l-1-2-7-1 1-4 3-5 1-12 2-3 5-2z" fill="#98997E"/>
<path transform="translate(559,698)" d="m0 0h4v4h-3l1 5 2 3v10l-1 2 4 1-4 10 2 1-1 5-5 2v-12l-1-6-5 1-5 4-6-1 2-7-2-2 3-6 2-7 1-3h5l-5 8h2l1-3 3-3v-5h5z" fill="#93977C"/>
<path transform="translate(449,221)" d="m0 0h14v29l-4 4h-10l-2-2v-3h9l1-3h-9l-2-3v-19z" fill="#F3F3EF"/>
<path transform="translate(805,760)" d="m0 0 3 1-3 5-2 16-4 6-4 4 5 8h31l2-12 1-11h2v12l3-1-2 4-2 3-1 6h15v1h-16-3-12l3 3-2 2v-2h-2l1 3v3l-1 4-6-1-3-1h-12l-4-4h-12l-4-3-6-1h-6l2-2h8l12 2 7 1 4 5h9l-3-6v-2l-6-2-5-8 1-4 4-4 3-9 3-14z" fill="#3C6E74"/>
<path transform="translate(1100,643)" d="m0 0 3 1-1 10-3 3h2l4-4 3 1 2 3 14 3 1 3-1 2 4 1 1 7-4 3-4-1 3-1v-2h-6l-9-2-14-2-2-1v-2l2-1-1-5h3l-3-3 3-10z" fill="#3F716F"/>
<path transform="translate(892,660)" d="m0 0h7l8 2-2 1v2l5 1 2-3 7 1 7 8-1 3-6-1-5-3-1-1v5l-2 3-2 7-5 1-4-8-4-1v2l-6 1 1-3 4-1v-8l-10-5v-1z" fill="#03497F"/>
<path transform="translate(866,661)" d="m0 0h17l-2 5-3 2-7 2-3 6v12l-3 5-4 2h-6l-1-5v-8l3-8 3-5h2l-1-2-4 3h-2v-2l9-6z" fill="#034B84"/>
<path transform="translate(669,439)" d="m0 0h6l1 2-6 1-3-1v2l2 2h-4l-1 2-3-1v2l-5-1-1 2-3-1v2l-5-1v2l-4-1v2l-9 2-3 1-2-1-1 2-2-1v2l-12 4-4 1-6 1-1 2-4 1-4-3 2-2v-3l37-11 10-2z" fill="#073D55"/>
<path transform="translate(1056,75)" d="m0 0h9l1 4 4-4h4v11l-7 2-1 1-1 26h-9z" fill="#F8F9F6"/>
<path transform="translate(627,640)" d="m0 0 3 1v5l1 2-1 4-6 2-8 6-16 2-5 5-2 5h-3l-1 3h-3v4l2 1-2 6-5 3-3-1h-3l-1 5-3-1h2v-5h3l2-7 4-2 1-4 5-2 2-5 5-5 4-3 7-2 3-5 10-7 3-3z" fill="#789896"/>
<path transform="translate(576,740)" d="m0 0 3 1v2h-2l-1 5-7 2 4 1 5 1 3 3 1-1h6l1 5 7 2-1 2-3-1v2l-9 1-2-1v3h-2l-1-2-1 2h-3l-4-4-3 1-2-2 1-1-4-2 3-5h-5l-1-2h-4l1-6 1-1h11l5-1 2 1z" fill="#A4A68D"/>
<path transform="translate(1343,862)" d="m0 0h8 4 2v25l-4 5-2 1h-7l-5-5 1-2h3l2 3h7l2-7-3 2h-7l-4-4-2-4 1-9z" fill="#176CAA"/>
<path transform="translate(358,213)" d="m0 0h11l3 3 1 7h-6l-1-4h-5l1 5 10 7 2 3v7l-5 6h-11l-4-5v-7h6l2 6h4v-5l-11-9-1-2v-9z" fill="#F4F5F2"/>
<path transform="translate(662,712)" d="m0 0 1 3 6-1 1 4 10-2v4h-2l1 6-7 8-3 5h-4l-1 4v-4l-6 3-3-1 1-5 6-2-2-3v-3l-9-1-3-5 2-1 3 3v-2l-2-1 11 1v-2h5v-1l-8-2z" fill="#96997F"/>
<path transform="translate(650,764)" d="m0 0h2l1 10h2l-1 4h2v-3h4l1 7 2 4v3l-5-1-1-5-4 3-1-1h-5l-1 6h-2l-1-2-5 3-5-6-2-5v-4l-2-1v-2l5-1 7 1 2 5 3-9-3 1 1-6 1 2z" fill="#C1BCAF"/>
<path transform="translate(887,886)" d="m0 0 25 1 10 4 1 4h-60l1-3 10-4z" fill="#598360"/>
<path transform="translate(1032,643)" d="m0 0 23 1v1h12l5 5-3 3-9-2-5-1-2 6-9-3-12-1-11 2-8 4-6 5-3-1 11-11 13-7z" fill="#0B4173"/>
<path transform="translate(732,213)" d="m0 0h18v5h-11v8h10v5h-10v10h11v6h-18z" fill="#E0E5E3"/>
<path transform="translate(791,215)" d="m0 0h6v6h2v5h-2v16h2v4h-7l-1-1v-19l-4 2-4 1-1 17h-6v-25h6l1 2 2-2h6z" fill="#F4F4EE"/>
<path transform="translate(468,213)" d="m0 0h6v10h2v-2h6l3 2v23h-6l-1-20-3 1-1 19h-6z" fill="#ECEFED"/>
<path transform="translate(660,599)" d="m0 0h2l4 5 2 1v5h5v8l-3 7h-4l-1-6h-2-1l-1 6-3 4-3-1v-3l-2 1-1-3h-3l3-6v-6l4-4 3 1z" fill="#56858E"/>
<path transform="translate(1367,862)" d="m0 0h8l5 5 1 2v7l-3 5-4 3h-7l-6-6v-10l4-5z" fill="#176CAA"/>
<path transform="translate(803,213)" d="m0 0h6l1 9 1-1h6l3 3v22h-6l-1-20h-3l-1 20h-6z" fill="#F6F7F6"/>
<path transform="translate(591,213)" d="m0 0h6l1 9 1-1h6l3 3v22h-6l-1-20h-3l-1 20h-6z" fill="#F1F0EB"/>
<path transform="translate(981,585)" d="m0 0 4 2 3 3 2 6 6 4 2 5-1 2-7-1 1-4h-6l2 4h-5v-5l-5 1v-2l-5-1-7-3 2-7 7-2z" fill="#4C766D"/>
<path transform="translate(937,610)" d="m0 0 5 1v3l8 3 1 3-2 1 1 6 2 1-8 1-6 4h-3v2l6 2 5 5 1 4-5 2-4-2-1-3-8-4-1-3-6-2 4-2 4-1 2-4 6-1 3-1 1-4-6-2v-8z" fill="#4B756D"/>
<path transform="translate(553,221)" d="m0 0h10l3 3v22h-7l-1 1h-6l-3-4v-7l5-4 5-3 1-4-4 1-1 3h-6v-5z" fill="#F5F5F2"/>
<path transform="translate(757,221)" d="m0 0h10l3 3v22l-7-1v2h-6l-4-5 1-7 5-4 4-2 1-4-4 1-1 3h-5v-5z" fill="#F6F6F3"/>
<path transform="translate(703,221)" d="m0 0h9l4 4v10h-11l1 6 4 1v-4h6v5l-4 4h-9l-4-6v-15z" fill="#F7F6F2"/>
<path transform="translate(532,221)" d="m0 0h8l5 4v10h-12l1 6h4l1-3h6l-1 6-3 3h-9l-4-4v-18z" fill="#F6F6F3"/>
<path transform="translate(617,221)" d="m0 0h8l5 4v10h-12l1 7 4-1 1-3h6l-1 6-3 3h-9l-3-3-1-3v-16z" fill="#E6E9E6"/>
<path transform="translate(378,221)" d="m0 0h6l1 20h3l1-20h6v26h-6v-2l-3 2h-5l-3-3z" fill="#E2E4DF"/>
<path transform="translate(661,816)" d="m0 0h2l2 4-1 7-1 3-5-1v5h2v3h-4v2l3-1 3 2 7 2 2 1v3h4v2l-13-2-1 4-8-2v-3h-2l-1-5-6-2 2-5 6-4 9-4 1-2h-2z" fill="#C1BCAF"/>
<path transform="translate(678,214)" d="m0 0h5v9l3-2h6l2 2v23h-6l-1-20-3 1-1 19h-5z" fill="#FEFEFE"/>
<path transform="translate(614,610)" d="m0 0 1 2-2 5-4 4v2l2 1 3 9 1 2-3 5h-2v3l-6 1h-8l4-4-4-7v-6l8-4 7-10z" fill="#357693"/>
<path transform="translate(566,837)" d="m0 0 1 2h2l2 9 5 1-2 9h3v-2l5 1 1 12-3 3-5 1-3-9-4-5-2-1v-3l-1 2-3-1 1-4-4-1 4-5z" fill="#A1ADA5"/>
<path transform="translate(400,221)" d="m0 0h6v2h2v-2h7l2 3v22h-6v-20l-4 1-1 19h-6z" fill="#FAF9F2"/>
<path transform="translate(1268,861)" d="m0 0 8 1 3 4v15h2v3l-8-1-1 1h-8l-3-3v-6l4-4 9-1v-4h-7l-2 3-3-1 2-5z" fill="#166AA7"/>
<path transform="translate(637,221)" d="m0 0h10l3 3v5h-6l-1-3-3-1 2 5 8 6v7l-4 4h-9v-2h-2l-1-7h5l1 3 4 1-3-5-7-6v-7z" fill="#F3F4F0"/>
<path transform="translate(1309,862)" d="m0 0h10l3 3v16l3 1-1 2-5-1h-3l-1 1h-7l-4-4 1-6 4-3 8-1v-4h-7l-2 3-3-1 2-4z" fill="#166AA8"/>
<path transform="translate(683,689)" d="m0 0h5v5l4 2-1 4h-2l-1 8 2 1-1 4-7 4-2-3 1-7 4-5 2-5-5-1-1 1 2 1-1 4-5-1-2 4h-3v2h-5l-1-2 3-1 1-2h2v-6l5-5 5 1z" fill="#6F8A6B"/>
<path transform="translate(1211,862)" d="m0 0h8l4 4 1 2v6h-15l3 6h6l3-3h3l-2 5-3 2h-8l-5-5-1-2v-8l3-5z" fill="#186DAB"/>
<path transform="translate(575,221)" d="m0 0h8l4 4v5h-6l-1-4h-2v15h2l1-5h6v7l-4 4h-8l-4-5v-17z" fill="#F1F2ED"/>
<path transform="translate(1177,862)" d="m0 0h9l3 2 1 17 2 2-4 1-3-2-3 2h-7l-3-3v-6l3-3 10-2v-4h-8l-3 3-1-3z" fill="#196FAD"/>
<path transform="translate(1139,862)" d="m0 0 4 2 2-2h7l3 2 2-2h7l3 2 1 19-4 1-1-18h-6l-1 2-1 16-4-1-1-17-3-1-4 4-1 15h-3z" fill="#196FAD"/>
<path transform="translate(175,779)" d="m0 0 6 2 9 5-1 4-6-2-8-4v4l5 2 7 4-1 3-5-1-10-5 1 4 11 6-2 4-16-8 4-10h2l2-7z" fill="#186EAC"/>
<path transform="translate(572,457)" d="m0 0 3 1-2 3-16 7-28 13-29 15-3-1 5-2 1-3 27-14 30-14z" fill="#287AB8"/>
<path transform="translate(554,722)" d="m0 0 3 1 2 6v9h-2v3h-2l-1 5-2 2-6 1v-5l-4-1v-4l4 1 1-7 3-9z" fill="#A4A181"/>
<path transform="translate(1070,578)" d="m0 0 3 2v2l12 2 6 2 6-1 3-3 6 5 1 4 5 2 3 3-1 3-5-4h-5v1h-7l-3-3-18-7v-2l-5-1-2-1z" fill="#5189A3"/>
<path transform="translate(413,332)" d="m0 0h2l-1 4-13 16-9 10-7 8-12 12-11 9-13 11h-3l1-3 10-8 14-12 21-21 9-11z" fill="#D7D9D3"/>
<path transform="translate(361,218)" d="m0 0h5l1 5h6l1-3 2 2h2v23l1 4-4 2-7-1-1-2h2l2-4 2-3v-7l-5-5-8-6z" fill="#073F58"/>
<path transform="translate(198,739)" d="m0 0 6 1 9 7-1 5-2 3 5 2-2 4-12-7-8-5 1-4z" fill="#186EAC"/>
<path transform="translate(152,809)" d="m0 0 23 5 1 2-2 3-7-1v5l3 2-1 5-4-2-13-11-3-3z" fill="#176AA6"/>
<path transform="translate(958,723)" d="m0 0 2 4 2 14 4 5 3 9v5l-3-1-5 2v4h-6l-2-2h2l2-11 2-3v-5l-2-4 1-6-4-5 4-2z" fill="#477571"/>
<path transform="translate(698,599)" d="m0 0m-4 0 4 1v2l-9 3-4 5-2 6-3 1-2 6h-2l-1 7-8 1 2-4 3-9 1-7 8-7 10-3z" fill="#40726F"/>
<path transform="translate(1229,82)" d="m0 0h6l2 2v22l-2 3h-6l-1-1v-25z" fill="#103444"/>
<path transform="translate(624,610)" d="m0 0 2 3 14 2 1 5-2 2h-5-3l-2 1-2 5-6 3-7-1-3-3v-3l-3-1 1-2 7 3 1 4h3l3-5-1-3v-7h2z" fill="#53838A"/>
<path transform="translate(923,689)" d="m0 0h12v2l-9 4-15 4h-14l-4-4 1-1 10-1 6-2 1-1z" fill="#044577"/>
<path transform="translate(377,305)" d="m0 0h3l-2 4-10 13-10 11-7 8-7 7-8 7-15 12h-2v-3l14-11 4-2v-2l8-7 13-13 9-11z" fill="#DDDFD7"/>
<path transform="translate(490,215)" d="m0 0h6v6l3 1v4h-3l1 15 2 1v4h-7l-2-2v-18h-2l1-5z" fill="#EAEDEC"/>
<path transform="translate(183,765)" d="m0 0 5 1 8 5 1 1v6l-4 4-6-1-6-4-3-3 2-6z" fill="#186EAC"/>
<path transform="translate(666,215)" d="m0 0h5v6h3v5h-2l1 15 1 5h-7l-1-1v-19h-3l1-5h2z" fill="#EFF1F0"/>
<path transform="translate(912,844)" d="m0 0h3v2l3-1v9l-4 8-1 1h-5l-3-3-3-5 1-4 5-5h4z" fill="#6F8A6D"/>
<path transform="translate(837,697)" d="m0 0h8l6 2 2 4-1 2-17 5-4-1-3 1v-4z" fill="#738C6E"/>
<path transform="translate(1075,625)" d="m0 0h5l1 4-1 2 6-1 3-1 6 4 4 5-1 3-2 1h-9l2-1-2-3-5-1v-2h-2v2h-3l1-6-8-1v-3z" fill="#3E7070"/>
<path transform="translate(1018,590)" d="m0 0 6 1 8 5 4 3-1 4-7 4-5-2v-2l-6-2-1-7z" fill="#4B756D"/>
<path transform="translate(559,698)" d="m0 0h4v4h-3l1 5 2 3v10l-1 2 4 1-4 10 2 1-1 5-5 2v-12l-2-6 1-11 1-13z" fill="#738C6E"/>
<path transform="translate(344,279)" d="m0 0h3l-2 5-13 16-12 13-13 12-12 9h-2l2-4 10-8 3-1v-2l8-7 11-11 9-11z" fill="#DDE0D7"/>
<path transform="translate(478,512)" d="m0 0 3 1 5-1 1 2-2 2-1 2-16 8-7 5-8 1-2-2 9-5 3-3-2-1 6-1 2-1v-3l6-3 2 1z" fill="#073E56"/>
<path transform="translate(423,213)" d="m0 0h5l1 1v32h-6z" fill="#EDEFEE"/>
<path transform="translate(613,741)" d="m0 0h2v2l-4 4 1 3 15 5h9l-1 2-4 1-1 3 4 1-1 3-5-1 1-4-4 2-4-1-2-3h-8l-1-2 1-2-4 1v-2l-2-1 3-1 1-3-4-1 5-5z" fill="#728B6D"/>
<path transform="translate(232,690)" d="m0 0 5 1 4 4-3 4v3h3l-1-4 1-2 4 1 1 5-4 5h-6l-8-6-1-5 3-5z" fill="#176BA7"/>
<path transform="translate(207,725)" d="m0 0 6 2 10 7-1 3-4-1-11-6 2 4 9 6-1 4-5-2-15-10 1-4 4 1 2 1 2-4z" fill="#186EAC"/>
<path transform="translate(630,874)" d="m0 0h2l-1 6-1 4 2-1v-4h3v5l4-4 1 4-5 9 4-2v2l3 1-1 1h-16l1-2h-4l1-3 2-1-2-2v-5h2l1 3 2-5z" fill="#93977B"/>
<path transform="translate(513,221)" d="m0 0h6l1 3 2-3h3v7l-6 1v18h-6z" fill="#EAECEA"/>
<path transform="translate(558,811)" d="m0 0 3 1v4h2l1 3-1 4v2h2v2l-2 1-1 3-7-1v-2h-3l-5-9v-2l8 1 2-5z" fill="#BDBAAE"/>
<path transform="translate(653,692)" d="m0 0h5v2l4-1-1 5h9l2-2 1 4-1 2h-2v-2h-4l-2 4-3 1h-13l-3-5 4-2 8-1v-2l-3 1h-8v-3z" fill="#A4A181"/>
<path transform="translate(810,801)" d="m0 0h8l3 4-2 2v-2h-2l1 3v3l-1 4-6-1-3-1h-12l-4-4h-12l-4-3-6-1h-6l2-2h8l12 2 7 1 4 5 10 1v-2l5 1-1-4-1-2-5-1v-1l5-1z" fill="#3C7A91"/>
<path transform="translate(1288,862)" d="m0 0h9l3 3v3h-3l-1-2h-7v3l11 4 1 1v6l-3 3-2 1h-8l-4-3v-4h3l2 3h7v-4l-10-3-2-3 1-6z" fill="#166BA9"/>
<path transform="translate(216,712)" d="m0 0 6 1 3 4-3 6 4 2-1-6 3-2 2 3-1 7-2 2-7-1-6-4-2-2 1-7z" fill="#176AA6"/>
<path transform="translate(1227,878)" d="m0 0 2 2v7l-3 8h-13l2-6h-3l-2-5h10z" fill="#062A3D"/>
<path transform="translate(984,559)" d="m0 0 3 1 1 3 14 6 6 4v3l-7-1 1 2-11-1-7-2 2-2-1-3 3-2-5-6z" fill="#357694"/>
<path transform="translate(605,744)" d="m0 0 2 1-1 2 3 1-1 4v2h3v3h8l3 4 7-1v5l-8 1h-3l-1-4h-6l-3 3 1-4 1-1h-4l-4-4h-4l1-5 4-2z" fill="#98997E"/>
<path transform="translate(625,710)" d="m0 0 1 3h4v5l-4 3h-2l-1 3h-4l-1 2-13 1-7 1-2-1 1-3 7-1 2 1 7-3 6 1v-3l-2-1 1-3h3l2-4z" fill="#95987C"/>
<path transform="translate(698,601)" d="m0 0 12 2 8 2-1 2h-12l-1 1-11 2-9 7h-2l-1 4-3 1 1-5 4-2 2-7 5-5z" fill="#54848B"/>
<path transform="translate(776,221)" d="m0 0h6l1 2 4-2v7l-4 1-1 17h-6z" fill="#F7F6F0"/>
<path transform="translate(803,213)" d="m0 0h6l1 9 1-1h6l3 3v22h-6l-1-20h-4l-1-2v-10h-5z" fill="#E8EBE9"/>
<path transform="translate(902,619)" d="m0 0h7l2 3h7l1 2-11 5-7 2-8-2 3-9z" fill="#4C766D"/>
<path transform="translate(945,564)" d="m0 0 12 1 12 3 1 3 14 2v1l-8 1h-3l-11-3-12-1-11-2v-2h5z" fill="#072A3C"/>
<path transform="translate(314,254)" d="m0 0 2 2-8 11-12 14-8 8-11 9-7 6h-2l1-4 14-11 15-15 9-11z" fill="#D9DCD5"/>
<path transform="translate(583,463)" d="m0 0 8 1 4 1-1 2-5 1-1 2-5 1-12 6-5 1-3-3 5-2-1-3z" fill="#073F57"/>
<path transform="translate(1240,862)" d="m0 0h2v3l4-3h7l4 4v17h-4l-1-17h-6l-2 2-1 15-3 1z" fill="#196FAD"/>
<path transform="translate(1368,865)" d="m0 0h6l3 3v9l-3 4h-6l-3-4v-9z" fill="#062A3D"/>
<path transform="translate(955,680)" d="m0 0h4l1 4-2 3-7 1-23-2v-2l4-3h22z" fill="#044576"/>
<path transform="translate(1345,865)" d="m0 0h6l3 4v8l-3 4h-6l-3-5v-7z" fill="#072A3E"/>
<path transform="translate(191,752)" d="m0 0 4 1-1 4h-4l2 2 5-2h5l3 3-1 6-3 3-6-1 1-4h4l1-2-7 2h-6l-2-2 1-6z" fill="#186EAC"/>
<path transform="translate(927,536)" d="m0 0h16l24 4v1l-8 1h-15l-1 2-10-2-7-4z" fill="#3E8DCB"/>
<path transform="translate(782,795)" d="m0 0h7l2 6v4l-8 1-9-2-6-1 4-4 3-2z" fill="#738C6E"/>
<path transform="translate(708,859)" d="m0 0 3 1-1 8-4 11-2 2h-4l-2-4 1-10h-2v-2l4-1 2 3 3-1v-2h-2l2-4z" fill="#8C967E"/>
<path transform="translate(686,221)" d="m0 0h6l2 2v23h-6l-1-20h-3z" fill="#F1F2F0"/>
<path transform="translate(476,221)" d="m0 0h6l3 2v23h-6l-1-20h-3z" fill="#F5F3EE"/>
<path transform="translate(666,776)" d="m0 0 3 1 2 5 4 1 5 2 1 4-2 1-1 3h-9l-1-7h-5l1-8z" fill="#C2BDB0"/>
<path transform="translate(400,221)" d="m0 0h6v2l2 1-1 3-1 19h-6z" fill="#F1F1EE"/>
<path transform="translate(899,398)" d="m0 0 30 2 28 3 22 3 12 2v1l-13-1-45-5-36-2v-2z" fill="#186DAB"/>
<path transform="translate(601,221)" d="m0 0 5 1 2 2v22h-6l-1-20-3-2z" fill="#FCFAF3"/>
<path transform="translate(282,229)" d="m0 0h2l-1 4-8 11-12 13-11 10-7 5h-2v-3l11-8 16-16z" fill="#DADCD7"/>
<path transform="translate(688,854)" d="m0 0h2l1 2 1 9 2 3-1 8-4 2-1 11h2l1 6h-4v-2l-2-1 1-14 1-5 4-1h-4v-5l2-4-2-2z" fill="#648661"/>
<path transform="translate(576,740)" d="m0 0 3 1v2h-2l-1 5-7 2 2 2v3h-5v-2h-6l-5-1 1-6 1-1h11l5-1 2 1z" fill="#A8B1A7"/>
<path transform="translate(857,540)" d="m0 0h5v2l4 1v3l-10 2-2 1v-4l-5 2h-22l-6-1v-1l30-3h6z" fill="#3E8CCB"/>
<path transform="translate(435,221)" d="m0 0h6v25h-6z" fill="#EFF0ED"/>
<path transform="translate(250,204)" d="m0 0h2l-1 6-8 10-10 11-9 7-3 3h-4v-3l8-5 5-5 7-6 8-10z" fill="#D6DBD3"/>
<path transform="translate(1105,862)" d="m0 0h7l4 3 1 5-3-1-4-4-5 1-2 4 1 9 7 1 3-4 3 1-3 6-2 1h-7l-5-4-1-2v-10l4-5z" fill="#1C72B0"/>
<path transform="translate(1052,644)" d="m0 0 3 1h12l5 5-3 3-9-2-5-1-2 6-6-2-2-1v-2l4-3-1-3z" fill="#083E71"/>
<path transform="translate(682,695)" d="m0 0 5 2-2 6-3 4-1 6-5 1v-2l-4 2-1-3-5-1 1-2h5v-3l4-2 1-2h5l1-3-3-1z" fill="#9E9E84"/>
<path transform="translate(1382,862)" d="m0 0h4l6 16 5-15 4-1-2 9-5 12-5-1-7-18z" fill="#176CAA"/>
<path transform="translate(654,710)" d="m0 0 1 4 6 3 7 2-1 2-5-1v2l-5 1-4-1v2l-4-1 2 3 5 1v2l-3 1-6-2-1-5 2-3 4-1 1-3h-6v-2l4-3z" fill="#98997E"/>
<path transform="translate(566,837)" d="m0 0 2 2 3 12 2 2-1 6h-4l-2-1v-3l-1 2-3-1 1-4-4-1 4-5z" fill="#B4B6AC"/>
<path transform="translate(793,605)" d="m0 0h6l2 3v14l-4 3h-2l2-4h2l-1-3-6-2-3-5 1-5z" fill="#04487D"/>
<path transform="translate(954,557)" d="m0 0 2 1 1 5 13 4 5 2v2l8 1v1h-8l-5-2-1-2-12-3-17-2-5-2 4-2 5-1 10 1z" fill="#337696"/>
<path transform="translate(236,728)" d="m0 0v3l-11 18-2 1-1 3h-2v3h-2v2l-3-1-1-4 9-9 8-13z" fill="#074058"/>
<path transform="translate(649,721)" d="m0 0 4 3v-2l-2-1 12 2 2 8 2-1-1 4-3 2-3 5-2 1-3-1 1-5 6-2-2-3v-3l-9-1-3-5z" fill="#6E8A6A"/>
<path transform="translate(764,561)" d="m0 0h6l1 2-9 1-10 2-10 4-4 1h-11l-4-2 17-4 4-2 17-1z" fill="#196FAD"/>
<path transform="translate(619,863)" d="m0 0v3l3-1 4 1 1 2-1 5-2 1-1 3-7-1-5-7 1-4z" fill="#89947B"/>
<path transform="translate(1197,856)" d="m0 0h3v6h3v3h-3v16h3l-1 3-5-1-1-2v-16h-3l1-3h2v-5z" fill="#196EAC"/>
<path transform="translate(586,700)" d="m0 0 8 1v2l-5 3h-2v2h-2v-2h-2l-2 7-1 1h-5l-3-4 5-5 5-4z" fill="#A5A282"/>
<path transform="translate(899,655)" d="m0 0 10 1 3 3v2l5 1v1l-5 1-2 3-5-2v-2l-6-2h-7l-5 2 5 2-3 1-7-1 1-4 7-1 7-2 2 1z" fill="#3D7377"/>
<path transform="translate(877,538)" d="m0 0h11l-1 4 6-1 5 1v4l-2 4h-5l-1-2 2-2-11-1-4-5z" fill="#3786C4"/>
<path transform="translate(534,474)" d="m0 0 3 1-4 4-22 11-11 6-3-1 5-2 1-3 27-14z" fill="#297CBB"/>
<path transform="translate(573,751)" d="m0 0 5 1 3 3 1-1h6v9l-4-2h-3v2l-8-2-1-3v-3z" fill="#C0BCAF"/>
<path transform="translate(937,864)" d="m0 0 5 1 1 1v5h3l1 13-4-1-5-8-2-3z" fill="#3D7277"/>
<path transform="translate(683,846)" d="m0 0 4 1 1 2v12l2 3-2 3v4l3-1v2l-4 1-1 10-2-1 1-7-2 1 1-9 1-11-3-3-1-5z" fill="#98997E"/>
<path transform="translate(681,718)" d="m0 0h2v12l-5 1-2 5-1 2-3 1-2 4-4 1-1-5 5-2 4-7 4-4v-6z" fill="#6C8968"/>
<path transform="translate(588,670)" d="m0 0h1v5h-3v4l2 1-2 6-5 3-3-1h-3l-1 5-3-1h2v-5h3l2-7 4-2 1-4 5-2z" fill="#738C6E"/>
<path transform="translate(258,698)" d="m0 0 2 1-8 10-1 2h-2l-1 4h-2v3h-2l-2 5-4 4-1-8 2-4 4-1 9-10 2-4z" fill="#074059"/>
<path transform="translate(833,693)" d="m0 0 4 2-5 5-8 5-3 2h-5v-3l5-4 2-3z" fill="#738C6E"/>
<path transform="translate(389,222)" d="m0 0h5v24h-4v-3h-2z" fill="#FEFEFE"/>
<path transform="translate(158,799)" d="m0 0h7l4 4 5 3 6 1-3 5-6-2-7-3h-3l-4-4z" fill="#176DAB"/>
<path transform="translate(965,746)" d="m0 0h1l3 9v5l-3-1-5 2v4h-6l-2-2 3-1 4-10 2-2h3z" fill="#3D7379"/>
<path transform="translate(557,754)" d="m0 0h8l-2 5 4 2-4 1-3 3-1 2-3-2v-4l-5-1-2-1v-4z" fill="#A09F81"/>
<path transform="translate(361,218)" d="m0 0h5l1 5h6l1-3 3 5-1 6h-5l-11-8z" fill="#183C4B"/>
<path transform="translate(689,694)" d="m0 0 3 2-1 4h-2l-1 8 2 1-1 4-7 4-2-3 1-7 4-5z" fill="#628561"/>
<path transform="translate(613,731)" d="m0 0h1v6l2 3v5l-2 2 12 7-4 1-6-3-5-2-1-3 3-4h2v-2l-6 3h-2l1-8 1-4z" fill="#91967B"/>
<path transform="translate(897,556)" d="m0 0 11 2 9 3v2h-15v2l-5 1-2-6z" fill="#558CA2"/>
<path transform="translate(982,676)" d="m0 0 5 1-1 5-6 4h-6l-3-2v-5l10-2z" fill="#4C766D"/>
<path transform="translate(634,754)" d="m0 0h5v4l1 2 3-3-1 5-2 1-2 4-7 1-2-3h4v-3l-3-1 1-4 4-1z" fill="#98997E"/>
<path transform="translate(685,419)" d="m0 0h8l-2 2-7 1v2l-12 3-16 3 1-2h3v-2z" fill="#2879B7"/>
<path transform="translate(944,866)" d="m0 0h3v3h3l-1-2h3l3 7-3 5-4 1-1 3-1-12h-3z" fill="#034980"/>
<path transform="translate(859,681)" d="m0 0 2 4 3 1v7l-3 2h-6l-1-7 2-5z" fill="#186BA8"/>
<path transform="translate(917,561)" d="m0 0 7 2-1 3h-7v2l-3 1h-8v-4l-3-2 10-1 5 1z" fill="#256C97"/>
<path transform="translate(538,746)" d="m0 0 1 3-1 1 3 1v-3l10 1 1 3 7-1 1 3-3 1h-8l-1 3v-3h-4l-1-2-7-1 1-4z" fill="#95997F"/>
<path transform="translate(223,701)" d="m0 0 4 1v6l4 2 5 4-1 3-4-1-11-8 2-4z" fill="#186EAC"/>
<path transform="translate(1042,563)" d="m0 0 5 1 12 6 4 4 3 2-8-1-16-8z" fill="#598EA3"/>
<path transform="translate(413,332)" d="m0 0h2l-1 4-13 16-9 10-2-2 13-15z" fill="#E6E7DE"/>
<path transform="translate(678,716)" d="m0 0h2v4h-2l1 6-1 2h-2v-2l-7 2v-7l1-3z" fill="#A2A081"/>
<path transform="translate(1052,668)" d="m0 0 5 3v-2l2 1 1 2h3l8 1-3 1v2l6-1v3h8v2h-11l-11-4-8-6z" fill="#07344A"/>
<path transform="translate(674,779)" d="m0 0 8 1 6 1 1 4-5 4h-3l-2-4-8-3v-2z" fill="#A2AEA5"/>
<path transform="translate(1103,594)" d="m0 0h6l5 4 2-4 7 7 2 1v3l-9-3-8-3-7-2z" fill="#337696"/>
<path transform="translate(1121,854)" d="m0 0 3 1v28l-3 1z" fill="#196FAD"/>
<path transform="translate(812,771)" d="m0 0 5 1-2 4-5 4-2 3h-2l-1 3h-4l1-4 3-6 5-3z" fill="#738C6E"/>
<path transform="translate(884,890)" d="m0 0h7l5 2-1 3h-24l2-2z" fill="#1C6696"/>
<path transform="translate(747,551)" d="m0 0h11l-3 3-6 2-15 2-1-2 5-3z" fill="#398AC8"/>
<path transform="translate(617,876)" d="m0 0h2l2 2 2 1-1 4 2 1 1 4v3l-2 1 4 1-2 2h-5l1-6-4-1z" fill="#9FA186"/>
<path transform="translate(675,882)" d="m0 0 1 4h2v4h3l2-3h2v5l3 1-1 2h-11l-1-7-3 1 1-5z" fill="#95987C"/>
<path transform="translate(219,180)" d="m0 0h2l-1 4-6 9-12 12-4 3h-2v2h-3l1-3 13-10 7-9z" fill="#F9F7EF"/>
<path transform="translate(540,715)" d="m0 0 4 5-2 6 1 4-1 3-1 10-2 2-1-1v-10l2-5-1-5z" fill="#447B88"/>
<path transform="translate(453,225)" d="m0 0 4 1v15l-4 1-1-1v-15z" fill="#13384B"/>
<path transform="translate(681,591)" d="m0 0h9l2 1v5l-4 1h-8l-2-2 2-1v-3z" fill="#53838B"/>
<path transform="translate(656,427)" d="m0 0 4 1 5-1 4 1-24 7h-7l-1-2z" fill="#2173B1"/>
<path transform="translate(547,702)" d="m0 0h5l-5 8h2l1-3 1 2-2 8-2 3h-2l-1-2h-3l3-6 2-7z" fill="#738C6E"/>
<path transform="translate(934,843)" d="m0 0 11 1 1 3-2 3h-7l-3 1-3-3v-2h3z" fill="#337696"/>
<path transform="translate(689,658)" d="m0 0h2l3 4 1 5-4 5-2-1-3-7v-3l-2-1z" fill="#708A6C"/>
<path transform="translate(954,589)" d="m0 0 2 2 2 4 7 2-4 2-3 2h-4v-3l-4-1v-6z" fill="#4C766D"/>
<path transform="translate(626,872)" d="m0 0 4 1v6l-2 2-2 5-1-4-4 2 1-5-3-1 2-2 2 1 1-4z" fill="#96987D"/>
<path transform="translate(579,857)" d="m0 0h3l1 12-3 3-5 1-1-7 4-2z" fill="#929F8F"/>
<path transform="translate(784,541)" d="m0 0h2v4h21v2h-3v2l-25-4-4-2 1-1z" fill="#3E8DCB"/>
<path transform="translate(666,700)" d="m0 0h4l-1 5-2 1 5 1-3 2h-3v-2h-2l-2 4h-3l1-3-4-1v-3h6z" fill="#788E70"/>
<path transform="translate(369,381)" d="m0 0 2 2-12 11-10 8h-3l1-3 10-8z" fill="#E4E4DA"/>
<path transform="translate(766,803)" d="m0 0h8l12 2 7 1 4 6-4-1-1-2h-12l-4-3-6-1h-6z" fill="#3B7991"/>
<path transform="translate(855,649)" d="m0 0 4 1-2 2 2 2h-10l-12 2-11-1-2-1v-3l6 1 5 1h7l9-2z" fill="#40747A"/>
<path transform="translate(1139,862)" d="m0 0 6 2-2 5-1 15h-3z" fill="#1A70AE"/>
<path transform="translate(805,760)" d="m0 0 3 1-3 5-2 16-4 6v-3l-1-4 2-5 3-14z" fill="#527C62"/>
<path transform="translate(501,491)" d="m0 0 1 2-7 6-14 8h-3l2-4z" fill="#1A70AE"/>
<path transform="translate(1090,81)" d="m0 0 5 1 2 2v6h-9v-7z" fill="#1A3C49"/>
<path transform="translate(1182,873)" d="m0 0h4v5l-3 3-4 1-3-1-1-5 2-2z" fill="#043D77"/>
<path transform="translate(625,690)" d="m0 0 5 1v3l-5 2-1 4-2 3h-4l1-7 5-5z" fill="#C1BCAF"/>
<path transform="translate(926,840)" d="m0 0 2 1-1 5-1 2h-2v2l-3 3-2 4h-2l1-15 5 1 1 2h2z" fill="#034B85"/>
<path transform="translate(701,883)" d="m0 0h3l1 10 1 2h-9v-4l2-1-1-4z" fill="#909881"/>
<path transform="translate(560,716)" d="m0 0 2 1-1 6 3 1h-2v9l2 1-1 5-5 2 1-19z" fill="#6D8A69"/>
<path transform="translate(688,854)" d="m0 0h2l1 2 1 9 2 3v5l-4-2-3 1v-5l2-4-2-2z" fill="#708B6C"/>
<path transform="translate(676,665)" d="m0 0 4 2 1 5 4 1-1 2-9 1-2 2v-2h-2l1-3h2z" fill="#98997E"/>
<path transform="translate(1124,82)" d="m0 0h6l2 2v6h-9v-7z" fill="#143745"/>
<path transform="translate(946,845)" d="m0 0 7 4-1 3 2 4h-3l-5-3-9-3v-1h7z" fill="#062D44"/>
<path transform="translate(829,732)" d="m0 0 6 1-6 7-15 16v-3l10-12 4-6z" fill="#49756D"/>
<path transform="translate(387,223)" d="m0 0h1v19l-4-1v-16h2z" fill="#092F45"/>
<path transform="translate(659,758)" d="m0 0 3 1v8l-6 4-2-1 1-8h2z" fill="#92977B"/>
<path transform="translate(960,722)" d="m0 0h1l2 9 2 3 1 7 1 2-2 3v-2l-3-1-1-2-2-18z" fill="#072A3C"/>
<path transform="translate(653,692)" d="m0 0h5v2l4-1-1 5 3 1-6 1v-2l-3-1h2v-2l-3 1h-8v-3z" fill="#999C83"/>
<path transform="translate(1316,873)" d="m0 0h2v6l-2 2h-7l-1-5 2-2z" fill="#062A3E"/>
<path transform="translate(1028,644)" d="m0 0 2 1-5 4-9 4 2 2-6 4-5 4-3-1 11-11z" fill="#072A3D"/>
<path transform="translate(1130,862)" d="m0 0h3v21h-3z" fill="#196FAD"/>
<path transform="translate(676,809)" d="m0 0h6l1 3-1 2h-4l-1 7h2l-1 2-4-2-1-5 2-4z" fill="#98997E"/>
<path transform="translate(1086,672)" d="m0 0 6 5-2 2 2 3-9 3-4-1 5-1v-2l-2-1z" fill="#072B3D"/>
<path transform="translate(1273,873)" d="m0 0h2l-1 7-2 1h-6l-1-5 2-2z" fill="#072B3E"/>
<path transform="translate(929,563)" d="m0 0h6l2 1v2l-8 3-4 1-9-2v-2l8-1 3 1v-2z" fill="#072A3C"/>
<path transform="translate(634,434)" d="m0 0 8 1-4 2-15 5h-2v-2l-2-1z" fill="#2478B6"/>
<path transform="translate(713,665)" d="m0 0 8 1 1 4-3 4-5-1-1-2z" fill="#718B6C"/>
<path transform="translate(1039,657)" d="m0 0 8 1 4-1 2 2h-2v2h2l-1 4h-3v-2l-7-1-3-3z" fill="#072D42"/>
<path transform="translate(987,565)" d="m0 0 2 2v2h-4l2 4-10-1-2-1v-2l-4-1 16-1z" fill="#54848B"/>
<path transform="translate(1456,82)" d="m0 0h6l1 1v7h-8v-7z" fill="#082B3D"/>
<path transform="translate(1330,82)" d="m0 0h6l1 1v7h-8v-7z" fill="#092C3D"/>
<path transform="translate(971,82)" d="m0 0h6l1 1v7h-8v-7z" fill="#092C3E"/>
<path transform="translate(682,695)" d="m0 0 5 2-2 6-3 3v-3h-2l-1 3-7 1v-2l4-2 1-2h5l1-3-3-1z" fill="#8C967B"/>
<path transform="translate(892,660)" d="m0 0h7l8 2-2 1v2l2 1-11-2h-9l-2-2z" fill="#072A3C"/>
<path transform="translate(833,544)" d="m0 0h16l-3 3h-19l-6-1v-1z" fill="#196FAD"/>
<path transform="translate(676,697)" d="m0 0 7 1-1 4-5-1-2 4h-3v2h-5l-1-2 3-1 1-2h2v-2h4z" fill="#5D845C"/>
<path transform="translate(955,866)" d="m0 0h6l3 2-1 5-7-1-1 2-3-5v-2z" fill="#1B6CA6"/>
<path transform="translate(671,610)" d="m0 0h2v8l-3 7h-4l-1-6h-2v-2l5 1 3-1 1-2h-3v-2h2z" fill="#54848B"/>
<path transform="translate(285,287)" d="m0 0 2 2-7 7-10 8h-2l1-4 14-11z" fill="#E0DFD4"/>
<path transform="translate(1212,865)" d="m0 0h6l3 5v1h-12l2-5z" fill="#072A3E"/>
<path transform="translate(720,831)" d="m0 0 1 2v14l-5 3-1-4-2-4 5-2 1-8z" fill="#8F9883"/>
<path transform="translate(836,733)" d="m0 0 6 1 2 6-3 9-3 7-1-4 2-6 1-10-4-1z" fill="#4A756D"/>
<path transform="translate(1209,875)" d="m0 0h10l2 1-2 4-1 1h-6l-3-5z" fill="#062C42"/>
<path transform="translate(683,846)" d="m0 0 4 1 1 2v8l-2 4-1-5-3-3-1-5z" fill="#879376"/>
<path transform="translate(557,738)" d="m0 0 2 2h3l-1 3h-2v2l-2 1-2 6h-3l-1-2-3-2 5-2 2-5h2z" fill="#9B9B7F"/>
<path transform="translate(684,610)" d="m0 0 1 2-2 4-3 1-2 6h-2l-1 7h-3v-6l4-5 7-8z" fill="#4C766E"/>
<path transform="translate(534,474)" d="m0 0 3 1-4 4-13 6v-4z" fill="#287BBA"/>
<path transform="translate(937,864)" d="m0 0 5 1v3l-3 2 1 4 5 7h2v3l-4-1-5-8-2-3z" fill="#387893"/>
<path transform="translate(588,759)" d="m0 0 8 2-1 2-3-1v2l-9 1-2-1v3h-2v-4h2v-2l5-1 1 1z" fill="#A4A58C"/>
<path transform="translate(1125,662)" d="m0 0 4 1 3 4-1 2 3-1 1 5-2 5h-1v-5l-4 1v-6l-1-2-3-1z" fill="#082C40"/>
<path transform="translate(1114,876)" d="m0 0 3 1-3 6-2 1h-7l-4-3 1-3v2h9z" fill="#2175B3"/>
<path transform="translate(916,855)" d="m0 0h1l-1 8-3 3-7 2-2-4 2-4 2 2h5z" fill="#387793"/>
<path transform="translate(618,235)" d="m0 0h11l1 3h-6l-1 4h-4z" fill="#224C5F"/>
<path transform="translate(533,235)" d="m0 0h11v3h-5l-1 4-5-1z" fill="#234E60"/>
<path transform="translate(360,232)" d="m0 0 5 2 2 2v5l-5 1-2-2z" fill="#103547"/>
<path transform="translate(986,581)" d="m0 0h2l2 6 4 4-6 1-1-4-4-2-1-3z" fill="#3B747F"/>
<path transform="translate(1e3 707)" d="m0 0h17v1l-16 1-6 3h-5v-1l-5-1 3-2z" fill="#072A3C"/>
<path transform="translate(608,629)" d="m0 0h2l2 4-1 7-2 2h-4l2-5v-6z" fill="#196FAD"/>
<path transform="translate(296,273)" d="m0 0h2l-2 4-11 11h-2l2-4 7-8z" fill="#0F374C"/>
<path transform="translate(282,229)" d="m0 0h2l-1 4-8 11-3 2v-4z" fill="#DEE1D8"/>
<path transform="translate(799,783)" d="m0 0v3l-1 3-3 3 5 8 2 1-1 2-4-2-5-8 1-4z" fill="#47756F"/>
<path transform="translate(569,693)" d="m0 0 2 1-1 2h3v4h-4v8l-2 2-1-3-2-1v-3l3-1v-6z" fill="#738C6E"/>
<path transform="translate(547,468)" d="m0 0 6 1-3 2-13 6-1-4z" fill="#277AB9"/>
<path transform="translate(691,877)" d="m0 0h1l2 7-1 4h-2l-1 2-2-1v-9z" fill="#97987D"/>
<path transform="translate(615,742)" d="m0 0 1 3-2 2 12 7-4 1-6-3-5-2-1-3z" fill="#98997E"/>
<path transform="translate(676,731)" d="m0 0 1 4-2 3-3 1-2 4-4 1-1-5 5-2 3-3h2z" fill="#5F855E"/>
<path transform="translate(865,657)" d="m0 0h17l-1 3-15 1z" fill="#4A756D"/>
<path transform="translate(1021,590)" d="m0 0 10 5 2 2-1 3-10-4z" fill="#3E7275"/>
<path transform="translate(767,566)" d="m0 0 16 1-2 2-3 1h-11z" fill="#54848B"/>
<path transform="translate(705,235)" d="m0 0h10l1 3h-6v4l-5-1z" fill="#144057"/>
<path transform="translate(637,869)" d="m0 0 2 1 1 3h-3l-1 6h-4l1 4-3 1 1-6 1-4 3-2z" fill="#9A9B7E"/>
<path transform="translate(803,804)" d="m0 0h8v2l2 2-1 3-5-1v2h-5l4-1z" fill="#487775"/>
<path transform="translate(829,757)" d="m0 0h3l-1 6-4 3-4-1 2-5h2v-2z" fill="#738C6E"/>
<path transform="translate(622,678)" d="m0 0 3 1v2h3l-1 3-9 2-2-1 4-2v-2l-2-1z" fill="#A5A282"/>
<path transform="translate(982,676)" d="m0 0 5 1-1 5-4 3h-5l1-3h2z" fill="#407271"/>
<path transform="translate(622,642)" d="m0 0 3 1-3 1v2h-2l-2 4-4 5-5 1 1-2h2v-2l-2-1 9-6z" fill="#738C6E"/>
<path transform="translate(230,264)" d="m0 0 2 1-8 11-6 1 2-3h2l2-4 5-5z" fill="#073348"/>
<path transform="translate(1049,647)" d="m0 0h5l-3 1 4 2-2 6-6-2-2-1v-2l4-3z" fill="#053662"/>
<path transform="translate(936,619)" d="m0 0 6 1 1 3-2 3-7 2z" fill="#3F7272"/>
<path transform="translate(685,419)" d="m0 0h8l-2 2-7 1v2l-10 1 1-3z" fill="#297AB8"/>
<path transform="translate(653,802)" d="m0 0h3l1 3-5 6h-4v-2h-2l1-4 6 1z" fill="#C2BDB0"/>
<path transform="translate(669,711)" d="m0 0h2l2 2 3-1v2l5-1 1 3h2l-1 3h-3v-3l-8 2-2-4z" fill="#7B8F71"/>
<path transform="translate(632,687)" d="m0 0 5 2v5l-1 1h-6v-6h2z" fill="#2D77A5"/>
<path transform="translate(1052,668)" d="m0 0 5 3v-2l2 1 1 2h3l8 1-3 2-8 1-8-6z" fill="#072B3D"/>
<path transform="translate(1075,625)" d="m0 0h5l1 4-2 2-9-1v-3z" fill="#3F7270"/>
<path transform="translate(669,439)" d="m0 0h6l1 2-6 1-3-1v2l-8 1-3 1v-3z" fill="#074059"/>
<path transform="translate(695,417)" d="m0 0h9v2l-15 4h-5l3-2 4-1-1-2z" fill="#2073B1"/>
<path transform="translate(171,791)" d="m0 0 6 2 4 2v4l-5-1-6-4z" fill="#05304F"/>
<path transform="translate(649,721)" d="m0 0 4 3v-2l-2-1 6 1 5 2v2h-12l-2-4z" fill="#648661"/>
<path transform="translate(1083,642)" d="m0 0v3l-4 2-2 4h-5l-1-5 8-1z" fill="#1F5473"/>
<path transform="translate(547,817)" d="m0 0 5 1 2 7 4 1-2 2h-4l-5-9z" fill="#98A79E"/>
<path transform="translate(803,641)" d="m0 0h1v5h3v7l-5-3-2-5-1-3z" fill="#417372"/>
<path transform="translate(957,579)" d="m0 0 5 2 2 2-1 2h-8l-1-5z" fill="#367794"/>
<path transform="translate(331,355)" d="m0 0 3 1-9 8-4 3h-2v-3z" fill="#E4E4D9"/>
<path transform="translate(802,800)" d="m0 0h21v1l-9 1v1l-11 1z" fill="#2D5963"/>
<path transform="translate(183,770)" d="m0 0 5 1 5 3v3l-6-1-5-3z" fill="#072C42"/>
<path transform="translate(538,746)" d="m0 0 1 3-1 1 3 1v-3l10 1-1 3-7 1-7-1 1-4z" fill="#6C8A76"/>
<path transform="translate(619,736)" d="m0 0 3 1-2 3 2 2v6l-4-1-2-8z" fill="#C2BDB0"/>
<path transform="translate(668,611)" d="m0 0h3v2h-2v2h3l-1 3-5 1-2-4h-2l1-3 4 1z" fill="#6B949D"/>
<path transform="translate(957,565)" d="m0 0 10 1 8 3v2l8 1v1h-8l-5-2-1-2-12-3z" fill="#2E749A"/>
<path transform="translate(889,543)" d="m0 0h10l-2 5-1 2h-5l-1-2 2-2z" fill="#196FAD"/>
<path transform="translate(899,398)" d="m0 0 20 1v2h-22v-2z" fill="#176CAA"/>
<path transform="translate(314,254)" d="m0 0 2 2-8 11-3 2-1-2z" fill="#DEE0D8"/>
<path transform="translate(607,699)" d="m0 0 5 2v2h3v2h-9l-3-2v-2z" fill="#98997E"/>
<path transform="translate(583,452)" d="m0 0 3 1-2 1 2 2-12 4v-4z" fill="#2275B3"/>
<path transform="translate(1012,630)" d="m0 0 4 2 1 2 4 1-1 4h-3l-5-3z" fill="#072A3C"/>
<path transform="translate(781,605)" d="m0 0h3l-2 8-3 4h-2v-4h3v-2h-2l1-4z" fill="#072A3C"/>
<path transform="translate(255,260)" d="m0 0 2 2-9 8-5 2v-3l11-8z" fill="#E9E9DE"/>
<path transform="translate(622,742)" d="m0 0 1 3 5-1 3 3-4 3-5-1-1-4z" fill="#A2AEA5"/>
<path transform="translate(662,712)" d="m0 0 1 3 6-1 1 7h-2l-1-2-8-2z" fill="#97987D"/>
<path transform="translate(595,662)" d="m0 0 1 4-2 3-1 3h-3l-1 2v-6l5-5z" fill="#77968F"/>
<path transform="translate(603,629)" d="m0 0h2l2 7-1 2h-4l-2-5v-3z" fill="#407270"/>
<path transform="translate(947,612)" d="m0 0h8l-1 4-4 2-5-3v-2z" fill="#367794"/>
<path transform="translate(646,791)" d="m0 0 3 2-1 5-2 3-3-1-1-4 3-1z" fill="#C2BDB0"/>
<path transform="translate(175,784)" d="m0 0 6 2 4 2 1 3h-6l-5-3z" fill="#062F4D"/>
<path transform="translate(540,731)" d="m0 0 2 2-1 10-2 2-1-1v-10z" fill="#648674"/>
<path transform="translate(544,703)" d="m0 0h1v9l-3 5-2-2v-5l3-4z" fill="#406A66"/>
<path transform="translate(899,689)" d="m0 0h4l1 2 5 1v1l-10 2-5-1 4-2z" fill="#36686F"/>
<path transform="translate(929,595)" d="m0 0 6 1 1 3-2 1h-8v-3z" fill="#092D40"/>
<path transform="translate(902,563)" d="m0 0h5l1 3h8v2l-3 1h-8v-4z" fill="#2B749C"/>
<path transform="translate(643,727)" d="m0 0h2l1 3v7l-3 2-2-9z" fill="#C2BDB0"/>
<path transform="translate(958,723)" d="m0 0h1l1 17h-2v-6l-4-5 4-2z" fill="#4C766D"/>
<path transform="translate(659,717)" d="m0 0 8 1v3l-5-1v2l-5 1v-4z" fill="#A2AEA5"/>
<path transform="translate(922,616)" d="m0 0 2 1-1 7-7-4-2-3 8 1z" fill="#072A3C"/>
<path transform="translate(846,588)" d="m0 0h11l4 2-6 2-7-1z" fill="#497F8E"/>
<path transform="translate(616,440)" d="m0 0h5l-1 3-8 3h-5l3-3h3v-2z" fill="#2D7FBD"/>
<path transform="translate(763,234)" d="m0 0h2v6l-1 2-5-1 1-5z" fill="#2B4D59"/>
<path transform="translate(630,874)" d="m0 0h2l-1 6-3 7-5 1v-6h2l1 3 2-5z" fill="#738C6E"/>
<path transform="translate(577,786)" d="m0 0h1v16h2l-1 4h-3v2h-2l1-4 1-1z" fill="#8DA4A2"/>
<path transform="translate(198,744)" d="m0 0 5 1 6 4v2l-6-1-5-4z" fill="#062B3F"/>
<path transform="translate(963,731)" d="m0 0 7 2 2-1-2 4-4 6h-1l-1-8z" fill="#3E747C"/>
<path transform="translate(939,563)" d="m0 0 6 1-1 3h-5v2h6v1h-7l-1 2-1-4-2-2 4-1z" fill="#1E70A8"/>
<path transform="translate(858,541)" d="m0 0h3v2h5v3l-10 2-2 1v-3l5-2z" fill="#196FAD"/>
<path transform="translate(592,449)" d="m0 0h4l-1 3-7 3h-5l4-4z" fill="#2D7FBE"/>
<path transform="translate(303,324)" d="m0 0 3 1-9 8-4 1 2-4z" fill="#E8E7DC"/>
<path transform="translate(646,730)" d="m0 0 4 2-1 5-1 3-3 1-3-1 1-3h2z" fill="#A2AEA5"/>
<path transform="translate(673,706)" d="m0 0h6l-1 2h-4v5h-3v-2l-5-1 1-2 5-1z" fill="#A2AEA5"/>
<path transform="translate(671,696)" d="m0 0 2 1-1 5h-2v-2h-4l-2 4-3 1-2-2 5-4 6-1z" fill="#98997E"/>
<path transform="translate(866,661)" d="m0 0h6l-3 2-5 1-1 3-5 2-3 1v-2l9-6z" fill="#072A3C"/>
<path transform="translate(967,570)" d="m0 0 8 2 9 1v1l-8 1h-3l-5-2-3-2z" fill="#053A60"/>
<path transform="translate(622,865)" d="m0 0 4 1 1 2-1 2-7 1v-4z" fill="#7A8E71"/>
<path transform="translate(207,730)" d="m0 0 6 2 3 2v3l-5-1-4-3z" fill="#062E47"/>
<path transform="translate(638,726)" d="m0 0h5l-5 6v2h-3v-2l-4 1v-2l5-3z" fill="#C2BDB0"/>
<path transform="translate(992,655)" d="m0 0 6 1v2l-4 4h-4l1-5z" fill="#4C766D"/>
<path transform="translate(824,651)" d="m0 0 6 1 5 1 4 1v2l-13-1-2-1z" fill="#427577"/>
<path transform="translate(435,213)" d="m0 0h5l1 1v5h-6z" fill="#D0D9D7"/>
<path transform="translate(942,866)" d="m0 0h1l1 7-3 3-3-3 1-4 3-1z" fill="#456F68"/>
<path transform="translate(557,745)" d="m0 0h9l-1 4-4-1-5 2z" fill="#C0BCAF"/>
<path transform="translate(691,865)" d="m0 0 3 3v5l-4-2-3 1v-5l2-1 2 1z" fill="#738C6E"/>
<path transform="translate(610,832)" d="m0 0 4 1v2h2l-2 4h-2l-2-2h-3z" fill="#768D6F"/>
<path transform="translate(766,803)" d="m0 0h8l9 2 2 2-9-1-6-1h-6z" fill="#487D88"/>
<path transform="translate(810,801)" d="m0 0h8l3 4-2 2v-2l-3 1v-2h-11v-1l5-1z" fill="#367794"/>
<path transform="translate(790,720)" d="m0 0h8l2 2-2 2-9-1z" fill="#557F5F"/>
<path transform="translate(695,679)" d="m0 0 1 4 6-2v2l5 1v1h-5-3l-4 1-2-4z" fill="#94977C"/>
<path transform="translate(1034,618)" d="m0 0 9 2v2h-12l-1-3z" fill="#09375B"/>
<path transform="translate(804,807)" d="m0 0 2 1v3l-9 1-2-3z" fill="#738C6E"/>
<path transform="translate(791,764)" d="m0 0 5 2v2h-2l-1 4-4-2z" fill="#598359"/>
<path transform="translate(599,723)" d="m0 0h5l2 3-4 2h-6l1-4z" fill="#98997E"/>
<path transform="translate(800,608)" d="m0 0h1v14l-4 3h-2l2-4h2l-1-4h2z" fill="#062F48"/>
<path transform="translate(558,234)" d="m0 0h2v7l-4 1-1-5z" fill="#103546"/>
<path transform="translate(219,180)" d="m0 0h2l-1 4-6 9-2-2 5-7z" fill="#F7F5EB"/>
<path transform="translate(834,777)" d="m0 0h2v12l3-1-2 4-3-1-1 2z" fill="#4C766D"/>
<path transform="translate(560,716)" d="m0 0 2 1-1 6 3 1h-2l-1 8-2-3z" fill="#598359"/>
<path transform="translate(1103,669)" d="m0 0 13 1 8 2v2l-3 1-8-3-10-2z" fill="#072B3F"/>
<path transform="translate(978,661)" d="m0 0 2 1 1 2-13 4v-2l4-3z" fill="#4C766D"/>
<path transform="translate(856,630)" d="m0 0h5l1 4-1 1h-5l-1-4z" fill="#05416D"/>
<path transform="translate(487,499)" d="m0 0m-2 1h2l1 3-7 4h-3l2-4z" fill="#1F74B2"/>
<path transform="translate(535,225)" d="m0 0 4 1v5h-5l-1-4z" fill="#365C69"/>
<path transform="translate(407,226)" d="m0 0h4v9l-3-4-2 4v-8z" fill="#1B506C"/>
<path transform="translate(685,886)" d="m0 0h3v3h2l1 6h-4v-2l-2-1z" fill="#6E8A6A"/>
<path transform="translate(624,834)" d="m0 0 4 1-2 4-4 1v-3h-2v-2z" fill="#A09E80"/>
<path transform="translate(561,759)" d="m0 0 6 2-4 1-3 3-1 2-3-2v-4h4z" fill="#96997F"/>
<path transform="translate(1011,703)" d="m0 0 8 2v2h-15v-1l7-1z" fill="#3E7378"/>
<path transform="translate(590,659)" d="m0 0 2 1-8 6-1 2-4-1 8-7z" fill="#54848B"/>
<path transform="translate(891,659)" d="m0 0 4 1-8 3 5 2-3 1-7-1 1-4 7-1z" fill="#3B7687"/>
<path transform="translate(1061,576)" d="m0 0 7 1 2 1-1 3-5-1-3-1z" fill="#327597"/>
<path transform="translate(344,279)" d="m0 0h3l-2 5-5 5-2-2z" fill="#D8DBD4"/>
<path transform="translate(1144,870)" d="m0 0 5 1-1 5-4 1z" fill="#0C4479"/>
<path transform="translate(805,760)" d="m0 0 3 1-3 5-2 8h-1v-7l2-6z" fill="#45736E"/>
<path transform="translate(679,725)" d="m0 0h2l-2 5-2 3-1-1-4 4v-3z" fill="#698866"/>
<path transform="translate(562,679)" d="m0 0h4l-2 5h-4l-1 3-2-1z" fill="#3C6F73"/>
<path transform="translate(1085,626)" d="m0 0 5 1-3 4h-7v-2l5-1z" fill="#07365C"/>
<path transform="translate(221,235)" d="m0 0h4l-2 4-2 2h-4v-3z" fill="#B8C7C6"/>
<path transform="translate(706,225)" d="m0 0h4v6h-5v-5z" fill="#2C4F5B"/>
<path transform="translate(622,888)" d="m0 0 4 1-1 2-2 1 4 1-2 2h-5z" fill="#9C9D81"/>
<path transform="translate(985,709)" d="m0 0 11 1-4 2-9 1z" fill="#38758B"/>
<path transform="translate(1054,649)" d="m0 0 9 2 6 3-4 1-11-5z" fill="#477470"/>
<path transform="translate(675,882)" d="m0 0 1 4h2l-1 5h-2l-1-3-2 1 1-5z" fill="#92977B"/>
<path transform="translate(616,857)" d="m0 0 9 1-4 3h-4l-4 1z" fill="#738C6E"/>
<path transform="translate(770,781)" d="m0 0h2l1 6h2v4l-4-1z" fill="#447672"/>
<path transform="translate(944,770)" d="m0 0v3l-6 2h-5l2-3z" fill="#043D67"/>
<path transform="translate(588,759)" d="m0 0 8 2-1 2-3-1v2h-6l1-3z" fill="#A2AEA5"/>
<path transform="translate(822,743)" d="m0 0 2 2-9 10-2 1 2-4z" fill="#4C766D"/>
<path transform="translate(657,728)" d="m0 0h3l2 6-1 2h-5z" fill="#98997E"/>
<path transform="translate(654,704)" d="m0 0 2 1 2 2 3 1-2 1v2h-2l-1-2-7-3v-1z" fill="#98997E"/>
<path transform="translate(654,695)" d="m0 0h3v2l-8 2h-5l-1-2z" fill="#6B8967"/>
<path transform="translate(782,617)" d="m0 0 2 1 2 5-1 4h-3z" fill="#0C3751"/>
<path transform="translate(914,614)" d="m0 0h5l3 2v2h-9v-3z" fill="#367794"/>
<path transform="translate(534,474)" d="m0 0 3 1-4 4-5 1v-3z" fill="#2D7FBE"/>
<path transform="translate(583,463)" d="m0 0 5 1v2l-7 2-2-1v-2z" fill="#07374D"/>
<path transform="translate(369,381)" d="m0 0 2 2-6 6h-3l2-4z" fill="#E1E2D8"/>
<path transform="translate(449,246)" d="m0 0h8l-1 4-9-1z" fill="#365C6B"/>
<path transform="translate(897,892)" d="m0 0h8l1 3h-9z" fill="#738C6E"/>
<path transform="translate(617,843)" d="m0 0 2 1-5 6h-2l1-4-3-1z" fill="#738C6E"/>
<path transform="translate(203,780)" d="m0 0h2l-2 5-5 9-1-2 4-9z" fill="#07415A"/>
<path transform="translate(656,658)" d="m0 0h3l-1 3-6 5-1-5 2 1z" fill="#98997E"/>
<path transform="translate(1103,648)" d="m0 0 2 4-2 4-4 3-1-3 3-2z" fill="#072D43"/>
<path transform="translate(1104,576)" d="m0 0 5 2-1 2h-6l-2 3-2-4 1-1h5z" fill="#3B8BCA"/>
<path transform="translate(797,545)" d="m0 0h10v2h-3v2l-7-2z" fill="#3183C2"/>
<path transform="translate(556,464)" d="m0 0h3v2h-2v2l-7 1-1-2z" fill="#2D80BE"/>
<path transform="translate(413,332)" d="m0 0h2l-1 4-5 5-2-2z" fill="#D8DBD4"/>
<path transform="translate(285,287)" d="m0 0 2 2-7 7-3-2z" fill="#E8E7DC"/>
</svg>
