<svg width="101" height="112" viewBox="0 0 101 112" fill="none" xmlns="http://www.w3.org/2000/svg">
<path fill-rule="evenodd" clip-rule="evenodd" d="M4.75 6.08789L6.25 4.58789H95.5L97 6.08789H101V103.088H97.0001L95.5 104.588H6.25L4.74986 103.088H0V6.08789H4.75Z" fill="#020B14" fill-opacity="0.95"/>
<path fill-rule="evenodd" clip-rule="evenodd" d="M97 6.08789H100H101V7.08789V102.088V103.088H100H97.0001L97 103.088L95.5 104.588H6.25L4.75 103.088L4.74986 103.088H1H0V102.088V7.08789V6.08789H1H4.75L6.25 4.58789H95.5L97 6.08789ZM5.45711 6.08789H96.2929L95.2929 5.08789H6.45711L5.45711 6.08789ZM5.45711 103.088H14V102.088H1V7.08789H100V102.088H88V103.088H96.2929L95.2929 104.088H6.45711L5.45711 103.088Z" fill="#E4C68A"/>
<path d="M45.3607 6C47.4656 5.13685 49.1369 3.4656 50 1.36069C50.8632 3.4656 52.5344 5.13685 54.6393 6C52.5344 6.86315 50.8632 8.5344 50 10.6393C49.1369 8.5344 47.4656 6.86315 45.3607 6Z" stroke="#E3C17D"/>
</svg>
