<svg width="278" height="68" viewBox="0 0 278 68" fill="none" xmlns="http://www.w3.org/2000/svg">
<g clip-path="url(#clip0_176_12680)">
<path fill-rule="evenodd" clip-rule="evenodd" d="M12.1873 4H242L272 34L242 64H12.1873C19.5159 56.1405 24.0001 45.5939 24.0001 34C24.0001 22.4061 19.5159 11.8595 12.1873 4Z" fill="#1E2328" fill-opacity="0.95"/>
<path d="M242 4L244.828 1.17157L243.657 0H242V4ZM12.1873 4V0H2.98829L9.26175 6.7279L12.1873 4ZM272 34L274.828 36.8284L277.657 34L274.828 31.1716L272 34ZM242 64V68H243.657L244.828 66.8284L242 64ZM12.1873 64L9.26175 61.2721L2.98829 68H12.1873V64ZM242 0H12.1873V8H242V0ZM274.828 31.1716L244.828 1.17157L239.172 6.82843L269.172 36.8284L274.828 31.1716ZM269.172 31.1716L239.172 61.1716L244.828 66.8284L274.828 36.8284L269.172 31.1716ZM12.1873 68H242V60H12.1873V68ZM20.0001 34C20.0001 44.542 15.9272 54.1238 9.26175 61.2721L15.1128 66.7279C23.1045 58.1572 28.0001 46.6459 28.0001 34H20.0001ZM9.26175 6.7279C15.9272 13.8762 20.0001 23.458 20.0001 34H28.0001C28.0001 21.3541 23.1045 9.84278 15.1128 1.2721L9.26175 6.7279Z" fill="black" fill-opacity="0.5"/>
<path d="M244 4L246.828 1.17157L245.657 0H244V4ZM12.1873 4V0H2.98829L9.26175 6.7279L12.1873 4ZM274 34.0002L276.829 36.8287L279.657 34.0003L276.829 31.1718L274 34.0002ZM244 64V68H245.657L246.828 66.8285L244 64ZM12.1873 64L9.26175 61.2721L2.98829 68H12.1873V64ZM244 0H12.1873V8H244V0ZM276.829 31.1718L246.828 1.17157L241.172 6.82843L271.172 36.8287L276.829 31.1718ZM271.172 31.1718L241.172 61.1715L246.828 66.8285L276.829 36.8287L271.172 31.1718ZM12.1873 68H244V60H12.1873V68ZM20.0001 34C20.0001 44.542 15.9272 54.1238 9.26175 61.2721L15.1128 66.7279C23.1045 58.1572 28.0001 46.6459 28.0001 34H20.0001ZM9.26175 6.7279C15.9272 13.8762 20.0001 23.458 20.0001 34H28.0001C28.0001 21.3541 23.1045 9.84278 15.1128 1.2721L9.26175 6.7279Z" fill="black" fill-opacity="0.5"/>
<g filter="url(#filter0_dd_176_12680)">
<path d="M244 4L245.414 2.58579L244.828 2H244V4ZM12.1873 4V2H7.58777L10.7245 5.36395L12.1873 4ZM274 34L275.414 35.4142L276.828 34L275.414 32.5858L274 34ZM244 64V66H244.828L245.414 65.4142L244 64ZM12.1873 64L10.7245 62.6361L7.58777 66H12.1873V64ZM244 2H12.1873V6H244V2ZM275.414 32.5858L245.414 2.58579L242.586 5.41421L272.586 35.4142L275.414 32.5858ZM272.586 32.5858L242.586 62.5858L245.414 65.4142L275.414 35.4142L272.586 32.5858ZM12.1873 66H244V62H12.1873V66ZM22.0001 34C22.0001 45.0679 17.7216 55.1321 10.7245 62.6361L13.65 65.3639C21.3102 57.1489 26.0001 46.1199 26.0001 34H22.0001ZM10.7245 5.36395C17.7216 12.8679 22.0001 22.9321 22.0001 34H26.0001C26.0001 21.8801 21.3102 10.8511 13.65 2.63605L10.7245 5.36395Z" fill="url(#paint0_linear_176_12680)"/>
</g>
</g>
<defs>
<filter id="filter0_dd_176_12680" x="-4.41223" y="-14" width="293.241" height="92" filterUnits="userSpaceOnUse" color-interpolation-filters="sRGB">
<feFlood flood-opacity="0" result="BackgroundImageFix"/>
<feColorMatrix in="SourceAlpha" type="matrix" values="0 0 0 0 0 0 0 0 0 0 0 0 0 0 0 0 0 0 127 0" result="hardAlpha"/>
<feOffset/>
<feGaussianBlur stdDeviation="6"/>
<feColorMatrix type="matrix" values="0 0 0 0 0.74902 0 0 0 0 0.949804 0 0 0 0 1 0 0 0 0.3 0"/>
<feBlend mode="normal" in2="BackgroundImageFix" result="effect1_dropShadow_176_12680"/>
<feColorMatrix in="SourceAlpha" type="matrix" values="0 0 0 0 0 0 0 0 0 0 0 0 0 0 0 0 0 0 127 0" result="hardAlpha"/>
<feOffset dy="-4"/>
<feGaussianBlur stdDeviation="6"/>
<feColorMatrix type="matrix" values="0 0 0 0 0.74902 0 0 0 0 0.94902 0 0 0 0 1 0 0 0 0.6 0"/>
<feBlend mode="normal" in2="effect1_dropShadow_176_12680" result="effect2_dropShadow_176_12680"/>
<feBlend mode="normal" in="SourceGraphic" in2="effect2_dropShadow_176_12680" result="shape"/>
</filter>
<linearGradient id="paint0_linear_176_12680" x1="141.901" y1="4" x2="141.901" y2="64" gradientUnits="userSpaceOnUse">
<stop stop-color="#91E1DC"/>
<stop offset="0.505208" stop-color="#0C9CA1"/>
<stop offset="1" stop-color="#1F9EBD"/>
</linearGradient>
<clipPath id="clip0_176_12680">
<rect width="278" height="68" fill="white"/>
</clipPath>
</defs>
</svg>
