<svg width="73" height="73" viewBox="0 0 73 73" fill="none" xmlns="http://www.w3.org/2000/svg">
<rect x="7" y="9" width="59" height="57" rx="28" stroke="url(#paint0_linear_617_13770)" stroke-opacity="0.6" stroke-width="4"/>
<rect x="7" y="9" width="59" height="57" rx="28" stroke="black" stroke-opacity="0.6" stroke-width="4"/>
<rect x="7" y="9" width="59" height="57" rx="28" stroke="url(#paint1_linear_617_13770)" stroke-width="2"/>
<g filter="url(#filter0_dd_617_13770)">
<rect x="7" y="9" width="59" height="57" rx="28" stroke="url(#paint2_linear_617_13770)" stroke-width="2"/>
</g>
<path d="M27.5849 22.5491C27.5849 26.3936 29.7041 29.8964 33.0189 31.5481V52.451H35.7358V42.4837H38.4528V52.451H41.1698V31.5339C44.4845 29.8964 46.6038 26.3936 46.6038 22.5491H43.8868C43.8868 24.4373 43.1712 26.2482 41.8973 27.5833C41.2666 28.2444 40.5178 28.7689 39.6937 29.1266C38.8696 29.4844 37.9863 29.6686 37.0943 29.6686C35.2929 29.6686 33.5652 28.9185 32.2913 27.5833C31.0175 26.2482 30.3019 24.4373 30.3019 22.5491M37.0943 22.5491C35.5864 22.5491 34.3774 23.8163 34.3774 25.3969C34.3774 26.9774 35.5864 28.2447 37.0943 28.2447C38.6023 28.2447 39.8113 26.9774 39.8113 25.3969C39.8113 23.8163 38.6023 22.5491 37.0943 22.5491Z" fill="url(#paint3_linear_617_13770)"/>
<defs>
<filter id="filter0_dd_617_13770" x="0" y="0" width="73" height="73" filterUnits="userSpaceOnUse" color-interpolation-filters="sRGB">
<feFlood flood-opacity="0" result="BackgroundImageFix"/>
<feColorMatrix in="SourceAlpha" type="matrix" values="0 0 0 0 0 0 0 0 0 0 0 0 0 0 0 0 0 0 127 0" result="hardAlpha"/>
<feOffset/>
<feGaussianBlur stdDeviation="3"/>
<feColorMatrix type="matrix" values="0 0 0 0 1 0 0 0 0 0.919565 0 0 0 0 0.75 0 0 0 0.6 0"/>
<feBlend mode="normal" in2="BackgroundImageFix" result="effect1_dropShadow_617_13770"/>
<feColorMatrix in="SourceAlpha" type="matrix" values="0 0 0 0 0 0 0 0 0 0 0 0 0 0 0 0 0 0 127 0" result="hardAlpha"/>
<feOffset dy="-2"/>
<feGaussianBlur stdDeviation="3"/>
<feColorMatrix type="matrix" values="0 0 0 0 1 0 0 0 0 0.919565 0 0 0 0 0.75 0 0 0 0.6 0"/>
<feBlend mode="normal" in2="effect1_dropShadow_617_13770" result="effect2_dropShadow_617_13770"/>
<feBlend mode="normal" in="SourceGraphic" in2="effect2_dropShadow_617_13770" result="shape"/>
</filter>
<linearGradient id="paint0_linear_617_13770" x1="36.5" y1="9" x2="36.5" y2="66" gradientUnits="userSpaceOnUse">
<stop stop-color="#C8AA6E"/>
<stop offset="1" stop-color="#7A5C29"/>
</linearGradient>
<linearGradient id="paint1_linear_617_13770" x1="36.5" y1="9" x2="36.5" y2="66" gradientUnits="userSpaceOnUse">
<stop stop-color="#C8AA6E"/>
<stop offset="1" stop-color="#7A5C29"/>
</linearGradient>
<linearGradient id="paint2_linear_617_13770" x1="36.5" y1="9" x2="36.5" y2="66" gradientUnits="userSpaceOnUse">
<stop stop-color="#F0E5D7"/>
<stop offset="1" stop-color="#CFA958"/>
</linearGradient>
<linearGradient id="paint3_linear_617_13770" x1="37.0943" y1="35.3642" x2="37.0943" y2="52.451" gradientUnits="userSpaceOnUse">
<stop stop-color="#DDC28C"/>
<stop offset="1" stop-color="#A6926A"/>
</linearGradient>
</defs>
</svg>
