<svg width="101" height="114" viewBox="0 0 101 114" fill="none" xmlns="http://www.w3.org/2000/svg">
<path fill-rule="evenodd" clip-rule="evenodd" d="M97 8.08789H100H101V9.08789V104.088V105.088H100H97.0001L97 105.088L95.5 106.588H6.25L4.75 105.088L4.74986 105.088H1H0V104.088V9.08789V8.08789H1H4.75L6.25 6.58789H95.5L97 8.08789ZM5.45711 8.08789H96.2929L95.2929 7.08789H6.45711L5.45711 8.08789ZM5.45711 105.088H14V104.088H1V9.08789H100V104.088H88V105.088H96.2929L95.2929 106.088H6.45711L5.45711 105.088Z" fill="#E4C68A"/>
<rect x="14" y="97.0879" width="74" height="15" fill="#021320" stroke="#021320" stroke-opacity="0.5" stroke-width="2"/>
<rect x="14" y="97.0879" width="74" height="15" stroke="url(#paint0_linear_490_13881)"/>
<g filter="url(#filter0_i_490_13881)">
<path d="M31.5009 107.088H29.5986V106.744L30.0595 106.705C30.0804 106.705 30.0999 106.692 30.1181 106.666C30.1364 106.637 30.1455 106.611 30.1455 106.588C30.1455 106.577 30.1442 106.571 30.1416 106.568L29.5908 105.104H27.7431L27.2119 106.545C27.2093 106.55 27.208 106.558 27.208 106.568C27.208 106.6 27.221 106.631 27.247 106.662C27.2757 106.691 27.3017 106.705 27.3252 106.705L27.7978 106.744V107.088H26.1884V106.744L26.6533 106.646L28.5166 101.592H29.1181L30.9736 106.529C30.9944 106.584 31.0127 106.62 31.0283 106.639C31.0439 106.657 31.0817 106.671 31.1416 106.682L31.5009 106.744V107.088ZM29.4463 104.721L28.6611 102.623L27.8838 104.721H29.4463ZM34.4269 104.049H34.1144C34.0649 103.989 34.005 103.938 33.9347 103.896C33.867 103.852 33.7836 103.83 33.6847 103.83C33.5571 103.83 33.4256 103.874 33.2902 103.963C33.1573 104.051 33.0219 104.173 32.8839 104.326V106.576C32.8839 106.688 32.9399 106.747 33.0519 106.752L33.5792 106.775V107.088H31.5792V106.783L31.9738 106.752C32.0206 106.747 32.0597 106.729 32.0909 106.697C32.1248 106.666 32.1417 106.626 32.1417 106.576V103.799H31.5636V103.537L32.5558 103.232H32.8839V103.943C32.962 103.857 33.0597 103.751 33.1769 103.623C33.2941 103.495 33.4191 103.382 33.5519 103.283C33.6847 103.184 33.8136 103.135 33.9386 103.135C34.0219 103.135 34.1118 103.148 34.2081 103.174C34.3045 103.2 34.3774 103.227 34.4269 103.256V104.049ZM37.8098 106.334V106.791C37.6302 106.887 37.427 106.977 37.2005 107.061C36.9765 107.144 36.7291 107.186 36.4583 107.186C36.0859 107.186 35.7617 107.098 35.4856 106.924C35.2122 106.749 34.9999 106.512 34.8489 106.213C34.7005 105.911 34.6263 105.568 34.6263 105.186C34.6263 104.738 34.7148 104.361 34.8919 104.057C35.0716 103.752 35.3072 103.523 35.5989 103.369C35.8932 103.213 36.2109 103.135 36.552 103.135C36.9036 103.135 37.1979 103.204 37.4348 103.342C37.6744 103.477 37.7942 103.675 37.7942 103.936C37.7942 104.092 37.7447 104.21 37.6458 104.291C37.5494 104.369 37.4414 104.408 37.3216 104.408C37.233 104.408 37.1562 104.394 37.0911 104.365C37.026 104.334 36.9687 104.303 36.9192 104.271V103.576C36.7968 103.506 36.6848 103.471 36.5833 103.471C36.3463 103.471 36.1419 103.541 35.97 103.682C35.8007 103.82 35.6705 104.01 35.5794 104.252C35.4882 104.494 35.4427 104.77 35.4427 105.08C35.4427 105.374 35.4921 105.644 35.5911 105.889C35.6901 106.131 35.8372 106.324 36.0325 106.467C36.2304 106.61 36.4752 106.682 36.7669 106.682C36.9518 106.682 37.1289 106.652 37.2981 106.592C37.4674 106.532 37.638 106.446 37.8098 106.334ZM40.5834 106.6V106.92C40.5834 106.92 40.5327 106.942 40.4311 106.986C40.3321 107.031 40.2006 107.075 40.0366 107.119C39.8751 107.163 39.698 107.186 39.5053 107.186C39.2058 107.186 38.9871 107.115 38.8491 106.975C38.7136 106.831 38.6459 106.602 38.6459 106.287V103.631H38.1342V103.369L38.6811 103.111L39.0405 102.264H39.392V103.232H40.5209V103.631H39.392V105.865C39.392 106.183 39.4454 106.408 39.5522 106.541C39.659 106.671 39.8191 106.736 40.0327 106.736C40.1889 106.736 40.3191 106.714 40.4233 106.67C40.5301 106.623 40.5834 106.6 40.5834 106.6ZM42.2203 101.912C42.2203 102.048 42.1734 102.165 42.0797 102.264C41.9859 102.36 41.8714 102.408 41.7359 102.408C41.6005 102.408 41.4833 102.36 41.3844 102.264C41.288 102.165 41.2398 102.048 41.2398 101.912C41.2398 101.774 41.288 101.658 41.3844 101.564C41.4833 101.471 41.6005 101.424 41.7359 101.424C41.8714 101.424 41.9859 101.471 42.0797 101.564C42.1734 101.658 42.2203 101.774 42.2203 101.912ZM42.6305 107.088H40.7516V106.775L41.1422 106.752C41.2542 106.744 41.3102 106.686 41.3102 106.576V103.721H40.7594V103.439L41.7359 103.135H42.0523V106.576C42.0523 106.626 42.068 106.666 42.0992 106.697C42.1331 106.729 42.1734 106.747 42.2203 106.752L42.6305 106.775V107.088ZM46.2048 106.334V106.791C46.0252 106.887 45.822 106.977 45.5955 107.061C45.3715 107.144 45.1241 107.186 44.8533 107.186C44.4809 107.186 44.1567 107.098 43.8806 106.924C43.6072 106.749 43.3949 106.512 43.2439 106.213C43.0955 105.911 43.0213 105.568 43.0213 105.186C43.0213 104.738 43.1098 104.361 43.2869 104.057C43.4666 103.752 43.7022 103.523 43.9939 103.369C44.2882 103.213 44.6059 103.135 44.947 103.135C45.2986 103.135 45.5929 103.204 45.8298 103.342C46.0694 103.477 46.1892 103.675 46.1892 103.936C46.1892 104.092 46.1397 104.21 46.0408 104.291C45.9444 104.369 45.8364 104.408 45.7166 104.408C45.628 104.408 45.5512 104.394 45.4861 104.365C45.421 104.334 45.3637 104.303 45.3142 104.271V103.576C45.1918 103.506 45.0798 103.471 44.9783 103.471C44.7413 103.471 44.5369 103.541 44.365 103.682C44.1957 103.82 44.0655 104.01 43.9744 104.252C43.8832 104.494 43.8377 104.77 43.8377 105.08C43.8377 105.374 43.8871 105.644 43.9861 105.889C44.0851 106.131 44.2322 106.324 44.4275 106.467C44.6254 106.61 44.8702 106.682 45.1619 106.682C45.3468 106.682 45.5239 106.652 45.6931 106.592C45.8624 106.532 46.033 106.446 46.2048 106.334ZM53.6114 105.584C53.6114 105.852 53.5385 106.111 53.3927 106.361C53.2494 106.611 53.0216 106.817 52.7091 106.979C52.3992 107.137 51.9929 107.217 51.4903 107.217C51.2039 107.217 50.9539 107.192 50.7403 107.143C50.5268 107.093 50.3614 107.044 50.2442 106.994C50.127 106.945 50.0684 106.92 50.0684 106.92V105.502H50.5723L50.6778 106.408C50.683 106.439 50.6999 106.473 50.7286 106.51C50.7572 106.546 50.7846 106.571 50.8106 106.584C50.8236 106.587 50.8992 106.618 51.0372 106.678C51.1778 106.738 51.3718 106.768 51.6192 106.768C51.9604 106.768 52.2416 106.684 52.463 106.518C52.6843 106.351 52.795 106.119 52.795 105.822C52.795 105.661 52.7494 105.52 52.6583 105.4C52.5697 105.278 52.4539 105.17 52.3106 105.076C52.1674 104.982 52.0138 104.898 51.8497 104.822C51.6882 104.744 51.5346 104.67 51.3888 104.6C51.17 104.495 50.9669 104.385 50.7794 104.268C50.5919 104.148 50.4408 104.001 50.3263 103.826C50.2117 103.652 50.1544 103.429 50.1544 103.158C50.1544 102.84 50.2351 102.564 50.3966 102.33C50.558 102.096 50.7781 101.915 51.0567 101.787C51.3354 101.657 51.6505 101.592 52.002 101.592C52.2885 101.592 52.5411 101.62 52.7598 101.678C52.9786 101.732 53.1726 101.787 53.3419 101.842L53.4122 101.865V103.111H52.9552L52.8341 102.346C52.8289 102.309 52.8119 102.283 52.7833 102.268C52.7572 102.249 52.7325 102.229 52.7091 102.205C52.6882 102.189 52.6231 102.156 52.5138 102.104C52.407 102.051 52.2403 102.025 52.0138 102.025C51.6934 102.025 51.4408 102.115 51.2559 102.295C51.071 102.472 50.9786 102.696 50.9786 102.967C50.9786 103.212 51.0736 103.415 51.2638 103.576C51.4565 103.738 51.7325 103.887 52.0919 104.025C52.5763 104.208 52.9499 104.413 53.213 104.643C53.4786 104.869 53.6114 105.183 53.6114 105.584ZM57.4163 106.689C57.1923 106.827 56.9501 106.945 56.6897 107.041C56.4319 107.137 56.1676 107.186 55.8967 107.186C55.5738 107.186 55.2704 107.114 54.9866 106.971C54.7053 106.825 54.4774 106.605 54.303 106.311C54.1285 106.016 54.0413 105.646 54.0413 105.201C54.0413 104.785 54.122 104.421 54.2834 104.111C54.4449 103.801 54.6676 103.562 54.9514 103.393C55.2353 103.221 55.5582 103.135 55.9202 103.135C56.4176 103.135 56.7913 103.29 57.0413 103.6C57.2913 103.907 57.4163 104.299 57.4163 104.775C57.4163 104.801 57.4163 104.837 57.4163 104.881C57.4163 104.923 57.4136 104.962 57.4084 104.998H54.8147C54.8147 105.201 54.8355 105.404 54.8772 105.607C54.9215 105.808 54.9944 105.99 55.0959 106.154C55.1975 106.318 55.3342 106.45 55.5061 106.549C55.678 106.648 55.8928 106.697 56.1506 106.697C56.3798 106.697 56.6024 106.645 56.8186 106.541C57.0373 106.434 57.2366 106.321 57.4163 106.201V106.689ZM56.6155 104.639V104.463C56.6155 104.2 56.5517 103.979 56.4241 103.799C56.2991 103.619 56.1038 103.529 55.8381 103.529C55.5751 103.529 55.3511 103.628 55.1663 103.826C54.9814 104.024 54.8785 104.295 54.8577 104.639H56.6155ZM61.4672 107.088H60.2836L60.1781 106.615C60.1781 106.615 60.1378 106.644 60.057 106.701C59.9789 106.758 59.8747 106.825 59.7445 106.9C59.6143 106.976 59.4698 107.042 59.3109 107.1C59.1547 107.157 58.9984 107.186 58.8422 107.186C58.5531 107.186 58.307 107.089 58.1039 106.896C57.9034 106.704 57.8031 106.439 57.8031 106.104C57.8031 105.955 57.8292 105.817 57.8813 105.689C57.9359 105.562 58.0427 105.441 58.2016 105.326C58.363 105.209 58.6013 105.096 58.9164 104.986C59.2341 104.874 59.6547 104.761 60.1781 104.646V104.303C60.1781 103.777 59.9294 103.514 59.432 103.514C59.294 103.514 59.1742 103.527 59.0727 103.553C58.9737 103.579 58.9047 103.6 58.8656 103.615V104.311H58.2836C58.2107 104.311 58.143 104.298 58.0805 104.271C58.018 104.243 57.9867 104.179 57.9867 104.08C57.9867 103.861 58.0701 103.683 58.2367 103.545C58.4034 103.404 58.6143 103.301 58.8695 103.236C59.1273 103.169 59.3878 103.135 59.6508 103.135C59.9815 103.135 60.238 103.187 60.4203 103.291C60.6026 103.393 60.7302 103.535 60.8031 103.717C60.876 103.896 60.9125 104.102 60.9125 104.334V106.576C60.9125 106.626 60.9281 106.666 60.9594 106.697C60.9932 106.729 61.0336 106.747 61.0805 106.752L61.4672 106.775V107.088ZM60.1781 106.334V104.951C59.8188 105.04 59.5323 105.13 59.3188 105.221C59.1078 105.309 58.9503 105.399 58.8461 105.49C58.7419 105.579 58.6729 105.67 58.6391 105.764C58.6078 105.855 58.5922 105.95 58.5922 106.049C58.5922 106.213 58.6443 106.365 58.7484 106.506C58.8552 106.644 59.0036 106.713 59.1938 106.713C59.3005 106.713 59.4112 106.695 59.5258 106.658C59.6404 106.619 59.7471 106.575 59.8461 106.525C59.9451 106.473 60.0245 106.429 60.0844 106.393C60.1469 106.354 60.1781 106.334 60.1781 106.334ZM67.2566 107.088H65.1472V106.744L65.6238 106.713C65.681 106.708 65.7227 106.687 65.7488 106.65C65.7774 106.614 65.7917 106.576 65.7917 106.537V102.271C65.7917 102.232 65.7774 102.196 65.7488 102.162C65.7227 102.126 65.681 102.106 65.6238 102.104L65.1472 102.072V101.721H67.2566V102.072L66.7683 102.104C66.7136 102.106 66.6719 102.126 66.6433 102.162C66.6146 102.196 66.6003 102.232 66.6003 102.271V106.537C66.6003 106.576 66.6146 106.614 66.6433 106.65C66.6719 106.687 66.7136 106.708 66.7683 106.713L67.2566 106.744V107.088ZM70.8192 106.334V106.791C70.6395 106.887 70.4364 106.977 70.2098 107.061C69.9859 107.144 69.7385 107.186 69.4677 107.186C69.0953 107.186 68.771 107.098 68.495 106.924C68.2216 106.749 68.0093 106.512 67.8583 106.213C67.7098 105.911 67.6356 105.568 67.6356 105.186C67.6356 104.738 67.7242 104.361 67.9013 104.057C68.0809 103.752 68.3166 103.523 68.6083 103.369C68.9026 103.213 69.2203 103.135 69.5614 103.135C69.913 103.135 70.2072 103.204 70.4442 103.342C70.6838 103.477 70.8036 103.675 70.8036 103.936C70.8036 104.092 70.7541 104.21 70.6552 104.291C70.5588 104.369 70.4507 104.408 70.3309 104.408C70.2424 104.408 70.1656 104.394 70.1005 104.365C70.0354 104.334 69.9781 104.303 69.9286 104.271V103.576C69.8062 103.506 69.6942 103.471 69.5927 103.471C69.3557 103.471 69.1513 103.541 68.9794 103.682C68.8101 103.82 68.6799 104.01 68.5888 104.252C68.4976 104.494 68.452 104.77 68.452 105.08C68.452 105.374 68.5015 105.644 68.6005 105.889C68.6994 106.131 68.8466 106.324 69.0419 106.467C69.2398 106.61 69.4846 106.682 69.7763 106.682C69.9611 106.682 70.1382 106.652 70.3075 106.592C70.4768 106.532 70.6473 106.446 70.8192 106.334ZM74.5772 106.689C74.3532 106.827 74.111 106.945 73.8506 107.041C73.5928 107.137 73.3285 107.186 73.0577 107.186C72.7347 107.186 72.4314 107.114 72.1475 106.971C71.8662 106.825 71.6384 106.605 71.4639 106.311C71.2894 106.016 71.2022 105.646 71.2022 105.201C71.2022 104.785 71.2829 104.421 71.4444 104.111C71.6058 103.801 71.8285 103.562 72.1123 103.393C72.3962 103.221 72.7191 103.135 73.0811 103.135C73.5785 103.135 73.9522 103.29 74.2022 103.6C74.4522 103.907 74.5772 104.299 74.5772 104.775C74.5772 104.801 74.5772 104.837 74.5772 104.881C74.5772 104.923 74.5746 104.962 74.5694 104.998H71.9756C71.9756 105.201 71.9965 105.404 72.0381 105.607C72.0824 105.808 72.1553 105.99 72.2569 106.154C72.3584 106.318 72.4952 106.45 72.667 106.549C72.8389 106.648 73.0537 106.697 73.3116 106.697C73.5407 106.697 73.7634 106.645 73.9795 106.541C74.1983 106.434 74.3975 106.321 74.5772 106.201V106.689ZM73.7764 104.639V104.463C73.7764 104.2 73.7126 103.979 73.585 103.799C73.46 103.619 73.2647 103.529 72.9991 103.529C72.736 103.529 72.5121 103.628 72.3272 103.826C72.1423 104.024 72.0394 104.295 72.0186 104.639H73.7764Z" fill="url(#paint1_linear_490_13881)"/>
</g>
<path d="M51 0L51.4223 1.07073C52.2354 3.13251 53.8675 4.76456 55.9293 5.57771L57 6L55.9293 6.42229C53.8675 7.23544 52.2354 8.86749 51.4223 10.9293L51 12L50.5777 10.9293C49.7646 8.86749 48.1325 7.23544 46.0707 6.42229L45 6L46.0707 5.57771C48.1325 4.76456 49.7646 3.13251 50.5777 1.07073L51 0Z" fill="#E3C17D"/>
<defs>
<filter id="filter0_i_490_13881" x="26.1885" y="101.424" width="48.3887" height="6.29297" filterUnits="userSpaceOnUse" color-interpolation-filters="sRGB">
<feFlood flood-opacity="0" result="BackgroundImageFix"/>
<feBlend mode="normal" in="SourceGraphic" in2="BackgroundImageFix" result="shape"/>
<feColorMatrix in="SourceAlpha" type="matrix" values="0 0 0 0 0 0 0 0 0 0 0 0 0 0 0 0 0 0 127 0" result="hardAlpha"/>
<feOffset dy="0.5"/>
<feGaussianBlur stdDeviation="0.25"/>
<feComposite in2="hardAlpha" operator="arithmetic" k2="-1" k3="1"/>
<feColorMatrix type="matrix" values="0 0 0 0 1 0 0 0 0 1 0 0 0 0 1 0 0 0 0.5 0"/>
<feBlend mode="screen" in2="shape" result="effect1_innerShadow_490_13881"/>
</filter>
<linearGradient id="paint0_linear_490_13881" x1="51" y1="97.0879" x2="51" y2="112.088" gradientUnits="userSpaceOnUse">
<stop stop-color="#E4C68A"/>
<stop offset="1" stop-color="#7A5C29"/>
</linearGradient>
<linearGradient id="paint1_linear_490_13881" x1="50.5" y1="92.0879" x2="50.5" y2="116.088" gradientUnits="userSpaceOnUse">
<stop stop-color="#9F7D33"/>
<stop offset="1" stop-color="#FFFDD1"/>
</linearGradient>
</defs>
</svg>
