<svg width="1107" height="542" viewBox="0 0 1107 542" fill="none" xmlns="http://www.w3.org/2000/svg">
<g clip-path="url(#clip0_289_13601)">
<mask id="path-1-inside-1_289_13601" fill="white">
<path fill-rule="evenodd" clip-rule="evenodd" d="M488.812 5L620 5L625.812 2.38419e-06H1095L1107 12V497.306L1101 504.225V535.643L1094.15 542H2.95247L0 539.182V12L12 2.38419e-06L483 0L488.812 5ZM3.19077e-06 127L7 121.168L7 85.8316L2.38419e-06 80L3.19077e-06 127Z"/>
</mask>
<path fill-rule="evenodd" clip-rule="evenodd" d="M488.812 5L620 5L625.812 2.38419e-06H1095L1107 12V497.306L1101 504.225V535.643L1094.15 542H2.95247L0 539.182V12L12 2.38419e-06L483 0L488.812 5ZM3.19077e-06 127L7 121.168L7 85.8316L2.38419e-06 80L3.19077e-06 127Z" fill="url(#paint0_linear_289_13601)" fill-opacity="0.95"/>
<path d="M620 5L620 11L622.226 11L623.913 9.54835L620 5ZM488.812 5L484.899 9.54834L486.586 11L488.812 11L488.812 5ZM625.812 2.38419e-06V-6H623.586L621.899 -4.54834L625.812 2.38419e-06ZM1095 2.38419e-06L1099.24 -4.24264L1097.49 -6H1095V2.38419e-06ZM1107 12H1113V9.51472L1111.24 7.75736L1107 12ZM1107 497.306L1111.53 501.237L1113 499.545V497.306H1107ZM1101 504.225L1096.47 500.293L1095 501.985V504.225H1101ZM1101 535.643L1105.08 540.04L1107 538.259V535.643H1101ZM1094.15 542V548H1096.51L1098.24 546.397L1094.15 542ZM2.95247 542L-1.19056 546.34L0.548386 548H2.95247V542ZM0 539.182H-6V541.749L-4.14302 543.521L0 539.182ZM0 12L-4.24264 7.75736L-6 9.51472V12H0ZM12 2.38419e-06L12 -6L9.51472 -6L7.75736 -4.24264L12 2.38419e-06ZM483 0L486.913 -4.54834L485.226 -6L483 -6L483 0ZM7 121.168L10.8404 125.778L13 123.979L13 121.168L7 121.168ZM3.19077e-06 127L-6 127L-6 139.808L3.84045 131.61L3.19077e-06 127ZM7 85.8316L13 85.8316L13 83.0209L10.8404 81.2218L7 85.8316ZM2.38419e-06 80L3.84045 75.3901L-6 67.1921L-6 80L2.38419e-06 80ZM620 -0.999998L488.812 -1L488.812 11L620 11L620 -0.999998ZM621.899 -4.54834L616.087 0.451659L623.913 9.54835L629.725 4.54835L621.899 -4.54834ZM1095 -6H625.812V6H1095V-6ZM1111.24 7.75736L1099.24 -4.24264L1090.76 4.24264L1102.76 16.2426L1111.24 7.75736ZM1113 497.306V12H1101V497.306H1113ZM1102.47 493.375L1096.47 500.293L1105.53 508.156L1111.53 501.237L1102.47 493.375ZM1095 504.225V535.643H1107V504.225H1095ZM1098.24 546.397L1105.08 540.04L1096.92 531.246L1090.07 537.603L1098.24 546.397ZM2.95247 548H1094.15V536H2.95247V548ZM-4.14302 543.521L-1.19056 546.34L7.09549 537.66L4.14302 534.842L-4.14302 543.521ZM-6 12V539.182H6V12H-6ZM7.75736 -4.24264L-4.24264 7.75736L4.24264 16.2426L16.2426 4.24264L7.75736 -4.24264ZM483 -6L12 -6L12 6L483 6L483 -6ZM492.725 0.451656L486.913 -4.54834L479.087 4.54834L484.899 9.54834L492.725 0.451656ZM3.15955 116.558L-3.84044 122.39L3.84045 131.61L10.8404 125.778L3.15955 116.558ZM0.999996 85.8316L0.999998 121.168L13 121.168L13 85.8316L0.999996 85.8316ZM-3.84044 84.6099L3.15955 90.4415L10.8404 81.2218L3.84045 75.3901L-3.84044 84.6099ZM6 127L6 80L-6 80L-6 127L6 127Z" fill="url(#paint1_linear_289_13601)" mask="url(#path-1-inside-1_289_13601)"/>
<path d="M488.812 5L620 5L625.812 1.43051e-06L483 -2.38419e-06L488.812 5Z" fill="#E8C27A"/>
<g opacity="0.2">
<path d="M3 69L3 74.5L7 78L7 72.5L3 69Z" fill="white"/>
<path d="M3 60L3 65.5L7 69L7 63.5L3 60Z" fill="white"/>
<path d="M3 50L3 55.5L7 59L7 53.5L3 50Z" fill="white"/>
</g>
<path d="M1103 513L1103 507.5L1107 503L1107 508.5L1103 513Z" fill="#0ACBE6"/>
<path d="M1103 522L1103 516.5L1107 512L1107 517.5L1103 522Z" fill="#0ACBE6"/>
<path d="M1103 532L1103 526.5L1107 522L1107 527.5L1103 532Z" fill="#0ACBE6"/>
<path opacity="0.5" d="M3.58579 537.243C4.36684 538.024 5.63316 538.024 6.41421 537.243C7.19526 536.462 7.19526 535.195 6.41421 534.414M3.58579 537.243C2.80474 536.462 2.80474 535.195 3.58579 534.414C4.36684 533.633 5.63316 533.633 6.41421 534.414M3.58579 537.243L6.41421 534.414" stroke="white"/>
<path opacity="0.5" d="M1103.06 540.182C1103.65 540.768 1104.6 540.768 1105.18 540.182C1105.77 539.596 1105.77 538.646 1105.18 538.061M1103.06 540.182C1102.47 539.596 1102.47 538.646 1103.06 538.061C1103.65 537.475 1104.6 537.475 1105.18 538.061M1103.06 540.182L1105.18 538.061" stroke="white"/>
<path d="M158.75 -33.125L160.017 -29.9128C162.456 -23.7275 167.352 -18.8313 173.538 -16.3919L176.75 -15.125L173.538 -13.8581C167.352 -11.4187 162.456 -6.52252 160.017 -0.337181L158.75 2.875L157.483 -0.33718C155.044 -6.52252 150.148 -11.4187 143.962 -13.8581L140.75 -15.125L143.962 -16.3919C150.148 -18.8313 155.044 -23.7275 157.483 -29.9128L158.75 -33.125Z" fill="#E3C17D"/>
</g>
<defs>
<linearGradient id="paint0_linear_289_13601" x1="553.5" y1="0" x2="553.5" y2="542" gradientUnits="userSpaceOnUse">
<stop stop-color="#020B14"/>
<stop offset="1" stop-color="#062133"/>
</linearGradient>
<linearGradient id="paint1_linear_289_13601" x1="553.5" y1="0" x2="553.5" y2="542" gradientUnits="userSpaceOnUse">
<stop stop-color="#CAB37D"/>
<stop offset="1" stop-color="#E3C17D"/>
</linearGradient>
<clipPath id="clip0_289_13601">
<rect width="1107" height="542" fill="white"/>
</clipPath>
</defs>
</svg>
