<svg width="476" height="28" viewBox="0 0 476 28" fill="none" xmlns="http://www.w3.org/2000/svg">
<path d="M7.47016 21.2018C7.47016 24.797 5.89096 25.1666 5.65576 25.2002H21.011L22.0862 18.9506C20.843 21.2354 19.7342 22.109 16.8446 22.109H12.275V15.4226H16.0382C18.3902 15.4226 18.6254 16.4306 18.659 16.5314V11.2226C18.5918 11.4242 18.2222 12.365 15.971 12.365H12.275V5.88017H16.5086C19.331 5.88017 20.1374 7.29137 20.6078 8.80337V2.82257H5.38696C5.72296 2.88977 7.47016 3.32657 7.47016 6.58577V21.2018Z" fill="url(#paint0_linear_265_231)"/>
<path d="M12.1 22.109V22.284H12.275H16.8446C18.3052 22.284 19.343 22.0636 20.1766 21.5343C20.792 21.1435 21.2835 20.5922 21.7511 19.866L20.8635 25.0252H6.41778C6.53955 24.9274 6.66594 24.8028 6.78936 24.6439C7.24528 24.0571 7.64516 23.0231 7.64516 21.2018V6.58577C7.64516 4.92413 7.19904 3.95413 6.68387 3.38925C6.53434 3.2253 6.38076 3.09742 6.23353 2.99757H20.4328V7.84982C20.2233 7.40597 19.9475 6.98951 19.556 6.64363C18.9025 6.06619 17.9498 5.70517 16.5086 5.70517H12.275H12.1V5.88017V12.365V12.54H12.275H15.971C17.1198 12.54 17.8128 12.3 18.2325 12.014C18.3316 11.9464 18.4146 11.877 18.484 11.8086V15.9348C18.4367 15.8894 18.383 15.8437 18.3222 15.7986C17.9253 15.5045 17.2375 15.2476 16.0382 15.2476H12.275H12.1V15.4226V22.109Z" stroke="url(#paint1_linear_265_231)" stroke-opacity="0.75" stroke-width="0.35" style="mix-blend-mode:screen"/>
<path d="M33.9817 25.2002H37.4089L44.5321 7.05617C46.0441 3.19217 47.5225 2.85617 47.7241 2.82257H39.9625C40.2313 2.85617 41.3737 3.09137 41.3737 4.43537C41.3737 4.83857 41.2057 5.34257 40.9705 6.04817L36.4345 18.0434L31.7305 6.18257C31.3945 5.37617 31.1593 4.80497 31.1593 4.33457C31.1593 3.05777 32.3017 2.85617 32.5369 2.82257H23.4985C23.7673 2.88977 25.2457 3.32657 26.6905 6.92177L33.9817 25.2002Z" fill="url(#paint2_linear_265_231)"/>
<path d="M24.2614 2.99757H31.619C31.2785 3.2452 30.9843 3.66066 30.9843 4.33457C30.9843 4.59733 31.0498 4.87847 31.1529 5.18791C31.256 5.49723 31.4013 5.84748 31.5684 6.24849L36.2719 18.1079L36.4384 18.5279L36.5982 18.1053L41.1342 6.11007L41.1344 6.11012L41.1366 6.10351L41.1472 6.0715C41.3732 5.39378 41.5487 4.86716 41.5487 4.43537C41.5487 3.70575 41.235 3.25984 40.874 2.99757H46.9474C46.2991 3.45791 45.3358 4.52225 44.3692 6.99222L24.2614 2.99757ZM24.2614 2.99757C24.4162 3.10401 24.5891 3.24266 24.7755 3.42363C25.3812 4.01196 26.124 5.04271 26.8529 6.85651L26.8531 6.85693L34.1003 25.0252H37.2896L44.3692 6.9924L24.2614 2.99757Z" stroke="url(#paint3_linear_265_231)" stroke-opacity="0.75" stroke-width="0.35" style="mix-blend-mode:screen"/>
<path d="M50.8701 21.2018C50.8701 24.797 49.2909 25.1666 49.0557 25.2002H64.4109L65.4861 18.9506C64.2429 21.2354 63.1341 22.109 60.2445 22.109H55.6749V15.4226H59.4381C61.7901 15.4226 62.0253 16.4306 62.0589 16.5314V11.2226C61.9917 11.4242 61.6221 12.365 59.3709 12.365H55.6749V5.88017H59.9085C62.7309 5.88017 63.5373 7.29137 64.0077 8.80337V2.82257H48.7869C49.1229 2.88977 50.8701 3.32657 50.8701 6.58577V21.2018Z" fill="url(#paint4_linear_265_231)"/>
<path d="M55.4999 22.109V22.284H55.6749H60.2445C61.7051 22.284 62.7429 22.0636 63.5765 21.5343C64.1919 21.1435 64.6834 20.5922 65.151 19.866L64.2634 25.0252H49.8177C49.9395 24.9274 50.0658 24.8028 50.1893 24.6439C50.6452 24.0571 51.0451 23.0231 51.0451 21.2018V6.58577C51.0451 4.92413 50.5989 3.95413 50.0838 3.38925C49.9342 3.2253 49.7807 3.09742 49.6334 2.99757H63.8327V7.84982C63.6232 7.40597 63.3474 6.98951 62.9559 6.64363C62.3024 6.06619 61.3497 5.70517 59.9085 5.70517H55.6749H55.4999V5.88017V12.365V12.54H55.6749H59.3709C60.5197 12.54 61.2127 12.3 61.6324 12.014C61.7315 11.9464 61.8145 11.877 61.8839 11.8086V15.9348C61.8366 15.8894 61.7829 15.8437 61.7221 15.7986C61.3252 15.5045 60.6374 15.2476 59.4381 15.2476H55.6749H55.4999V15.4226V22.109Z" stroke="url(#paint5_linear_265_231)" stroke-opacity="0.75" stroke-width="0.35" style="mix-blend-mode:screen"/>
<path d="M71.128 21.4706C71.128 24.8642 69.5824 25.1666 69.3472 25.2002H77.4448C77.176 25.1666 75.7312 24.7634 75.7312 21.4706V16.397H76.2016C77.0752 16.397 77.6128 16.8002 78.4192 18.3122L82.1488 25.2002H88.9696C88.6336 25.1666 87.3232 24.8978 86.0464 22.6802L83.056 17.5058C82.552 16.5986 81.9472 15.893 81.376 15.557C84.8704 15.0866 86.8528 12.4322 86.8528 9.37457C86.8528 6.04817 84.1984 2.82257 78.9232 2.82257H69.0784C69.3472 2.88977 71.128 3.32657 71.128 6.72017V21.4706ZM75.6976 13.373V5.88017H78.016C80.704 5.88017 82.048 7.62737 82.048 9.50897C82.048 11.4914 80.9056 13.373 78.0496 13.373H75.6976Z" fill="url(#paint6_linear_265_231)"/>
<path d="M70.1382 25.0252C70.2445 24.941 70.3537 24.8365 70.4608 24.7067C70.911 24.161 71.303 23.1921 71.303 21.4706V6.72017C71.303 4.99215 70.8489 3.98953 70.3351 3.40809C70.182 3.23484 70.0253 3.10103 69.877 2.99757H78.9232C81.5244 2.99757 83.462 3.79219 84.7474 4.97971C86.0334 6.16771 86.6778 7.75858 86.6778 9.37457C86.6778 12.35 84.7549 14.9255 81.3526 15.3835L80.8508 15.4511L81.2872 15.7078C81.82 16.0212 82.406 16.6962 82.903 17.5908L82.903 17.5908L82.9045 17.5933L85.8947 22.7675C86.6253 24.0364 87.3732 24.6893 87.9591 25.0252H82.253L78.5736 18.2298C78.5735 18.2296 78.5734 18.2294 78.5732 18.2292C78.1681 17.4695 77.8193 16.9659 77.4482 16.6537C77.0667 16.3326 76.6717 16.222 76.2016 16.222H75.7312H75.5562V16.397V21.4706C75.5562 23.1408 75.9225 24.1069 76.3481 24.6638C76.4619 24.8127 76.579 24.9312 76.6929 25.0252H70.1382ZM75.5226 13.373V13.548H75.6976H78.0496C79.5185 13.548 80.5689 13.0625 81.2502 12.3011C81.9283 11.5432 82.223 10.5318 82.223 9.50897C82.223 8.52666 81.8718 7.57336 81.1637 6.86523C80.4543 6.1558 79.3994 5.70517 78.016 5.70517H75.6976H75.5226V5.88017V13.373Z" stroke="url(#paint7_linear_265_231)" stroke-opacity="0.75" stroke-width="0.35" style="mix-blend-mode:screen"/>
<path d="M97.9992 21.437C97.9992 24.8642 96.4872 25.1666 96.252 25.2002H104.551C104.282 25.1666 102.871 24.7634 102.871 21.437V15.7922L108.247 6.75377C110.33 3.19217 111.574 2.85617 111.674 2.82257H104.383C104.585 2.85617 105.324 3.09137 105.324 4.09937C105.324 4.73777 104.954 5.64497 104.114 7.12337L101.258 12.0626L98.0664 6.51857C97.428 5.40977 97.1928 4.67057 97.1928 4.13297C97.1928 3.02417 98.0328 2.85617 98.2344 2.82257H89.196C89.4312 2.88977 90.7752 3.29297 92.724 6.68657L97.9992 15.9602V21.437Z" fill="url(#paint8_linear_265_231)"/>
<path d="M103.812 25.0252H97.0299C97.1356 24.9396 97.2441 24.8332 97.3504 24.7006C97.7912 24.1507 98.1742 23.1741 98.1742 21.437V15.9602V15.9139L98.1514 15.8736L92.8762 6.60004L92.8758 6.59942C91.6108 4.39657 90.5897 3.42931 89.9452 2.99757H97.4584C97.2121 3.22245 97.0178 3.57969 97.0178 4.13297C97.0178 4.71759 97.2721 5.4897 97.9148 6.60589L101.107 12.1499L101.258 12.4127L101.41 12.1502L104.266 7.21097L104.267 7.20982C104.688 6.46788 104.995 5.86365 105.197 5.3616C105.398 4.86077 105.499 4.45052 105.499 4.09937C105.499 3.5725 105.313 3.22218 105.081 2.99757H110.996C110.876 3.08575 110.739 3.19658 110.586 3.33598C109.986 3.88455 109.144 4.8742 108.097 6.66485C108.096 6.66504 108.096 6.66523 108.096 6.66542L102.721 15.7027L102.696 15.7441V15.7922V21.437C102.696 23.1229 103.054 24.0966 103.47 24.6576C103.583 24.8095 103.699 24.9299 103.812 25.0252Z" stroke="url(#paint9_linear_265_231)" stroke-opacity="0.75" stroke-width="0.35" style="mix-blend-mode:screen"/>
<path d="M120.74 21.437C120.74 24.8306 119.329 25.1666 119.026 25.2002H127.359C127.023 25.1666 125.646 24.7298 125.646 21.437V5.88017H129.106C131.929 5.88017 132.634 7.32497 133.273 8.90417L132.769 2.82257H113.65C113.482 4.87217 113.314 6.88817 113.113 8.90417C113.818 7.35857 114.39 5.88017 116.674 5.88017H120.74V21.437Z" fill="url(#paint10_linear_265_231)"/>
<path d="M125.646 5.70517H125.471V5.88017V21.437C125.471 23.1055 125.819 24.0792 126.235 24.6445C126.351 24.8021 126.472 24.9268 126.59 25.0252H119.812C119.92 24.936 120.029 24.8243 120.136 24.6847C120.558 24.1306 120.915 23.1552 120.915 21.437V5.88017V5.70517H120.74H116.674C115.487 5.70517 114.725 6.09256 114.172 6.69423C113.853 7.04247 113.606 7.46056 113.386 7.90183C113.54 6.27607 113.676 4.64697 113.812 2.99757H132.608L133.013 7.88742C132.784 7.43935 132.507 7.01958 132.127 6.67101C131.478 6.07566 130.55 5.70517 129.106 5.70517H125.646Z" stroke="url(#paint11_linear_265_231)" stroke-opacity="0.75" stroke-width="0.35" style="mix-blend-mode:screen"/>
<path d="M135.236 21.437C135.236 24.8642 133.691 25.1666 133.456 25.2002H141.788C141.52 25.1666 140.075 24.797 140.075 21.437V15.4226H149.718V21.437C149.718 24.8642 148.172 25.1666 147.937 25.2002H156.27C156.001 25.1666 154.556 24.7634 154.556 21.437V6.58577C154.556 3.19217 156.035 2.85617 156.27 2.82257H147.937C148.24 2.88977 149.718 3.29297 149.718 6.58577V12.365H140.075V6.58577C140.075 3.22577 141.553 2.85617 141.788 2.82257H133.456C133.758 2.88977 135.236 3.32657 135.236 6.58577V21.437Z" fill="url(#paint12_linear_265_231)"/>
<path d="M140.075 15.2476H139.9V15.4226V21.437C139.9 23.1399 140.266 24.1148 140.692 24.6722C140.803 24.8175 140.917 24.9332 141.028 25.0252H134.244C134.351 24.9399 134.462 24.8339 134.57 24.702C135.02 24.152 135.411 23.1749 135.411 21.437V6.58577C135.411 4.93082 135.036 3.96477 134.598 3.39988C134.466 3.23083 134.331 3.09958 134.201 2.99757H141.043C140.932 3.08938 140.817 3.2048 140.705 3.3498C140.275 3.90699 139.9 4.88187 139.9 6.58577V12.365V12.54H140.075H149.718H149.893V12.365V6.58577C149.893 4.91458 149.518 3.94796 149.079 3.38675C148.951 3.22364 148.82 3.09664 148.693 2.99757H155.514C155.406 3.0864 155.295 3.19755 155.187 3.33665C154.756 3.89017 154.381 4.86564 154.381 6.58577V21.437C154.381 23.1237 154.748 24.098 155.173 24.6591C155.287 24.8102 155.405 24.9302 155.52 25.0252H148.726C148.833 24.9399 148.943 24.8339 149.051 24.702C149.501 24.152 149.893 23.1749 149.893 21.437V15.4226V15.2476H149.718H140.075Z" stroke="url(#paint13_linear_265_231)" stroke-opacity="0.75" stroke-width="0.35" style="mix-blend-mode:screen"/>
<path d="M164.207 21.7394C164.207 24.8642 162.695 25.1666 162.46 25.2002H170.692C170.423 25.1666 168.978 24.7634 168.978 21.7394V6.45137C168.978 3.19217 170.557 2.85617 170.725 2.82257H162.46C162.695 2.88977 164.207 3.29297 164.207 6.45137V21.7394Z" fill="url(#paint14_linear_265_231)"/>
<path d="M169.979 2.99757C169.873 3.08163 169.763 3.1858 169.655 3.31489C169.205 3.85101 168.803 4.79415 168.803 6.45137V21.7394C168.803 23.2785 169.171 24.1787 169.599 24.7019C169.706 24.833 169.816 24.9392 169.923 25.0252H163.259C163.357 24.949 163.456 24.8564 163.554 24.7435C163.997 24.2316 164.382 23.3289 164.382 21.7394V6.45137C164.382 4.84466 163.997 3.91141 163.558 3.36776C163.433 3.21368 163.306 3.0927 163.184 2.99757H169.979Z" stroke="url(#paint15_linear_265_231)" stroke-opacity="0.75" stroke-width="0.35" style="mix-blend-mode:screen"/>
<path d="M179.668 21.5378C179.668 24.8642 178.189 25.1666 177.954 25.2002H185.413C185.077 25.1666 183.397 24.7634 183.397 21.5378V10.1474L190.89 19.2866C193.645 22.6466 194.485 25.2002 194.485 25.2002H197.98V6.51857C197.98 3.19217 199.492 2.85617 199.727 2.82257H192.436C192.738 2.88977 194.284 3.29297 194.284 6.51857V16.0274L183.733 2.82257H176.61C176.845 2.92337 179.668 4.20017 179.668 6.78737V21.5378Z" fill="url(#paint16_linear_265_231)"/>
<path d="M178.728 25.0252C178.829 24.9424 178.934 24.8401 179.035 24.7135C179.468 24.1763 179.843 23.2248 179.843 21.5378V6.78737C179.843 5.42447 179.098 4.41477 178.344 3.74194C177.985 3.42253 177.62 3.17513 177.323 2.99757H183.649L194.147 16.1366L194.459 16.5268V16.0274V6.51857C194.459 4.8785 194.066 3.92737 193.608 3.37457C193.478 3.21733 193.344 3.09418 193.215 2.99757H198.956C198.848 3.08407 198.737 3.19174 198.629 3.32576C198.188 3.87094 197.805 4.83049 197.805 6.51857V25.0252H194.609C194.608 25.0244 194.608 25.0237 194.608 25.023C194.579 24.9445 194.534 24.8294 194.473 24.6813C194.349 24.385 194.156 23.9561 193.876 23.4222C193.317 22.3542 192.411 20.8657 191.025 19.1756C191.025 19.1756 191.025 19.1756 191.025 19.1756L183.533 10.0364L183.222 9.6579V10.1474V21.5378C183.222 23.181 183.651 24.1347 184.15 24.6837C184.277 24.8234 184.407 24.9354 184.534 25.0252H178.728Z" stroke="url(#paint17_linear_265_231)" stroke-opacity="0.75" stroke-width="0.35" style="mix-blend-mode:screen"/>
<path d="M214.194 21.9072C213.488 22.1424 212.682 22.344 211.674 22.344C207.541 22.344 204.55 18.8832 204.55 13.944C204.55 9.00482 207.574 5.64482 211.808 5.64482C215.504 5.64482 217.654 7.62722 218.629 9.47522V3.66242C217.789 3.22562 215.571 2.31842 212.144 2.31842C203.677 2.31842 199.477 8.40002 199.477 14.5488C199.477 20.2608 203.307 25.7376 210.834 25.7376C213.421 25.7376 216.613 25.3008 218.83 24.3936V18.2448C218.83 15.5232 220.443 15.1536 220.678 15.12H212.245C212.48 15.1536 214.194 15.5568 214.194 18.3456V21.9072Z" fill="url(#paint18_linear_265_231)"/>
<path d="M214.249 22.0732L214.369 22.0334V21.9072V18.3456C214.369 16.9125 213.927 16.067 213.431 15.5753C213.318 15.4637 213.204 15.3714 213.092 15.295H219.843C219.744 15.3657 219.642 15.4503 219.542 15.5513C219.071 16.0269 218.655 16.8472 218.655 18.2448V24.2754C216.471 25.1415 213.365 25.5626 210.834 25.5626C207.116 25.5626 204.325 24.2116 202.462 22.1673C200.597 20.1204 199.652 17.3669 199.652 14.5488C199.652 11.513 200.689 8.49935 202.764 6.24638C204.837 3.99615 207.955 2.49342 212.144 2.49342C215.417 2.49342 217.57 3.3284 218.454 3.76967V8.83315C217.335 7.11784 215.207 5.46982 211.808 5.46982C209.642 5.46982 207.78 6.33058 206.46 7.82648C205.143 9.32088 204.375 11.439 204.375 13.944C204.375 18.9527 207.419 22.519 211.674 22.519C212.707 22.519 213.533 22.3121 214.249 22.0732Z" stroke="url(#paint19_linear_265_231)" stroke-opacity="0.75" stroke-width="0.35" style="mix-blend-mode:screen"/>
<path d="M235.607 21.7394C235.607 24.8642 234.095 25.1666 233.86 25.2002H242.092C241.823 25.1666 240.378 24.7634 240.378 21.7394V6.45137C240.378 3.19217 241.957 2.85617 242.125 2.82257H233.86C234.095 2.88977 235.607 3.29297 235.607 6.45137V21.7394Z" fill="url(#paint20_linear_265_231)"/>
<path d="M241.379 2.99757C241.273 3.08163 241.163 3.1858 241.055 3.31489C240.605 3.85101 240.203 4.79415 240.203 6.45137V21.7394C240.203 23.2785 240.571 24.1787 240.999 24.7019C241.106 24.833 241.216 24.9392 241.323 25.0252H234.659C234.756 24.949 234.856 24.8564 234.954 24.7435C235.397 24.2316 235.782 23.3289 235.782 21.7394V6.45137C235.782 4.84466 235.397 3.91141 234.958 3.36776C234.833 3.21368 234.705 3.0927 234.584 2.99757H241.379Z" stroke="url(#paint21_linear_265_231)" stroke-opacity="0.75" stroke-width="0.35" style="mix-blend-mode:screen"/>
<path d="M243.773 24.0239C245.386 25.0319 247.906 25.7039 250.392 25.7039C255.231 25.7039 258.893 23.3519 258.893 18.9839C258.893 14.8847 255.6 13.2047 252.61 11.8607C250.291 10.7855 248.275 9.87833 248.275 8.06393C248.275 6.68633 249.351 5.61113 251.602 5.61113C254.256 5.61113 256.541 7.55993 257.415 9.20633V3.86393C256.205 3.02393 254.055 2.35193 251.904 2.35193C247.469 2.35193 243.874 4.63673 243.874 9.03833C243.874 12.1631 246.091 13.7759 248.41 14.9855C251.232 16.4639 254.29 17.4383 254.29 19.8239C254.29 21.4367 252.576 22.3775 250.527 22.3775C247.872 22.3775 245.419 21.2351 243.773 17.6735V24.0239Z" fill="url(#paint22_linear_265_231)"/>
<path d="M252.536 12.0195L252.538 12.0203C254.034 12.6929 255.581 13.439 256.754 14.518C257.92 15.5899 258.718 16.9898 258.718 18.9839C258.718 21.1126 257.828 22.7407 256.352 23.8417C254.87 24.9469 252.786 25.5289 250.392 25.5289C247.974 25.5289 245.531 24.8855 243.948 23.9262V18.4169C244.721 19.8556 245.646 20.8538 246.678 21.5089C247.863 22.2611 249.174 22.5525 250.527 22.5525C251.575 22.5525 252.551 22.3123 253.271 21.8531C253.995 21.3912 254.465 20.7022 254.465 19.8239C254.465 18.5403 253.636 17.6545 252.504 16.9178C251.936 16.5485 251.281 16.2097 250.596 15.8727C250.392 15.7721 250.185 15.6718 249.977 15.5708C249.485 15.332 248.985 15.0893 248.491 14.8305L248.491 14.8304C246.179 13.6243 244.049 12.0556 244.049 9.03833C244.049 6.89098 244.923 5.27086 246.333 4.18307C247.748 3.09127 249.714 2.52693 251.904 2.52693C253.981 2.52693 256.051 3.16388 257.24 3.95652V8.58328C256.769 7.89786 256.092 7.20615 255.275 6.64693C254.241 5.93888 252.972 5.43613 251.602 5.43613C250.45 5.43613 249.576 5.71095 248.985 6.18438C248.39 6.66099 248.1 7.32598 248.1 8.06393C248.1 9.04927 248.653 9.77551 249.469 10.3802C250.254 10.9616 251.311 11.4517 252.423 11.9672C252.461 11.9846 252.498 12.002 252.536 12.0195Z" stroke="url(#paint23_linear_265_231)" stroke-opacity="0.75" stroke-width="0.35" style="mix-blend-mode:screen"/>
<path d="M416.14 21.437C416.14 24.8306 414.729 25.1666 414.426 25.2002H422.759C422.423 25.1666 421.045 24.7298 421.045 21.437V5.88017H424.506C427.329 5.88017 428.034 7.32497 428.673 8.90417L428.169 2.82257H409.05C408.882 4.87217 408.714 6.88817 408.513 8.90417C409.218 7.35857 409.789 5.88017 412.074 5.88017H416.14V21.437Z" fill="url(#paint24_linear_265_231)"/>
<path d="M421.045 5.70517H420.87V5.88017V21.437C420.87 23.1055 421.219 24.0792 421.635 24.6445C421.751 24.8021 421.872 24.9268 421.99 25.0252H415.212C415.32 24.936 415.429 24.8243 415.536 24.6847C415.958 24.1306 416.315 23.1552 416.315 21.437V5.88017V5.70517H416.14H412.074C410.887 5.70517 410.125 6.09256 409.572 6.69423C409.253 7.04247 409.006 7.46056 408.786 7.90183C408.94 6.27607 409.076 4.64697 409.212 2.99757H428.008L428.413 7.88742C428.184 7.43935 427.907 7.01958 427.527 6.67101C426.878 6.07566 425.949 5.70517 424.506 5.70517H421.045Z" stroke="url(#paint25_linear_265_231)" stroke-opacity="0.75" stroke-width="0.35" style="mix-blend-mode:screen"/>
<path d="M452.618 21.0338C452.618 24.8306 451.039 25.1666 450.77 25.2002H460.548C468.914 25.2002 472.476 19.6562 472.476 13.7762C472.476 7.29137 467.974 2.82257 460.918 2.82257H450.535C450.871 2.88977 452.618 3.29297 452.618 6.58577V21.0338ZM457.457 22.109V5.88017H459.775C464.95 5.88017 467.369 9.24017 467.369 14.045C467.369 18.1442 465.286 22.109 460.75 22.109H457.457Z" fill="url(#paint26_linear_265_231)"/>
<path d="M457.282 22.109V22.284H457.457H460.75C463.076 22.284 464.783 21.2638 465.902 19.7167C467.017 18.1759 467.544 16.1211 467.544 14.045C467.544 11.6155 466.932 9.52826 465.644 8.046C464.353 6.55978 462.402 5.70517 459.775 5.70517H457.457H457.282V5.88017V22.109ZM451.832 3.37613C451.686 3.21812 451.537 3.09448 451.394 2.99757H460.918C464.408 2.99757 467.252 4.10234 469.222 5.9938C471.191 7.88478 472.301 10.5756 472.301 13.7762C472.301 16.6824 471.421 19.4931 469.52 21.5752C467.622 23.6543 464.69 25.0252 460.548 25.0252H451.558C451.682 24.9256 451.81 24.798 451.934 24.6342C452.394 24.0298 452.793 22.9537 452.793 21.0338V6.58577C452.793 4.90792 452.348 3.93734 451.832 3.37613Z" stroke="url(#paint27_linear_265_231)" stroke-opacity="0.75" stroke-width="0.35" style="mix-blend-mode:screen"/>
<path d="M321.768 21.5378C321.768 24.8642 320.289 25.1666 320.054 25.2002H327.513C327.177 25.1666 325.497 24.7634 325.497 21.5378V10.1474L332.99 19.2866C335.745 22.6466 336.585 25.2002 336.585 25.2002H340.08V6.51857C340.08 3.19217 341.592 2.85617 341.827 2.82257H334.536C334.838 2.88977 336.384 3.29297 336.384 6.51857V16.0274L325.833 2.82257H318.71C318.945 2.92337 321.768 4.20017 321.768 6.78737V21.5378Z" fill="url(#paint28_linear_265_231)"/>
<path d="M320.828 25.0252C320.93 24.9424 321.034 24.8401 321.136 24.7135C321.568 24.1763 321.943 23.2248 321.943 21.5378V6.78737C321.943 5.42447 321.198 4.41477 320.444 3.74194C320.085 3.42253 319.721 3.17513 319.423 2.99757H325.749L336.247 16.1366L336.559 16.5268V16.0274V6.51857C336.559 4.8785 336.166 3.92737 335.708 3.37457C335.578 3.21733 335.444 3.09418 335.315 2.99757H341.056C340.948 3.08407 340.837 3.19174 340.729 3.32576C340.288 3.87094 339.905 4.83049 339.905 6.51857V25.0252H336.709C336.709 25.0244 336.708 25.0237 336.708 25.023C336.679 24.9445 336.634 24.8294 336.573 24.6813C336.449 24.385 336.256 23.9561 335.976 23.4222C335.417 22.3542 334.511 20.8657 333.126 19.1756C333.126 19.1756 333.126 19.1756 333.126 19.1756L325.633 10.0364L325.322 9.6579V10.1474V21.5378C325.322 23.181 325.751 24.1347 326.25 24.6837C326.377 24.8234 326.507 24.9354 326.634 25.0252H320.828Z" stroke="url(#paint29_linear_265_231)" stroke-opacity="0.75" stroke-width="0.35" style="mix-blend-mode:screen"/>
<path d="M346.268 21.5378C346.268 24.8642 344.789 25.1666 344.554 25.2002H352.013C351.677 25.1666 349.997 24.7634 349.997 21.5378V10.1474L357.49 19.2866C360.245 22.6466 361.085 25.2002 361.085 25.2002H364.58V6.51857C364.58 3.19217 366.092 2.85617 366.327 2.82257H359.036C359.338 2.88977 360.884 3.29297 360.884 6.51857V16.0274L350.333 2.82257H343.21C343.445 2.92337 346.268 4.20017 346.268 6.78737V21.5378Z" fill="url(#paint30_linear_265_231)"/>
<path d="M345.328 25.0252C345.43 24.9424 345.534 24.8401 345.636 24.7135C346.068 24.1763 346.443 23.2248 346.443 21.5378V6.78737C346.443 5.42447 345.698 4.41477 344.944 3.74194C344.585 3.42253 344.221 3.17513 343.923 2.99757H350.249L360.747 16.1366L361.059 16.5268V16.0274V6.51857C361.059 4.8785 360.666 3.92737 360.208 3.37457C360.078 3.21733 359.944 3.09418 359.815 2.99757H365.556C365.448 3.08407 365.337 3.19174 365.229 3.32576C364.788 3.87094 364.405 4.83049 364.405 6.51857V25.0252H361.209C361.209 25.0244 361.208 25.0237 361.208 25.023C361.179 24.9445 361.134 24.8294 361.073 24.6813C360.949 24.385 360.756 23.9561 360.476 23.4222C359.917 22.3542 359.011 20.8657 357.626 19.1756C357.626 19.1756 357.626 19.1756 357.626 19.1756L350.133 10.0364L349.822 9.6579V10.1474V21.5378C349.822 23.181 350.251 24.1347 350.75 24.6837C350.877 24.8234 351.007 24.9354 351.134 25.0252H345.328Z" stroke="url(#paint31_linear_265_231)" stroke-opacity="0.75" stroke-width="0.35" style="mix-blend-mode:screen"/>
<path d="M433.07 21.2018C433.07 24.797 431.491 25.1666 431.256 25.2002H446.611L447.686 18.9506C446.443 21.2354 445.334 22.109 442.444 22.109H437.875V15.4226H441.638C443.99 15.4226 444.225 16.4306 444.259 16.5314V11.2226C444.192 11.4242 443.822 12.365 441.571 12.365H437.875V5.88017H442.108C444.931 5.88017 445.737 7.29137 446.208 8.80337V2.82257H430.987C431.323 2.88977 433.07 3.32657 433.07 6.58577V21.2018Z" fill="url(#paint32_linear_265_231)"/>
<path d="M437.7 22.109V22.284H437.875H442.444C443.905 22.284 444.943 22.0636 445.776 21.5343C446.392 21.1435 446.883 20.5922 447.351 19.866L446.463 25.0252H432.018C432.139 24.9274 432.266 24.8028 432.389 24.6439C432.845 24.0571 433.245 23.0231 433.245 21.2018V6.58577C433.245 4.92413 432.799 3.95413 432.284 3.38925C432.134 3.2253 431.981 3.09742 431.833 2.99757H446.033V7.84982C445.823 7.40597 445.547 6.98951 445.156 6.64363C444.502 6.06619 443.55 5.70517 442.108 5.70517H437.875H437.7V5.88017V12.365V12.54H437.875H441.571C442.72 12.54 443.413 12.3 443.832 12.014C443.931 11.9464 444.014 11.877 444.084 11.8086V15.9348C444.037 15.8894 443.983 15.8437 443.922 15.7986C443.525 15.5045 442.837 15.2476 441.638 15.2476H437.875H437.7V15.4226V22.109Z" stroke="url(#paint33_linear_265_231)" stroke-opacity="0.75" stroke-width="0.35" style="mix-blend-mode:screen"/>
<path d="M370.07 21.2018C370.07 24.797 368.491 25.1666 368.256 25.2002H383.611L384.686 18.9506C383.443 21.2354 382.334 22.109 379.444 22.109H374.875V15.4226H378.638C380.99 15.4226 381.225 16.4306 381.259 16.5314V11.2226C381.192 11.4242 380.822 12.365 378.571 12.365H374.875V5.88017H379.108C381.931 5.88017 382.737 7.29137 383.208 8.80337V2.82257H367.987C368.323 2.88977 370.07 3.32657 370.07 6.58577V21.2018Z" fill="url(#paint34_linear_265_231)"/>
<path d="M374.7 22.109V22.284H374.875H379.444C380.905 22.284 381.943 22.0636 382.776 21.5343C383.392 21.1435 383.883 20.5922 384.351 19.866L383.463 25.0252H369.018C369.139 24.9274 369.266 24.8028 369.389 24.6439C369.845 24.0571 370.245 23.0231 370.245 21.2018V6.58577C370.245 4.92413 369.799 3.95413 369.284 3.38925C369.134 3.2253 368.981 3.09742 368.833 2.99757H383.033V7.84982C382.823 7.40597 382.547 6.98951 382.156 6.64363C381.502 6.06619 380.55 5.70517 379.108 5.70517H374.875H374.7V5.88017V12.365V12.54H374.875H378.571C379.72 12.54 380.413 12.3 380.832 12.014C380.931 11.9464 381.014 11.877 381.084 11.8086V15.9348C381.037 15.8894 380.983 15.8437 380.922 15.7986C380.525 15.5045 379.837 15.2476 378.638 15.2476H374.875H374.7V15.4226V22.109Z" stroke="url(#paint35_linear_265_231)" stroke-opacity="0.75" stroke-width="0.35" style="mix-blend-mode:screen"/>
<path d="M306.615 25.704C313.704 25.704 318.24 20.2272 318.24 13.6752C318.24 7.32482 314.141 2.31842 307.388 2.31842C300.432 2.31842 295.661 7.62722 295.661 14.3472C295.661 20.664 299.828 25.704 306.615 25.704ZM307.388 22.2432C303.12 22.2432 300.567 18.6816 300.567 13.3056C300.567 8.43362 303.188 5.71202 306.548 5.71202C310.949 5.71202 313.368 9.57602 313.368 14.5824C313.368 19.3536 310.815 22.2432 307.388 22.2432Z" fill="url(#paint36_linear_265_231)"/>
<path d="M318.065 13.6752C318.065 20.144 313.595 25.529 306.615 25.529C303.267 25.529 300.576 24.2874 298.721 22.2758C296.865 20.2625 295.836 17.4675 295.836 14.3472C295.836 7.71558 300.537 2.49342 307.388 2.49342C310.718 2.49342 313.384 3.72664 315.217 5.73347C317.053 7.74214 318.065 10.5372 318.065 13.6752ZM300.392 13.3056C300.392 16.0188 301.036 18.294 302.237 19.8954C303.442 21.5023 305.199 22.4182 307.388 22.4182C309.154 22.4182 310.699 21.6717 311.799 20.3121C312.897 18.9551 313.543 16.998 313.543 14.5824C313.543 12.0537 312.933 9.79677 311.75 8.16705C310.564 6.53171 308.807 5.53702 306.548 5.53702C304.817 5.53702 303.272 6.23935 302.163 7.56975C301.055 8.89788 300.392 10.8393 300.392 13.3056Z" stroke="url(#paint37_linear_265_231)" stroke-opacity="0.75" stroke-width="0.35" style="mix-blend-mode:screen"/>
<path d="M292.348 18.4968C290.668 20.6472 288.014 21.9576 285.628 21.9576C281.394 21.9576 278.74 18.3288 278.74 13.6248C278.74 8.98798 281.462 5.45998 285.527 5.45998C288.686 5.45998 290.87 7.24078 291.911 9.86158V3.41038C290.836 2.83918 288.82 2.09998 285.897 2.09998C277.799 2.09998 273.7 8.11438 273.7 14.2632C273.7 20.0424 277.329 25.4856 285.023 25.4856C287.98 25.4856 290.769 24.1752 292.348 22.3608V18.4968Z" fill="url(#paint38_linear_265_231)"/>
<path d="M285.628 22.1326C287.928 22.1326 290.457 20.9472 292.173 18.9831V22.2948C290.622 24.0431 287.906 25.3106 285.023 25.3106C281.22 25.3106 278.439 23.9672 276.606 21.9247C274.771 19.8791 273.875 17.1176 273.875 14.2632C273.875 11.2262 274.887 8.22871 276.892 5.99259C278.894 3.7595 281.895 2.27498 285.897 2.27498C288.707 2.27498 290.663 2.96508 291.736 3.51639V9.05244C290.571 6.78362 288.456 5.28498 285.527 5.28498C281.333 5.28498 278.565 8.92688 278.565 13.6248C278.565 16.0082 279.237 18.1322 280.46 19.6643C281.684 21.1997 283.456 22.1326 285.628 22.1326Z" stroke="url(#paint39_linear_265_231)" stroke-opacity="0.75" stroke-width="0.35" style="mix-blend-mode:screen"/>
<path d="M405.748 18.4968C404.068 20.6472 401.414 21.9576 399.028 21.9576C394.794 21.9576 392.14 18.3288 392.14 13.6248C392.14 8.98798 394.862 5.45998 398.927 5.45998C402.086 5.45998 404.27 7.24078 405.311 9.86158V3.41038C404.236 2.83918 402.22 2.09998 399.297 2.09998C391.199 2.09998 387.1 8.11438 387.1 14.2632C387.1 20.0424 390.729 25.4856 398.423 25.4856C401.38 25.4856 404.169 24.1752 405.748 22.3608V18.4968Z" fill="url(#paint40_linear_265_231)"/>
<path d="M399.028 22.1326C401.328 22.1326 403.857 20.9472 405.573 18.9831V22.2948C404.022 24.0431 401.306 25.3106 398.423 25.3106C394.621 25.3106 391.839 23.9672 390.007 21.9247C388.171 19.8791 387.275 17.1176 387.275 14.2632C387.275 11.2262 388.288 8.22871 390.292 5.99259C392.294 3.7595 395.295 2.27498 399.297 2.27498C402.107 2.27498 404.063 2.96508 405.136 3.51639V9.05244C403.971 6.78362 401.856 5.28498 398.927 5.28498C394.733 5.28498 391.965 8.92688 391.965 13.6248C391.965 16.0082 392.637 18.1322 393.86 19.6643C395.085 21.1997 396.856 22.1326 399.028 22.1326Z" stroke="url(#paint41_linear_265_231)" stroke-opacity="0.75" stroke-width="0.35" style="mix-blend-mode:screen"/>
<defs>
<linearGradient id="paint0_linear_265_231" x1="13.6501" y1="-8.39982" x2="13.6501" y2="34.3002" gradientUnits="userSpaceOnUse">
<stop stop-color="#CAB37D"/>
<stop offset="1" stop-color="#6B5830"/>
</linearGradient>
<linearGradient id="paint1_linear_265_231" x1="13.6501" y1="-8.39982" x2="13.6501" y2="34.3002" gradientUnits="userSpaceOnUse">
<stop stop-color="#CAB37D"/>
<stop offset="1" stop-color="#6B5830" stop-opacity="0"/>
</linearGradient>
<linearGradient id="paint2_linear_265_231" x1="35.7001" y1="-8.39982" x2="35.7001" y2="34.3002" gradientUnits="userSpaceOnUse">
<stop stop-color="#CAB37D"/>
<stop offset="1" stop-color="#6B5830"/>
</linearGradient>
<linearGradient id="paint3_linear_265_231" x1="35.7001" y1="-8.39982" x2="35.7001" y2="34.3002" gradientUnits="userSpaceOnUse">
<stop stop-color="#CAB37D"/>
<stop offset="1" stop-color="#6B5830" stop-opacity="0"/>
</linearGradient>
<linearGradient id="paint4_linear_265_231" x1="57.05" y1="-8.39982" x2="57.05" y2="34.3002" gradientUnits="userSpaceOnUse">
<stop stop-color="#CAB37D"/>
<stop offset="1" stop-color="#6B5830"/>
</linearGradient>
<linearGradient id="paint5_linear_265_231" x1="57.05" y1="-8.39982" x2="57.05" y2="34.3002" gradientUnits="userSpaceOnUse">
<stop stop-color="#CAB37D"/>
<stop offset="1" stop-color="#6B5830" stop-opacity="0"/>
</linearGradient>
<linearGradient id="paint6_linear_265_231" x1="78.75" y1="-8.39982" x2="78.75" y2="34.3002" gradientUnits="userSpaceOnUse">
<stop stop-color="#CAB37D"/>
<stop offset="1" stop-color="#6B5830"/>
</linearGradient>
<linearGradient id="paint7_linear_265_231" x1="78.75" y1="-8.39982" x2="78.75" y2="34.3002" gradientUnits="userSpaceOnUse">
<stop stop-color="#CAB37D"/>
<stop offset="1" stop-color="#6B5830" stop-opacity="0"/>
</linearGradient>
<linearGradient id="paint8_linear_265_231" x1="100.45" y1="-8.39982" x2="100.45" y2="34.3002" gradientUnits="userSpaceOnUse">
<stop stop-color="#CAB37D"/>
<stop offset="1" stop-color="#6B5830"/>
</linearGradient>
<linearGradient id="paint9_linear_265_231" x1="100.45" y1="-8.39982" x2="100.45" y2="34.3002" gradientUnits="userSpaceOnUse">
<stop stop-color="#CAB37D"/>
<stop offset="1" stop-color="#6B5830" stop-opacity="0"/>
</linearGradient>
<linearGradient id="paint10_linear_265_231" x1="123.2" y1="-8.39982" x2="123.2" y2="34.3002" gradientUnits="userSpaceOnUse">
<stop stop-color="#CAB37D"/>
<stop offset="1" stop-color="#6B5830"/>
</linearGradient>
<linearGradient id="paint11_linear_265_231" x1="123.2" y1="-8.39982" x2="123.2" y2="34.3002" gradientUnits="userSpaceOnUse">
<stop stop-color="#CAB37D"/>
<stop offset="1" stop-color="#6B5830" stop-opacity="0"/>
</linearGradient>
<linearGradient id="paint12_linear_265_231" x1="144.9" y1="-8.39982" x2="144.9" y2="34.3002" gradientUnits="userSpaceOnUse">
<stop stop-color="#CAB37D"/>
<stop offset="1" stop-color="#6B5830"/>
</linearGradient>
<linearGradient id="paint13_linear_265_231" x1="144.9" y1="-8.39982" x2="144.9" y2="34.3002" gradientUnits="userSpaceOnUse">
<stop stop-color="#CAB37D"/>
<stop offset="1" stop-color="#6B5830" stop-opacity="0"/>
</linearGradient>
<linearGradient id="paint14_linear_265_231" x1="166.6" y1="-8.39982" x2="166.6" y2="34.3002" gradientUnits="userSpaceOnUse">
<stop stop-color="#CAB37D"/>
<stop offset="1" stop-color="#6B5830"/>
</linearGradient>
<linearGradient id="paint15_linear_265_231" x1="166.6" y1="-8.39982" x2="166.6" y2="34.3002" gradientUnits="userSpaceOnUse">
<stop stop-color="#CAB37D"/>
<stop offset="1" stop-color="#6B5830" stop-opacity="0"/>
</linearGradient>
<linearGradient id="paint16_linear_265_231" x1="188.65" y1="-8.39982" x2="188.65" y2="34.3002" gradientUnits="userSpaceOnUse">
<stop stop-color="#CAB37D"/>
<stop offset="1" stop-color="#6B5830"/>
</linearGradient>
<linearGradient id="paint17_linear_265_231" x1="188.65" y1="-8.39982" x2="188.65" y2="34.3002" gradientUnits="userSpaceOnUse">
<stop stop-color="#CAB37D"/>
<stop offset="1" stop-color="#6B5830" stop-opacity="0"/>
</linearGradient>
<linearGradient id="paint18_linear_265_231" x1="210" y1="-8.39999" x2="210" y2="34.3" gradientUnits="userSpaceOnUse">
<stop stop-color="#CAB37D"/>
<stop offset="1" stop-color="#6B5830"/>
</linearGradient>
<linearGradient id="paint19_linear_265_231" x1="210" y1="-8.39999" x2="210" y2="34.3" gradientUnits="userSpaceOnUse">
<stop stop-color="#CAB37D"/>
<stop offset="1" stop-color="#6B5830" stop-opacity="0"/>
</linearGradient>
<linearGradient id="paint20_linear_265_231" x1="238" y1="-8.39982" x2="238" y2="34.3002" gradientUnits="userSpaceOnUse">
<stop stop-color="#CAB37D"/>
<stop offset="1" stop-color="#6B5830"/>
</linearGradient>
<linearGradient id="paint21_linear_265_231" x1="238" y1="-8.39982" x2="238" y2="34.3002" gradientUnits="userSpaceOnUse">
<stop stop-color="#CAB37D"/>
<stop offset="1" stop-color="#6B5830" stop-opacity="0"/>
</linearGradient>
<linearGradient id="paint22_linear_265_231" x1="251.3" y1="-8.40006" x2="251.3" y2="34.2999" gradientUnits="userSpaceOnUse">
<stop stop-color="#CAB37D"/>
<stop offset="1" stop-color="#6B5830"/>
</linearGradient>
<linearGradient id="paint23_linear_265_231" x1="251.3" y1="-8.40006" x2="251.3" y2="34.2999" gradientUnits="userSpaceOnUse">
<stop stop-color="#CAB37D"/>
<stop offset="1" stop-color="#6B5830" stop-opacity="0"/>
</linearGradient>
<linearGradient id="paint24_linear_265_231" x1="418.6" y1="-8.39982" x2="418.6" y2="34.3002" gradientUnits="userSpaceOnUse">
<stop stop-color="#CAB37D"/>
<stop offset="1" stop-color="#6B5830"/>
</linearGradient>
<linearGradient id="paint25_linear_265_231" x1="418.6" y1="-8.39982" x2="418.6" y2="34.3002" gradientUnits="userSpaceOnUse">
<stop stop-color="#CAB37D"/>
<stop offset="1" stop-color="#6B5830" stop-opacity="0"/>
</linearGradient>
<linearGradient id="paint26_linear_265_231" x1="461.65" y1="-8.39982" x2="461.65" y2="34.3002" gradientUnits="userSpaceOnUse">
<stop stop-color="#CAB37D"/>
<stop offset="1" stop-color="#6B5830"/>
</linearGradient>
<linearGradient id="paint27_linear_265_231" x1="461.65" y1="-8.39982" x2="461.65" y2="34.3002" gradientUnits="userSpaceOnUse">
<stop stop-color="#CAB37D"/>
<stop offset="1" stop-color="#6B5830" stop-opacity="0"/>
</linearGradient>
<linearGradient id="paint28_linear_265_231" x1="330.75" y1="-8.39982" x2="330.75" y2="34.3002" gradientUnits="userSpaceOnUse">
<stop stop-color="#CAB37D"/>
<stop offset="1" stop-color="#6B5830"/>
</linearGradient>
<linearGradient id="paint29_linear_265_231" x1="330.75" y1="-8.39982" x2="330.75" y2="34.3002" gradientUnits="userSpaceOnUse">
<stop stop-color="#CAB37D"/>
<stop offset="1" stop-color="#6B5830" stop-opacity="0"/>
</linearGradient>
<linearGradient id="paint30_linear_265_231" x1="355.25" y1="-8.39982" x2="355.25" y2="34.3002" gradientUnits="userSpaceOnUse">
<stop stop-color="#CAB37D"/>
<stop offset="1" stop-color="#6B5830"/>
</linearGradient>
<linearGradient id="paint31_linear_265_231" x1="355.25" y1="-8.39982" x2="355.25" y2="34.3002" gradientUnits="userSpaceOnUse">
<stop stop-color="#CAB37D"/>
<stop offset="1" stop-color="#6B5830" stop-opacity="0"/>
</linearGradient>
<linearGradient id="paint32_linear_265_231" x1="439.25" y1="-8.39982" x2="439.25" y2="34.3002" gradientUnits="userSpaceOnUse">
<stop stop-color="#CAB37D"/>
<stop offset="1" stop-color="#6B5830"/>
</linearGradient>
<linearGradient id="paint33_linear_265_231" x1="439.25" y1="-8.39982" x2="439.25" y2="34.3002" gradientUnits="userSpaceOnUse">
<stop stop-color="#CAB37D"/>
<stop offset="1" stop-color="#6B5830" stop-opacity="0"/>
</linearGradient>
<linearGradient id="paint34_linear_265_231" x1="376.25" y1="-8.39982" x2="376.25" y2="34.3002" gradientUnits="userSpaceOnUse">
<stop stop-color="#CAB37D"/>
<stop offset="1" stop-color="#6B5830"/>
</linearGradient>
<linearGradient id="paint35_linear_265_231" x1="376.25" y1="-8.39982" x2="376.25" y2="34.3002" gradientUnits="userSpaceOnUse">
<stop stop-color="#CAB37D"/>
<stop offset="1" stop-color="#6B5830" stop-opacity="0"/>
</linearGradient>
<linearGradient id="paint36_linear_265_231" x1="306.95" y1="-8.39999" x2="306.95" y2="34.3" gradientUnits="userSpaceOnUse">
<stop stop-color="#CAB37D"/>
<stop offset="1" stop-color="#6B5830"/>
</linearGradient>
<linearGradient id="paint37_linear_265_231" x1="306.95" y1="-8.39999" x2="306.95" y2="34.3" gradientUnits="userSpaceOnUse">
<stop stop-color="#CAB37D"/>
<stop offset="1" stop-color="#6B5830" stop-opacity="0"/>
</linearGradient>
<linearGradient id="paint38_linear_265_231" x1="283.052" y1="-8.61843" x2="283.052" y2="34.0816" gradientUnits="userSpaceOnUse">
<stop stop-color="#CAB37D"/>
<stop offset="1" stop-color="#6B5830"/>
</linearGradient>
<linearGradient id="paint39_linear_265_231" x1="283.052" y1="-8.61843" x2="283.052" y2="34.0816" gradientUnits="userSpaceOnUse">
<stop stop-color="#CAB37D"/>
<stop offset="1" stop-color="#6B5830" stop-opacity="0"/>
</linearGradient>
<linearGradient id="paint40_linear_265_231" x1="396.452" y1="-8.61843" x2="396.452" y2="34.0816" gradientUnits="userSpaceOnUse">
<stop stop-color="#CAB37D"/>
<stop offset="1" stop-color="#6B5830"/>
</linearGradient>
<linearGradient id="paint41_linear_265_231" x1="396.452" y1="-8.61843" x2="396.452" y2="34.0816" gradientUnits="userSpaceOnUse">
<stop stop-color="#CAB37D"/>
<stop offset="1" stop-color="#6B5830" stop-opacity="0"/>
</linearGradient>
</defs>
</svg>
