<svg width="503" height="47" viewBox="0 0 503 47" fill="none" xmlns="http://www.w3.org/2000/svg">
<g filter="url(#filter0_ddddi_97_19356)">
<path d="M25.1891 10.2305C25.1891 12.1836 24.7268 13.8047 23.8023 15.0938C22.8779 16.3828 21.6344 17.3529 20.0719 18.0039C18.5094 18.6419 16.7711 18.9609 14.857 18.9609H14.7398C14.219 18.9609 13.6396 18.9414 13.0016 18.9023C12.3766 18.8503 12.012 18.8177 11.9078 18.8047V26.2461C11.9078 26.4414 11.9729 26.6302 12.1031 26.8125C12.2463 26.9948 12.4612 27.099 12.7477 27.125L15.3844 27.2812V29H4.87656V27.2812L6.98593 27.125C7.27239 27.099 7.48723 26.9948 7.63046 26.8125C7.78671 26.6302 7.86484 26.4414 7.86484 26.2461V4.91797C7.86484 4.72266 7.78671 4.53385 7.63046 4.35156C7.48723 4.15625 7.27239 4.05208 6.98593 4.03906L4.58359 3.88281V2.16406H14.1539C17.9299 2.16406 20.7099 2.76953 22.4937 3.98047C24.2906 5.19141 25.1891 7.27474 25.1891 10.2305ZM21.0289 10.2891C21.0289 8.34896 20.482 6.83854 19.3883 5.75781C18.3075 4.66406 16.4911 4.11719 13.9391 4.11719C13.5745 4.11719 13.1448 4.1237 12.65 4.13672C12.1552 4.14974 11.9078 4.15625 11.9078 4.15625V16.7539C11.9729 16.7539 12.2659 16.793 12.7867 16.8711C13.3206 16.9362 13.7763 16.9688 14.1539 16.9688H14.2711C16.3414 16.9688 17.982 16.4284 19.193 15.3477C20.4169 14.2669 21.0289 12.5807 21.0289 10.2891ZM41.1859 13.8047H39.6234C39.376 13.5052 39.0766 13.2513 38.725 13.043C38.3865 12.8216 37.9698 12.7109 37.475 12.7109C36.837 12.7109 36.1794 12.9323 35.5023 13.375C34.8383 13.8177 34.1612 14.4232 33.4711 15.1914V26.4414C33.4711 27.0013 33.751 27.2943 34.3109 27.3203L36.9477 27.4375V29H26.9477V27.4766L28.9203 27.3203C29.1547 27.2943 29.35 27.2031 29.5062 27.0469C29.6755 26.8906 29.7602 26.6888 29.7602 26.4414V12.5547H26.8695V11.2461L31.8305 9.72266H33.4711V13.2773C33.8617 12.8477 34.35 12.3138 34.9359 11.6758C35.5219 11.0378 36.1469 10.4714 36.8109 9.97656C37.475 9.48177 38.1195 9.23438 38.7445 9.23438C39.1612 9.23438 39.6104 9.29948 40.0922 9.42969C40.574 9.5599 40.9385 9.69661 41.1859 9.83984V13.8047ZM59.0578 27.0078C57.938 27.6979 56.7271 28.2839 55.425 28.7656C54.1359 29.2474 52.8143 29.4883 51.4602 29.4883C49.8456 29.4883 48.3286 29.1302 46.9094 28.4141C45.5031 27.6849 44.3638 26.5846 43.4914 25.1133C42.619 23.6419 42.1828 21.793 42.1828 19.5664C42.1828 17.4831 42.5865 15.6667 43.3937 14.1172C44.201 12.5677 45.3143 11.3698 46.7336 10.5234C48.1529 9.66406 49.7674 9.23438 51.5773 9.23438C54.0643 9.23438 55.9328 10.0091 57.1828 11.5586C58.4328 13.0951 59.0578 15.0547 59.0578 17.4375C59.0578 17.5677 59.0578 17.7435 59.0578 17.9648C59.0578 18.1732 59.0448 18.3685 59.0187 18.5508H46.05C46.05 19.5664 46.1542 20.582 46.3625 21.5977C46.5838 22.6003 46.9484 23.5117 47.4562 24.332C47.9641 25.1523 48.6477 25.8099 49.507 26.3047C50.3664 26.7995 51.4406 27.0469 52.7297 27.0469C53.8755 27.0469 54.9888 26.7865 56.0695 26.2656C57.1633 25.7318 58.1594 25.1654 59.0578 24.5664V27.0078ZM55.0539 16.7539V15.875C55.0539 14.5599 54.7349 13.4531 54.0969 12.5547C53.4719 11.6562 52.4953 11.207 51.1672 11.207C49.8521 11.207 48.7323 11.7018 47.8078 12.6914C46.8833 13.681 46.369 15.0352 46.2648 16.7539H55.0539ZM74.1758 23.1992C74.1758 25.1654 73.4987 26.7083 72.1445 27.8281C70.7904 28.9349 68.9219 29.4883 66.5391 29.4883C65.3151 29.4883 64.1823 29.3581 63.1406 29.0977C62.112 28.8503 61.3958 28.6419 60.9922 28.4727V23.1602H63.0234L63.5117 26.5586C63.9154 26.819 64.4101 27.0729 64.9961 27.3203C65.595 27.5547 66.2851 27.6719 67.0664 27.6719C68.2122 27.6719 69.0976 27.3529 69.7226 26.7148C70.3476 26.0768 70.6601 25.3607 70.6601 24.5664C70.6601 23.5117 70.2825 22.7174 69.5273 22.1836C68.7721 21.6367 67.6979 21.0312 66.3047 20.3672L65.7773 20.1133C64.319 19.4232 63.1992 18.707 62.418 17.9648C61.6497 17.2096 61.2656 16.2331 61.2656 15.0352C61.2656 13.2513 61.8906 11.8385 63.1406 10.7969C64.3906 9.75521 66.168 9.23438 68.4726 9.23438C69.6445 9.23438 70.6862 9.34505 71.5976 9.56641C72.5221 9.77474 73.1862 9.97005 73.5898 10.1523V14.8789H71.5L71.1875 12.0859C70.901 11.8646 70.4779 11.6562 69.918 11.4609C69.3581 11.2656 68.7656 11.168 68.1406 11.168C67.0469 11.168 66.2331 11.4219 65.6992 11.9297C65.1654 12.4245 64.8984 13.0625 64.8984 13.8438C64.8984 14.7422 65.2174 15.4583 65.8555 15.9922C66.5065 16.513 67.6784 17.1576 69.3711 17.9258C70.7643 18.5638 71.9101 19.2799 72.8086 20.0742C73.72 20.8555 74.1758 21.8971 74.1758 23.1992ZM89.3133 23.1992C89.3133 25.1654 88.6362 26.7083 87.282 27.8281C85.9279 28.9349 84.0594 29.4883 81.6766 29.4883C80.4526 29.4883 79.3198 29.3581 78.2781 29.0977C77.2495 28.8503 76.5333 28.6419 76.1297 28.4727V23.1602H78.1609L78.6492 26.5586C79.0529 26.819 79.5477 27.0729 80.1336 27.3203C80.7325 27.5547 81.4227 27.6719 82.2039 27.6719C83.3497 27.6719 84.2352 27.3529 84.8602 26.7148C85.4852 26.0768 85.7977 25.3607 85.7977 24.5664C85.7977 23.5117 85.42 22.7174 84.6648 22.1836C83.9096 21.6367 82.8354 21.0312 81.4422 20.3672L80.9148 20.1133C79.4565 19.4232 78.3367 18.707 77.5555 17.9648C76.7872 17.2096 76.4031 16.2331 76.4031 15.0352C76.4031 13.2513 77.0281 11.8385 78.2781 10.7969C79.5281 9.75521 81.3055 9.23438 83.6102 9.23438C84.782 9.23438 85.8237 9.34505 86.7352 9.56641C87.6596 9.77474 88.3237 9.97005 88.7273 10.1523V14.8789H86.6375L86.325 12.0859C86.0385 11.8646 85.6154 11.6562 85.0555 11.4609C84.4956 11.2656 83.9031 11.168 83.2781 11.168C82.1844 11.168 81.3706 11.4219 80.8367 11.9297C80.3029 12.4245 80.0359 13.0625 80.0359 13.8438C80.0359 14.7422 80.3549 15.4583 80.993 15.9922C81.644 16.513 82.8159 17.1576 84.5086 17.9258C85.9018 18.5638 87.0477 19.2799 87.9461 20.0742C88.8575 20.8555 89.3133 21.8971 89.3133 23.1992ZM127.498 19.3906C127.498 21.2786 127.108 22.9909 126.327 24.5273C125.545 26.0508 124.439 27.2617 123.006 28.1602C121.587 29.0456 119.901 29.4883 117.948 29.4883C116.008 29.4883 114.328 29.0456 112.909 28.1602C111.489 27.2747 110.396 26.0703 109.627 24.5469C108.859 23.0234 108.475 21.3047 108.475 19.3906C108.475 17.4896 108.859 15.7708 109.627 14.2344C110.409 12.6979 111.515 11.4805 112.948 10.582C114.393 9.68359 116.099 9.23438 118.065 9.23438C120.057 9.23438 121.756 9.6901 123.162 10.6016C124.569 11.513 125.643 12.737 126.385 14.2734C127.127 15.8099 127.498 17.5156 127.498 19.3906ZM123.338 19.3516C123.338 17.8932 123.143 16.5326 122.752 15.2695C122.375 14.0065 121.789 12.9844 120.995 12.2031C120.213 11.4219 119.224 11.0312 118.026 11.0312C116.789 11.0312 115.773 11.4219 114.979 12.2031C114.198 12.9844 113.618 14.0065 113.241 15.2695C112.863 16.5326 112.674 17.8932 112.674 19.3516C112.674 20.7969 112.863 22.1576 113.241 23.4336C113.631 24.6966 114.217 25.7188 114.998 26.5C115.793 27.2812 116.789 27.6719 117.987 27.6719C119.211 27.6719 120.213 27.2812 120.995 26.5C121.789 25.7188 122.375 24.6966 122.752 23.4336C123.143 22.1706 123.338 20.8099 123.338 19.3516ZM149.941 29H141.112V27.4375L142.792 27.3203C143.027 27.2943 143.222 27.2031 143.378 27.0469C143.547 26.8906 143.632 26.6888 143.632 26.4414V16.0312C143.632 14.7682 143.339 13.8112 142.753 13.1602C142.167 12.4961 141.178 12.1641 139.784 12.1641C139.029 12.1641 138.274 12.2747 137.519 12.4961C136.777 12.7044 136.067 12.9779 135.39 13.3164V26.4414C135.39 26.9883 135.67 27.2812 136.23 27.3203L137.909 27.4375V29H128.866V27.4375L130.82 27.3203C131.379 27.2812 131.659 26.9883 131.659 26.4414V12.5547H128.866V11.2461L133.749 9.72266H135.39V11.7148C136.51 11.0768 137.655 10.5039 138.827 9.99609C140.012 9.48828 141.067 9.23438 141.991 9.23438C143.736 9.23438 145.064 9.78125 145.976 10.875C146.887 11.9557 147.343 13.4661 147.343 15.4062V26.4414C147.343 26.6888 147.421 26.8906 147.577 27.0469C147.747 27.2031 147.948 27.2943 148.183 27.3203L149.941 27.4375V29ZM186.856 29H180.938L180.411 26.6367C180.411 26.6367 180.209 26.7799 179.805 27.0664C179.415 27.3529 178.894 27.6849 178.243 28.0625C177.592 28.4401 176.869 28.7721 176.075 29.0586C175.294 29.3451 174.512 29.4883 173.731 29.4883C172.286 29.4883 171.055 29.0065 170.04 28.043C169.037 27.0794 168.536 25.7578 168.536 24.0781C168.536 23.3359 168.666 22.6458 168.927 22.0078C169.2 21.3698 169.734 20.7643 170.528 20.1914C171.335 19.6055 172.527 19.0391 174.102 18.4922C175.691 17.9323 177.794 17.3659 180.411 16.793V15.0742C180.411 12.444 179.167 11.1289 176.68 11.1289C175.99 11.1289 175.391 11.194 174.884 11.3242C174.389 11.4544 174.044 11.5586 173.848 11.6367V15.1133H170.938C170.574 15.1133 170.235 15.0482 169.923 14.918C169.61 14.7747 169.454 14.4557 169.454 13.9609C169.454 12.8672 169.871 11.9753 170.704 11.2852C171.537 10.582 172.592 10.0677 173.868 9.74219C175.157 9.40365 176.459 9.23438 177.774 9.23438C179.428 9.23438 180.71 9.49479 181.622 10.0156C182.533 10.5234 183.171 11.2331 183.536 12.1445C183.901 13.043 184.083 14.0716 184.083 15.2305V26.4414C184.083 26.6888 184.161 26.8906 184.317 27.0469C184.486 27.2031 184.688 27.2943 184.923 27.3203L186.856 27.4375V29ZM180.411 25.2305V18.3164C178.614 18.7591 177.182 19.2083 176.114 19.6641C175.059 20.1068 174.272 20.556 173.751 21.0117C173.23 21.4544 172.885 21.9102 172.716 22.3789C172.559 22.8346 172.481 23.3099 172.481 23.8047C172.481 24.625 172.742 25.3867 173.262 26.0898C173.796 26.7799 174.539 27.125 175.489 27.125C176.023 27.125 176.576 27.0339 177.149 26.8516C177.722 26.6562 178.256 26.4349 178.751 26.1875C179.246 25.9271 179.643 25.7057 179.942 25.5234C180.255 25.3281 180.411 25.2305 180.411 25.2305ZM208.595 29H199.767V27.4375L201.447 27.3203C201.681 27.2943 201.877 27.2031 202.033 27.0469C202.202 26.8906 202.287 26.6888 202.287 26.4414V16.0312C202.287 14.7682 201.994 13.8112 201.408 13.1602C200.822 12.4961 199.832 12.1641 198.439 12.1641C197.684 12.1641 196.929 12.2747 196.173 12.4961C195.431 12.7044 194.722 12.9779 194.045 13.3164V26.4414C194.045 26.9883 194.324 27.2812 194.884 27.3203L196.564 27.4375V29H187.521V27.4375L189.474 27.3203C190.034 27.2812 190.314 26.9883 190.314 26.4414V12.5547H187.521V11.2461L192.404 9.72266H194.045V11.7148C195.164 11.0768 196.31 10.5039 197.482 9.99609C198.667 9.48828 199.722 9.23438 200.646 9.23438C202.391 9.23438 203.719 9.78125 204.63 10.875C205.542 11.9557 205.998 13.4661 205.998 15.4062V26.4414C205.998 26.6888 206.076 26.8906 206.232 27.0469C206.401 27.2031 206.603 27.2943 206.837 27.3203L208.595 27.4375V29ZM229.416 11.2852L227.327 11.5195L219.651 30.2305C219.482 30.6602 219.215 31.2721 218.85 32.0664C218.498 32.8737 218.075 33.694 217.58 34.5273C217.099 35.3737 216.578 36.0768 216.018 36.6367C215.536 37.1185 215.002 37.4896 214.416 37.75C213.843 38.0234 213.218 38.1602 212.541 38.1602C211.591 38.1602 210.862 37.9258 210.354 37.457C209.859 37.0013 209.612 36.474 209.612 35.875C209.612 34.9896 210.041 34.1888 210.901 33.4727L214.651 35.1914C215.093 34.7487 215.536 34.1497 215.979 33.3945C216.422 32.6393 216.819 31.8581 217.17 31.0508C217.535 30.2435 217.815 29.5469 218.01 28.9609L211.213 11.5195L209.006 11.2852V9.72266H217.854V11.2852L215.94 11.4023C215.51 11.4414 215.295 11.6562 215.295 12.0469C215.295 12.151 215.308 12.2292 215.334 12.2812L219.983 24.0781L224.729 12.2812C224.768 12.2031 224.787 12.1185 224.787 12.0273C224.787 11.6367 224.586 11.4284 224.182 11.4023L222.287 11.2852V9.72266H229.416V11.2852ZM254.945 3.12109C254.945 3.79818 254.711 4.38411 254.242 4.87891C253.773 5.36068 253.201 5.60156 252.523 5.60156C251.846 5.60156 251.26 5.36068 250.766 4.87891C250.284 4.38411 250.043 3.79818 250.043 3.12109C250.043 2.43099 250.284 1.85156 250.766 1.38281C251.26 0.914062 251.846 0.679688 252.523 0.679688C253.201 0.679688 253.773 0.914062 254.242 1.38281C254.711 1.85156 254.945 2.43099 254.945 3.12109ZM256.996 29H247.602V27.4375L249.555 27.3203C250.115 27.2812 250.395 26.9883 250.395 26.4414V12.1641H247.641V10.7578L252.523 9.23438H254.105V26.4414C254.105 26.6888 254.184 26.8906 254.34 27.0469C254.509 27.2031 254.711 27.2943 254.945 27.3203L256.996 27.4375V29ZM290.708 29H281.743V27.4375L283.423 27.3203C283.983 27.2812 284.263 26.9883 284.263 26.4414V16.2461C284.263 15.0091 284.002 14.0195 283.481 13.2773C282.973 12.5352 282.049 12.1641 280.708 12.1641C280.044 12.1641 279.315 12.2682 278.52 12.4766C277.739 12.6849 277.042 12.9518 276.43 13.2773V26.4414C276.43 26.9883 276.71 27.2812 277.27 27.3203L278.95 27.4375V29H270.18V27.4375L271.86 27.3203C272.42 27.2812 272.7 26.9883 272.7 26.4414V15.9922C272.7 14.8594 272.433 13.9414 271.899 13.2383C271.365 12.5221 270.46 12.1641 269.184 12.1641C268.429 12.1641 267.641 12.2943 266.821 12.5547C266.001 12.8021 265.363 13.056 264.907 13.3164V26.4414C264.907 26.9883 265.187 27.2812 265.747 27.3203L267.427 27.4375V29H258.384V27.4375L260.337 27.3203C260.897 27.2812 261.177 26.9883 261.177 26.4414V12.5547H258.423V11.2461L263.266 9.72266H264.907V11.7148C265.506 11.3503 266.177 10.9792 266.919 10.6016C267.674 10.224 268.442 9.90495 269.223 9.64453C270.005 9.37109 270.74 9.23438 271.43 9.23438C272.589 9.23438 273.527 9.53385 274.243 10.1328C274.959 10.7188 275.486 11.3438 275.825 12.0078C276.359 11.6693 277.036 11.2852 277.856 10.8555C278.677 10.4128 279.523 10.0352 280.395 9.72266C281.281 9.39714 282.075 9.23438 282.778 9.23438C284.184 9.23438 285.259 9.5599 286.001 10.2109C286.743 10.849 287.251 11.6432 287.524 12.5938C287.798 13.5312 287.934 14.4557 287.934 15.3672V26.4414C287.934 26.6888 288.013 26.8906 288.169 27.0469C288.338 27.2031 288.54 27.2943 288.774 27.3203L290.708 27.4375V29ZM310.494 29H304.576L304.048 26.6367C304.048 26.6367 303.847 26.7799 303.443 27.0664C303.052 27.3529 302.532 27.6849 301.88 28.0625C301.229 28.4401 300.507 28.7721 299.712 29.0586C298.931 29.3451 298.15 29.4883 297.369 29.4883C295.923 29.4883 294.693 29.0065 293.677 28.043C292.675 27.0794 292.173 25.7578 292.173 24.0781C292.173 23.3359 292.304 22.6458 292.564 22.0078C292.837 21.3698 293.371 20.7643 294.166 20.1914C294.973 19.6055 296.164 19.0391 297.74 18.4922C299.328 17.9323 301.431 17.3659 304.048 16.793V15.0742C304.048 12.444 302.805 11.1289 300.318 11.1289C299.628 11.1289 299.029 11.194 298.521 11.3242C298.026 11.4544 297.681 11.5586 297.486 11.6367V15.1133H294.576C294.211 15.1133 293.873 15.0482 293.56 14.918C293.248 14.7747 293.091 14.4557 293.091 13.9609C293.091 12.8672 293.508 11.9753 294.341 11.2852C295.175 10.582 296.229 10.0677 297.505 9.74219C298.795 9.40365 300.097 9.23438 301.412 9.23438C303.065 9.23438 304.348 9.49479 305.259 10.0156C306.171 10.5234 306.809 11.2331 307.173 12.1445C307.538 13.043 307.72 14.0716 307.72 15.2305V26.4414C307.72 26.6888 307.798 26.8906 307.955 27.0469C308.124 27.2031 308.326 27.2943 308.56 27.3203L310.494 27.4375V29ZM304.048 25.2305V18.3164C302.252 18.7591 300.819 19.2083 299.752 19.6641C298.697 20.1068 297.909 20.556 297.388 21.0117C296.867 21.4544 296.522 21.9102 296.353 22.3789C296.197 22.8346 296.119 23.3099 296.119 23.8047C296.119 24.625 296.379 25.3867 296.9 26.0898C297.434 26.7799 298.176 27.125 299.127 27.125C299.66 27.125 300.214 27.0339 300.787 26.8516C301.36 26.6562 301.893 26.4349 302.388 26.1875C302.883 25.9271 303.28 25.7057 303.58 25.5234C303.892 25.3281 304.048 25.2305 304.048 25.2305ZM330.67 12.3984H326.686C326.985 12.8802 327.239 13.4076 327.448 13.9805C327.656 14.5534 327.76 15.224 327.76 15.9922C327.76 17.3203 327.396 18.4596 326.666 19.4102C325.937 20.3477 324.974 21.0703 323.776 21.5781C322.591 22.0859 321.302 22.3398 319.909 22.3398C319.778 22.3398 319.648 22.3398 319.518 22.3398C319.388 22.3398 319.258 22.3333 319.127 22.3203C318.958 22.5938 318.841 22.8867 318.776 23.1992C318.724 23.5117 318.698 23.8047 318.698 24.0781C318.698 24.3255 318.711 24.5339 318.737 24.7031C318.763 24.8724 318.782 24.9701 318.795 24.9961L319.362 25.0547C320.299 25.1458 321.347 25.276 322.506 25.4453C323.678 25.6146 324.804 25.888 325.885 26.2656C326.979 26.6432 327.877 27.1771 328.58 27.8672C329.284 28.5573 329.635 29.4688 329.635 30.6016C329.635 31.8646 329.173 33.069 328.248 34.2148C327.324 35.3737 326.074 36.3177 324.498 37.0469C322.936 37.7891 321.185 38.1602 319.245 38.1602C316.862 38.1602 315.013 37.6133 313.698 36.5195C312.383 35.4388 311.725 34.0911 311.725 32.4766C311.725 31.3177 312.07 30.2826 312.76 29.3711C313.45 28.4727 314.518 27.8932 315.963 27.6328C315.82 27.2161 315.716 26.9167 315.651 26.7344C315.586 26.5521 315.553 26.2396 315.553 25.7969C315.553 25.276 315.709 24.7031 316.022 24.0781C316.347 23.4401 316.862 22.763 317.565 22.0469C316.237 21.7474 315.078 21.0768 314.088 20.0352C313.099 18.9805 312.604 17.6458 312.604 16.0312C312.604 13.9349 313.34 12.2812 314.811 11.0703C316.295 9.84635 318.235 9.23438 320.631 9.23438C321.582 9.23438 322.461 9.3776 323.268 9.66406C324.088 9.9375 324.759 10.1979 325.28 10.4453H330.67V12.3984ZM323.952 15.7578C323.952 14.9115 323.808 14.1172 323.522 13.375C323.235 12.6328 322.819 12.0339 322.272 11.5781C321.725 11.1094 321.048 10.875 320.241 10.875C319.121 10.875 318.203 11.3112 317.487 12.1836C316.784 13.043 316.432 14.2474 316.432 15.7969C316.432 17.138 316.751 18.2904 317.389 19.2539C318.027 20.2044 318.978 20.6797 320.241 20.6797C321.439 20.6797 322.357 20.1979 322.995 19.2344C323.633 18.2708 323.952 17.112 323.952 15.7578ZM326.198 31.6758C326.198 30.8424 325.905 30.1979 325.319 29.7422C324.746 29.2865 324.03 28.9479 323.17 28.7266C322.311 28.5052 321.445 28.349 320.573 28.2578C319.7 28.1536 318.965 28.043 318.366 27.9258C317.207 28.3424 316.406 28.9089 315.963 29.625C315.534 30.3411 315.319 31.0247 315.319 31.6758C315.319 32.3138 315.501 32.9909 315.866 33.707C316.243 34.4362 316.816 35.0547 317.584 35.5625C318.366 36.0703 319.355 36.3242 320.553 36.3242C321.829 36.3242 322.884 36.0703 323.717 35.5625C324.551 35.0547 325.169 34.4362 325.573 33.707C325.989 32.9909 326.198 32.3138 326.198 31.6758ZM348.816 27.0078C347.696 27.6979 346.485 28.2839 345.183 28.7656C343.894 29.2474 342.572 29.4883 341.218 29.4883C339.603 29.4883 338.086 29.1302 336.667 28.4141C335.261 27.6849 334.122 26.5846 333.249 25.1133C332.377 23.6419 331.941 21.793 331.941 19.5664C331.941 17.4831 332.344 15.6667 333.152 14.1172C333.959 12.5677 335.072 11.3698 336.491 10.5234C337.911 9.66406 339.525 9.23438 341.335 9.23438C343.822 9.23438 345.691 10.0091 346.941 11.5586C348.191 13.0951 348.816 15.0547 348.816 17.4375C348.816 17.5677 348.816 17.7435 348.816 17.9648C348.816 18.1732 348.803 18.3685 348.777 18.5508H335.808C335.808 19.5664 335.912 20.582 336.12 21.5977C336.342 22.6003 336.706 23.5117 337.214 24.332C337.722 25.1523 338.405 25.8099 339.265 26.3047C340.124 26.7995 341.198 27.0469 342.487 27.0469C343.633 27.0469 344.747 26.7865 345.827 26.2656C346.921 25.7318 347.917 25.1654 348.816 24.5664V27.0078ZM344.812 16.7539V15.875C344.812 14.5599 344.493 13.4531 343.855 12.5547C343.23 11.6562 342.253 11.207 340.925 11.207C339.61 11.207 338.49 11.7018 337.566 12.6914C336.641 13.681 336.127 15.0352 336.023 16.7539H344.812ZM379.911 26.5586V28.1602C379.911 28.1602 379.657 28.2708 379.149 28.4922C378.654 28.7135 377.997 28.9349 377.177 29.1562C376.369 29.3776 375.484 29.4883 374.52 29.4883C373.023 29.4883 371.929 29.1367 371.239 28.4336C370.562 27.7174 370.223 26.5716 370.223 24.9961V11.7148H367.665V10.4062L370.399 9.11719L372.196 4.87891H373.954V9.72266H379.598V11.7148H373.954V22.8867C373.954 24.4753 374.221 25.6016 374.755 26.2656C375.289 26.9167 376.089 27.2422 377.157 27.2422C377.938 27.2422 378.589 27.1315 379.11 26.9102C379.644 26.6758 379.911 26.5586 379.911 26.5586ZM399.775 19.3906C399.775 21.2786 399.384 22.9909 398.603 24.5273C397.822 26.0508 396.715 27.2617 395.283 28.1602C393.864 29.0456 392.177 29.4883 390.224 29.4883C388.284 29.4883 386.604 29.0456 385.185 28.1602C383.766 27.2747 382.672 26.0703 381.904 24.5469C381.136 23.0234 380.752 21.3047 380.752 19.3906C380.752 17.4896 381.136 15.7708 381.904 14.2344C382.685 12.6979 383.792 11.4805 385.224 10.582C386.67 9.68359 388.375 9.23438 390.341 9.23438C392.334 9.23438 394.033 9.6901 395.439 10.6016C396.845 11.513 397.92 12.737 398.662 14.2734C399.404 15.8099 399.775 17.5156 399.775 19.3906ZM395.615 19.3516C395.615 17.8932 395.42 16.5326 395.029 15.2695C394.651 14.0065 394.065 12.9844 393.271 12.2031C392.49 11.4219 391.5 11.0312 390.302 11.0312C389.065 11.0312 388.05 11.4219 387.255 12.2031C386.474 12.9844 385.895 14.0065 385.517 15.2695C385.14 16.5326 384.951 17.8932 384.951 19.3516C384.951 20.7969 385.14 22.1576 385.517 23.4336C385.908 24.6966 386.494 25.7188 387.275 26.5C388.069 27.2812 389.065 27.6719 390.263 27.6719C391.487 27.6719 392.49 27.2812 393.271 26.5C394.065 25.7188 394.651 24.6966 395.029 23.4336C395.42 22.1706 395.615 20.8099 395.615 19.3516ZM436.827 21.4805C436.827 22.8216 436.463 24.1172 435.734 25.3672C435.017 26.6172 433.878 27.6458 432.316 28.4531C430.766 29.2474 428.735 29.6445 426.222 29.6445C424.79 29.6445 423.54 29.5208 422.472 29.2734C421.404 29.026 420.577 28.7786 419.991 28.5312C419.405 28.2839 419.112 28.1602 419.112 28.1602V21.0703H421.632L422.159 25.6016C422.185 25.7578 422.27 25.9271 422.413 26.1094C422.556 26.2917 422.693 26.4154 422.823 26.4805C422.889 26.4935 423.266 26.6497 423.956 26.9492C424.659 27.2487 425.629 27.3984 426.866 27.3984C428.572 27.3984 429.978 26.9818 431.085 26.1484C432.192 25.3151 432.745 24.1562 432.745 22.6719C432.745 21.8646 432.517 21.1615 432.062 20.5625C431.619 19.9505 431.04 19.4102 430.323 18.9414C429.607 18.4727 428.839 18.0495 428.019 17.6719C427.211 17.2812 426.443 16.9102 425.714 16.5586C424.62 16.0378 423.605 15.4844 422.667 14.8984C421.73 14.2995 420.974 13.5638 420.402 12.6914C419.829 11.819 419.542 10.7057 419.542 9.35156C419.542 7.76302 419.946 6.38281 420.753 5.21094C421.56 4.03906 422.661 3.13411 424.054 2.49609C425.447 1.84505 427.023 1.51953 428.78 1.51953C430.213 1.51953 431.476 1.66276 432.57 1.94922C433.663 2.22266 434.633 2.49609 435.48 2.76953L435.831 2.88672V9.11719H433.546L432.941 5.28906C432.915 5.10677 432.83 4.97656 432.687 4.89844C432.556 4.80729 432.433 4.70312 432.316 4.58594C432.211 4.50781 431.886 4.33854 431.339 4.07812C430.805 3.81771 429.972 3.6875 428.839 3.6875C427.237 3.6875 425.974 4.13672 425.05 5.03516C424.126 5.92057 423.663 7.04036 423.663 8.39453C423.663 9.61849 424.139 10.6341 425.089 11.4414C426.053 12.2487 427.433 12.9974 429.23 13.6875C431.652 14.599 433.52 15.6276 434.835 16.7734C436.163 17.9062 436.827 19.4753 436.827 21.4805ZM450.93 26.5586V28.1602C450.93 28.1602 450.676 28.2708 450.168 28.4922C449.673 28.7135 449.016 28.9349 448.195 29.1562C447.388 29.3776 446.503 29.4883 445.539 29.4883C444.042 29.4883 442.948 29.1367 442.258 28.4336C441.581 27.7174 441.242 26.5716 441.242 24.9961V11.7148H438.684V10.4062L441.418 9.11719L443.215 4.87891H444.973V9.72266H450.617V11.7148H444.973V22.8867C444.973 24.4753 445.24 25.6016 445.773 26.2656C446.307 26.9167 447.108 27.2422 448.176 27.2422C448.957 27.2422 449.608 27.1315 450.129 26.9102C450.663 26.6758 450.93 26.5586 450.93 26.5586ZM470.091 29H464.173L463.645 26.6367C463.645 26.6367 463.443 26.7799 463.04 27.0664C462.649 27.3529 462.128 27.6849 461.477 28.0625C460.826 28.4401 460.104 28.7721 459.309 29.0586C458.528 29.3451 457.747 29.4883 456.966 29.4883C455.52 29.4883 454.29 29.0065 453.274 28.043C452.272 27.0794 451.77 25.7578 451.77 24.0781C451.77 23.3359 451.901 22.6458 452.161 22.0078C452.434 21.3698 452.968 20.7643 453.762 20.1914C454.57 19.6055 455.761 19.0391 457.337 18.4922C458.925 17.9323 461.028 17.3659 463.645 16.793V15.0742C463.645 12.444 462.402 11.1289 459.915 11.1289C459.225 11.1289 458.626 11.194 458.118 11.3242C457.623 11.4544 457.278 11.5586 457.083 11.6367V15.1133H454.173C453.808 15.1133 453.47 15.0482 453.157 14.918C452.845 14.7747 452.688 14.4557 452.688 13.9609C452.688 12.8672 453.105 11.9753 453.938 11.2852C454.772 10.582 455.826 10.0677 457.102 9.74219C458.391 9.40365 459.693 9.23438 461.009 9.23438C462.662 9.23438 463.945 9.49479 464.856 10.0156C465.768 10.5234 466.406 11.2331 466.77 12.1445C467.135 13.043 467.317 14.0716 467.317 15.2305V26.4414C467.317 26.6888 467.395 26.8906 467.552 27.0469C467.721 27.2031 467.923 27.2943 468.157 27.3203L470.091 27.4375V29ZM463.645 25.2305V18.3164C461.848 18.7591 460.416 19.2083 459.348 19.6641C458.294 20.1068 457.506 20.556 456.985 21.0117C456.464 21.4544 456.119 21.9102 455.95 22.3789C455.794 22.8346 455.716 23.3099 455.716 23.8047C455.716 24.625 455.976 25.3867 456.497 26.0898C457.031 26.7799 457.773 27.125 458.723 27.125C459.257 27.125 459.811 27.0339 460.384 26.8516C460.956 26.6562 461.49 26.4349 461.985 26.1875C462.48 25.9271 462.877 25.7057 463.177 25.5234C463.489 25.3281 463.645 25.2305 463.645 25.2305ZM485.189 13.8047H483.627C483.379 13.5052 483.08 13.2513 482.728 13.043C482.39 12.8216 481.973 12.7109 481.478 12.7109C480.84 12.7109 480.183 12.9323 479.505 13.375C478.841 13.8177 478.164 14.4232 477.474 15.1914V26.4414C477.474 27.0013 477.754 27.2943 478.314 27.3203L480.951 27.4375V29H470.951V27.4766L472.923 27.3203C473.158 27.2943 473.353 27.2031 473.509 27.0469C473.679 26.8906 473.763 26.6888 473.763 26.4414V12.5547H470.873V11.2461L475.834 9.72266H477.474V13.2773C477.865 12.8477 478.353 12.3138 478.939 11.6758C479.525 11.0378 480.15 10.4714 480.814 9.97656C481.478 9.48177 482.123 9.23438 482.748 9.23438C483.164 9.23438 483.614 9.29948 484.095 9.42969C484.577 9.5599 484.942 9.69661 485.189 9.83984V13.8047ZM498.139 26.5586V28.1602C498.139 28.1602 497.885 28.2708 497.377 28.4922C496.883 28.7135 496.225 28.9349 495.405 29.1562C494.597 29.3776 493.712 29.4883 492.748 29.4883C491.251 29.4883 490.157 29.1367 489.467 28.4336C488.79 27.7174 488.452 26.5716 488.452 24.9961V11.7148H485.893V10.4062L488.627 9.11719L490.424 4.87891H492.182V9.72266H497.827V11.7148H492.182V22.8867C492.182 24.4753 492.449 25.6016 492.983 26.2656C493.517 26.9167 494.317 27.2422 495.385 27.2422C496.166 27.2422 496.817 27.1315 497.338 26.9102C497.872 26.6758 498.139 26.5586 498.139 26.5586Z" fill="url(#paint0_linear_97_19356)"/>
</g>
<defs>
<filter id="filter0_ddddi_97_19356" x="0.583618" y="0.679688" width="501.555" height="45.4805" filterUnits="userSpaceOnUse" color-interpolation-filters="sRGB">
<feFlood flood-opacity="0" result="BackgroundImageFix"/>
<feColorMatrix in="SourceAlpha" type="matrix" values="0 0 0 0 0 0 0 0 0 0 0 0 0 0 0 0 0 0 127 0" result="hardAlpha"/>
<feOffset dy="4"/>
<feGaussianBlur stdDeviation="2"/>
<feComposite in2="hardAlpha" operator="out"/>
<feColorMatrix type="matrix" values="0 0 0 0 0 0 0 0 0 0 0 0 0 0 0 0 0 0 0.25 0"/>
<feBlend mode="normal" in2="BackgroundImageFix" result="effect1_dropShadow_97_19356"/>
<feColorMatrix in="SourceAlpha" type="matrix" values="0 0 0 0 0 0 0 0 0 0 0 0 0 0 0 0 0 0 127 0" result="hardAlpha"/>
<feOffset dy="4"/>
<feGaussianBlur stdDeviation="2"/>
<feComposite in2="hardAlpha" operator="out"/>
<feColorMatrix type="matrix" values="0 0 0 0 0 0 0 0 0 0 0 0 0 0 0 0 0 0 0.25 0"/>
<feBlend mode="normal" in2="effect1_dropShadow_97_19356" result="effect2_dropShadow_97_19356"/>
<feColorMatrix in="SourceAlpha" type="matrix" values="0 0 0 0 0 0 0 0 0 0 0 0 0 0 0 0 0 0 127 0" result="hardAlpha"/>
<feOffset dy="4"/>
<feGaussianBlur stdDeviation="2"/>
<feComposite in2="hardAlpha" operator="out"/>
<feColorMatrix type="matrix" values="0 0 0 0 0 0 0 0 0 0 0 0 0 0 0 0 0 0 0.25 0"/>
<feBlend mode="normal" in2="effect2_dropShadow_97_19356" result="effect3_dropShadow_97_19356"/>
<feColorMatrix in="SourceAlpha" type="matrix" values="0 0 0 0 0 0 0 0 0 0 0 0 0 0 0 0 0 0 127 0" result="hardAlpha"/>
<feOffset dy="4"/>
<feGaussianBlur stdDeviation="2"/>
<feComposite in2="hardAlpha" operator="out"/>
<feColorMatrix type="matrix" values="0 0 0 0 0 0 0 0 0 0 0 0 0 0 0 0 0 0 0.25 0"/>
<feBlend mode="normal" in2="effect3_dropShadow_97_19356" result="effect4_dropShadow_97_19356"/>
<feBlend mode="normal" in="SourceGraphic" in2="effect4_dropShadow_97_19356" result="shape"/>
<feColorMatrix in="SourceAlpha" type="matrix" values="0 0 0 0 0 0 0 0 0 0 0 0 0 0 0 0 0 0 127 0" result="hardAlpha"/>
<feOffset dy="0.5"/>
<feGaussianBlur stdDeviation="0.25"/>
<feComposite in2="hardAlpha" operator="arithmetic" k2="-1" k3="1"/>
<feColorMatrix type="matrix" values="0 0 0 0 1 0 0 0 0 1 0 0 0 0 1 0 0 0 0.5 0"/>
<feBlend mode="screen" in2="shape" result="effect5_innerShadow_97_19356"/>
</filter>
<linearGradient id="paint0_linear_97_19356" x1="251" y1="4" x2="251" y2="36" gradientUnits="userSpaceOnUse">
<stop stop-color="#9F7D33"/>
<stop offset="1" stop-color="#FFFDD1"/>
</linearGradient>
</defs>
</svg>
