<svg width="838" height="47" viewBox="0 0 838 47" fill="none" xmlns="http://www.w3.org/2000/svg">
<g filter="url(#filter0_ddddi_97_26613)">
<path d="M25.2031 10.2305C25.2031 12.1836 24.7409 13.8047 23.8164 15.0938C22.8919 16.3828 21.6484 17.3529 20.0859 18.0039C18.5234 18.6419 16.7852 18.9609 14.8711 18.9609H14.7539C14.2331 18.9609 13.6536 18.9414 13.0156 18.9023C12.3906 18.8503 12.026 18.8177 11.9219 18.8047V26.2461C11.9219 26.4414 11.987 26.6302 12.1172 26.8125C12.2604 26.9948 12.4753 27.099 12.7617 27.125L15.3984 27.2812V29H4.89062V27.2812L7 27.125C7.28646 27.099 7.5013 26.9948 7.64453 26.8125C7.80078 26.6302 7.87891 26.4414 7.87891 26.2461V4.91797C7.87891 4.72266 7.80078 4.53385 7.64453 4.35156C7.5013 4.15625 7.28646 4.05208 7 4.03906L4.59766 3.88281V2.16406H14.168C17.944 2.16406 20.724 2.76953 22.5078 3.98047C24.3047 5.19141 25.2031 7.27474 25.2031 10.2305ZM21.043 10.2891C21.043 8.34896 20.4961 6.83854 19.4023 5.75781C18.3216 4.66406 16.5052 4.11719 13.9531 4.11719C13.5885 4.11719 13.1589 4.1237 12.6641 4.13672C12.1693 4.14974 11.9219 4.15625 11.9219 4.15625V16.7539C11.987 16.7539 12.2799 16.793 12.8008 16.8711C13.3346 16.9362 13.7904 16.9688 14.168 16.9688H14.2852C16.3555 16.9688 17.9961 16.4284 19.207 15.3477C20.431 14.2669 21.043 12.5807 21.043 10.2891ZM41.2 13.8047H39.6375C39.3901 13.5052 39.0906 13.2513 38.7391 13.043C38.4005 12.8216 37.9839 12.7109 37.4891 12.7109C36.851 12.7109 36.1935 12.9323 35.5164 13.375C34.8523 13.8177 34.1753 14.4232 33.4852 15.1914V26.4414C33.4852 27.0013 33.7651 27.2943 34.325 27.3203L36.9617 27.4375V29H26.9617V27.4766L28.9344 27.3203C29.1688 27.2943 29.3641 27.2031 29.5203 27.0469C29.6896 26.8906 29.7742 26.6888 29.7742 26.4414V12.5547H26.8836V11.2461L31.8445 9.72266H33.4852V13.2773C33.8758 12.8477 34.3641 12.3138 34.95 11.6758C35.5359 11.0378 36.1609 10.4714 36.825 9.97656C37.4891 9.48177 38.1336 9.23438 38.7586 9.23438C39.1753 9.23438 39.6245 9.29948 40.1063 9.42969C40.588 9.5599 40.9526 9.69661 41.2 9.83984V13.8047ZM59.0719 27.0078C57.9521 27.6979 56.7411 28.2839 55.4391 28.7656C54.15 29.2474 52.8284 29.4883 51.4742 29.4883C49.8596 29.4883 48.3427 29.1302 46.9234 28.4141C45.5172 27.6849 44.3779 26.5846 43.5055 25.1133C42.6331 23.6419 42.1969 21.793 42.1969 19.5664C42.1969 17.4831 42.6005 15.6667 43.4078 14.1172C44.2151 12.5677 45.3284 11.3698 46.7477 10.5234C48.1669 9.66406 49.7815 9.23438 51.5914 9.23438C54.0784 9.23438 55.9469 10.0091 57.1969 11.5586C58.4469 13.0951 59.0719 15.0547 59.0719 17.4375C59.0719 17.5677 59.0719 17.7435 59.0719 17.9648C59.0719 18.1732 59.0589 18.3685 59.0328 18.5508H46.0641C46.0641 19.5664 46.1682 20.582 46.3766 21.5977C46.5979 22.6003 46.9625 23.5117 47.4703 24.332C47.9781 25.1523 48.6617 25.8099 49.5211 26.3047C50.3805 26.7995 51.4547 27.0469 52.7438 27.0469C53.8896 27.0469 55.0029 26.7865 56.0836 26.2656C57.1773 25.7318 58.1734 25.1654 59.0719 24.5664V27.0078ZM55.068 16.7539V15.875C55.068 14.5599 54.749 13.4531 54.1109 12.5547C53.4859 11.6562 52.5094 11.207 51.1813 11.207C49.8661 11.207 48.7464 11.7018 47.8219 12.6914C46.8974 13.681 46.3831 15.0352 46.2789 16.7539H55.068ZM74.1898 23.1992C74.1898 25.1654 73.5128 26.7083 72.1586 27.8281C70.8044 28.9349 68.9359 29.4883 66.5531 29.4883C65.3292 29.4883 64.1964 29.3581 63.1547 29.0977C62.126 28.8503 61.4099 28.6419 61.0062 28.4727V23.1602H63.0375L63.5258 26.5586C63.9294 26.819 64.4242 27.0729 65.0102 27.3203C65.6091 27.5547 66.2992 27.6719 67.0805 27.6719C68.2263 27.6719 69.1117 27.3529 69.7367 26.7148C70.3617 26.0768 70.6742 25.3607 70.6742 24.5664C70.6742 23.5117 70.2966 22.7174 69.5414 22.1836C68.7862 21.6367 67.712 21.0312 66.3187 20.3672L65.7914 20.1133C64.3331 19.4232 63.2133 18.707 62.432 17.9648C61.6638 17.2096 61.2797 16.2331 61.2797 15.0352C61.2797 13.2513 61.9047 11.8385 63.1547 10.7969C64.4047 9.75521 66.182 9.23438 68.4867 9.23438C69.6586 9.23438 70.7003 9.34505 71.6117 9.56641C72.5362 9.77474 73.2003 9.97005 73.6039 10.1523V14.8789H71.5141L71.2016 12.0859C70.9151 11.8646 70.4919 11.6562 69.932 11.4609C69.3721 11.2656 68.7797 11.168 68.1547 11.168C67.0609 11.168 66.2471 11.4219 65.7133 11.9297C65.1794 12.4245 64.9125 13.0625 64.9125 13.8438C64.9125 14.7422 65.2315 15.4583 65.8695 15.9922C66.5206 16.513 67.6924 17.1576 69.3852 17.9258C70.7784 18.5638 71.9242 19.2799 72.8227 20.0742C73.7341 20.8555 74.1898 21.8971 74.1898 23.1992ZM89.3273 23.1992C89.3273 25.1654 88.6503 26.7083 87.2961 27.8281C85.9419 28.9349 84.0734 29.4883 81.6906 29.4883C80.4667 29.4883 79.3339 29.3581 78.2922 29.0977C77.2635 28.8503 76.5474 28.6419 76.1438 28.4727V23.1602H78.175L78.6633 26.5586C79.0669 26.819 79.5617 27.0729 80.1477 27.3203C80.7466 27.5547 81.4367 27.6719 82.218 27.6719C83.3638 27.6719 84.2492 27.3529 84.8742 26.7148C85.4992 26.0768 85.8117 25.3607 85.8117 24.5664C85.8117 23.5117 85.4341 22.7174 84.6789 22.1836C83.9237 21.6367 82.8495 21.0312 81.4563 20.3672L80.9289 20.1133C79.4706 19.4232 78.3508 18.707 77.5695 17.9648C76.8013 17.2096 76.4172 16.2331 76.4172 15.0352C76.4172 13.2513 77.0422 11.8385 78.2922 10.7969C79.5422 9.75521 81.3195 9.23438 83.6242 9.23438C84.7961 9.23438 85.8378 9.34505 86.7492 9.56641C87.6737 9.77474 88.3378 9.97005 88.7414 10.1523V14.8789H86.6516L86.3391 12.0859C86.0526 11.8646 85.6294 11.6562 85.0695 11.4609C84.5096 11.2656 83.9172 11.168 83.2922 11.168C82.1984 11.168 81.3846 11.4219 80.8508 11.9297C80.3169 12.4245 80.05 13.0625 80.05 13.8438C80.05 14.7422 80.369 15.4583 81.007 15.9922C81.6581 16.513 82.83 17.1576 84.5227 17.9258C85.9159 18.5638 87.0617 19.2799 87.9602 20.0742C88.8716 20.8555 89.3273 21.8971 89.3273 23.1992ZM127.512 19.3906C127.512 21.2786 127.122 22.9909 126.341 24.5273C125.559 26.0508 124.453 27.2617 123.02 28.1602C121.601 29.0456 119.915 29.4883 117.962 29.4883C116.022 29.4883 114.342 29.0456 112.923 28.1602C111.503 27.2747 110.41 26.0703 109.641 24.5469C108.873 23.0234 108.489 21.3047 108.489 19.3906C108.489 17.4896 108.873 15.7708 109.641 14.2344C110.423 12.6979 111.529 11.4805 112.962 10.582C114.407 9.68359 116.113 9.23438 118.079 9.23438C120.071 9.23438 121.77 9.6901 123.177 10.6016C124.583 11.513 125.657 12.737 126.399 14.2734C127.141 15.8099 127.512 17.5156 127.512 19.3906ZM123.352 19.3516C123.352 17.8932 123.157 16.5326 122.766 15.2695C122.389 14.0065 121.803 12.9844 121.009 12.2031C120.227 11.4219 119.238 11.0312 118.04 11.0312C116.803 11.0312 115.787 11.4219 114.993 12.2031C114.212 12.9844 113.632 14.0065 113.255 15.2695C112.877 16.5326 112.688 17.8932 112.688 19.3516C112.688 20.7969 112.877 22.1576 113.255 23.4336C113.645 24.6966 114.231 25.7188 115.012 26.5C115.807 27.2812 116.803 27.6719 118.001 27.6719C119.225 27.6719 120.227 27.2812 121.009 26.5C121.803 25.7188 122.389 24.6966 122.766 23.4336C123.157 22.1706 123.352 20.8099 123.352 19.3516ZM149.955 29H141.127V27.4375L142.806 27.3203C143.041 27.2943 143.236 27.2031 143.392 27.0469C143.561 26.8906 143.646 26.6888 143.646 26.4414V16.0312C143.646 14.7682 143.353 13.8112 142.767 13.1602C142.181 12.4961 141.192 12.1641 139.798 12.1641C139.043 12.1641 138.288 12.2747 137.533 12.4961C136.791 12.7044 136.081 12.9779 135.404 13.3164V26.4414C135.404 26.9883 135.684 27.2812 136.244 27.3203L137.923 27.4375V29H128.88V27.4375L130.834 27.3203C131.393 27.2812 131.673 26.9883 131.673 26.4414V12.5547H128.88V11.2461L133.763 9.72266H135.404V11.7148C136.524 11.0768 137.67 10.5039 138.841 9.99609C140.026 9.48828 141.081 9.23438 142.005 9.23438C143.75 9.23438 145.078 9.78125 145.99 10.875C146.901 11.9557 147.357 13.4661 147.357 15.4062V26.4414C147.357 26.6888 147.435 26.8906 147.591 27.0469C147.761 27.2031 147.962 27.2943 148.197 27.3203L149.955 27.4375V29ZM186.87 29H180.952L180.425 26.6367C180.425 26.6367 180.223 26.7799 179.82 27.0664C179.429 27.3529 178.908 27.6849 178.257 28.0625C177.606 28.4401 176.883 28.7721 176.089 29.0586C175.308 29.3451 174.527 29.4883 173.745 29.4883C172.3 29.4883 171.07 29.0065 170.054 28.043C169.051 27.0794 168.55 25.7578 168.55 24.0781C168.55 23.3359 168.68 22.6458 168.941 22.0078C169.214 21.3698 169.748 20.7643 170.542 20.1914C171.349 19.6055 172.541 19.0391 174.116 18.4922C175.705 17.9323 177.808 17.3659 180.425 16.793V15.0742C180.425 12.444 179.182 11.1289 176.695 11.1289C176.004 11.1289 175.405 11.194 174.898 11.3242C174.403 11.4544 174.058 11.5586 173.863 11.6367V15.1133H170.952C170.588 15.1133 170.249 15.0482 169.937 14.918C169.624 14.7747 169.468 14.4557 169.468 13.9609C169.468 12.8672 169.885 11.9753 170.718 11.2852C171.551 10.582 172.606 10.0677 173.882 9.74219C175.171 9.40365 176.473 9.23438 177.788 9.23438C179.442 9.23438 180.724 9.49479 181.636 10.0156C182.547 10.5234 183.185 11.2331 183.55 12.1445C183.915 13.043 184.097 14.0716 184.097 15.2305V26.4414C184.097 26.6888 184.175 26.8906 184.331 27.0469C184.501 27.2031 184.702 27.2943 184.937 27.3203L186.87 27.4375V29ZM180.425 25.2305V18.3164C178.628 18.7591 177.196 19.2083 176.128 19.6641C175.073 20.1068 174.286 20.556 173.765 21.0117C173.244 21.4544 172.899 21.9102 172.73 22.3789C172.573 22.8346 172.495 23.3099 172.495 23.8047C172.495 24.625 172.756 25.3867 173.277 26.0898C173.81 26.7799 174.553 27.125 175.503 27.125C176.037 27.125 176.59 27.0339 177.163 26.8516C177.736 26.6562 178.27 26.4349 178.765 26.1875C179.26 25.9271 179.657 25.7057 179.956 25.5234C180.269 25.3281 180.425 25.2305 180.425 25.2305ZM208.609 29H199.781V27.4375L201.461 27.3203C201.695 27.2943 201.891 27.2031 202.047 27.0469C202.216 26.8906 202.301 26.6888 202.301 26.4414V16.0312C202.301 14.7682 202.008 13.8112 201.422 13.1602C200.836 12.4961 199.846 12.1641 198.453 12.1641C197.698 12.1641 196.943 12.2747 196.188 12.4961C195.445 12.7044 194.736 12.9779 194.059 13.3164V26.4414C194.059 26.9883 194.339 27.2812 194.898 27.3203L196.578 27.4375V29H187.535V27.4375L189.488 27.3203C190.048 27.2812 190.328 26.9883 190.328 26.4414V12.5547H187.535V11.2461L192.418 9.72266H194.059V11.7148C195.178 11.0768 196.324 10.5039 197.496 9.99609C198.681 9.48828 199.736 9.23438 200.66 9.23438C202.405 9.23438 203.733 9.78125 204.645 10.875C205.556 11.9557 206.012 13.4661 206.012 15.4062V26.4414C206.012 26.6888 206.09 26.8906 206.246 27.0469C206.415 27.2031 206.617 27.2943 206.852 27.3203L208.609 27.4375V29ZM229.43 11.2852L227.341 11.5195L219.665 30.2305C219.496 30.6602 219.229 31.2721 218.864 32.0664C218.512 32.8737 218.089 33.694 217.595 34.5273C217.113 35.3737 216.592 36.0768 216.032 36.6367C215.55 37.1185 215.016 37.4896 214.43 37.75C213.858 38.0234 213.233 38.1602 212.555 38.1602C211.605 38.1602 210.876 37.9258 210.368 37.457C209.873 37.0013 209.626 36.474 209.626 35.875C209.626 34.9896 210.055 34.1888 210.915 33.4727L214.665 35.1914C215.108 34.7487 215.55 34.1497 215.993 33.3945C216.436 32.6393 216.833 31.8581 217.184 31.0508C217.549 30.2435 217.829 29.5469 218.024 28.9609L211.227 11.5195L209.02 11.2852V9.72266H217.868V11.2852L215.954 11.4023C215.524 11.4414 215.309 11.6562 215.309 12.0469C215.309 12.151 215.322 12.2292 215.348 12.2812L219.997 24.0781L224.743 12.2812C224.782 12.2031 224.802 12.1185 224.802 12.0273C224.802 11.6367 224.6 11.4284 224.196 11.4023L222.302 11.2852V9.72266H229.43V11.2852ZM254.959 3.12109C254.959 3.79818 254.725 4.38411 254.256 4.87891C253.788 5.36068 253.215 5.60156 252.538 5.60156C251.86 5.60156 251.274 5.36068 250.78 4.87891C250.298 4.38411 250.057 3.79818 250.057 3.12109C250.057 2.43099 250.298 1.85156 250.78 1.38281C251.274 0.914062 251.86 0.679688 252.538 0.679688C253.215 0.679688 253.788 0.914062 254.256 1.38281C254.725 1.85156 254.959 2.43099 254.959 3.12109ZM257.01 29H247.616V27.4375L249.569 27.3203C250.129 27.2812 250.409 26.9883 250.409 26.4414V12.1641H247.655V10.7578L252.538 9.23438H254.12V26.4414C254.12 26.6888 254.198 26.8906 254.354 27.0469C254.523 27.2031 254.725 27.2943 254.959 27.3203L257.01 27.4375V29ZM290.722 29H281.757V27.4375L283.437 27.3203C283.997 27.2812 284.277 26.9883 284.277 26.4414V16.2461C284.277 15.0091 284.016 14.0195 283.495 13.2773C282.987 12.5352 282.063 12.1641 280.722 12.1641C280.058 12.1641 279.329 12.2682 278.534 12.4766C277.753 12.6849 277.056 12.9518 276.445 13.2773V26.4414C276.445 26.9883 276.724 27.2812 277.284 27.3203L278.964 27.4375V29H270.195V27.4375L271.874 27.3203C272.434 27.2812 272.714 26.9883 272.714 26.4414V15.9922C272.714 14.8594 272.447 13.9414 271.913 13.2383C271.379 12.5221 270.474 12.1641 269.198 12.1641C268.443 12.1641 267.655 12.2943 266.835 12.5547C266.015 12.8021 265.377 13.056 264.921 13.3164V26.4414C264.921 26.9883 265.201 27.2812 265.761 27.3203L267.441 27.4375V29H258.398V27.4375L260.351 27.3203C260.911 27.2812 261.191 26.9883 261.191 26.4414V12.5547H258.437V11.2461L263.28 9.72266H264.921V11.7148C265.52 11.3503 266.191 10.9792 266.933 10.6016C267.688 10.224 268.456 9.90495 269.237 9.64453C270.019 9.37109 270.754 9.23438 271.445 9.23438C272.603 9.23438 273.541 9.53385 274.257 10.1328C274.973 10.7188 275.501 11.3438 275.839 12.0078C276.373 11.6693 277.05 11.2852 277.87 10.8555C278.691 10.4128 279.537 10.0352 280.409 9.72266C281.295 9.39714 282.089 9.23438 282.792 9.23438C284.198 9.23438 285.273 9.5599 286.015 10.2109C286.757 10.849 287.265 11.6432 287.538 12.5938C287.812 13.5312 287.948 14.4557 287.948 15.3672V26.4414C287.948 26.6888 288.027 26.8906 288.183 27.0469C288.352 27.2031 288.554 27.2943 288.788 27.3203L290.722 27.4375V29ZM310.508 29H304.59L304.062 26.6367C304.062 26.6367 303.861 26.7799 303.457 27.0664C303.066 27.3529 302.546 27.6849 301.895 28.0625C301.243 28.4401 300.521 28.7721 299.727 29.0586C298.945 29.3451 298.164 29.4883 297.383 29.4883C295.938 29.4883 294.707 29.0065 293.691 28.043C292.689 27.0794 292.188 25.7578 292.188 24.0781C292.188 23.3359 292.318 22.6458 292.578 22.0078C292.852 21.3698 293.385 20.7643 294.18 20.1914C294.987 19.6055 296.178 19.0391 297.754 18.4922C299.342 17.9323 301.445 17.3659 304.062 16.793V15.0742C304.062 12.444 302.819 11.1289 300.332 11.1289C299.642 11.1289 299.043 11.194 298.535 11.3242C298.04 11.4544 297.695 11.5586 297.5 11.6367V15.1133H294.59C294.225 15.1133 293.887 15.0482 293.574 14.918C293.262 14.7747 293.105 14.4557 293.105 13.9609C293.105 12.8672 293.522 11.9753 294.355 11.2852C295.189 10.582 296.243 10.0677 297.52 9.74219C298.809 9.40365 300.111 9.23438 301.426 9.23438C303.079 9.23438 304.362 9.49479 305.273 10.0156C306.185 10.5234 306.823 11.2331 307.188 12.1445C307.552 13.043 307.734 14.0716 307.734 15.2305V26.4414C307.734 26.6888 307.812 26.8906 307.969 27.0469C308.138 27.2031 308.34 27.2943 308.574 27.3203L310.508 27.4375V29ZM304.062 25.2305V18.3164C302.266 18.7591 300.833 19.2083 299.766 19.6641C298.711 20.1068 297.923 20.556 297.402 21.0117C296.882 21.4544 296.536 21.9102 296.367 22.3789C296.211 22.8346 296.133 23.3099 296.133 23.8047C296.133 24.625 296.393 25.3867 296.914 26.0898C297.448 26.7799 298.19 27.125 299.141 27.125C299.674 27.125 300.228 27.0339 300.801 26.8516C301.374 26.6562 301.908 26.4349 302.402 26.1875C302.897 25.9271 303.294 25.7057 303.594 25.5234C303.906 25.3281 304.062 25.2305 304.062 25.2305ZM330.684 12.3984H326.7C326.999 12.8802 327.253 13.4076 327.462 13.9805C327.67 14.5534 327.774 15.224 327.774 15.9922C327.774 17.3203 327.41 18.4596 326.68 19.4102C325.951 20.3477 324.988 21.0703 323.79 21.5781C322.605 22.0859 321.316 22.3398 319.923 22.3398C319.792 22.3398 319.662 22.3398 319.532 22.3398C319.402 22.3398 319.272 22.3333 319.141 22.3203C318.972 22.5938 318.855 22.8867 318.79 23.1992C318.738 23.5117 318.712 23.8047 318.712 24.0781C318.712 24.3255 318.725 24.5339 318.751 24.7031C318.777 24.8724 318.796 24.9701 318.809 24.9961L319.376 25.0547C320.313 25.1458 321.361 25.276 322.52 25.4453C323.692 25.6146 324.819 25.888 325.899 26.2656C326.993 26.6432 327.891 27.1771 328.595 27.8672C329.298 28.5573 329.649 29.4688 329.649 30.6016C329.649 31.8646 329.187 33.069 328.263 34.2148C327.338 35.3737 326.088 36.3177 324.513 37.0469C322.95 37.7891 321.199 38.1602 319.259 38.1602C316.876 38.1602 315.027 37.6133 313.712 36.5195C312.397 35.4388 311.739 34.0911 311.739 32.4766C311.739 31.3177 312.084 30.2826 312.774 29.3711C313.464 28.4727 314.532 27.8932 315.977 27.6328C315.834 27.2161 315.73 26.9167 315.665 26.7344C315.6 26.5521 315.567 26.2396 315.567 25.7969C315.567 25.276 315.723 24.7031 316.036 24.0781C316.361 23.4401 316.876 22.763 317.579 22.0469C316.251 21.7474 315.092 21.0768 314.102 20.0352C313.113 18.9805 312.618 17.6458 312.618 16.0312C312.618 13.9349 313.354 12.2812 314.825 11.0703C316.309 9.84635 318.249 9.23438 320.645 9.23438C321.596 9.23438 322.475 9.3776 323.282 9.66406C324.102 9.9375 324.773 10.1979 325.294 10.4453H330.684V12.3984ZM323.966 15.7578C323.966 14.9115 323.822 14.1172 323.536 13.375C323.249 12.6328 322.833 12.0339 322.286 11.5781C321.739 11.1094 321.062 10.875 320.255 10.875C319.135 10.875 318.217 11.3112 317.501 12.1836C316.798 13.043 316.446 14.2474 316.446 15.7969C316.446 17.138 316.765 18.2904 317.403 19.2539C318.041 20.2044 318.992 20.6797 320.255 20.6797C321.453 20.6797 322.371 20.1979 323.009 19.2344C323.647 18.2708 323.966 17.112 323.966 15.7578ZM326.212 31.6758C326.212 30.8424 325.919 30.1979 325.333 29.7422C324.76 29.2865 324.044 28.9479 323.184 28.7266C322.325 28.5052 321.459 28.349 320.587 28.2578C319.714 28.1536 318.979 28.043 318.38 27.9258C317.221 28.3424 316.42 28.9089 315.977 29.625C315.548 30.3411 315.333 31.0247 315.333 31.6758C315.333 32.3138 315.515 32.9909 315.88 33.707C316.257 34.4362 316.83 35.0547 317.598 35.5625C318.38 36.0703 319.369 36.3242 320.567 36.3242C321.843 36.3242 322.898 36.0703 323.731 35.5625C324.565 35.0547 325.183 34.4362 325.587 33.707C326.003 32.9909 326.212 32.3138 326.212 31.6758ZM348.83 27.0078C347.71 27.6979 346.499 28.2839 345.197 28.7656C343.908 29.2474 342.586 29.4883 341.232 29.4883C339.617 29.4883 338.101 29.1302 336.681 28.4141C335.275 27.6849 334.136 26.5846 333.263 25.1133C332.391 23.6419 331.955 21.793 331.955 19.5664C331.955 17.4831 332.358 15.6667 333.166 14.1172C333.973 12.5677 335.086 11.3698 336.505 10.5234C337.925 9.66406 339.539 9.23438 341.349 9.23438C343.836 9.23438 345.705 10.0091 346.955 11.5586C348.205 13.0951 348.83 15.0547 348.83 17.4375C348.83 17.5677 348.83 17.7435 348.83 17.9648C348.83 18.1732 348.817 18.3685 348.791 18.5508H335.822C335.822 19.5664 335.926 20.582 336.134 21.5977C336.356 22.6003 336.72 23.5117 337.228 24.332C337.736 25.1523 338.42 25.8099 339.279 26.3047C340.138 26.7995 341.212 27.0469 342.502 27.0469C343.647 27.0469 344.761 26.7865 345.841 26.2656C346.935 25.7318 347.931 25.1654 348.83 24.5664V27.0078ZM344.826 16.7539V15.875C344.826 14.5599 344.507 13.4531 343.869 12.5547C343.244 11.6562 342.267 11.207 340.939 11.207C339.624 11.207 338.504 11.7018 337.58 12.6914C336.655 13.681 336.141 15.0352 336.037 16.7539H344.826ZM379.925 26.5586V28.1602C379.925 28.1602 379.671 28.2708 379.163 28.4922C378.668 28.7135 378.011 28.9349 377.191 29.1562C376.383 29.3776 375.498 29.4883 374.534 29.4883C373.037 29.4883 371.943 29.1367 371.253 28.4336C370.576 27.7174 370.237 26.5716 370.237 24.9961V11.7148H367.679V10.4062L370.413 9.11719L372.21 4.87891H373.968V9.72266H379.612V11.7148H373.968V22.8867C373.968 24.4753 374.235 25.6016 374.769 26.2656C375.303 26.9167 376.103 27.2422 377.171 27.2422C377.952 27.2422 378.603 27.1315 379.124 26.9102C379.658 26.6758 379.925 26.5586 379.925 26.5586ZM399.789 19.3906C399.789 21.2786 399.398 22.9909 398.617 24.5273C397.836 26.0508 396.729 27.2617 395.297 28.1602C393.878 29.0456 392.191 29.4883 390.238 29.4883C388.298 29.4883 386.618 29.0456 385.199 28.1602C383.78 27.2747 382.686 26.0703 381.918 24.5469C381.15 23.0234 380.766 21.3047 380.766 19.3906C380.766 17.4896 381.15 15.7708 381.918 14.2344C382.699 12.6979 383.806 11.4805 385.238 10.582C386.684 9.68359 388.389 9.23438 390.355 9.23438C392.348 9.23438 394.047 9.6901 395.453 10.6016C396.859 11.513 397.934 12.737 398.676 14.2734C399.418 15.8099 399.789 17.5156 399.789 19.3906ZM395.629 19.3516C395.629 17.8932 395.434 16.5326 395.043 15.2695C394.665 14.0065 394.079 12.9844 393.285 12.2031C392.504 11.4219 391.514 11.0312 390.316 11.0312C389.079 11.0312 388.064 11.4219 387.27 12.2031C386.488 12.9844 385.909 14.0065 385.531 15.2695C385.154 16.5326 384.965 17.8932 384.965 19.3516C384.965 20.7969 385.154 22.1576 385.531 23.4336C385.922 24.6966 386.508 25.7188 387.289 26.5C388.083 27.2812 389.079 27.6719 390.277 27.6719C391.501 27.6719 392.504 27.2812 393.285 26.5C394.079 25.7188 394.665 24.6966 395.043 23.4336C395.434 22.1706 395.629 20.8099 395.629 19.3516ZM436.841 21.4805C436.841 22.8216 436.477 24.1172 435.748 25.3672C435.032 26.6172 433.892 27.6458 432.33 28.4531C430.78 29.2474 428.749 29.6445 426.236 29.6445C424.804 29.6445 423.554 29.5208 422.486 29.2734C421.418 29.026 420.591 28.7786 420.005 28.5312C419.42 28.2839 419.127 28.1602 419.127 28.1602V21.0703H421.646L422.173 25.6016C422.199 25.7578 422.284 25.9271 422.427 26.1094C422.571 26.2917 422.707 26.4154 422.837 26.4805C422.903 26.4935 423.28 26.6497 423.97 26.9492C424.673 27.2487 425.643 27.3984 426.88 27.3984C428.586 27.3984 429.992 26.9818 431.099 26.1484C432.206 25.3151 432.759 24.1562 432.759 22.6719C432.759 21.8646 432.532 21.1615 432.076 20.5625C431.633 19.9505 431.054 19.4102 430.337 18.9414C429.621 18.4727 428.853 18.0495 428.033 17.6719C427.226 17.2812 426.457 16.9102 425.728 16.5586C424.634 16.0378 423.619 15.4844 422.681 14.8984C421.744 14.2995 420.989 13.5638 420.416 12.6914C419.843 11.819 419.556 10.7057 419.556 9.35156C419.556 7.76302 419.96 6.38281 420.767 5.21094C421.574 4.03906 422.675 3.13411 424.068 2.49609C425.461 1.84505 427.037 1.51953 428.795 1.51953C430.227 1.51953 431.49 1.66276 432.584 1.94922C433.677 2.22266 434.647 2.49609 435.494 2.76953L435.845 2.88672V9.11719H433.56L432.955 5.28906C432.929 5.10677 432.844 4.97656 432.701 4.89844C432.571 4.80729 432.447 4.70312 432.33 4.58594C432.226 4.50781 431.9 4.33854 431.353 4.07812C430.819 3.81771 429.986 3.6875 428.853 3.6875C427.252 3.6875 425.989 4.13672 425.064 5.03516C424.14 5.92057 423.677 7.04036 423.677 8.39453C423.677 9.61849 424.153 10.6341 425.103 11.4414C426.067 12.2487 427.447 12.9974 429.244 13.6875C431.666 14.599 433.534 15.6276 434.849 16.7734C436.177 17.9062 436.841 19.4753 436.841 21.4805ZM450.944 26.5586V28.1602C450.944 28.1602 450.69 28.2708 450.182 28.4922C449.687 28.7135 449.03 28.9349 448.209 29.1562C447.402 29.3776 446.517 29.4883 445.553 29.4883C444.056 29.4883 442.962 29.1367 442.272 28.4336C441.595 27.7174 441.256 26.5716 441.256 24.9961V11.7148H438.698V10.4062L441.432 9.11719L443.229 4.87891H444.987V9.72266H450.631V11.7148H444.987V22.8867C444.987 24.4753 445.254 25.6016 445.788 26.2656C446.321 26.9167 447.122 27.2422 448.19 27.2422C448.971 27.2422 449.622 27.1315 450.143 26.9102C450.677 26.6758 450.944 26.5586 450.944 26.5586ZM470.105 29H464.187L463.659 26.6367C463.659 26.6367 463.458 26.7799 463.054 27.0664C462.663 27.3529 462.142 27.6849 461.491 28.0625C460.84 28.4401 460.118 28.7721 459.323 29.0586C458.542 29.3451 457.761 29.4883 456.98 29.4883C455.534 29.4883 454.304 29.0065 453.288 28.043C452.286 27.0794 451.784 25.7578 451.784 24.0781C451.784 23.3359 451.915 22.6458 452.175 22.0078C452.448 21.3698 452.982 20.7643 453.777 20.1914C454.584 19.6055 455.775 19.0391 457.351 18.4922C458.939 17.9323 461.042 17.3659 463.659 16.793V15.0742C463.659 12.444 462.416 11.1289 459.929 11.1289C459.239 11.1289 458.64 11.194 458.132 11.3242C457.637 11.4544 457.292 11.5586 457.097 11.6367V15.1133H454.187C453.822 15.1133 453.484 15.0482 453.171 14.918C452.859 14.7747 452.702 14.4557 452.702 13.9609C452.702 12.8672 453.119 11.9753 453.952 11.2852C454.786 10.582 455.84 10.0677 457.116 9.74219C458.405 9.40365 459.708 9.23438 461.023 9.23438C462.676 9.23438 463.959 9.49479 464.87 10.0156C465.782 10.5234 466.42 11.2331 466.784 12.1445C467.149 13.043 467.331 14.0716 467.331 15.2305V26.4414C467.331 26.6888 467.409 26.8906 467.566 27.0469C467.735 27.2031 467.937 27.2943 468.171 27.3203L470.105 27.4375V29ZM463.659 25.2305V18.3164C461.862 18.7591 460.43 19.2083 459.362 19.6641C458.308 20.1068 457.52 20.556 456.999 21.0117C456.478 21.4544 456.133 21.9102 455.964 22.3789C455.808 22.8346 455.73 23.3099 455.73 23.8047C455.73 24.625 455.99 25.3867 456.511 26.0898C457.045 26.7799 457.787 27.125 458.737 27.125C459.271 27.125 459.825 27.0339 460.398 26.8516C460.971 26.6562 461.504 26.4349 461.999 26.1875C462.494 25.9271 462.891 25.7057 463.191 25.5234C463.503 25.3281 463.659 25.2305 463.659 25.2305ZM485.203 13.8047H483.641C483.393 13.5052 483.094 13.2513 482.742 13.043C482.404 12.8216 481.987 12.7109 481.492 12.7109C480.854 12.7109 480.197 12.9323 479.52 13.375C478.855 13.8177 478.178 14.4232 477.488 15.1914V26.4414C477.488 27.0013 477.768 27.2943 478.328 27.3203L480.965 27.4375V29H470.965V27.4766L472.938 27.3203C473.172 27.2943 473.367 27.2031 473.523 27.0469C473.693 26.8906 473.777 26.6888 473.777 26.4414V12.5547H470.887V11.2461L475.848 9.72266H477.488V13.2773C477.879 12.8477 478.367 12.3138 478.953 11.6758C479.539 11.0378 480.164 10.4714 480.828 9.97656C481.492 9.48177 482.137 9.23438 482.762 9.23438C483.178 9.23438 483.628 9.29948 484.109 9.42969C484.591 9.5599 484.956 9.69661 485.203 9.83984V13.8047ZM498.153 26.5586V28.1602C498.153 28.1602 497.899 28.2708 497.391 28.4922C496.897 28.7135 496.239 28.9349 495.419 29.1562C494.611 29.3776 493.726 29.4883 492.763 29.4883C491.265 29.4883 490.171 29.1367 489.481 28.4336C488.804 27.7174 488.466 26.5716 488.466 24.9961V11.7148H485.907V10.4062L488.641 9.11719L490.438 4.87891H492.196V9.72266H497.841V11.7148H492.196V22.8867C492.196 24.4753 492.463 25.6016 492.997 26.2656C493.531 26.9167 494.332 27.2422 495.399 27.2422C496.18 27.2422 496.832 27.1315 497.352 26.9102C497.886 26.6758 498.153 26.5586 498.153 26.5586ZM539.483 3.88281L537.315 4.27344L529.268 17.5938V26.2461C529.268 26.4414 529.34 26.6302 529.483 26.8125C529.626 26.9948 529.834 27.099 530.108 27.125L532.666 27.2812V29H521.866V27.2812L524.346 27.125C524.633 27.099 524.847 26.9948 524.991 26.8125C525.147 26.6302 525.225 26.4414 525.225 26.2461V18.1992L517.549 4.35156L515.225 3.88281V2.16406H524.717V3.88281L522.705 4.07812C522.341 4.13021 522.159 4.28646 522.159 4.54688C522.159 4.67708 522.185 4.78776 522.237 4.87891L527.881 15.3281L534.073 4.99609C534.125 4.90495 534.151 4.8138 534.151 4.72266C534.151 4.39714 533.968 4.20833 533.604 4.15625L531.358 3.88281V2.16406H539.483V3.88281ZM559.464 19.3906C559.464 21.2786 559.073 22.9909 558.292 24.5273C557.511 26.0508 556.404 27.2617 554.972 28.1602C553.553 29.0456 551.866 29.4883 549.913 29.4883C547.973 29.4883 546.293 29.0456 544.874 28.1602C543.455 27.2747 542.361 26.0703 541.593 24.5469C540.825 23.0234 540.441 21.3047 540.441 19.3906C540.441 17.4896 540.825 15.7708 541.593 14.2344C542.374 12.6979 543.481 11.4805 544.913 10.582C546.359 9.68359 548.064 9.23438 550.03 9.23438C552.023 9.23438 553.722 9.6901 555.128 10.6016C556.534 11.513 557.609 12.737 558.351 14.2734C559.093 15.8099 559.464 17.5156 559.464 19.3906ZM555.304 19.3516C555.304 17.8932 555.109 16.5326 554.718 15.2695C554.34 14.0065 553.754 12.9844 552.96 12.2031C552.179 11.4219 551.189 11.0312 549.991 11.0312C548.754 11.0312 547.739 11.4219 546.945 12.2031C546.163 12.9844 545.584 14.0065 545.206 15.2695C544.829 16.5326 544.64 17.8932 544.64 19.3516C544.64 20.7969 544.829 22.1576 545.206 23.4336C545.597 24.6966 546.183 25.7188 546.964 26.5C547.758 27.2812 548.754 27.6719 549.952 27.6719C551.176 27.6719 552.179 27.2812 552.96 26.5C553.754 25.7188 554.34 24.6966 554.718 23.4336C555.109 22.1706 555.304 20.8099 555.304 19.3516ZM581.945 29H575.598V26.7148C575.142 27.0664 574.562 27.457 573.859 27.8867C573.156 28.3164 572.401 28.6875 571.594 29C570.786 29.3255 569.986 29.4883 569.191 29.4883C567.473 29.4883 566.118 28.974 565.129 27.9453C564.152 26.9036 563.664 25.2565 563.664 23.0039V12.1641H560.871V10.7969L565.793 9.23438H567.395V22.2422C567.395 23.6615 567.681 24.7682 568.254 25.5625C568.84 26.3568 569.842 26.7539 571.262 26.7539C572.082 26.7539 572.889 26.6172 573.684 26.3438C574.478 26.0573 575.116 25.7969 575.598 25.5625V12.1641H572.785V10.7969L577.668 9.23438H579.309V26.4414C579.309 26.6888 579.393 26.8906 579.562 27.0469C579.745 27.2031 579.953 27.2943 580.188 27.3203L581.945 27.4375V29ZM597.239 13.8047H595.677C595.429 13.5052 595.13 13.2513 594.778 13.043C594.44 12.8216 594.023 12.7109 593.528 12.7109C592.89 12.7109 592.233 12.9323 591.555 13.375C590.891 13.8177 590.214 14.4232 589.524 15.1914V26.4414C589.524 27.0013 589.804 27.2943 590.364 27.3203L593.001 27.4375V29H583.001V27.4766L584.973 27.3203C585.208 27.2943 585.403 27.2031 585.559 27.0469C585.729 26.8906 585.813 26.6888 585.813 26.4414V12.5547H582.923V11.2461L587.884 9.72266H589.524V13.2773C589.915 12.8477 590.403 12.3138 590.989 11.6758C591.575 11.0378 592.2 10.4714 592.864 9.97656C593.528 9.48177 594.173 9.23438 594.798 9.23438C595.214 9.23438 595.664 9.29948 596.145 9.42969C596.627 9.5599 596.992 9.69661 597.239 9.83984V13.8047ZM625.952 29H615.405V27.2812L617.787 27.125C618.074 27.099 618.282 26.9948 618.412 26.8125C618.556 26.6302 618.627 26.4414 618.627 26.2461V4.91797C618.627 4.72266 618.556 4.54036 618.412 4.37109C618.282 4.1888 618.074 4.09115 617.787 4.07812L615.405 3.92188V2.16406H625.952V3.92188L623.51 4.07812C623.237 4.09115 623.028 4.1888 622.885 4.37109C622.742 4.54036 622.67 4.72266 622.67 4.91797V26.2461C622.67 26.4414 622.742 26.6302 622.885 26.8125C623.028 26.9948 623.237 27.099 623.51 27.125L625.952 27.2812V29ZM648.355 29H639.527V27.4375L641.206 27.3203C641.441 27.2943 641.636 27.2031 641.792 27.0469C641.961 26.8906 642.046 26.6888 642.046 26.4414V16.0312C642.046 14.7682 641.753 13.8112 641.167 13.1602C640.581 12.4961 639.592 12.1641 638.198 12.1641C637.443 12.1641 636.688 12.2747 635.933 12.4961C635.191 12.7044 634.481 12.9779 633.804 13.3164V26.4414C633.804 26.9883 634.084 27.2812 634.644 27.3203L636.323 27.4375V29H627.28V27.4375L629.234 27.3203C629.793 27.2812 630.073 26.9883 630.073 26.4414V12.5547H627.28V11.2461L632.163 9.72266H633.804V11.7148C634.924 11.0768 636.07 10.5039 637.241 9.99609C638.426 9.48828 639.481 9.23438 640.405 9.23438C642.15 9.23438 643.478 9.78125 644.39 10.875C645.301 11.9557 645.757 13.4661 645.757 15.4062V26.4414C645.757 26.6888 645.835 26.8906 645.991 27.0469C646.161 27.2031 646.362 27.2943 646.597 27.3203L648.355 27.4375V29ZM669.137 11.2852L667.008 11.5195L660.016 29H657.418L650.973 11.5195L648.766 11.2852V9.72266H657.613V11.2852L655.699 11.4023C655.27 11.4414 655.055 11.6562 655.055 12.0469C655.055 12.099 655.068 12.1771 655.094 12.2812L659.566 24.8008L664.488 12.2812C664.527 12.2031 664.547 12.1185 664.547 12.0273C664.547 11.6367 664.345 11.4284 663.941 11.4023L662.145 11.2852V9.72266H669.137V11.2852ZM686.989 27.0078C685.869 27.6979 684.658 28.2839 683.356 28.7656C682.067 29.2474 680.746 29.4883 679.391 29.4883C677.777 29.4883 676.26 29.1302 674.841 28.4141C673.434 27.6849 672.295 26.5846 671.423 25.1133C670.55 23.6419 670.114 21.793 670.114 19.5664C670.114 17.4831 670.518 15.6667 671.325 14.1172C672.132 12.5677 673.246 11.3698 674.665 10.5234C676.084 9.66406 677.699 9.23438 679.509 9.23438C681.996 9.23438 683.864 10.0091 685.114 11.5586C686.364 13.0951 686.989 15.0547 686.989 17.4375C686.989 17.5677 686.989 17.7435 686.989 17.9648C686.989 18.1732 686.976 18.3685 686.95 18.5508H673.981C673.981 19.5664 674.085 20.582 674.294 21.5977C674.515 22.6003 674.88 23.5117 675.388 24.332C675.895 25.1523 676.579 25.8099 677.438 26.3047C678.298 26.7995 679.372 27.0469 680.661 27.0469C681.807 27.0469 682.92 26.7865 684.001 26.2656C685.095 25.7318 686.091 25.1654 686.989 24.5664V27.0078ZM682.985 16.7539V15.875C682.985 14.5599 682.666 13.4531 682.028 12.5547C681.403 11.6562 680.427 11.207 679.098 11.207C677.783 11.207 676.664 11.7018 675.739 12.6914C674.815 13.681 674.3 15.0352 674.196 16.7539H682.985ZM702.107 23.1992C702.107 25.1654 701.43 26.7083 700.076 27.8281C698.722 28.9349 696.853 29.4883 694.47 29.4883C693.246 29.4883 692.114 29.3581 691.072 29.0977C690.043 28.8503 689.327 28.6419 688.923 28.4727V23.1602H690.955L691.443 26.5586C691.847 26.819 692.341 27.0729 692.927 27.3203C693.526 27.5547 694.216 27.6719 694.998 27.6719C696.144 27.6719 697.029 27.3529 697.654 26.7148C698.279 26.0768 698.591 25.3607 698.591 24.5664C698.591 23.5117 698.214 22.7174 697.459 22.1836C696.703 21.6367 695.629 21.0312 694.236 20.3672L693.709 20.1133C692.25 19.4232 691.13 18.707 690.349 17.9648C689.581 17.2096 689.197 16.2331 689.197 15.0352C689.197 13.2513 689.822 11.8385 691.072 10.7969C692.322 9.75521 694.099 9.23438 696.404 9.23438C697.576 9.23438 698.617 9.34505 699.529 9.56641C700.453 9.77474 701.117 9.97005 701.521 10.1523V14.8789H699.431L699.119 12.0859C698.832 11.8646 698.409 11.6562 697.849 11.4609C697.289 11.2656 696.697 11.168 696.072 11.168C694.978 11.168 694.164 11.4219 693.63 11.9297C693.097 12.4245 692.83 13.0625 692.83 13.8438C692.83 14.7422 693.149 15.4583 693.787 15.9922C694.438 16.513 695.61 17.1576 697.302 17.9258C698.696 18.5638 699.841 19.2799 700.74 20.0742C701.651 20.8555 702.107 21.8971 702.107 23.1992ZM716.014 26.5586V28.1602C716.014 28.1602 715.76 28.2708 715.252 28.4922C714.758 28.7135 714.1 28.9349 713.28 29.1562C712.472 29.3776 711.587 29.4883 710.623 29.4883C709.126 29.4883 708.032 29.1367 707.342 28.4336C706.665 27.7174 706.327 26.5716 706.327 24.9961V11.7148H703.768V10.4062L706.502 9.11719L708.299 4.87891H710.057V9.72266H715.702V11.7148H710.057V22.8867C710.057 24.4753 710.324 25.6016 710.858 26.2656C711.392 26.9167 712.192 27.2422 713.26 27.2422C714.041 27.2422 714.692 27.1315 715.213 26.9102C715.747 26.6758 716.014 26.5586 716.014 26.5586ZM724.198 3.12109C724.198 3.79818 723.964 4.38411 723.495 4.87891C723.027 5.36068 722.454 5.60156 721.777 5.60156C721.099 5.60156 720.514 5.36068 720.019 4.87891C719.537 4.38411 719.296 3.79818 719.296 3.12109C719.296 2.43099 719.537 1.85156 720.019 1.38281C720.514 0.914062 721.099 0.679688 721.777 0.679688C722.454 0.679688 723.027 0.914062 723.495 1.38281C723.964 1.85156 724.198 2.43099 724.198 3.12109ZM726.249 29H716.855V27.4375L718.808 27.3203C719.368 27.2812 719.648 26.9883 719.648 26.4414V12.1641H716.894V10.7578L721.777 9.23438H723.359V26.4414C723.359 26.6888 723.437 26.8906 723.593 27.0469C723.762 27.2031 723.964 27.2943 724.198 27.3203L726.249 27.4375V29ZM747.148 12.3984H743.164C743.464 12.8802 743.717 13.4076 743.926 13.9805C744.134 14.5534 744.238 15.224 744.238 15.9922C744.238 17.3203 743.874 18.4596 743.145 19.4102C742.415 20.3477 741.452 21.0703 740.254 21.5781C739.069 22.0859 737.78 22.3398 736.387 22.3398C736.257 22.3398 736.126 22.3398 735.996 22.3398C735.866 22.3398 735.736 22.3333 735.605 22.3203C735.436 22.5938 735.319 22.8867 735.254 23.1992C735.202 23.5117 735.176 23.8047 735.176 24.0781C735.176 24.3255 735.189 24.5339 735.215 24.7031C735.241 24.8724 735.26 24.9701 735.273 24.9961L735.84 25.0547C736.777 25.1458 737.826 25.276 738.984 25.4453C740.156 25.6146 741.283 25.888 742.363 26.2656C743.457 26.6432 744.355 27.1771 745.059 27.8672C745.762 28.5573 746.113 29.4688 746.113 30.6016C746.113 31.8646 745.651 33.069 744.727 34.2148C743.802 35.3737 742.552 36.3177 740.977 37.0469C739.414 37.7891 737.663 38.1602 735.723 38.1602C733.34 38.1602 731.491 37.6133 730.176 36.5195C728.861 35.4388 728.203 34.0911 728.203 32.4766C728.203 31.3177 728.548 30.2826 729.238 29.3711C729.928 28.4727 730.996 27.8932 732.441 27.6328C732.298 27.2161 732.194 26.9167 732.129 26.7344C732.064 26.5521 732.031 26.2396 732.031 25.7969C732.031 25.276 732.188 24.7031 732.5 24.0781C732.826 23.4401 733.34 22.763 734.043 22.0469C732.715 21.7474 731.556 21.0768 730.566 20.0352C729.577 18.9805 729.082 17.6458 729.082 16.0312C729.082 13.9349 729.818 12.2812 731.289 11.0703C732.773 9.84635 734.714 9.23438 737.109 9.23438C738.06 9.23438 738.939 9.3776 739.746 9.66406C740.566 9.9375 741.237 10.1979 741.758 10.4453H747.148V12.3984ZM740.43 15.7578C740.43 14.9115 740.286 14.1172 740 13.375C739.714 12.6328 739.297 12.0339 738.75 11.5781C738.203 11.1094 737.526 10.875 736.719 10.875C735.599 10.875 734.681 11.3112 733.965 12.1836C733.262 13.043 732.91 14.2474 732.91 15.7969C732.91 17.138 733.229 18.2904 733.867 19.2539C734.505 20.2044 735.456 20.6797 736.719 20.6797C737.917 20.6797 738.835 20.1979 739.473 19.2344C740.111 18.2708 740.43 17.112 740.43 15.7578ZM742.676 31.6758C742.676 30.8424 742.383 30.1979 741.797 29.7422C741.224 29.2865 740.508 28.9479 739.648 28.7266C738.789 28.5052 737.923 28.349 737.051 28.2578C736.178 28.1536 735.443 28.043 734.844 27.9258C733.685 28.3424 732.884 28.9089 732.441 29.625C732.012 30.3411 731.797 31.0247 731.797 31.6758C731.797 32.3138 731.979 32.9909 732.344 33.707C732.721 34.4362 733.294 35.0547 734.062 35.5625C734.844 36.0703 735.833 36.3242 737.031 36.3242C738.307 36.3242 739.362 36.0703 740.195 35.5625C741.029 35.0547 741.647 34.4362 742.051 33.707C742.467 32.9909 742.676 32.3138 742.676 31.6758ZM766.739 29H760.821L760.294 26.6367C760.294 26.6367 760.092 26.7799 759.688 27.0664C759.298 27.3529 758.777 27.6849 758.126 28.0625C757.475 28.4401 756.752 28.7721 755.958 29.0586C755.177 29.3451 754.395 29.4883 753.614 29.4883C752.169 29.4883 750.938 29.0065 749.923 28.043C748.92 27.0794 748.419 25.7578 748.419 24.0781C748.419 23.3359 748.549 22.6458 748.809 22.0078C749.083 21.3698 749.617 20.7643 750.411 20.1914C751.218 19.6055 752.41 19.0391 753.985 18.4922C755.574 17.9323 757.677 17.3659 760.294 16.793V15.0742C760.294 12.444 759.05 11.1289 756.563 11.1289C755.873 11.1289 755.274 11.194 754.766 11.3242C754.272 11.4544 753.927 11.5586 753.731 11.6367V15.1133H750.821C750.457 15.1133 750.118 15.0482 749.805 14.918C749.493 14.7747 749.337 14.4557 749.337 13.9609C749.337 12.8672 749.753 11.9753 750.587 11.2852C751.42 10.582 752.475 10.0677 753.751 9.74219C755.04 9.40365 756.342 9.23438 757.657 9.23438C759.311 9.23438 760.593 9.49479 761.505 10.0156C762.416 10.5234 763.054 11.2331 763.419 12.1445C763.783 13.043 763.966 14.0716 763.966 15.2305V26.4414C763.966 26.6888 764.044 26.8906 764.2 27.0469C764.369 27.2031 764.571 27.2943 764.805 27.3203L766.739 27.4375V29ZM760.294 25.2305V18.3164C758.497 18.7591 757.065 19.2083 755.997 19.6641C754.942 20.1068 754.154 20.556 753.634 21.0117C753.113 21.4544 752.768 21.9102 752.598 22.3789C752.442 22.8346 752.364 23.3099 752.364 23.8047C752.364 24.625 752.624 25.3867 753.145 26.0898C753.679 26.7799 754.421 27.125 755.372 27.125C755.906 27.125 756.459 27.0339 757.032 26.8516C757.605 26.6562 758.139 26.4349 758.634 26.1875C759.128 25.9271 759.526 25.7057 759.825 25.5234C760.138 25.3281 760.294 25.2305 760.294 25.2305ZM779.923 26.5586V28.1602C779.923 28.1602 779.67 28.2708 779.162 28.4922C778.667 28.7135 778.009 28.9349 777.189 29.1562C776.382 29.3776 775.496 29.4883 774.533 29.4883C773.035 29.4883 771.942 29.1367 771.252 28.4336C770.575 27.7174 770.236 26.5716 770.236 24.9961V11.7148H767.677V10.4062L770.412 9.11719L772.209 4.87891H773.966V9.72266H779.611V11.7148H773.966V22.8867C773.966 24.4753 774.233 25.6016 774.767 26.2656C775.301 26.9167 776.102 27.2422 777.17 27.2422C777.951 27.2422 778.602 27.1315 779.123 26.9102C779.657 26.6758 779.923 26.5586 779.923 26.5586ZM788.108 3.12109C788.108 3.79818 787.873 4.38411 787.405 4.87891C786.936 5.36068 786.363 5.60156 785.686 5.60156C785.009 5.60156 784.423 5.36068 783.928 4.87891C783.446 4.38411 783.205 3.79818 783.205 3.12109C783.205 2.43099 783.446 1.85156 783.928 1.38281C784.423 0.914062 785.009 0.679688 785.686 0.679688C786.363 0.679688 786.936 0.914062 787.405 1.38281C787.873 1.85156 788.108 2.43099 788.108 3.12109ZM790.159 29H780.764V27.4375L782.717 27.3203C783.277 27.2812 783.557 26.9883 783.557 26.4414V12.1641H780.803V10.7578L785.686 9.23438H787.268V26.4414C787.268 26.6888 787.346 26.8906 787.502 27.0469C787.672 27.2031 787.873 27.2943 788.108 27.3203L790.159 27.4375V29ZM811.136 19.3906C811.136 21.2786 810.745 22.9909 809.964 24.5273C809.183 26.0508 808.076 27.2617 806.644 28.1602C805.224 29.0456 803.538 29.4883 801.585 29.4883C799.645 29.4883 797.965 29.0456 796.546 28.1602C795.127 27.2747 794.033 26.0703 793.265 24.5469C792.497 23.0234 792.112 21.3047 792.112 19.3906C792.112 17.4896 792.497 15.7708 793.265 14.2344C794.046 12.6979 795.153 11.4805 796.585 10.582C798.03 9.68359 799.736 9.23438 801.702 9.23438C803.695 9.23438 805.394 9.6901 806.8 10.6016C808.206 11.513 809.28 12.737 810.023 14.2734C810.765 15.8099 811.136 17.5156 811.136 19.3906ZM806.976 19.3516C806.976 17.8932 806.78 16.5326 806.39 15.2695C806.012 14.0065 805.426 12.9844 804.632 12.2031C803.851 11.4219 802.861 11.0312 801.663 11.0312C800.426 11.0312 799.411 11.4219 798.616 12.2031C797.835 12.9844 797.256 14.0065 796.878 15.2695C796.501 16.5326 796.312 17.8932 796.312 19.3516C796.312 20.7969 796.501 22.1576 796.878 23.4336C797.269 24.6966 797.855 25.7188 798.636 26.5C799.43 27.2812 800.426 27.6719 801.624 27.6719C802.848 27.6719 803.851 27.2812 804.632 26.5C805.426 25.7188 806.012 24.6966 806.39 23.4336C806.78 22.1706 806.976 20.8099 806.976 19.3516ZM833.578 29H824.75V27.4375L826.43 27.3203C826.664 27.2943 826.859 27.2031 827.016 27.0469C827.185 26.8906 827.27 26.6888 827.27 26.4414V16.0312C827.27 14.7682 826.977 13.8112 826.391 13.1602C825.805 12.4961 824.815 12.1641 823.422 12.1641C822.667 12.1641 821.911 12.2747 821.156 12.4961C820.414 12.7044 819.704 12.9779 819.027 13.3164V26.4414C819.027 26.9883 819.307 27.2812 819.867 27.3203L821.547 27.4375V29H812.504V27.4375L814.457 27.3203C815.017 27.2812 815.297 26.9883 815.297 26.4414V12.5547H812.504V11.2461L817.387 9.72266H819.027V11.7148C820.147 11.0768 821.293 10.5039 822.465 9.99609C823.65 9.48828 824.704 9.23438 825.629 9.23438C827.374 9.23438 828.702 9.78125 829.613 10.875C830.525 11.9557 830.98 13.4661 830.98 15.4062V26.4414C830.98 26.6888 831.059 26.8906 831.215 27.0469C831.384 27.2031 831.586 27.2943 831.82 27.3203L833.578 27.4375V29Z" fill="url(#paint0_linear_97_26613)"/>
</g>
<defs>
<filter id="filter0_ddddi_97_26613" x="0.597656" y="0.679688" width="836.98" height="45.4805" filterUnits="userSpaceOnUse" color-interpolation-filters="sRGB">
<feFlood flood-opacity="0" result="BackgroundImageFix"/>
<feColorMatrix in="SourceAlpha" type="matrix" values="0 0 0 0 0 0 0 0 0 0 0 0 0 0 0 0 0 0 127 0" result="hardAlpha"/>
<feOffset dy="4"/>
<feGaussianBlur stdDeviation="2"/>
<feComposite in2="hardAlpha" operator="out"/>
<feColorMatrix type="matrix" values="0 0 0 0 0 0 0 0 0 0 0 0 0 0 0 0 0 0 0.25 0"/>
<feBlend mode="normal" in2="BackgroundImageFix" result="effect1_dropShadow_97_26613"/>
<feColorMatrix in="SourceAlpha" type="matrix" values="0 0 0 0 0 0 0 0 0 0 0 0 0 0 0 0 0 0 127 0" result="hardAlpha"/>
<feOffset dy="4"/>
<feGaussianBlur stdDeviation="2"/>
<feComposite in2="hardAlpha" operator="out"/>
<feColorMatrix type="matrix" values="0 0 0 0 0 0 0 0 0 0 0 0 0 0 0 0 0 0 0.25 0"/>
<feBlend mode="normal" in2="effect1_dropShadow_97_26613" result="effect2_dropShadow_97_26613"/>
<feColorMatrix in="SourceAlpha" type="matrix" values="0 0 0 0 0 0 0 0 0 0 0 0 0 0 0 0 0 0 127 0" result="hardAlpha"/>
<feOffset dy="4"/>
<feGaussianBlur stdDeviation="2"/>
<feComposite in2="hardAlpha" operator="out"/>
<feColorMatrix type="matrix" values="0 0 0 0 0 0 0 0 0 0 0 0 0 0 0 0 0 0 0.25 0"/>
<feBlend mode="normal" in2="effect2_dropShadow_97_26613" result="effect3_dropShadow_97_26613"/>
<feColorMatrix in="SourceAlpha" type="matrix" values="0 0 0 0 0 0 0 0 0 0 0 0 0 0 0 0 0 0 127 0" result="hardAlpha"/>
<feOffset dy="4"/>
<feGaussianBlur stdDeviation="2"/>
<feComposite in2="hardAlpha" operator="out"/>
<feColorMatrix type="matrix" values="0 0 0 0 0 0 0 0 0 0 0 0 0 0 0 0 0 0 0.25 0"/>
<feBlend mode="normal" in2="effect3_dropShadow_97_26613" result="effect4_dropShadow_97_26613"/>
<feBlend mode="normal" in="SourceGraphic" in2="effect4_dropShadow_97_26613" result="shape"/>
<feColorMatrix in="SourceAlpha" type="matrix" values="0 0 0 0 0 0 0 0 0 0 0 0 0 0 0 0 0 0 127 0" result="hardAlpha"/>
<feOffset dy="0.5"/>
<feGaussianBlur stdDeviation="0.25"/>
<feComposite in2="hardAlpha" operator="arithmetic" k2="-1" k3="1"/>
<feColorMatrix type="matrix" values="0 0 0 0 1 0 0 0 0 1 0 0 0 0 1 0 0 0 0.5 0"/>
<feBlend mode="screen" in2="shape" result="effect5_innerShadow_97_26613"/>
</filter>
<linearGradient id="paint0_linear_97_26613" x1="419" y1="4" x2="419" y2="36" gradientUnits="userSpaceOnUse">
<stop stop-color="#9F7D33"/>
<stop offset="1" stop-color="#FFFDD1"/>
</linearGradient>
</defs>
</svg>
