<svg width="139" height="34" viewBox="0 0 139 34" fill="none" xmlns="http://www.w3.org/2000/svg">
<g clip-path="url(#clip0_176_13000)">
<path fill-rule="evenodd" clip-rule="evenodd" d="M6.09351 2H121L136 17L121 32H6.09351C9.75782 28.0702 11.9999 22.797 11.9999 17C11.9999 11.203 9.75782 5.92975 6.09351 2Z" fill="#1E2328" fill-opacity="0.95"/>
<path d="M121 2L122.414 0.585786L121.828 0H121V2ZM6.09351 2V0H1.49403L4.63075 3.36395L6.09351 2ZM136 17L137.414 18.4142L138.828 17L137.414 15.5858L136 17ZM121 32V34H121.828L122.414 33.4142L121 32ZM6.09351 32L4.63075 30.6361L1.49403 34H6.09351V32ZM121 0H6.09351V4H121V0ZM137.414 15.5858L122.414 0.585786L119.586 3.41421L134.586 18.4142L137.414 15.5858ZM134.586 15.5858L119.586 30.5858L122.414 33.4142L137.414 18.4142L134.586 15.5858ZM6.09351 34H121V30H6.09351V34ZM9.99991 17C9.99991 22.271 7.9635 27.0619 4.63075 30.6361L7.55626 33.3639C11.5521 29.0786 13.9999 23.3229 13.9999 17H9.99991ZM4.63075 3.36395C7.9635 6.93811 9.99991 11.729 9.99991 17H13.9999C13.9999 10.6771 11.5521 4.92139 7.55626 0.636051L4.63075 3.36395Z" fill="black" fill-opacity="0.5"/>
<path d="M122 2L123.414 0.585786L122.828 0H122V2ZM6.09351 2V0H1.49403L4.63075 3.36395L6.09351 2ZM137 17L138.414 18.4142L139.828 17L138.414 15.5858L137 17ZM122 32V34H122.828L123.414 33.4142L122 32ZM6.09351 32L4.63075 30.6361L1.49403 34H6.09351V32ZM122 0H6.09351V4H122V0ZM138.414 15.5858L123.414 0.585786L120.586 3.41421L135.586 18.4142L138.414 15.5858ZM135.586 15.5858L120.586 30.5858L123.414 33.4142L138.414 18.4142L135.586 15.5858ZM6.09351 34H122V30H6.09351V34ZM9.99991 17C9.99991 22.271 7.9635 27.0619 4.63075 30.6361L7.55626 33.3639C11.5521 29.0786 13.9999 23.3229 13.9999 17H9.99991ZM4.63075 3.36395C7.9635 6.93811 9.99991 11.729 9.99991 17H13.9999C13.9999 10.6771 11.5521 4.92139 7.55626 0.636051L4.63075 3.36395Z" fill="black" fill-opacity="0.5"/>
<path d="M122 2L122.707 1.29289L122.414 1H122V2ZM6.09351 2V1H3.79377L5.36213 2.68197L6.09351 2ZM137 17L137.707 17.7071L138.414 17L137.707 16.2929L137 17ZM122 32V33H122.414L122.707 32.7071L122 32ZM6.09351 32L5.36213 31.318L3.79377 33H6.09351V32ZM122 1H6.09351V3H122V1ZM137.707 16.2929L122.707 1.29289L121.293 2.70711L136.293 17.7071L137.707 16.2929ZM136.293 16.2929L121.293 31.2929L122.707 32.7071L137.707 17.7071L136.293 16.2929ZM6.09351 33H122V31H6.09351V33ZM10.9999 17C10.9999 22.534 8.86066 27.5661 5.36213 31.318L6.82488 32.682C10.655 28.5744 12.9999 23.0599 12.9999 17H10.9999ZM5.36213 2.68197C8.86066 6.43393 10.9999 11.466 10.9999 17H12.9999C12.9999 10.9401 10.655 5.42557 6.82488 1.31803L5.36213 2.68197Z" fill="url(#paint0_linear_176_13000)"/>
<g filter="url(#filter0_dd_176_13000)">
<path d="M122 2L122.707 1.29289L122.414 1H122V2ZM6.09351 2V1H3.79377L5.36213 2.68197L6.09351 2ZM137 17L137.707 17.7071L138.414 17L137.707 16.2929L137 17ZM122 32V33H122.414L122.707 32.7071L122 32ZM6.09351 32L5.36213 31.318L3.79377 33H6.09351V32ZM122 1H6.09351V3H122V1ZM137.707 16.2929L122.707 1.29289L121.293 2.70711L136.293 17.7071L137.707 16.2929ZM136.293 16.2929L121.293 31.2929L122.707 32.7071L137.707 17.7071L136.293 16.2929ZM6.09351 33H122V31H6.09351V33ZM10.9999 17C10.9999 22.534 8.86066 27.5661 5.36213 31.318L6.82488 32.682C10.655 28.5744 12.9999 23.0599 12.9999 17H10.9999ZM5.36213 2.68197C8.86066 6.43393 10.9999 11.466 10.9999 17H12.9999C12.9999 10.9401 10.655 5.42557 6.82488 1.31803L5.36213 2.68197Z" fill="url(#paint1_linear_176_13000)"/>
</g>
</g>
<defs>
<filter id="filter0_dd_176_13000" x="-2.20618" y="-7" width="146.62" height="46" filterUnits="userSpaceOnUse" color-interpolation-filters="sRGB">
<feFlood flood-opacity="0" result="BackgroundImageFix"/>
<feColorMatrix in="SourceAlpha" type="matrix" values="0 0 0 0 0 0 0 0 0 0 0 0 0 0 0 0 0 0 127 0" result="hardAlpha"/>
<feOffset/>
<feGaussianBlur stdDeviation="3"/>
<feColorMatrix type="matrix" values="0 0 0 0 0 0 0 0 0 0.796078 0 0 0 0 1 0 0 0 0.3 0"/>
<feBlend mode="normal" in2="BackgroundImageFix" result="effect1_dropShadow_176_13000"/>
<feColorMatrix in="SourceAlpha" type="matrix" values="0 0 0 0 0 0 0 0 0 0 0 0 0 0 0 0 0 0 127 0" result="hardAlpha"/>
<feOffset dy="-2"/>
<feGaussianBlur stdDeviation="3"/>
<feColorMatrix type="matrix" values="0 0 0 0 0 0 0 0 0 0.796875 0 0 0 0 1 0 0 0 0.6 0"/>
<feBlend mode="normal" in2="effect1_dropShadow_176_13000" result="effect2_dropShadow_176_13000"/>
<feBlend mode="normal" in="SourceGraphic" in2="effect2_dropShadow_176_13000" result="shape"/>
</filter>
<linearGradient id="paint0_linear_176_13000" x1="77.0008" y1="1" x2="77.0008" y2="33" gradientUnits="userSpaceOnUse">
<stop stop-color="#0593A7"/>
<stop offset="1" stop-color="#026F8F"/>
</linearGradient>
<linearGradient id="paint1_linear_176_13000" x1="70.9505" y1="2" x2="70.9505" y2="32" gradientUnits="userSpaceOnUse">
<stop stop-color="#91E1DC"/>
<stop offset="0.505208" stop-color="#0C9CA1"/>
<stop offset="1" stop-color="#1F9EBD"/>
</linearGradient>
<clipPath id="clip0_176_13000">
<rect width="139" height="34" fill="white"/>
</clipPath>
</defs>
</svg>
