<svg width="101" height="114" viewBox="0 0 101 114" fill="none" xmlns="http://www.w3.org/2000/svg">
<path fill-rule="evenodd" clip-rule="evenodd" d="M97 8.08789H100H101V9.08789V104.088V105.088H100H97.0001L97 105.088L95.5 106.588H6.25L4.75 105.088L4.74986 105.088H1H0V104.088V9.08789V8.08789H1H4.75L6.25 6.58789H95.5L97 8.08789ZM5.45711 8.08789H96.2929L95.2929 7.08789H6.45711L5.45711 8.08789ZM5.45711 105.088H14V104.088H1V9.08789H100V104.088H88V105.088H96.2929L95.2929 106.088H6.45711L5.45711 105.088Z" fill="#E4C68A"/>
<rect x="14" y="97.0879" width="74" height="15" fill="#021320" stroke="#021320" stroke-opacity="0.5" stroke-width="2"/>
<rect x="14" y="97.0879" width="74" height="15" stroke="url(#paint0_linear_490_13881)"/>
<g filter="url(#filter0_i_490_13881)">
<path d="M35.7219 107.088H33.8195V106.744L34.2805 106.705C34.3013 106.705 34.3208 106.692 34.3391 106.666C34.3573 106.637 34.3664 106.611 34.3664 106.588C34.3664 106.577 34.3651 106.571 34.3625 106.568L33.8117 105.104H31.9641L31.4328 106.545C31.4302 106.55 31.4289 106.558 31.4289 106.568C31.4289 106.6 31.4419 106.631 31.468 106.662C31.4966 106.691 31.5227 106.705 31.5461 106.705L32.0187 106.744V107.088H30.4094V106.744L30.8742 106.646L32.7375 101.592H33.3391L35.1945 106.529C35.2154 106.584 35.2336 106.62 35.2492 106.639C35.2648 106.657 35.3026 106.671 35.3625 106.682L35.7219 106.744V107.088ZM33.6672 104.721L32.882 102.623L32.1047 104.721H33.6672ZM37.3431 101.912C37.3431 102.048 37.2962 102.165 37.2025 102.264C37.1087 102.36 36.9942 102.408 36.8587 102.408C36.7233 102.408 36.6061 102.36 36.5072 102.264C36.4108 102.165 36.3627 102.048 36.3627 101.912C36.3627 101.774 36.4108 101.658 36.5072 101.564C36.6061 101.471 36.7233 101.424 36.8587 101.424C36.9942 101.424 37.1087 101.471 37.2025 101.564C37.2962 101.658 37.3431 101.774 37.3431 101.912ZM37.7533 107.088H35.8744V106.775L36.265 106.752C36.377 106.744 36.433 106.686 36.433 106.576V103.721H35.8822V103.439L36.8587 103.135H37.1752V106.576C37.1752 106.626 37.1908 106.666 37.222 106.697C37.2559 106.729 37.2962 106.747 37.3431 106.752L37.7533 106.775V107.088ZM40.9175 104.049H40.605C40.5555 103.989 40.4956 103.938 40.4253 103.896C40.3576 103.852 40.2743 103.83 40.1753 103.83C40.0477 103.83 39.9162 103.874 39.7808 103.963C39.648 104.051 39.5126 104.173 39.3745 104.326V106.576C39.3745 106.688 39.4305 106.747 39.5425 106.752L40.0698 106.775V107.088H38.0698V106.783L38.4644 106.752C38.5112 106.747 38.5503 106.729 38.5816 106.697C38.6154 106.666 38.6323 106.626 38.6323 106.576V103.799H38.0542V103.537L39.0464 103.232H39.3745V103.943C39.4527 103.857 39.5503 103.751 39.6675 103.623C39.7847 103.495 39.9097 103.382 40.0425 103.283C40.1753 103.184 40.3042 103.135 40.4292 103.135C40.5126 103.135 40.6024 103.148 40.6987 103.174C40.7951 103.2 40.868 103.227 40.9175 103.256V104.049ZM49.8866 104.408C49.8866 104.887 49.798 105.322 49.6209 105.713C49.4465 106.104 49.1939 106.426 48.8631 106.682C48.535 106.937 48.1392 107.102 47.6756 107.178C47.6808 107.477 47.7746 107.713 47.9569 107.885C48.1392 108.057 48.4139 108.143 48.7811 108.143C48.966 108.143 49.1261 108.131 49.2616 108.107C49.397 108.087 49.4881 108.071 49.535 108.061C49.5376 108.061 49.5402 108.059 49.5428 108.057C49.5454 108.057 49.548 108.057 49.5506 108.057V108.4C49.548 108.4 49.5454 108.4 49.5428 108.4C49.5402 108.403 49.5363 108.404 49.5311 108.404C49.4582 108.42 49.3123 108.446 49.0936 108.482C48.8748 108.519 48.6314 108.537 48.3631 108.537C47.8006 108.537 47.4022 108.416 47.1678 108.174C46.936 107.932 46.8202 107.605 46.8202 107.193C46.3957 107.131 46.0155 106.98 45.6795 106.74C45.3436 106.498 45.0793 106.179 44.8866 105.783C44.6939 105.387 44.5975 104.929 44.5975 104.408C44.5975 104.018 44.6587 103.652 44.7811 103.311C44.9061 102.969 45.0832 102.67 45.3123 102.412C45.5441 102.154 45.8215 101.954 46.1444 101.811C46.4673 101.665 46.8293 101.592 47.2303 101.592C47.772 101.592 48.2407 101.717 48.6366 101.967C49.035 102.217 49.3423 102.555 49.5584 102.982C49.7772 103.407 49.8866 103.882 49.8866 104.408ZM48.9412 104.408C48.9412 103.989 48.8801 103.6 48.7577 103.24C48.6379 102.881 48.453 102.592 48.203 102.373C47.953 102.152 47.6314 102.041 47.2381 102.041C46.8501 102.041 46.5298 102.149 46.2772 102.365C46.0246 102.579 45.8371 102.864 45.7147 103.221C45.5923 103.577 45.5311 103.968 45.5311 104.393C45.5311 104.809 45.5936 105.2 45.7186 105.564C45.8436 105.926 46.0324 106.219 46.285 106.443C46.5402 106.665 46.8579 106.775 47.2381 106.775C47.6235 106.775 47.9412 106.666 48.1912 106.447C48.4439 106.226 48.6314 105.936 48.7537 105.576C48.8787 105.214 48.9412 104.825 48.9412 104.408ZM54.4219 107.088H53.1523V106.631C53.0612 106.701 52.9453 106.779 52.8047 106.865C52.6641 106.951 52.513 107.025 52.3516 107.088C52.1901 107.153 52.0299 107.186 51.8711 107.186C51.5273 107.186 51.2565 107.083 51.0586 106.877C50.8633 106.669 50.7656 106.339 50.7656 105.889V103.721H50.207V103.447L51.1914 103.135H51.5117V105.736C51.5117 106.02 51.569 106.242 51.6836 106.4C51.8008 106.559 52.0013 106.639 52.2852 106.639C52.4492 106.639 52.6107 106.611 52.7695 106.557C52.9284 106.499 53.056 106.447 53.1523 106.4V103.721H52.5898V103.447L53.5664 103.135H53.8945V106.576C53.8945 106.626 53.9115 106.666 53.9453 106.697C53.9818 106.729 54.0234 106.747 54.0703 106.752L54.4219 106.775V107.088ZM58.3713 107.088H57.1877L57.0822 106.615C57.0822 106.615 57.0418 106.644 56.9611 106.701C56.883 106.758 56.7788 106.825 56.6486 106.9C56.5184 106.976 56.3739 107.042 56.215 107.1C56.0588 107.157 55.9025 107.186 55.7463 107.186C55.4572 107.186 55.2111 107.089 55.008 106.896C54.8074 106.704 54.7072 106.439 54.7072 106.104C54.7072 105.955 54.7332 105.817 54.7853 105.689C54.84 105.562 54.9468 105.441 55.1056 105.326C55.2671 105.209 55.5054 105.096 55.8205 104.986C56.1382 104.874 56.5588 104.761 57.0822 104.646V104.303C57.0822 103.777 56.8335 103.514 56.3361 103.514C56.1981 103.514 56.0783 103.527 55.9767 103.553C55.8778 103.579 55.8088 103.6 55.7697 103.615V104.311H55.1877C55.1147 104.311 55.047 104.298 54.9845 104.271C54.922 104.243 54.8908 104.179 54.8908 104.08C54.8908 103.861 54.9741 103.683 55.1408 103.545C55.3074 103.404 55.5184 103.301 55.7736 103.236C56.0314 103.169 56.2918 103.135 56.5548 103.135C56.8856 103.135 57.1421 103.187 57.3244 103.291C57.5067 103.393 57.6343 103.535 57.7072 103.717C57.7801 103.896 57.8166 104.102 57.8166 104.334V106.576C57.8166 106.626 57.8322 106.666 57.8634 106.697C57.8973 106.729 57.9377 106.747 57.9845 106.752L58.3713 106.775V107.088ZM57.0822 106.334V104.951C56.7228 105.04 56.4364 105.13 56.2228 105.221C56.0119 105.309 55.8543 105.399 55.7502 105.49C55.646 105.579 55.577 105.67 55.5431 105.764C55.5119 105.855 55.4963 105.95 55.4963 106.049C55.4963 106.213 55.5483 106.365 55.6525 106.506C55.7593 106.644 55.9077 106.713 56.0978 106.713C56.2046 106.713 56.3153 106.695 56.4298 106.658C56.5444 106.619 56.6512 106.575 56.7502 106.525C56.8491 106.473 56.9285 106.429 56.9884 106.393C57.0509 106.354 57.0822 106.334 57.0822 106.334ZM60.5042 107.088H58.5589V106.775L58.9847 106.752C59.0211 106.752 59.0589 106.732 59.098 106.693C59.1396 106.654 59.1605 106.618 59.1605 106.584V101.768H58.5511V101.502L59.5745 101.193H59.9027V106.584C59.9027 106.618 59.9222 106.654 59.9612 106.693C60.0003 106.732 60.0368 106.752 60.0706 106.752L60.5042 106.775V107.088ZM62.3012 101.912C62.3012 102.048 62.2544 102.165 62.1606 102.264C62.0669 102.36 61.9523 102.408 61.8169 102.408C61.6815 102.408 61.5643 102.36 61.4653 102.264C61.369 102.165 61.3208 102.048 61.3208 101.912C61.3208 101.774 61.369 101.658 61.4653 101.564C61.5643 101.471 61.6815 101.424 61.8169 101.424C61.9523 101.424 62.0669 101.471 62.1606 101.564C62.2544 101.658 62.3012 101.774 62.3012 101.912ZM62.7114 107.088H60.8325V106.775L61.2231 106.752C61.3351 106.744 61.3911 106.686 61.3911 106.576V103.721H60.8403V103.439L61.8169 103.135H62.1333V106.576C62.1333 106.626 62.1489 106.666 62.1802 106.697C62.214 106.729 62.2544 106.747 62.3012 106.752L62.7114 106.775V107.088ZM65.4928 106.6V106.92C65.4928 106.92 65.442 106.942 65.3405 106.986C65.2415 107.031 65.11 107.075 64.9459 107.119C64.7845 107.163 64.6074 107.186 64.4147 107.186C64.1152 107.186 63.8965 107.115 63.7584 106.975C63.623 106.831 63.5553 106.602 63.5553 106.287V103.631H63.0436V103.369L63.5905 103.111L63.9498 102.264H64.3014V103.232H65.4303V103.631H64.3014V105.865C64.3014 106.183 64.3548 106.408 64.4616 106.541C64.5683 106.671 64.7285 106.736 64.942 106.736C65.0983 106.736 65.2285 106.714 65.3327 106.67C65.4394 106.623 65.4928 106.6 65.4928 106.6ZM69.5477 103.545L69.1297 103.592L67.5945 107.334C67.5607 107.42 67.5073 107.542 67.4344 107.701C67.3641 107.863 67.2794 108.027 67.1805 108.193C67.0841 108.363 66.9799 108.503 66.868 108.615C66.7716 108.712 66.6648 108.786 66.5477 108.838C66.4331 108.893 66.3081 108.92 66.1727 108.92C65.9826 108.92 65.8367 108.873 65.7352 108.779C65.6362 108.688 65.5867 108.583 65.5867 108.463C65.5867 108.286 65.6727 108.126 65.8445 107.982L66.5945 108.326C66.6831 108.238 66.7716 108.118 66.8602 107.967C66.9487 107.816 67.0281 107.66 67.0984 107.498C67.1714 107.337 67.2273 107.197 67.2664 107.08L65.907 103.592L65.4656 103.545V103.232H67.2352V103.545L66.8523 103.568C66.7664 103.576 66.7234 103.619 66.7234 103.697C66.7234 103.718 66.726 103.734 66.7313 103.744L67.6609 106.104L68.6102 103.744C68.618 103.729 68.6219 103.712 68.6219 103.693C68.6219 103.615 68.5815 103.574 68.5008 103.568L68.1219 103.545V103.232H69.5477V103.545Z" fill="url(#paint1_linear_490_13881)"/>
</g>
<path d="M51 0L51.4223 1.07073C52.2354 3.13251 53.8675 4.76456 55.9293 5.57771L57 6L55.9293 6.42229C53.8675 7.23544 52.2354 8.86749 51.4223 10.9293L51 12L50.5777 10.9293C49.7646 8.86749 48.1325 7.23544 46.0707 6.42229L45 6L46.0707 5.57771C48.1325 4.76456 49.7646 3.13251 50.5777 1.07073L51 0Z" fill="#E3C17D"/>
<defs>
<filter id="filter0_i_490_13881" x="30.4094" y="101.193" width="39.1382" height="8.22656" filterUnits="userSpaceOnUse" color-interpolation-filters="sRGB">
<feFlood flood-opacity="0" result="BackgroundImageFix"/>
<feBlend mode="normal" in="SourceGraphic" in2="BackgroundImageFix" result="shape"/>
<feColorMatrix in="SourceAlpha" type="matrix" values="0 0 0 0 0 0 0 0 0 0 0 0 0 0 0 0 0 0 127 0" result="hardAlpha"/>
<feOffset dy="0.5"/>
<feGaussianBlur stdDeviation="0.25"/>
<feComposite in2="hardAlpha" operator="arithmetic" k2="-1" k3="1"/>
<feColorMatrix type="matrix" values="0 0 0 0 1 0 0 0 0 1 0 0 0 0 1 0 0 0 0.5 0"/>
<feBlend mode="screen" in2="shape" result="effect1_innerShadow_490_13881"/>
</filter>
<linearGradient id="paint0_linear_490_13881" x1="51" y1="97.0879" x2="51" y2="112.088" gradientUnits="userSpaceOnUse">
<stop stop-color="#E4C68A"/>
<stop offset="1" stop-color="#7A5C29"/>
</linearGradient>
<linearGradient id="paint1_linear_490_13881" x1="50" y1="92.0879" x2="50" y2="116.088" gradientUnits="userSpaceOnUse">
<stop stop-color="#9F7D33"/>
<stop offset="1" stop-color="#FFFDD1"/>
</linearGradient>
</defs>
</svg>
