<svg width="101" height="114" viewBox="0 0 101 114" fill="none" xmlns="http://www.w3.org/2000/svg">
<path fill-rule="evenodd" clip-rule="evenodd" d="M97 8.08789H100H101V9.08789V104.088V105.088H100H97.0001L97 105.088L95.5 106.588H6.25L4.75 105.088L4.74986 105.088H1H0V104.088V9.08789V8.08789H1H4.75L6.25 6.58789H95.5L97 8.08789ZM5.45711 8.08789H96.2929L95.2929 7.08789H6.45711L5.45711 8.08789ZM5.45711 105.088H14V104.088H1V9.08789H100V104.088H88V105.088H96.2929L95.2929 106.088H6.45711L5.45711 105.088Z" fill="#E4C68A"/>
<rect x="14" y="97.0879" width="74" height="15" fill="#021320" stroke="#021320" stroke-opacity="0.5" stroke-width="2"/>
<rect x="14" y="97.0879" width="74" height="15" stroke="url(#paint0_linear_490_13881)"/>
<g filter="url(#filter0_i_490_13881)">
<path d="M26.6923 104.842L26.2861 104.881C26.2288 104.883 26.1858 104.902 26.1572 104.936C26.1311 104.969 26.1181 105.007 26.1181 105.049V106.896C26.1181 106.896 26.0374 106.924 25.8759 106.979C25.7171 107.031 25.5101 107.083 25.2548 107.135C24.9996 107.189 24.7275 107.217 24.4384 107.217C23.9931 107.217 23.5973 107.14 23.2509 106.986C22.9046 106.833 22.6116 106.624 22.372 106.361C22.1351 106.096 21.9541 105.794 21.8291 105.455C21.7067 105.117 21.6455 104.762 21.6455 104.393C21.6455 103.833 21.7614 103.343 21.9931 102.924C22.2275 102.502 22.5608 102.175 22.9931 101.943C23.428 101.709 23.9436 101.592 24.54 101.592C24.8134 101.592 25.066 101.617 25.2978 101.666C25.5296 101.715 25.7561 101.77 25.9775 101.83L26.1103 101.865V103.158H25.6298L25.5009 102.439C25.4931 102.393 25.4736 102.354 25.4423 102.322C25.4111 102.288 25.3772 102.264 25.3408 102.248C25.3304 102.245 25.3147 102.239 25.2939 102.229C25.2132 102.192 25.1038 102.152 24.9658 102.107C24.8304 102.063 24.678 102.041 24.5088 102.041C24.1259 102.041 23.7874 102.131 23.4931 102.311C23.1989 102.488 22.9684 102.748 22.8017 103.092C22.6377 103.436 22.5556 103.856 22.5556 104.354C22.5556 105.122 22.7405 105.717 23.1103 106.139C23.4827 106.558 23.9814 106.768 24.6064 106.768C24.7835 106.768 24.9397 106.748 25.0752 106.709C25.2132 106.667 25.2913 106.646 25.3095 106.646V105.049C25.3095 105.007 25.2952 104.969 25.2666 104.936C25.2405 104.902 25.1989 104.883 25.1416 104.881L24.6064 104.842V104.494H26.6923V104.842ZM28.8956 107.088H26.9503V106.775L27.3761 106.752C27.4126 106.752 27.4503 106.732 27.4894 106.693C27.531 106.654 27.5519 106.618 27.5519 106.584V101.768H26.9425V101.502L27.9659 101.193H28.2941V106.584C28.2941 106.618 28.3136 106.654 28.3527 106.693C28.3917 106.732 28.4282 106.752 28.462 106.752L28.8956 106.775V107.088ZM33.0286 105.166C33.0286 105.544 32.9505 105.886 32.7942 106.193C32.638 106.498 32.4166 106.74 32.1302 106.92C31.8463 107.097 31.5091 107.186 31.1184 107.186C30.7304 107.186 30.3945 107.097 30.1106 106.92C29.8268 106.743 29.608 106.502 29.4544 106.197C29.3007 105.893 29.2239 105.549 29.2239 105.166C29.2239 104.786 29.3007 104.442 29.4544 104.135C29.6106 103.827 29.832 103.584 30.1184 103.404C30.4075 103.225 30.7486 103.135 31.1419 103.135C31.5403 103.135 31.8802 103.226 32.1614 103.408C32.4427 103.59 32.6575 103.835 32.8059 104.143C32.9544 104.45 33.0286 104.791 33.0286 105.166ZM32.1966 105.158C32.1966 104.867 32.1575 104.594 32.0794 104.342C32.0039 104.089 31.8867 103.885 31.7278 103.729C31.5716 103.572 31.3736 103.494 31.1341 103.494C30.8867 103.494 30.6835 103.572 30.5247 103.729C30.3684 103.885 30.2526 104.089 30.177 104.342C30.1015 104.594 30.0638 104.867 30.0638 105.158C30.0638 105.447 30.1015 105.719 30.177 105.975C30.2552 106.227 30.3723 106.432 30.5286 106.588C30.6874 106.744 30.8867 106.822 31.1263 106.822C31.371 106.822 31.5716 106.744 31.7278 106.588C31.8867 106.432 32.0039 106.227 32.0794 105.975C32.1575 105.722 32.1966 105.45 32.1966 105.158ZM37.31 104.975C37.31 105.376 37.2306 105.736 37.0717 106.057C36.9129 106.374 36.6642 106.626 36.3256 106.811C35.9871 106.995 35.5496 107.088 35.0131 107.088H33.8608V101.768H33.2553V101.502L34.2866 101.193H34.6069V103.432C34.698 103.387 34.8452 103.327 35.0483 103.252C35.254 103.174 35.4741 103.135 35.7084 103.135C36.06 103.135 36.3543 103.219 36.5913 103.389C36.8282 103.558 37.0066 103.783 37.1264 104.064C37.2488 104.343 37.31 104.646 37.31 104.975ZM36.4936 105.135C36.4936 104.63 36.3868 104.249 36.1733 103.994C35.9597 103.736 35.659 103.607 35.2709 103.607C35.1824 103.607 35.0691 103.622 34.9311 103.65C34.7957 103.679 34.6876 103.708 34.6069 103.736V106.705C34.6069 106.705 34.6524 106.706 34.7436 106.709C34.8373 106.712 34.922 106.713 34.9975 106.713C35.4715 106.713 35.8386 106.596 36.0991 106.361C36.3621 106.127 36.4936 105.718 36.4936 105.135ZM41.3648 107.088H40.1813L40.0758 106.615C40.0758 106.615 40.0354 106.644 39.9547 106.701C39.8766 106.758 39.7724 106.825 39.6422 106.9C39.512 106.976 39.3674 107.042 39.2086 107.1C39.0523 107.157 38.8961 107.186 38.7398 107.186C38.4508 107.186 38.2047 107.089 38.0016 106.896C37.801 106.704 37.7008 106.439 37.7008 106.104C37.7008 105.955 37.7268 105.817 37.7789 105.689C37.8336 105.562 37.9404 105.441 38.0992 105.326C38.2607 105.209 38.499 105.096 38.8141 104.986C39.1318 104.874 39.5523 104.761 40.0758 104.646V104.303C40.0758 103.777 39.8271 103.514 39.3297 103.514C39.1917 103.514 39.0719 103.527 38.9703 103.553C38.8714 103.579 38.8023 103.6 38.7633 103.615V104.311H38.1813C38.1083 104.311 38.0406 104.298 37.9781 104.271C37.9156 104.243 37.8844 104.179 37.8844 104.08C37.8844 103.861 37.9677 103.683 38.1344 103.545C38.301 103.404 38.512 103.301 38.7672 103.236C39.025 103.169 39.2854 103.135 39.5484 103.135C39.8792 103.135 40.1357 103.187 40.318 103.291C40.5003 103.393 40.6279 103.535 40.7008 103.717C40.7737 103.896 40.8102 104.102 40.8102 104.334V106.576C40.8102 106.626 40.8258 106.666 40.857 106.697C40.8909 106.729 40.9313 106.747 40.9781 106.752L41.3648 106.775V107.088ZM40.0758 106.334V104.951C39.7164 105.04 39.4299 105.13 39.2164 105.221C39.0055 105.309 38.8479 105.399 38.7438 105.49C38.6396 105.579 38.5706 105.67 38.5367 105.764C38.5055 105.855 38.4898 105.95 38.4898 106.049C38.4898 106.213 38.5419 106.365 38.6461 106.506C38.7529 106.644 38.9013 106.713 39.0914 106.713C39.1982 106.713 39.3089 106.695 39.4234 106.658C39.538 106.619 39.6448 106.575 39.7438 106.525C39.8427 106.473 39.9221 106.429 39.982 106.393C40.0445 106.354 40.0758 106.334 40.0758 106.334ZM43.4978 107.088H41.5525V106.775L41.9783 106.752C42.0147 106.752 42.0525 106.732 42.0916 106.693C42.1332 106.654 42.1541 106.618 42.1541 106.584V101.768H41.5447V101.502L42.5681 101.193H42.8963V106.584C42.8963 106.618 42.9158 106.654 42.9548 106.693C42.9939 106.732 43.0304 106.752 43.0642 106.752L43.4978 106.775V107.088ZM54.3614 102.064L53.8731 102.158L52.6505 107.217H52.0645L50.7286 102.783L49.42 107.217H48.8419L47.5372 102.158L47.0723 102.064V101.721H48.9044V102.064L48.4278 102.111C48.3679 102.119 48.338 102.158 48.338 102.229C48.338 102.236 48.3406 102.251 48.3458 102.271L49.2989 105.881L50.5528 101.721H51.17L52.4591 106.01L53.3458 102.271C53.3484 102.266 53.3497 102.257 53.3497 102.244C53.3497 102.163 53.3106 102.119 53.2325 102.111L52.7286 102.064V101.721H54.3614V102.064ZM58.2248 107.088H57.0413L56.9358 106.615C56.9358 106.615 56.8954 106.644 56.8147 106.701C56.7366 106.758 56.6324 106.825 56.5022 106.9C56.372 106.976 56.2275 107.042 56.0686 107.1C55.9123 107.157 55.7561 107.186 55.5998 107.186C55.3108 107.186 55.0647 107.089 54.8616 106.896C54.661 106.704 54.5608 106.439 54.5608 106.104C54.5608 105.955 54.5868 105.817 54.6389 105.689C54.6936 105.562 54.8004 105.441 54.9592 105.326C55.1207 105.209 55.359 105.096 55.6741 104.986C55.9918 104.874 56.4123 104.761 56.9358 104.646V104.303C56.9358 103.777 56.6871 103.514 56.1897 103.514C56.0517 103.514 55.9319 103.527 55.8303 103.553C55.7314 103.579 55.6623 103.6 55.6233 103.615V104.311H55.0413C54.9683 104.311 54.9006 104.298 54.8381 104.271C54.7756 104.243 54.7444 104.179 54.7444 104.08C54.7444 103.861 54.8277 103.683 54.9944 103.545C55.161 103.404 55.372 103.301 55.6272 103.236C55.885 103.169 56.1454 103.135 56.4084 103.135C56.7392 103.135 56.9957 103.187 57.178 103.291C57.3603 103.393 57.4879 103.535 57.5608 103.717C57.6337 103.896 57.6702 104.102 57.6702 104.334V106.576C57.6702 106.626 57.6858 106.666 57.717 106.697C57.7509 106.729 57.7913 106.747 57.8381 106.752L58.2248 106.775V107.088ZM56.9358 106.334V104.951C56.5764 105.04 56.29 105.13 56.0764 105.221C55.8655 105.309 55.7079 105.399 55.6038 105.49C55.4996 105.579 55.4306 105.67 55.3967 105.764C55.3655 105.855 55.3498 105.95 55.3498 106.049C55.3498 106.213 55.4019 106.365 55.5061 106.506C55.6129 106.644 55.7613 106.713 55.9514 106.713C56.0582 106.713 56.1689 106.695 56.2834 106.658C56.398 106.619 56.5048 106.575 56.6038 106.525C56.7027 106.473 56.7821 106.429 56.842 106.393C56.9045 106.354 56.9358 106.334 56.9358 106.334ZM61.2445 104.049H60.932C60.8826 103.989 60.8227 103.938 60.7523 103.896C60.6846 103.852 60.6013 103.83 60.5023 103.83C60.3747 103.83 60.2432 103.874 60.1078 103.963C59.975 104.051 59.8396 104.173 59.7016 104.326V106.576C59.7016 106.688 59.7576 106.747 59.8695 106.752L60.3969 106.775V107.088H58.3969V106.783L58.7914 106.752C58.8383 106.747 58.8773 106.729 58.9086 106.697C58.9425 106.666 58.9594 106.626 58.9594 106.576V103.799H58.3813V103.537L59.3734 103.232H59.7016V103.943C59.7797 103.857 59.8773 103.751 59.9945 103.623C60.1117 103.495 60.2367 103.382 60.3695 103.283C60.5023 103.184 60.6313 103.135 60.7563 103.135C60.8396 103.135 60.9294 103.148 61.0258 103.174C61.1221 103.2 61.1951 103.227 61.2445 103.256V104.049ZM67.7955 107.088H66.0025V106.775L66.3384 106.752C66.4504 106.744 66.5064 106.686 66.5064 106.576V104.537C66.5064 104.29 66.4543 104.092 66.3502 103.943C66.2486 103.795 66.0637 103.721 65.7955 103.721C65.6627 103.721 65.5168 103.742 65.358 103.783C65.2017 103.825 65.0624 103.878 64.94 103.943V106.576C64.94 106.686 64.996 106.744 65.108 106.752L65.4439 106.775V107.088H63.69V106.775L64.0259 106.752C64.1379 106.744 64.1939 106.686 64.1939 106.576V104.486C64.1939 104.26 64.1405 104.076 64.0338 103.936C63.927 103.792 63.746 103.721 63.4908 103.721C63.3397 103.721 63.1822 103.747 63.0181 103.799C62.8541 103.848 62.7265 103.899 62.6353 103.951V106.576C62.6353 106.686 62.6913 106.744 62.8033 106.752L63.1392 106.775V107.088H61.3306V106.775L61.7213 106.752C61.8332 106.744 61.8892 106.686 61.8892 106.576V103.799H61.3384V103.537L62.3072 103.232H62.6353V103.631C62.7551 103.558 62.8892 103.484 63.0377 103.408C63.1887 103.333 63.3423 103.269 63.4986 103.217C63.6548 103.162 63.802 103.135 63.94 103.135C64.1718 103.135 64.3593 103.195 64.5025 103.314C64.6457 103.432 64.7512 103.557 64.8189 103.689C64.9257 103.622 65.0611 103.545 65.2252 103.459C65.3892 103.37 65.5585 103.295 65.733 103.232C65.9101 103.167 66.0689 103.135 66.2095 103.135C66.4908 103.135 66.7056 103.2 66.8541 103.33C67.0025 103.458 67.1041 103.617 67.1588 103.807C67.2134 103.994 67.2408 104.179 67.2408 104.361V106.576C67.2408 106.626 67.2564 106.666 67.2877 106.697C67.3215 106.729 67.3619 106.747 67.4088 106.752L67.7955 106.775V107.088ZM69.5573 101.912C69.5573 102.048 69.5105 102.165 69.4167 102.264C69.323 102.36 69.2084 102.408 69.073 102.408C68.9376 102.408 68.8204 102.36 68.7214 102.264C68.6251 102.165 68.5769 102.048 68.5769 101.912C68.5769 101.774 68.6251 101.658 68.7214 101.564C68.8204 101.471 68.9376 101.424 69.073 101.424C69.2084 101.424 69.323 101.471 69.4167 101.564C69.5105 101.658 69.5573 101.774 69.5573 101.912ZM69.9675 107.088H68.0886V106.775L68.4792 106.752C68.5912 106.744 68.6472 106.686 68.6472 106.576V103.721H68.0964V103.439L69.073 103.135H69.3894V106.576C69.3894 106.626 69.405 106.666 69.4363 106.697C69.4701 106.729 69.5105 106.747 69.5573 106.752L69.9675 106.775V107.088ZM74.4598 107.088H72.6942V106.775L73.0302 106.752C73.077 106.747 73.1161 106.729 73.1473 106.697C73.1812 106.666 73.1981 106.626 73.1981 106.576V104.494C73.1981 104.242 73.1395 104.05 73.0223 103.92C72.9052 103.787 72.7072 103.721 72.4286 103.721C72.2776 103.721 72.1265 103.743 71.9755 103.787C71.827 103.829 71.6851 103.883 71.5497 103.951V106.576C71.5497 106.686 71.6057 106.744 71.7177 106.752L72.0536 106.775V107.088H70.245V106.775L70.6356 106.752C70.7476 106.744 70.8036 106.686 70.8036 106.576V103.799H70.245V103.537L71.2216 103.232H71.5497V103.631C71.7736 103.503 72.0028 103.389 72.2372 103.287C72.4742 103.186 72.6851 103.135 72.87 103.135C73.219 103.135 73.4846 103.244 73.6669 103.463C73.8492 103.679 73.9403 103.981 73.9403 104.369V106.576C73.9403 106.626 73.9559 106.666 73.9872 106.697C74.021 106.729 74.0614 106.747 74.1083 106.752L74.4598 106.775V107.088ZM78.5264 103.768H77.7295C77.7894 103.864 77.8402 103.969 77.8819 104.084C77.9235 104.199 77.9444 104.333 77.9444 104.486C77.9444 104.752 77.8715 104.98 77.7256 105.17C77.5798 105.357 77.3871 105.502 77.1475 105.604C76.9105 105.705 76.6527 105.756 76.3741 105.756C76.348 105.756 76.322 105.756 76.2959 105.756C76.2699 105.756 76.2439 105.755 76.2178 105.752C76.184 105.807 76.1605 105.865 76.1475 105.928C76.1371 105.99 76.1319 106.049 76.1319 106.104C76.1319 106.153 76.1345 106.195 76.1397 106.229C76.1449 106.262 76.1488 106.282 76.1514 106.287L76.2647 106.299C76.4522 106.317 76.6618 106.343 76.8936 106.377C77.128 106.411 77.3532 106.465 77.5694 106.541C77.7881 106.617 77.9678 106.723 78.1084 106.861C78.2491 106.999 78.3194 107.182 78.3194 107.408C78.3194 107.661 78.2269 107.902 78.042 108.131C77.8571 108.363 77.6071 108.551 77.292 108.697C76.9795 108.846 76.6293 108.92 76.2412 108.92C75.7647 108.92 75.3949 108.811 75.1319 108.592C74.8689 108.376 74.7373 108.106 74.7373 107.783C74.7373 107.551 74.8064 107.344 74.9444 107.162C75.0824 106.982 75.2959 106.867 75.585 106.814C75.5564 106.731 75.5355 106.671 75.5225 106.635C75.5095 106.598 75.503 106.536 75.503 106.447C75.503 106.343 75.5342 106.229 75.5967 106.104C75.6618 105.976 75.7647 105.84 75.9053 105.697C75.6397 105.637 75.4079 105.503 75.21 105.295C75.0121 105.084 74.9131 104.817 74.9131 104.494C74.9131 104.075 75.0603 103.744 75.3545 103.502C75.6514 103.257 76.0394 103.135 76.5186 103.135C76.7087 103.135 76.8845 103.163 77.0459 103.221C77.21 103.275 77.3441 103.327 77.4483 103.377H78.5264V103.768ZM77.1827 104.439C77.1827 104.27 77.154 104.111 77.0967 103.963C77.0394 103.814 76.9561 103.695 76.8467 103.604C76.7373 103.51 76.6019 103.463 76.4405 103.463C76.2165 103.463 76.0329 103.55 75.8897 103.725C75.7491 103.896 75.6787 104.137 75.6787 104.447C75.6787 104.715 75.7426 104.946 75.8702 105.139C75.9978 105.329 76.1879 105.424 76.4405 105.424C76.6801 105.424 76.8636 105.327 76.9912 105.135C77.1189 104.942 77.1827 104.71 77.1827 104.439ZM77.6319 107.623C77.6319 107.456 77.5733 107.327 77.4561 107.236C77.3415 107.145 77.1983 107.077 77.0264 107.033C76.8545 106.989 76.6814 106.958 76.5069 106.939C76.3324 106.919 76.1853 106.896 76.0655 106.873C75.8337 106.956 75.6735 107.07 75.585 107.213C75.4991 107.356 75.4561 107.493 75.4561 107.623C75.4561 107.751 75.4926 107.886 75.5655 108.029C75.641 108.175 75.7556 108.299 75.9092 108.4C76.0655 108.502 76.2634 108.553 76.503 108.553C76.7582 108.553 76.9691 108.502 77.1358 108.4C77.3024 108.299 77.4261 108.175 77.5069 108.029C77.5902 107.886 77.6319 107.751 77.6319 107.623Z" fill="url(#paint1_linear_490_13881)"/>
</g>
<path d="M51 0L51.4223 1.07073C52.2354 3.13251 53.8675 4.76456 55.9293 5.57771L57 6L55.9293 6.42229C53.8675 7.23544 52.2354 8.86749 51.4223 10.9293L51 12L50.5777 10.9293C49.7646 8.86749 48.1325 7.23544 46.0707 6.42229L45 6L46.0707 5.57771C48.1325 4.76456 49.7646 3.13251 50.5777 1.07073L51 0Z" fill="#E3C17D"/>
<defs>
<filter id="filter0_i_490_13881" x="21.6455" y="101.193" width="56.8809" height="8.22656" filterUnits="userSpaceOnUse" color-interpolation-filters="sRGB">
<feFlood flood-opacity="0" result="BackgroundImageFix"/>
<feBlend mode="normal" in="SourceGraphic" in2="BackgroundImageFix" result="shape"/>
<feColorMatrix in="SourceAlpha" type="matrix" values="0 0 0 0 0 0 0 0 0 0 0 0 0 0 0 0 0 0 127 0" result="hardAlpha"/>
<feOffset dy="0.5"/>
<feGaussianBlur stdDeviation="0.25"/>
<feComposite in2="hardAlpha" operator="arithmetic" k2="-1" k3="1"/>
<feColorMatrix type="matrix" values="0 0 0 0 1 0 0 0 0 1 0 0 0 0 1 0 0 0 0.5 0"/>
<feBlend mode="screen" in2="shape" result="effect1_innerShadow_490_13881"/>
</filter>
<linearGradient id="paint0_linear_490_13881" x1="51" y1="97.0879" x2="51" y2="112.088" gradientUnits="userSpaceOnUse">
<stop stop-color="#E4C68A"/>
<stop offset="1" stop-color="#7A5C29"/>
</linearGradient>
<linearGradient id="paint1_linear_490_13881" x1="50" y1="92.0879" x2="50" y2="116.088" gradientUnits="userSpaceOnUse">
<stop stop-color="#9F7D33"/>
<stop offset="1" stop-color="#FFFDD1"/>
</linearGradient>
</defs>
</svg>
