<svg width="101" height="114" viewBox="0 0 101 114" fill="none" xmlns="http://www.w3.org/2000/svg">
<path fill-rule="evenodd" clip-rule="evenodd" d="M97 8.08789H100H101V9.08789V104.088V105.088H100H97.0001L97 105.088L95.5 106.588H6.25L4.75 105.088L4.74986 105.088H1H0V104.088V9.08789V8.08789H1H4.75L6.25 6.58789H95.5L97 8.08789ZM5.45711 8.08789H96.2929L95.2929 7.08789H6.45711L5.45711 8.08789ZM5.45711 105.088H14V104.088H1V9.08789H100V104.088H88V105.088H96.2929L95.2929 106.088H6.45711L5.45711 105.088Z" fill="#E4C68A"/>
<rect x="14" y="97.0879" width="74" height="15" fill="#021320" stroke="#021320" stroke-opacity="0.5" stroke-width="2"/>
<rect x="14" y="97.0879" width="74" height="15" stroke="url(#paint0_linear_490_13881)"/>
<g filter="url(#filter0_i_490_13881)">
<path d="M24.45 104.842L24.0438 104.881C23.9865 104.883 23.9435 104.902 23.9148 104.936C23.8888 104.969 23.8758 105.007 23.8758 105.049V106.896C23.8758 106.896 23.7951 106.924 23.6336 106.979C23.4747 107.031 23.2677 107.083 23.0125 107.135C22.7573 107.189 22.4852 107.217 22.1961 107.217C21.7508 107.217 21.3549 107.14 21.0086 106.986C20.6622 106.833 20.3693 106.624 20.1297 106.361C19.8927 106.096 19.7117 105.794 19.5867 105.455C19.4643 105.117 19.4031 104.762 19.4031 104.393C19.4031 103.833 19.519 103.343 19.7508 102.924C19.9852 102.502 20.3185 102.175 20.7508 101.943C21.1857 101.709 21.7013 101.592 22.2977 101.592C22.5711 101.592 22.8237 101.617 23.0555 101.666C23.2872 101.715 23.5138 101.77 23.7352 101.83L23.868 101.865V103.158H23.3875L23.2586 102.439C23.2508 102.393 23.2313 102.354 23.2 102.322C23.1688 102.288 23.1349 102.264 23.0984 102.248C23.088 102.245 23.0724 102.239 23.0516 102.229C22.9708 102.192 22.8615 102.152 22.7234 102.107C22.588 102.063 22.4357 102.041 22.2664 102.041C21.8836 102.041 21.5451 102.131 21.2508 102.311C20.9565 102.488 20.726 102.748 20.5594 103.092C20.3953 103.436 20.3133 103.856 20.3133 104.354C20.3133 105.122 20.4982 105.717 20.868 106.139C21.2404 106.558 21.7391 106.768 22.3641 106.768C22.5411 106.768 22.6974 106.748 22.8328 106.709C22.9708 106.667 23.049 106.646 23.0672 106.646V105.049C23.0672 105.007 23.0529 104.969 23.0242 104.936C22.9982 104.902 22.9565 104.883 22.8992 104.881L22.3641 104.842V104.494H24.45V104.842ZM27.54 104.049H27.2275C27.178 103.989 27.1181 103.938 27.0478 103.896C26.9801 103.852 26.8968 103.83 26.7978 103.83C26.6702 103.83 26.5387 103.874 26.4033 103.963C26.2705 104.051 26.1351 104.173 25.997 104.326V106.576C25.997 106.688 26.053 106.747 26.165 106.752L26.6923 106.775V107.088H24.6923V106.783L25.0869 106.752C25.1338 106.747 25.1728 106.729 25.2041 106.697C25.2379 106.666 25.2548 106.626 25.2548 106.576V103.799H24.6767V103.537L25.6689 103.232H25.997V103.943C26.0752 103.857 26.1728 103.751 26.29 103.623C26.4072 103.495 26.5322 103.382 26.665 103.283C26.7978 103.184 26.9267 103.135 27.0517 103.135C27.1351 103.135 27.2249 103.148 27.3213 103.174C27.4176 103.2 27.4905 103.227 27.54 103.256V104.049ZM31.1144 106.689C30.8904 106.827 30.6482 106.945 30.3878 107.041C30.13 107.137 29.8657 107.186 29.5948 107.186C29.2719 107.186 28.9685 107.114 28.6847 106.971C28.4034 106.825 28.1756 106.605 28.0011 106.311C27.8266 106.016 27.7394 105.646 27.7394 105.201C27.7394 104.785 27.8201 104.421 27.9816 104.111C28.143 103.801 28.3657 103.562 28.6495 103.393C28.9334 103.221 29.2563 103.135 29.6183 103.135C30.1157 103.135 30.4894 103.29 30.7394 103.6C30.9894 103.907 31.1144 104.299 31.1144 104.775C31.1144 104.801 31.1144 104.837 31.1144 104.881C31.1144 104.923 31.1118 104.962 31.1066 104.998H28.5128C28.5128 105.201 28.5336 105.404 28.5753 105.607C28.6196 105.808 28.6925 105.99 28.7941 106.154C28.8956 106.318 29.0323 106.45 29.2042 106.549C29.3761 106.648 29.5909 106.697 29.8488 106.697C30.0779 106.697 30.3006 106.645 30.5167 106.541C30.7355 106.434 30.9347 106.321 31.1144 106.201V106.689ZM30.3136 104.639V104.463C30.3136 104.2 30.2498 103.979 30.1222 103.799C29.9972 103.619 29.8019 103.529 29.5363 103.529C29.2732 103.529 29.0493 103.628 28.8644 103.826C28.6795 104.024 28.5766 104.295 28.5558 104.639H30.3136ZM34.8763 106.689C34.6523 106.827 34.4101 106.945 34.1497 107.041C33.8919 107.137 33.6276 107.186 33.3567 107.186C33.0338 107.186 32.7304 107.114 32.4466 106.971C32.1653 106.825 31.9374 106.605 31.763 106.311C31.5885 106.016 31.5013 105.646 31.5013 105.201C31.5013 104.785 31.582 104.421 31.7434 104.111C31.9049 103.801 32.1276 103.562 32.4114 103.393C32.6953 103.221 33.0182 103.135 33.3802 103.135C33.8776 103.135 34.2513 103.29 34.5013 103.6C34.7513 103.907 34.8763 104.299 34.8763 104.775C34.8763 104.801 34.8763 104.837 34.8763 104.881C34.8763 104.923 34.8736 104.962 34.8684 104.998H32.2747C32.2747 105.201 32.2955 105.404 32.3372 105.607C32.3815 105.808 32.4544 105.99 32.5559 106.154C32.6575 106.318 32.7942 106.45 32.9661 106.549C33.138 106.648 33.3528 106.697 33.6106 106.697C33.8398 106.697 34.0624 106.645 34.2786 106.541C34.4973 106.434 34.6966 106.321 34.8763 106.201V106.689ZM34.0755 104.639V104.463C34.0755 104.2 34.0117 103.979 33.8841 103.799C33.7591 103.619 33.5638 103.529 33.2981 103.529C33.0351 103.529 32.8111 103.628 32.6263 103.826C32.4414 104.024 32.3385 104.295 32.3177 104.639H34.0755ZM39.3647 107.088H37.5991V106.775L37.935 106.752C37.9819 106.747 38.0209 106.729 38.0522 106.697C38.086 106.666 38.103 106.626 38.103 106.576V104.494C38.103 104.242 38.0444 104.05 37.9272 103.92C37.81 103.787 37.6121 103.721 37.3334 103.721C37.1824 103.721 37.0314 103.743 36.8803 103.787C36.7319 103.829 36.5899 103.883 36.4545 103.951V106.576C36.4545 106.686 36.5105 106.744 36.6225 106.752L36.9584 106.775V107.088H35.1498V106.775L35.5405 106.752C35.6524 106.744 35.7084 106.686 35.7084 106.576V103.799H35.1498V103.537L36.1264 103.232H36.4545V103.631C36.6785 103.503 36.9077 103.389 37.142 103.287C37.379 103.186 37.5899 103.135 37.7748 103.135C38.1238 103.135 38.3894 103.244 38.5717 103.463C38.754 103.679 38.8452 103.981 38.8452 104.369V106.576C38.8452 106.626 38.8608 106.666 38.892 106.697C38.9259 106.729 38.9663 106.747 39.0131 106.752L39.3647 106.775V107.088ZM43.775 107.088H41.9938V106.775L42.3219 106.752C42.3688 106.747 42.4091 106.729 42.443 106.697C42.4794 106.666 42.4977 106.626 42.4977 106.576V104.514C42.4977 104.285 42.443 104.096 42.3336 103.947C42.2242 103.796 42.0146 103.721 41.7047 103.721C41.5641 103.721 41.4117 103.743 41.2477 103.787C41.0862 103.831 40.9482 103.886 40.8336 103.951V106.576C40.8336 106.686 40.887 106.744 40.9938 106.752L41.3375 106.775V107.088H39.5367V106.775L39.9195 106.752C40.0315 106.744 40.0875 106.686 40.0875 106.576V101.768H39.4898V101.502L40.5133 101.193H40.8336V103.631C40.9299 103.571 41.0549 103.503 41.2086 103.428C41.3622 103.35 41.5237 103.282 41.693 103.225C41.8622 103.165 42.0159 103.135 42.1539 103.135C42.4612 103.135 42.719 103.234 42.9273 103.432C43.1357 103.63 43.2398 103.934 43.2398 104.346V106.576C43.2398 106.626 43.2568 106.666 43.2906 106.697C43.3271 106.729 43.3688 106.747 43.4156 106.752L43.775 106.775V107.088ZM47.8806 105.166C47.8806 105.544 47.8025 105.886 47.6463 106.193C47.49 106.498 47.2686 106.74 46.9822 106.92C46.6983 107.097 46.3611 107.186 45.9705 107.186C45.5824 107.186 45.2465 107.097 44.9627 106.92C44.6788 106.743 44.4601 106.502 44.3064 106.197C44.1528 105.893 44.0759 105.549 44.0759 105.166C44.0759 104.786 44.1528 104.442 44.3064 104.135C44.4627 103.827 44.684 103.584 44.9705 103.404C45.2595 103.225 45.6007 103.135 45.9939 103.135C46.3923 103.135 46.7322 103.226 47.0134 103.408C47.2947 103.59 47.5095 103.835 47.658 104.143C47.8064 104.45 47.8806 104.791 47.8806 105.166ZM47.0486 105.158C47.0486 104.867 47.0095 104.594 46.9314 104.342C46.8559 104.089 46.7387 103.885 46.5798 103.729C46.4236 103.572 46.2257 103.494 45.9861 103.494C45.7387 103.494 45.5356 103.572 45.3767 103.729C45.2205 103.885 45.1046 104.089 45.0291 104.342C44.9535 104.594 44.9158 104.867 44.9158 105.158C44.9158 105.447 44.9535 105.719 45.0291 105.975C45.1072 106.227 45.2244 106.432 45.3806 106.588C45.5395 106.744 45.7387 106.822 45.9783 106.822C46.2231 106.822 46.4236 106.744 46.5798 106.588C46.7387 106.432 46.8559 106.227 46.9314 105.975C47.0095 105.722 47.0486 105.45 47.0486 105.158ZM52.3769 107.088H51.1073V106.631C51.0162 106.701 50.9003 106.779 50.7597 106.865C50.6191 106.951 50.468 107.025 50.3066 107.088C50.1451 107.153 49.9849 107.186 49.8261 107.186C49.4823 107.186 49.2115 107.083 49.0136 106.877C48.8183 106.669 48.7206 106.339 48.7206 105.889V103.721H48.162V103.447L49.1464 103.135H49.4667V105.736C49.4667 106.02 49.524 106.242 49.6386 106.4C49.7558 106.559 49.9563 106.639 50.2402 106.639C50.4042 106.639 50.5657 106.611 50.7245 106.557C50.8834 106.499 51.011 106.447 51.1073 106.4V103.721H50.5448V103.447L51.5214 103.135H51.8495V106.576C51.8495 106.626 51.8665 106.666 51.9003 106.697C51.9368 106.729 51.9784 106.747 52.0253 106.752L52.3769 106.775V107.088ZM55.2989 105.928C55.2989 106.321 55.1635 106.63 54.8927 106.854C54.6218 107.075 54.2481 107.186 53.7716 107.186C53.5268 107.186 53.3002 107.16 53.0919 107.107C52.8861 107.058 52.7429 107.016 52.6622 106.982V105.92H53.0684L53.1661 106.6C53.2468 106.652 53.3458 106.702 53.463 106.752C53.5828 106.799 53.7208 106.822 53.877 106.822C54.1062 106.822 54.2833 106.758 54.4083 106.631C54.5333 106.503 54.5958 106.36 54.5958 106.201C54.5958 105.99 54.5203 105.831 54.3692 105.725C54.2182 105.615 54.0033 105.494 53.7247 105.361L53.6192 105.311C53.3276 105.173 53.1036 105.029 52.9473 104.881C52.7937 104.73 52.7169 104.535 52.7169 104.295C52.7169 103.938 52.8419 103.656 53.0919 103.447C53.3419 103.239 53.6973 103.135 54.1583 103.135C54.3927 103.135 54.601 103.157 54.7833 103.201C54.9682 103.243 55.101 103.282 55.1817 103.318V104.264H54.7638L54.7013 103.705C54.644 103.661 54.5593 103.619 54.4473 103.58C54.3354 103.541 54.2169 103.521 54.0919 103.521C53.8731 103.521 53.7104 103.572 53.6036 103.674C53.4968 103.773 53.4434 103.9 53.4434 104.057C53.4434 104.236 53.5072 104.38 53.6348 104.486C53.7651 104.59 53.9994 104.719 54.338 104.873C54.6166 105.001 54.8458 105.144 55.0255 105.303C55.2078 105.459 55.2989 105.667 55.2989 105.928ZM59.0647 106.689C58.8407 106.827 58.5985 106.945 58.3381 107.041C58.0803 107.137 57.816 107.186 57.5452 107.186C57.2222 107.186 56.9189 107.114 56.635 106.971C56.3538 106.825 56.1259 106.605 55.9514 106.311C55.7769 106.016 55.6897 105.646 55.6897 105.201C55.6897 104.785 55.7704 104.421 55.9319 104.111C56.0933 103.801 56.316 103.562 56.5998 103.393C56.8837 103.221 57.2066 103.135 57.5686 103.135C58.066 103.135 58.4397 103.29 58.6897 103.6C58.9397 103.907 59.0647 104.299 59.0647 104.775C59.0647 104.801 59.0647 104.837 59.0647 104.881C59.0647 104.923 59.0621 104.962 59.0569 104.998H56.4631C56.4631 105.201 56.484 105.404 56.5256 105.607C56.5699 105.808 56.6428 105.99 56.7444 106.154C56.8459 106.318 56.9827 106.45 57.1545 106.549C57.3264 106.648 57.5413 106.697 57.7991 106.697C58.0282 106.697 58.2509 106.645 58.467 106.541C58.6858 106.434 58.885 106.321 59.0647 106.201V106.689ZM58.2639 104.639V104.463C58.2639 104.2 58.2001 103.979 58.0725 103.799C57.9475 103.619 57.7522 103.529 57.4866 103.529C57.2235 103.529 56.9996 103.628 56.8147 103.826C56.6298 104.024 56.5269 104.295 56.5061 104.639H58.2639ZM67.9791 104.842L67.5728 104.881C67.5155 104.883 67.4726 104.902 67.4439 104.936C67.4179 104.969 67.4048 105.007 67.4048 105.049V106.896C67.4048 106.896 67.3241 106.924 67.1627 106.979C67.0038 107.031 66.7968 107.083 66.5416 107.135C66.2864 107.189 66.0142 107.217 65.7252 107.217C65.2798 107.217 64.884 107.14 64.5377 106.986C64.1913 106.833 63.8983 106.624 63.6588 106.361C63.4218 106.096 63.2408 105.794 63.1158 105.455C62.9934 105.117 62.9322 104.762 62.9322 104.393C62.9322 103.833 63.0481 103.343 63.2798 102.924C63.5142 102.502 63.8476 102.175 64.2798 101.943C64.7147 101.709 65.2304 101.592 65.8267 101.592C66.1002 101.592 66.3528 101.617 66.5845 101.666C66.8163 101.715 67.0429 101.77 67.2642 101.83L67.397 101.865V103.158H66.9166L66.7877 102.439C66.7798 102.393 66.7603 102.354 66.7291 102.322C66.6978 102.288 66.664 102.264 66.6275 102.248C66.6171 102.245 66.6015 102.239 66.5806 102.229C66.4999 102.192 66.3905 102.152 66.2525 102.107C66.1171 102.063 65.9647 102.041 65.7955 102.041C65.4127 102.041 65.0741 102.131 64.7798 102.311C64.4856 102.488 64.2551 102.748 64.0884 103.092C63.9244 103.436 63.8423 103.856 63.8423 104.354C63.8423 105.122 64.0272 105.717 64.397 106.139C64.7694 106.558 65.2681 106.768 65.8931 106.768C66.0702 106.768 66.2265 106.748 66.3619 106.709C66.4999 106.667 66.578 106.646 66.5963 106.646V105.049C66.5963 105.007 66.5819 104.969 66.5533 104.936C66.5272 104.902 66.4856 104.883 66.4283 104.881L65.8931 104.842V104.494H67.9791V104.842ZM71.9597 107.088H70.7761L70.6706 106.615C70.6706 106.615 70.6303 106.644 70.5495 106.701C70.4714 106.758 70.3672 106.825 70.237 106.9C70.1068 106.976 69.9623 107.042 69.8034 107.1C69.6472 107.157 69.4909 107.186 69.3347 107.186C69.0456 107.186 68.7995 107.089 68.5964 106.896C68.3959 106.704 68.2956 106.439 68.2956 106.104C68.2956 105.955 68.3217 105.817 68.3738 105.689C68.4284 105.562 68.5352 105.441 68.6941 105.326C68.8555 105.209 69.0938 105.096 69.4089 104.986C69.7266 104.874 70.1472 104.761 70.6706 104.646V104.303C70.6706 103.777 70.4219 103.514 69.9245 103.514C69.7865 103.514 69.6667 103.527 69.5652 103.553C69.4662 103.579 69.3972 103.6 69.3581 103.615V104.311H68.7761C68.7032 104.311 68.6355 104.298 68.573 104.271C68.5105 104.243 68.4792 104.179 68.4792 104.08C68.4792 103.861 68.5626 103.683 68.7292 103.545C68.8959 103.404 69.1068 103.301 69.362 103.236C69.6198 103.169 69.8803 103.135 70.1433 103.135C70.474 103.135 70.7305 103.187 70.9128 103.291C71.0951 103.393 71.2227 103.535 71.2956 103.717C71.3685 103.896 71.405 104.102 71.405 104.334V106.576C71.405 106.626 71.4206 106.666 71.4519 106.697C71.4857 106.729 71.5261 106.747 71.573 106.752L71.9597 106.775V107.088ZM70.6706 106.334V104.951C70.3113 105.04 70.0248 105.13 69.8113 105.221C69.6003 105.309 69.4428 105.399 69.3386 105.49C69.2344 105.579 69.1654 105.67 69.1316 105.764C69.1003 105.855 69.0847 105.95 69.0847 106.049C69.0847 106.213 69.1368 106.365 69.2409 106.506C69.3477 106.644 69.4961 106.713 69.6863 106.713C69.793 106.713 69.9037 106.695 70.0183 106.658C70.1329 106.619 70.2396 106.575 70.3386 106.525C70.4376 106.473 70.517 106.429 70.5769 106.393C70.6394 106.354 70.6706 106.334 70.6706 106.334ZM74.8427 105.928C74.8427 106.321 74.7072 106.63 74.4364 106.854C74.1656 107.075 73.7919 107.186 73.3153 107.186C73.0705 107.186 72.844 107.16 72.6356 107.107C72.4299 107.058 72.2867 107.016 72.2059 106.982V105.92H72.6122L72.7098 106.6C72.7906 106.652 72.8895 106.702 73.0067 106.752C73.1265 106.799 73.2645 106.822 73.4208 106.822C73.6499 106.822 73.827 106.758 73.952 106.631C74.077 106.503 74.1395 106.36 74.1395 106.201C74.1395 105.99 74.064 105.831 73.913 105.725C73.7619 105.615 73.5471 105.494 73.2684 105.361L73.163 105.311C72.8713 105.173 72.6473 105.029 72.4911 104.881C72.3374 104.73 72.2606 104.535 72.2606 104.295C72.2606 103.938 72.3856 103.656 72.6356 103.447C72.8856 103.239 73.2411 103.135 73.702 103.135C73.9364 103.135 74.1447 103.157 74.327 103.201C74.5119 103.243 74.6447 103.282 74.7255 103.318V104.264H74.3075L74.245 103.705C74.1877 103.661 74.1031 103.619 73.9911 103.58C73.8791 103.541 73.7606 103.521 73.6356 103.521C73.4169 103.521 73.2541 103.572 73.1473 103.674C73.0406 103.773 72.9872 103.9 72.9872 104.057C72.9872 104.236 73.051 104.38 73.1786 104.486C73.3088 104.59 73.5432 104.719 73.8817 104.873C74.1604 105.001 74.3895 105.144 74.5692 105.303C74.7515 105.459 74.8427 105.667 74.8427 105.928ZM78.6084 106.689C78.3845 106.827 78.1423 106.945 77.8819 107.041C77.6241 107.137 77.3597 107.186 77.0889 107.186C76.766 107.186 76.4626 107.114 76.1787 106.971C75.8975 106.825 75.6696 106.605 75.4952 106.311C75.3207 106.016 75.2334 105.646 75.2334 105.201C75.2334 104.785 75.3142 104.421 75.4756 104.111C75.6371 103.801 75.8597 103.562 76.1436 103.393C76.4274 103.221 76.7504 103.135 77.1123 103.135C77.6097 103.135 77.9834 103.29 78.2334 103.6C78.4834 103.907 78.6084 104.299 78.6084 104.775C78.6084 104.801 78.6084 104.837 78.6084 104.881C78.6084 104.923 78.6058 104.962 78.6006 104.998H76.0069C76.0069 105.201 76.0277 105.404 76.0694 105.607C76.1136 105.808 76.1866 105.99 76.2881 106.154C76.3897 106.318 76.5264 106.45 76.6983 106.549C76.8702 106.648 77.085 106.697 77.3428 106.697C77.572 106.697 77.7946 106.645 78.0108 106.541C78.2295 106.434 78.4287 106.321 78.6084 106.201V106.689ZM77.8077 104.639V104.463C77.8077 104.2 77.7439 103.979 77.6162 103.799C77.4912 103.619 77.2959 103.529 77.0303 103.529C76.7673 103.529 76.5433 103.628 76.3584 103.826C76.1735 104.024 76.0707 104.295 76.0498 104.639H77.8077ZM81.632 105.928C81.632 106.321 81.4966 106.63 81.2258 106.854C80.9549 107.075 80.5812 107.186 80.1047 107.186C79.8599 107.186 79.6333 107.16 79.425 107.107C79.2193 107.058 79.076 107.016 78.9953 106.982V105.92H79.4016L79.4992 106.6C79.5799 106.652 79.6789 106.702 79.7961 106.752C79.9159 106.799 80.0539 106.822 80.2102 106.822C80.4393 106.822 80.6164 106.758 80.7414 106.631C80.8664 106.503 80.9289 106.36 80.9289 106.201C80.9289 105.99 80.8534 105.831 80.7023 105.725C80.5513 105.615 80.3365 105.494 80.0578 105.361L79.9523 105.311C79.6607 105.173 79.4367 105.029 79.2805 104.881C79.1268 104.73 79.05 104.535 79.05 104.295C79.05 103.938 79.175 103.656 79.425 103.447C79.675 103.239 80.0305 103.135 80.4914 103.135C80.7258 103.135 80.9341 103.157 81.1164 103.201C81.3013 103.243 81.4341 103.282 81.5148 103.318V104.264H81.0969L81.0344 103.705C80.9771 103.661 80.8924 103.619 80.7805 103.58C80.6685 103.541 80.55 103.521 80.425 103.521C80.2062 103.521 80.0435 103.572 79.9367 103.674C79.8299 103.773 79.7766 103.9 79.7766 104.057C79.7766 104.236 79.8404 104.38 79.968 104.486C80.0982 104.59 80.3326 104.719 80.6711 104.873C80.9497 105.001 81.1789 105.144 81.3586 105.303C81.5409 105.459 81.632 105.667 81.632 105.928Z" fill="url(#paint1_linear_490_13881)"/>
</g>
<path d="M51 0L51.4223 1.07073C52.2354 3.13251 53.8675 4.76456 55.9293 5.57771L57 6L55.9293 6.42229C53.8675 7.23544 52.2354 8.86749 51.4223 10.9293L51 12L50.5777 10.9293C49.7646 8.86749 48.1325 7.23544 46.0707 6.42229L45 6L46.0707 5.57771C48.1325 4.76456 49.7646 3.13251 50.5777 1.07073L51 0Z" fill="#E3C17D"/>
<defs>
<filter id="filter0_i_490_13881" x="19.4031" y="101.193" width="62.229" height="6.52344" filterUnits="userSpaceOnUse" color-interpolation-filters="sRGB">
<feFlood flood-opacity="0" result="BackgroundImageFix"/>
<feBlend mode="normal" in="SourceGraphic" in2="BackgroundImageFix" result="shape"/>
<feColorMatrix in="SourceAlpha" type="matrix" values="0 0 0 0 0 0 0 0 0 0 0 0 0 0 0 0 0 0 127 0" result="hardAlpha"/>
<feOffset dy="0.5"/>
<feGaussianBlur stdDeviation="0.25"/>
<feComposite in2="hardAlpha" operator="arithmetic" k2="-1" k3="1"/>
<feColorMatrix type="matrix" values="0 0 0 0 1 0 0 0 0 1 0 0 0 0 1 0 0 0 0.5 0"/>
<feBlend mode="screen" in2="shape" result="effect1_innerShadow_490_13881"/>
</filter>
<linearGradient id="paint0_linear_490_13881" x1="51" y1="97.0879" x2="51" y2="112.088" gradientUnits="userSpaceOnUse">
<stop stop-color="#E4C68A"/>
<stop offset="1" stop-color="#7A5C29"/>
</linearGradient>
<linearGradient id="paint1_linear_490_13881" x1="50.5" y1="92.0879" x2="50.5" y2="116.088" gradientUnits="userSpaceOnUse">
<stop stop-color="#9F7D33"/>
<stop offset="1" stop-color="#FFFDD1"/>
</linearGradient>
</defs>
</svg>
