<svg width="101" height="114" viewBox="0 0 101 114" fill="none" xmlns="http://www.w3.org/2000/svg">
<path fill-rule="evenodd" clip-rule="evenodd" d="M97 8.08789H100H101V9.08789V104.088V105.088H100H97.0001L97 105.088L95.5 106.588H6.25L4.75 105.088L4.74986 105.088H1H0V104.088V9.08789V8.08789H1H4.75L6.25 6.58789H95.5L97 8.08789ZM5.45711 8.08789H96.2929L95.2929 7.08789H6.45711L5.45711 8.08789ZM5.45711 105.088H14V104.088H1V9.08789H100V104.088H88V105.088H96.2929L95.2929 106.088H6.45711L5.45711 105.088Z" fill="#E4C68A"/>
<rect x="14" y="97.0879" width="74" height="15" fill="#021320" stroke="#021320" stroke-opacity="0.5" stroke-width="2"/>
<rect x="14" y="97.0879" width="74" height="15" stroke="url(#paint0_linear_490_13881)"/>
<g filter="url(#filter0_i_490_13881)">
<path d="M32.632 107.088H30.5227V106.744L30.9992 106.713C31.0565 106.708 31.0982 106.687 31.1242 106.65C31.1529 106.614 31.1672 106.576 31.1672 106.537V102.271C31.1672 102.232 31.1529 102.196 31.1242 102.162C31.0982 102.126 31.0565 102.106 30.9992 102.104L30.5227 102.072V101.721H32.632V102.072L32.1437 102.104C32.0891 102.106 32.0474 102.126 32.0187 102.162C31.9901 102.196 31.9758 102.232 31.9758 102.271V106.537C31.9758 106.576 31.9901 106.614 32.0187 106.65C32.0474 106.687 32.0891 106.708 32.1437 106.713L32.632 106.744V107.088ZM36.1947 106.334V106.791C36.015 106.887 35.8119 106.977 35.5853 107.061C35.3614 107.144 35.114 107.186 34.8431 107.186C34.4707 107.186 34.1465 107.098 33.8705 106.924C33.597 106.749 33.3848 106.512 33.2337 106.213C33.0853 105.911 33.0111 105.568 33.0111 105.186C33.0111 104.738 33.0996 104.361 33.2767 104.057C33.4564 103.752 33.6921 103.523 33.9837 103.369C34.278 103.213 34.5957 103.135 34.9369 103.135C35.2884 103.135 35.5827 103.204 35.8197 103.342C36.0593 103.477 36.1791 103.675 36.1791 103.936C36.1791 104.092 36.1296 104.21 36.0306 104.291C35.9343 104.369 35.8262 104.408 35.7064 104.408C35.6179 104.408 35.541 104.394 35.4759 104.365C35.4108 104.334 35.3535 104.303 35.3041 104.271V103.576C35.1817 103.506 35.0697 103.471 34.9681 103.471C34.7311 103.471 34.5267 103.541 34.3548 103.682C34.1856 103.82 34.0554 104.01 33.9642 104.252C33.8731 104.494 33.8275 104.77 33.8275 105.08C33.8275 105.374 33.877 105.644 33.9759 105.889C34.0749 106.131 34.222 106.324 34.4173 106.467C34.6153 106.61 34.8601 106.682 35.1517 106.682C35.3366 106.682 35.5137 106.652 35.683 106.592C35.8522 106.532 36.0228 106.446 36.1947 106.334ZM39.9527 106.689C39.7287 106.827 39.4865 106.945 39.2261 107.041C38.9683 107.137 38.704 107.186 38.4331 107.186C38.1102 107.186 37.8068 107.114 37.523 106.971C37.2417 106.825 37.0139 106.605 36.8394 106.311C36.6649 106.016 36.5777 105.646 36.5777 105.201C36.5777 104.785 36.6584 104.421 36.8198 104.111C36.9813 103.801 37.204 103.562 37.4878 103.393C37.7717 103.221 38.0946 103.135 38.4566 103.135C38.954 103.135 39.3277 103.29 39.5777 103.6C39.8277 103.907 39.9527 104.299 39.9527 104.775C39.9527 104.801 39.9527 104.837 39.9527 104.881C39.9527 104.923 39.9501 104.962 39.9448 104.998H37.3511C37.3511 105.201 37.3719 105.404 37.4136 105.607C37.4579 105.808 37.5308 105.99 37.6323 106.154C37.7339 106.318 37.8706 106.45 38.0425 106.549C38.2144 106.648 38.4292 106.697 38.687 106.697C38.9162 106.697 39.1389 106.645 39.355 106.541C39.5737 106.434 39.773 106.321 39.9527 106.201V106.689ZM39.1519 104.639V104.463C39.1519 104.2 39.0881 103.979 38.9605 103.799C38.8355 103.619 38.6402 103.529 38.3745 103.529C38.1115 103.529 37.8876 103.628 37.7027 103.826C37.5178 104.024 37.4149 104.295 37.3941 104.639H39.1519ZM50.2694 107.088H48.2498V106.744L48.6756 106.713C48.7329 106.708 48.7759 106.687 48.8045 106.65C48.8358 106.614 48.8514 106.576 48.8514 106.537V102.127L47.0116 107.088H46.6131L44.8358 102.201V106.537C44.8358 106.576 44.8501 106.614 44.8787 106.65C44.91 106.687 44.9543 106.708 45.0116 106.713L45.4686 106.744V107.088H43.7381V106.744L44.1952 106.713C44.2524 106.708 44.2941 106.687 44.3202 106.65C44.3488 106.614 44.3631 106.576 44.3631 106.537V102.271C44.3631 102.232 44.3488 102.195 44.3202 102.158C44.2941 102.119 44.2524 102.098 44.1952 102.096L43.7381 102.064V101.721H45.5311V101.936L46.9803 105.865L48.4295 101.959V101.721H50.2694V102.064L49.8358 102.096C49.7785 102.098 49.7342 102.119 49.703 102.158C49.6743 102.195 49.66 102.232 49.66 102.271V106.537C49.66 106.576 49.6743 106.614 49.703 106.65C49.7342 106.687 49.7785 106.708 49.8358 106.713L50.2694 106.744V107.088ZM54.0039 106.689C53.7799 106.827 53.5378 106.945 53.2773 107.041C53.0195 107.137 52.7552 107.186 52.4844 107.186C52.1615 107.186 51.8581 107.114 51.5742 106.971C51.293 106.825 51.0651 106.605 50.8906 106.311C50.7161 106.016 50.6289 105.646 50.6289 105.201C50.6289 104.785 50.7096 104.421 50.8711 104.111C51.0326 103.801 51.2552 103.562 51.5391 103.393C51.8229 103.221 52.1458 103.135 52.5078 103.135C53.0052 103.135 53.3789 103.29 53.6289 103.6C53.8789 103.907 54.0039 104.299 54.0039 104.775C54.0039 104.801 54.0039 104.837 54.0039 104.881C54.0039 104.923 54.0013 104.962 53.9961 104.998H51.4023C51.4023 105.201 51.4232 105.404 51.4648 105.607C51.5091 105.808 51.582 105.99 51.6836 106.154C51.7852 106.318 51.9219 106.45 52.0938 106.549C52.2656 106.648 52.4805 106.697 52.7383 106.697C52.9674 106.697 53.1901 106.645 53.4062 106.541C53.625 106.434 53.8242 106.321 54.0039 106.201V106.689ZM53.2031 104.639V104.463C53.2031 104.2 53.1393 103.979 53.0117 103.799C52.8867 103.619 52.6914 103.529 52.4258 103.529C52.1628 103.529 51.9388 103.628 51.7539 103.826C51.569 104.024 51.4661 104.295 51.4453 104.639H53.2031ZM56.2775 107.088H54.3322V106.775L54.758 106.752C54.7944 106.752 54.8322 106.732 54.8713 106.693C54.9129 106.654 54.9338 106.618 54.9338 106.584V101.768H54.3244V101.502L55.3478 101.193H55.6759V106.584C55.6759 106.618 55.6955 106.654 55.7345 106.693C55.7736 106.732 55.8101 106.752 55.8439 106.752L56.2775 106.775V107.088ZM58.9964 106.6V106.92C58.9964 106.92 58.9456 106.942 58.8441 106.986C58.7451 107.031 58.6136 107.075 58.4495 107.119C58.2881 107.163 58.111 107.186 57.9183 107.186C57.6188 107.186 57.4001 107.115 57.262 106.975C57.1266 106.831 57.0589 106.602 57.0589 106.287V103.631H56.5472V103.369L57.0941 103.111L57.4534 102.264H57.805V103.232H58.9339V103.631H57.805V105.865C57.805 106.183 57.8584 106.408 57.9652 106.541C58.0719 106.671 58.2321 106.736 58.4456 106.736C58.6019 106.736 58.7321 106.714 58.8362 106.67C58.943 106.623 58.9964 106.6 58.9964 106.6ZM60.6333 101.912C60.6333 102.048 60.5864 102.165 60.4927 102.264C60.3989 102.36 60.2843 102.408 60.1489 102.408C60.0135 102.408 59.8963 102.36 59.7973 102.264C59.701 102.165 59.6528 102.048 59.6528 101.912C59.6528 101.774 59.701 101.658 59.7973 101.564C59.8963 101.471 60.0135 101.424 60.1489 101.424C60.2843 101.424 60.3989 101.471 60.4927 101.564C60.5864 101.658 60.6333 101.774 60.6333 101.912ZM61.0434 107.088H59.1645V106.775L59.5552 106.752C59.6671 106.744 59.7231 106.686 59.7231 106.576V103.721H59.1723V103.439L60.1489 103.135H60.4653V106.576C60.4653 106.626 60.4809 106.666 60.5122 106.697C60.546 106.729 60.5864 106.747 60.6333 106.752L61.0434 106.775V107.088ZM65.5358 107.088H63.7702V106.775L64.1061 106.752C64.153 106.747 64.192 106.729 64.2233 106.697C64.2571 106.666 64.2741 106.626 64.2741 106.576V104.494C64.2741 104.242 64.2155 104.05 64.0983 103.92C63.9811 103.787 63.7832 103.721 63.5045 103.721C63.3535 103.721 63.2024 103.743 63.0514 103.787C62.903 103.829 62.761 103.883 62.6256 103.951V106.576C62.6256 106.686 62.6816 106.744 62.7936 106.752L63.1295 106.775V107.088H61.3209V106.775L61.7116 106.752C61.8235 106.744 61.8795 106.686 61.8795 106.576V103.799H61.3209V103.537L62.2975 103.232H62.6256V103.631C62.8496 103.503 63.0787 103.389 63.3131 103.287C63.5501 103.186 63.761 103.135 63.9459 103.135C64.2949 103.135 64.5605 103.244 64.7428 103.463C64.9251 103.679 65.0162 103.981 65.0162 104.369V106.576C65.0162 106.626 65.0319 106.666 65.0631 106.697C65.097 106.729 65.1373 106.747 65.1842 106.752L65.5358 106.775V107.088ZM69.6023 103.768H68.8055C68.8654 103.864 68.9161 103.969 68.9578 104.084C68.9995 104.199 69.0203 104.333 69.0203 104.486C69.0203 104.752 68.9474 104.98 68.8016 105.17C68.6557 105.357 68.463 105.502 68.2234 105.604C67.9865 105.705 67.7286 105.756 67.45 105.756C67.424 105.756 67.3979 105.756 67.3719 105.756C67.3458 105.756 67.3198 105.755 67.2938 105.752C67.2599 105.807 67.2365 105.865 67.2234 105.928C67.213 105.99 67.2078 106.049 67.2078 106.104C67.2078 106.153 67.2104 106.195 67.2156 106.229C67.2208 106.262 67.2247 106.282 67.2273 106.287L67.3406 106.299C67.5281 106.317 67.7378 106.343 67.9695 106.377C68.2039 106.411 68.4292 106.465 68.6453 106.541C68.8641 106.617 69.0438 106.723 69.1844 106.861C69.325 106.999 69.3953 107.182 69.3953 107.408C69.3953 107.661 69.3029 107.902 69.118 108.131C68.9331 108.363 68.6831 108.551 68.368 108.697C68.0555 108.846 67.7052 108.92 67.3172 108.92C66.8406 108.92 66.4708 108.811 66.2078 108.592C65.9448 108.376 65.8133 108.106 65.8133 107.783C65.8133 107.551 65.8823 107.344 66.0203 107.162C66.1583 106.982 66.3719 106.867 66.6609 106.814C66.6323 106.731 66.6115 106.671 66.5984 106.635C66.5854 106.598 66.5789 106.536 66.5789 106.447C66.5789 106.343 66.6102 106.229 66.6727 106.104C66.7378 105.976 66.8406 105.84 66.9813 105.697C66.7156 105.637 66.4839 105.503 66.2859 105.295C66.088 105.084 65.9891 104.817 65.9891 104.494C65.9891 104.075 66.1362 103.744 66.4305 103.502C66.7273 103.257 67.1154 103.135 67.5945 103.135C67.7846 103.135 67.9604 103.163 68.1219 103.221C68.2859 103.275 68.4201 103.327 68.5242 103.377H69.6023V103.768ZM68.2586 104.439C68.2586 104.27 68.2299 104.111 68.1727 103.963C68.1154 103.814 68.032 103.695 67.9227 103.604C67.8133 103.51 67.6779 103.463 67.5164 103.463C67.2924 103.463 67.1089 103.55 66.9656 103.725C66.825 103.896 66.7547 104.137 66.7547 104.447C66.7547 104.715 66.8185 104.946 66.9461 105.139C67.0737 105.329 67.2638 105.424 67.5164 105.424C67.756 105.424 67.9396 105.327 68.0672 105.135C68.1948 104.942 68.2586 104.71 68.2586 104.439ZM68.7078 107.623C68.7078 107.456 68.6492 107.327 68.532 107.236C68.4174 107.145 68.2742 107.077 68.1023 107.033C67.9305 106.989 67.7573 106.958 67.5828 106.939C67.4083 106.919 67.2612 106.896 67.1414 106.873C66.9096 106.956 66.7495 107.07 66.6609 107.213C66.575 107.356 66.532 107.493 66.532 107.623C66.532 107.751 66.5685 107.886 66.6414 108.029C66.7169 108.175 66.8315 108.299 66.9852 108.4C67.1414 108.502 67.3393 108.553 67.5789 108.553C67.8341 108.553 68.0451 108.502 68.2117 108.4C68.3784 108.299 68.5021 108.175 68.5828 108.029C68.6661 107.886 68.7078 107.751 68.7078 107.623Z" fill="url(#paint1_linear_490_13881)"/>
</g>
<path d="M51 0L51.4223 1.07073C52.2354 3.13251 53.8675 4.76456 55.9293 5.57771L57 6L55.9293 6.42229C53.8675 7.23544 52.2354 8.86749 51.4223 10.9293L51 12L50.5777 10.9293C49.7646 8.86749 48.1325 7.23544 46.0707 6.42229L45 6L46.0707 5.57771C48.1325 4.76456 49.7646 3.13251 50.5777 1.07073L51 0Z" fill="#E3C17D"/>
<defs>
<filter id="filter0_i_490_13881" x="30.5227" y="101.193" width="39.0796" height="8.22656" filterUnits="userSpaceOnUse" color-interpolation-filters="sRGB">
<feFlood flood-opacity="0" result="BackgroundImageFix"/>
<feBlend mode="normal" in="SourceGraphic" in2="BackgroundImageFix" result="shape"/>
<feColorMatrix in="SourceAlpha" type="matrix" values="0 0 0 0 0 0 0 0 0 0 0 0 0 0 0 0 0 0 127 0" result="hardAlpha"/>
<feOffset dy="0.5"/>
<feGaussianBlur stdDeviation="0.25"/>
<feComposite in2="hardAlpha" operator="arithmetic" k2="-1" k3="1"/>
<feColorMatrix type="matrix" values="0 0 0 0 1 0 0 0 0 1 0 0 0 0 1 0 0 0 0.5 0"/>
<feBlend mode="screen" in2="shape" result="effect1_innerShadow_490_13881"/>
</filter>
<linearGradient id="paint0_linear_490_13881" x1="51" y1="97.0879" x2="51" y2="112.088" gradientUnits="userSpaceOnUse">
<stop stop-color="#E4C68A"/>
<stop offset="1" stop-color="#7A5C29"/>
</linearGradient>
<linearGradient id="paint1_linear_490_13881" x1="50" y1="92.0879" x2="50" y2="116.088" gradientUnits="userSpaceOnUse">
<stop stop-color="#9F7D33"/>
<stop offset="1" stop-color="#FFFDD1"/>
</linearGradient>
</defs>
</svg>
