<svg width="101" height="114" viewBox="0 0 101 114" fill="none" xmlns="http://www.w3.org/2000/svg">
<path fill-rule="evenodd" clip-rule="evenodd" d="M97 8.08789H100H101V9.08789V104.088V105.088H100H97.0001L97 105.088L95.5 106.588H6.25L4.75 105.088L4.74986 105.088H1H0V104.088V9.08789V8.08789H1H4.75L6.25 6.58789H95.5L97 8.08789ZM5.45711 8.08789H96.2929L95.2929 7.08789H6.45711L5.45711 8.08789ZM5.45711 105.088H14V104.088H1V9.08789H100V104.088H88V105.088H96.2929L95.2929 106.088H6.45711L5.45711 105.088Z" fill="#E4C68A"/>
<rect x="14" y="97.0879" width="74" height="15" fill="#021320" stroke="#021320" stroke-opacity="0.5" stroke-width="2"/>
<rect x="14" y="97.0879" width="74" height="15" stroke="url(#paint0_linear_490_13881)"/>
<g filter="url(#filter0_i_490_13881)">
<path d="M37.1047 107.088H35.0852V106.744L35.5109 106.713C35.5682 106.708 35.6112 106.687 35.6398 106.65C35.6711 106.614 35.6867 106.576 35.6867 106.537V102.127L33.8469 107.088H33.4484L31.6711 102.201V106.537C31.6711 106.576 31.6854 106.614 31.7141 106.65C31.7453 106.687 31.7896 106.708 31.8469 106.713L32.3039 106.744V107.088H30.5734V106.744L31.0305 106.713C31.0878 106.708 31.1294 106.687 31.1555 106.65C31.1841 106.614 31.1984 106.576 31.1984 106.537V102.271C31.1984 102.232 31.1841 102.195 31.1555 102.158C31.1294 102.119 31.0878 102.098 31.0305 102.096L30.5734 102.064V101.721H32.3664V101.936L33.8156 105.865L35.2648 101.959V101.721H37.1047V102.064L36.6711 102.096C36.6138 102.098 36.5695 102.119 36.5383 102.158C36.5096 102.195 36.4953 102.232 36.4953 102.271V106.537C36.4953 106.576 36.5096 106.614 36.5383 106.65C36.5695 106.687 36.6138 106.708 36.6711 106.713L37.1047 106.744V107.088ZM41.1283 107.088H39.9447L39.8392 106.615C39.8392 106.615 39.7989 106.644 39.7181 106.701C39.64 106.758 39.5358 106.825 39.4056 106.9C39.2754 106.976 39.1309 107.042 38.972 107.1C38.8158 107.157 38.6595 107.186 38.5033 107.186C38.2142 107.186 37.9681 107.089 37.765 106.896C37.5645 106.704 37.4642 106.439 37.4642 106.104C37.4642 105.955 37.4903 105.817 37.5423 105.689C37.597 105.562 37.7038 105.441 37.8627 105.326C38.0241 105.209 38.2624 105.096 38.5775 104.986C38.8952 104.874 39.3158 104.761 39.8392 104.646V104.303C39.8392 103.777 39.5905 103.514 39.0931 103.514C38.9551 103.514 38.8353 103.527 38.7337 103.553C38.6348 103.579 38.5658 103.6 38.5267 103.615V104.311H37.9447C37.8718 104.311 37.8041 104.298 37.7416 104.271C37.6791 104.243 37.6478 104.179 37.6478 104.08C37.6478 103.861 37.7311 103.683 37.8978 103.545C38.0645 103.404 38.2754 103.301 38.5306 103.236C38.7884 103.169 39.0489 103.135 39.3119 103.135C39.6426 103.135 39.8991 103.187 40.0814 103.291C40.2637 103.393 40.3913 103.535 40.4642 103.717C40.5371 103.896 40.5736 104.102 40.5736 104.334V106.576C40.5736 106.626 40.5892 106.666 40.6205 106.697C40.6543 106.729 40.6947 106.747 40.7416 106.752L41.1283 106.775V107.088ZM39.8392 106.334V104.951C39.4798 105.04 39.1934 105.13 38.9798 105.221C38.7689 105.309 38.6114 105.399 38.5072 105.49C38.403 105.579 38.334 105.67 38.3002 105.764C38.2689 105.855 38.2533 105.95 38.2533 106.049C38.2533 106.213 38.3054 106.365 38.4095 106.506C38.5163 106.644 38.6647 106.713 38.8548 106.713C38.9616 106.713 39.0723 106.695 39.1869 106.658C39.3015 106.619 39.4082 106.575 39.5072 106.525C39.6061 106.473 39.6856 106.429 39.7455 106.393C39.808 106.354 39.8392 106.334 39.8392 106.334ZM44.148 104.049H43.8355C43.786 103.989 43.7261 103.938 43.6558 103.896C43.5881 103.852 43.5047 103.83 43.4058 103.83C43.2782 103.83 43.1467 103.874 43.0112 103.963C42.8784 104.051 42.743 104.173 42.605 104.326V106.576C42.605 106.688 42.661 106.747 42.773 106.752L43.3003 106.775V107.088H41.3003V106.783L41.6948 106.752C41.7417 106.747 41.7808 106.729 41.812 106.697C41.8459 106.666 41.8628 106.626 41.8628 106.576V103.799H41.2847V103.537L42.2769 103.232H42.605V103.943C42.6831 103.857 42.7808 103.751 42.898 103.623C43.0152 103.495 43.1402 103.382 43.273 103.283C43.4058 103.184 43.5347 103.135 43.6597 103.135C43.743 103.135 43.8329 103.148 43.9292 103.174C44.0256 103.2 44.0985 103.227 44.148 103.256V104.049ZM45.8161 101.912C45.8161 102.048 45.7692 102.165 45.6755 102.264C45.5817 102.36 45.4671 102.408 45.3317 102.408C45.1963 102.408 45.0791 102.36 44.9802 102.264C44.8838 102.165 44.8356 102.048 44.8356 101.912C44.8356 101.774 44.8838 101.658 44.9802 101.564C45.0791 101.471 45.1963 101.424 45.3317 101.424C45.4671 101.424 45.5817 101.471 45.6755 101.564C45.7692 101.658 45.8161 101.774 45.8161 101.912ZM46.2262 107.088H44.3473V106.775L44.738 106.752C44.8499 106.744 44.9059 106.686 44.9059 106.576V103.721H44.3552V103.439L45.3317 103.135H45.6481V106.576C45.6481 106.626 45.6637 106.666 45.695 106.697C45.7289 106.729 45.7692 106.747 45.8161 106.752L46.2262 106.775V107.088ZM50.7186 107.088H48.953V106.775L49.2889 106.752C49.3358 106.747 49.3748 106.729 49.4061 106.697C49.4399 106.666 49.4569 106.626 49.4569 106.576V104.494C49.4569 104.242 49.3983 104.05 49.2811 103.92C49.1639 103.787 48.966 103.721 48.6873 103.721C48.5363 103.721 48.3853 103.743 48.2342 103.787C48.0858 103.829 47.9439 103.883 47.8084 103.951V106.576C47.8084 106.686 47.8644 106.744 47.9764 106.752L48.3123 106.775V107.088H46.5037V106.775L46.8944 106.752C47.0064 106.744 47.0623 106.686 47.0623 106.576V103.799H46.5037V103.537L47.4803 103.232H47.8084V103.631C48.0324 103.503 48.2616 103.389 48.4959 103.287C48.7329 103.186 48.9439 103.135 49.1287 103.135C49.4777 103.135 49.7433 103.244 49.9256 103.463C50.1079 103.679 50.1991 103.981 50.1991 104.369V106.576C50.1991 106.626 50.2147 106.666 50.2459 106.697C50.2798 106.729 50.3202 106.747 50.367 106.752L50.7186 106.775V107.088ZM54.3711 106.689C54.1471 106.827 53.9049 106.945 53.6445 107.041C53.3867 107.137 53.1224 107.186 52.8516 107.186C52.5286 107.186 52.2253 107.114 51.9414 106.971C51.6602 106.825 51.4323 106.605 51.2578 106.311C51.0833 106.016 50.9961 105.646 50.9961 105.201C50.9961 104.785 51.0768 104.421 51.2383 104.111C51.3997 103.801 51.6224 103.562 51.9062 103.393C52.1901 103.221 52.513 103.135 52.875 103.135C53.3724 103.135 53.7461 103.29 53.9961 103.6C54.2461 103.907 54.3711 104.299 54.3711 104.775C54.3711 104.801 54.3711 104.837 54.3711 104.881C54.3711 104.923 54.3685 104.962 54.3633 104.998H51.7695C51.7695 105.201 51.7904 105.404 51.832 105.607C51.8763 105.808 51.9492 105.99 52.0508 106.154C52.1523 106.318 52.2891 106.45 52.4609 106.549C52.6328 106.648 52.8477 106.697 53.1055 106.697C53.3346 106.697 53.5573 106.645 53.7734 106.541C53.9922 106.434 54.1914 106.321 54.3711 106.201V106.689ZM53.5703 104.639V104.463C53.5703 104.2 53.5065 103.979 53.3789 103.799C53.2539 103.619 53.0586 103.529 52.793 103.529C52.5299 103.529 52.306 103.628 52.1211 103.826C51.9362 104.024 51.8333 104.295 51.8125 104.639H53.5703ZM62.0316 107.088H58.1409V106.744L58.6058 106.713C58.6631 106.708 58.7047 106.687 58.7308 106.65C58.7594 106.614 58.7737 106.576 58.7737 106.537V102.271C58.7737 102.232 58.7594 102.195 58.7308 102.158C58.7047 102.119 58.6631 102.098 58.6058 102.096L58.1409 102.064V101.721H60.1839V102.064L59.7581 102.096C59.7008 102.098 59.6566 102.119 59.6253 102.158C59.5967 102.195 59.5823 102.232 59.5823 102.271V106.697H61.262C61.2985 106.697 61.3362 106.683 61.3753 106.654C61.4144 106.626 61.4352 106.594 61.4378 106.561L61.5667 105.6H62.0316V107.088ZM63.7583 101.912C63.7583 102.048 63.7114 102.165 63.6177 102.264C63.5239 102.36 63.4093 102.408 63.2739 102.408C63.1385 102.408 63.0213 102.36 62.9223 102.264C62.826 102.165 62.7778 102.048 62.7778 101.912C62.7778 101.774 62.826 101.658 62.9223 101.564C63.0213 101.471 63.1385 101.424 63.2739 101.424C63.4093 101.424 63.5239 101.471 63.6177 101.564C63.7114 101.658 63.7583 101.774 63.7583 101.912ZM64.1684 107.088H62.2895V106.775L62.6802 106.752C62.7921 106.744 62.8481 106.686 62.8481 106.576V103.721H62.2973V103.439L63.2739 103.135H63.5903V106.576C63.5903 106.626 63.6059 106.666 63.6372 106.697C63.671 106.729 63.7114 106.747 63.7583 106.752L64.1684 106.775V107.088ZM67.3991 101.674C67.3991 101.781 67.3717 101.865 67.317 101.928C67.2649 101.988 67.209 102.031 67.1491 102.057C67.0892 102.083 67.0488 102.098 67.028 102.104C67.0202 102.096 66.9785 102.066 66.903 102.014C66.8301 101.962 66.7467 101.903 66.653 101.838C66.5618 101.773 66.4798 101.715 66.4069 101.666C66.3366 101.614 66.2988 101.587 66.2936 101.584C66.179 101.644 66.0709 101.765 65.9694 101.947C65.8704 102.13 65.8209 102.408 65.8209 102.783V103.295H66.8131V103.705H65.8209V106.576C65.8209 106.626 65.8366 106.667 65.8678 106.701C65.9017 106.732 65.942 106.749 65.9889 106.752L66.4616 106.775V107.088H64.5163V106.775L64.9108 106.752C64.9577 106.747 64.9967 106.729 65.028 106.697C65.0618 106.666 65.0788 106.626 65.0788 106.576V103.705H64.567V103.424L65.0788 103.279C65.0788 103.016 65.0983 102.799 65.1373 102.627C65.179 102.452 65.2493 102.27 65.3483 102.08C65.5045 101.778 65.7051 101.555 65.9498 101.412C66.1972 101.266 66.4511 101.193 66.7116 101.193C66.9381 101.193 67.1087 101.242 67.2233 101.338C67.3405 101.432 67.3991 101.544 67.3991 101.674ZM70.3836 106.689C70.1596 106.827 69.9174 106.945 69.657 107.041C69.3992 107.137 69.1349 107.186 68.8641 107.186C68.5411 107.186 68.2378 107.114 67.9539 106.971C67.6727 106.825 67.4448 106.605 67.2703 106.311C67.0958 106.016 67.0086 105.646 67.0086 105.201C67.0086 104.785 67.0893 104.421 67.2508 104.111C67.4122 103.801 67.6349 103.562 67.9188 103.393C68.2026 103.221 68.5255 103.135 68.8875 103.135C69.3849 103.135 69.7586 103.29 70.0086 103.6C70.2586 103.907 70.3836 104.299 70.3836 104.775C70.3836 104.801 70.3836 104.837 70.3836 104.881C70.3836 104.923 70.381 104.962 70.3758 104.998H67.782C67.782 105.201 67.8029 105.404 67.8445 105.607C67.8888 105.808 67.9617 105.99 68.0633 106.154C68.1648 106.318 68.3016 106.45 68.4734 106.549C68.6453 106.648 68.8602 106.697 69.118 106.697C69.3471 106.697 69.5698 106.645 69.7859 106.541C70.0047 106.434 70.2039 106.321 70.3836 106.201V106.689ZM69.5828 104.639V104.463C69.5828 104.2 69.519 103.979 69.3914 103.799C69.2664 103.619 69.0711 103.529 68.8055 103.529C68.5424 103.529 68.3185 103.628 68.1336 103.826C67.9487 104.024 67.8458 104.295 67.825 104.639H69.5828Z" fill="url(#paint1_linear_490_13881)"/>
</g>
<path d="M51 0L51.4223 1.07073C52.2354 3.13251 53.8675 4.76456 55.9293 5.57771L57 6L55.9293 6.42229C53.8675 7.23544 52.2354 8.86749 51.4223 10.9293L51 12L50.5777 10.9293C49.7646 8.86749 48.1325 7.23544 46.0707 6.42229L45 6L46.0707 5.57771C48.1325 4.76456 49.7646 3.13251 50.5777 1.07073L51 0Z" fill="#E3C17D"/>
<defs>
<filter id="filter0_i_490_13881" x="30.5735" y="101.193" width="39.8101" height="6.49219" filterUnits="userSpaceOnUse" color-interpolation-filters="sRGB">
<feFlood flood-opacity="0" result="BackgroundImageFix"/>
<feBlend mode="normal" in="SourceGraphic" in2="BackgroundImageFix" result="shape"/>
<feColorMatrix in="SourceAlpha" type="matrix" values="0 0 0 0 0 0 0 0 0 0 0 0 0 0 0 0 0 0 127 0" result="hardAlpha"/>
<feOffset dy="0.5"/>
<feGaussianBlur stdDeviation="0.25"/>
<feComposite in2="hardAlpha" operator="arithmetic" k2="-1" k3="1"/>
<feColorMatrix type="matrix" values="0 0 0 0 1 0 0 0 0 1 0 0 0 0 1 0 0 0 0.5 0"/>
<feBlend mode="screen" in2="shape" result="effect1_innerShadow_490_13881"/>
</filter>
<linearGradient id="paint0_linear_490_13881" x1="51" y1="97.0879" x2="51" y2="112.088" gradientUnits="userSpaceOnUse">
<stop stop-color="#E4C68A"/>
<stop offset="1" stop-color="#7A5C29"/>
</linearGradient>
<linearGradient id="paint1_linear_490_13881" x1="50.5" y1="92.0879" x2="50.5" y2="116.088" gradientUnits="userSpaceOnUse">
<stop stop-color="#9F7D33"/>
<stop offset="1" stop-color="#FFFDD1"/>
</linearGradient>
</defs>
</svg>
