<svg width="101" height="114" viewBox="0 0 101 114" fill="none" xmlns="http://www.w3.org/2000/svg">
<path fill-rule="evenodd" clip-rule="evenodd" d="M97 8.08789H100H101V9.08789V104.088V105.088H100H97.0001L97 105.088L95.5 106.588H6.25L4.75 105.088L4.74986 105.088H1H0V104.088V9.08789V8.08789H1H4.75L6.25 6.58789H95.5L97 8.08789ZM5.45711 8.08789H96.2929L95.2929 7.08789H6.45711L5.45711 8.08789ZM5.45711 105.088H14V104.088H1V9.08789H100V104.088H88V105.088H96.2929L95.2929 106.088H6.45711L5.45711 105.088Z" fill="#E4C68A"/>
<rect x="14" y="97.0879" width="74" height="15" fill="#021320" stroke="#021320" stroke-opacity="0.5" stroke-width="2"/>
<rect x="14" y="97.0879" width="74" height="15" stroke="url(#paint0_linear_490_13881)"/>
<g filter="url(#filter0_i_490_13881)">
<path d="M21.9361 104.408C21.9361 104.796 21.8736 105.16 21.7486 105.498C21.6262 105.837 21.4504 106.135 21.2212 106.393C20.9921 106.65 20.7173 106.852 20.397 106.998C20.0767 107.144 19.7212 107.217 19.3306 107.217C18.8072 107.217 18.3489 107.094 17.9556 106.85C17.565 106.602 17.2603 106.266 17.0416 105.842C16.8228 105.417 16.7134 104.937 16.7134 104.4C16.7134 104.01 16.7733 103.645 16.8931 103.307C17.0155 102.968 17.1913 102.67 17.4205 102.412C17.6496 102.154 17.9244 101.954 18.2447 101.811C18.565 101.665 18.9244 101.592 19.3228 101.592C19.7186 101.592 20.0767 101.665 20.397 101.811C20.7173 101.956 20.9921 102.16 21.2212 102.42C21.4504 102.678 21.6262 102.977 21.7486 103.318C21.8736 103.657 21.9361 104.02 21.9361 104.408ZM21.0103 104.416C21.0103 103.981 20.9478 103.585 20.8228 103.229C20.6978 102.869 20.5103 102.583 20.2603 102.369C20.0129 102.156 19.703 102.049 19.3306 102.049C18.9452 102.049 18.6262 102.157 18.3736 102.373C18.1236 102.587 17.9374 102.872 17.815 103.229C17.6926 103.585 17.6314 103.976 17.6314 104.4C17.6314 104.827 17.6926 105.222 17.815 105.584C17.9374 105.943 18.1223 106.232 18.3697 106.451C18.6197 106.667 18.9335 106.775 19.3111 106.775C19.6965 106.775 20.0142 106.667 20.2642 106.451C20.5142 106.232 20.7004 105.945 20.8228 105.588C20.9478 105.229 21.0103 104.838 21.0103 104.416ZM25.5495 106.334V106.791C25.3698 106.887 25.1667 106.977 24.9402 107.061C24.7162 107.144 24.4688 107.186 24.198 107.186C23.8256 107.186 23.5014 107.098 23.2253 106.924C22.9519 106.749 22.7396 106.512 22.5886 106.213C22.4402 105.911 22.3659 105.568 22.3659 105.186C22.3659 104.738 22.4545 104.361 22.6316 104.057C22.8112 103.752 23.0469 103.523 23.3386 103.369C23.6329 103.213 23.9506 103.135 24.2917 103.135C24.6433 103.135 24.9376 103.204 25.1745 103.342C25.4141 103.477 25.5339 103.675 25.5339 103.936C25.5339 104.092 25.4844 104.21 25.3855 104.291C25.2891 104.369 25.181 104.408 25.0612 104.408C24.9727 104.408 24.8959 104.394 24.8308 104.365C24.7657 104.334 24.7084 104.303 24.6589 104.271V103.576C24.5365 103.506 24.4245 103.471 24.323 103.471C24.086 103.471 23.8816 103.541 23.7097 103.682C23.5404 103.82 23.4102 104.01 23.3191 104.252C23.2279 104.494 23.1823 104.77 23.1823 105.08C23.1823 105.374 23.2318 105.644 23.3308 105.889C23.4297 106.131 23.5769 106.324 23.7722 106.467C23.9701 106.61 24.2149 106.682 24.5066 106.682C24.6915 106.682 24.8685 106.652 25.0378 106.592C25.2071 106.532 25.3777 106.446 25.5495 106.334ZM29.3075 106.689C29.0835 106.827 28.8414 106.945 28.5809 107.041C28.3231 107.137 28.0588 107.186 27.788 107.186C27.4651 107.186 27.1617 107.114 26.8778 106.971C26.5966 106.825 26.3687 106.605 26.1942 106.311C26.0197 106.016 25.9325 105.646 25.9325 105.201C25.9325 104.785 26.0132 104.421 26.1747 104.111C26.3361 103.801 26.5588 103.562 26.8427 103.393C27.1265 103.221 27.4494 103.135 27.8114 103.135C28.3088 103.135 28.6825 103.29 28.9325 103.6C29.1825 103.907 29.3075 104.299 29.3075 104.775C29.3075 104.801 29.3075 104.837 29.3075 104.881C29.3075 104.923 29.3049 104.962 29.2997 104.998H26.7059C26.7059 105.201 26.7268 105.404 26.7684 105.607C26.8127 105.808 26.8856 105.99 26.9872 106.154C27.0887 106.318 27.2255 106.45 27.3973 106.549C27.5692 106.648 27.7841 106.697 28.0419 106.697C28.271 106.697 28.4937 106.645 28.7098 106.541C28.9286 106.434 29.1278 106.321 29.3075 106.201V106.689ZM28.5067 104.639V104.463C28.5067 104.2 28.4429 103.979 28.3153 103.799C28.1903 103.619 27.995 103.529 27.7294 103.529C27.4664 103.529 27.2424 103.628 27.0575 103.826C26.8726 104.024 26.7697 104.295 26.7489 104.639H28.5067ZM33.3584 107.088H32.1748L32.0694 106.615C32.0694 106.615 32.029 106.644 31.9483 106.701C31.8702 106.758 31.766 106.825 31.6358 106.9C31.5056 106.976 31.361 107.042 31.2022 107.1C31.0459 107.157 30.8897 107.186 30.7334 107.186C30.4444 107.186 30.1983 107.089 29.9952 106.896C29.7946 106.704 29.6944 106.439 29.6944 106.104C29.6944 105.955 29.7204 105.817 29.7725 105.689C29.8272 105.562 29.934 105.441 30.0928 105.326C30.2543 105.209 30.4926 105.096 30.8077 104.986C31.1254 104.874 31.5459 104.761 32.0694 104.646V104.303C32.0694 103.777 31.8207 103.514 31.3233 103.514C31.1853 103.514 31.0655 103.527 30.9639 103.553C30.8649 103.579 30.7959 103.6 30.7569 103.615V104.311H30.1748C30.1019 104.311 30.0342 104.298 29.9717 104.271C29.9092 104.243 29.878 104.179 29.878 104.08C29.878 103.861 29.9613 103.683 30.128 103.545C30.2946 103.404 30.5056 103.301 30.7608 103.236C31.0186 103.169 31.279 103.135 31.542 103.135C31.8728 103.135 32.1293 103.187 32.3116 103.291C32.4939 103.393 32.6215 103.535 32.6944 103.717C32.7673 103.896 32.8037 104.102 32.8037 104.334V106.576C32.8037 106.626 32.8194 106.666 32.8506 106.697C32.8845 106.729 32.9248 106.747 32.9717 106.752L33.3584 106.775V107.088ZM32.0694 106.334V104.951C31.71 105.04 31.4235 105.13 31.21 105.221C30.9991 105.309 30.8415 105.399 30.7373 105.49C30.6332 105.579 30.5642 105.67 30.5303 105.764C30.4991 105.855 30.4834 105.95 30.4834 106.049C30.4834 106.213 30.5355 106.365 30.6397 106.506C30.7465 106.644 30.8949 106.713 31.085 106.713C31.1918 106.713 31.3024 106.695 31.417 106.658C31.5316 106.619 31.6384 106.575 31.7373 106.525C31.8363 106.473 31.9157 106.429 31.9756 106.393C32.0381 106.354 32.0694 106.334 32.0694 106.334ZM37.7062 107.088H35.9406V106.775L36.2766 106.752C36.3234 106.747 36.3625 106.729 36.3937 106.697C36.4276 106.666 36.4445 106.626 36.4445 106.576V104.494C36.4445 104.242 36.3859 104.05 36.2687 103.92C36.1516 103.787 35.9536 103.721 35.675 103.721C35.524 103.721 35.3729 103.743 35.2219 103.787C35.0734 103.829 34.9315 103.883 34.7961 103.951V106.576C34.7961 106.686 34.8521 106.744 34.9641 106.752L35.3 106.775V107.088H33.4914V106.775L33.882 106.752C33.994 106.744 34.05 106.686 34.05 106.576V103.799H33.4914V103.537L34.468 103.232H34.7961V103.631C35.0201 103.503 35.2492 103.389 35.4836 103.287C35.7206 103.186 35.9315 103.135 36.1164 103.135C36.4654 103.135 36.731 103.244 36.9133 103.463C37.0956 103.679 37.1867 103.981 37.1867 104.369V106.576C37.1867 106.626 37.2023 106.666 37.2336 106.697C37.2674 106.729 37.3078 106.747 37.3547 106.752L37.7062 106.775V107.088ZM46.5034 107.088H44.6011V106.744L45.062 106.705C45.0829 106.705 45.1024 106.692 45.1206 106.666C45.1389 106.637 45.148 106.611 45.148 106.588C45.148 106.577 45.1467 106.571 45.1441 106.568L44.5933 105.104H42.7456L42.2144 106.545C42.2118 106.55 42.2105 106.558 42.2105 106.568C42.2105 106.6 42.2235 106.631 42.2495 106.662C42.2782 106.691 42.3042 106.705 42.3277 106.705L42.8003 106.744V107.088H41.1909V106.744L41.6558 106.646L43.5191 101.592H44.1206L45.9761 106.529C45.9969 106.584 46.0152 106.62 46.0308 106.639C46.0464 106.657 46.0842 106.671 46.1441 106.682L46.5034 106.744V107.088ZM44.4487 104.721L43.6636 102.623L42.8862 104.721H44.4487ZM49.8395 106.334V106.791C49.6598 106.887 49.4567 106.977 49.2302 107.061C49.0062 107.144 48.7588 107.186 48.488 107.186C48.1156 107.186 47.7914 107.098 47.5153 106.924C47.2419 106.749 47.0296 106.512 46.8786 106.213C46.7302 105.911 46.6559 105.568 46.6559 105.186C46.6559 104.738 46.7445 104.361 46.9216 104.057C47.1012 103.752 47.3369 103.523 47.6286 103.369C47.9229 103.213 48.2406 103.135 48.5817 103.135C48.9333 103.135 49.2275 103.204 49.4645 103.342C49.7041 103.477 49.8239 103.675 49.8239 103.936C49.8239 104.092 49.7744 104.21 49.6755 104.291C49.5791 104.369 49.471 104.408 49.3512 104.408C49.2627 104.408 49.1859 104.394 49.1208 104.365C49.0557 104.334 48.9984 104.303 48.9489 104.271V103.576C48.8265 103.506 48.7145 103.471 48.613 103.471C48.376 103.471 48.1716 103.541 47.9997 103.682C47.8304 103.82 47.7002 104.01 47.6091 104.252C47.5179 104.494 47.4723 104.77 47.4723 105.08C47.4723 105.374 47.5218 105.644 47.6208 105.889C47.7197 106.131 47.8669 106.324 48.0622 106.467C48.2601 106.61 48.5049 106.682 48.7966 106.682C48.9815 106.682 49.1585 106.652 49.3278 106.592C49.4971 106.532 49.6677 106.446 49.8395 106.334ZM51.6912 101.912C51.6912 102.048 51.6444 102.165 51.5506 102.264C51.4569 102.36 51.3423 102.408 51.2069 102.408C51.0715 102.408 50.9543 102.36 50.8553 102.264C50.759 102.165 50.7108 102.048 50.7108 101.912C50.7108 101.774 50.759 101.658 50.8553 101.564C50.9543 101.471 51.0715 101.424 51.2069 101.424C51.3423 101.424 51.4569 101.471 51.5506 101.564C51.6444 101.658 51.6912 101.774 51.6912 101.912ZM52.1014 107.088H50.2225V106.775L50.6131 106.752C50.7251 106.744 50.7811 106.686 50.7811 106.576V103.721H50.2303V103.439L51.2069 103.135H51.5233V106.576C51.5233 106.626 51.5389 106.666 51.5702 106.697C51.604 106.729 51.6444 106.747 51.6912 106.752L52.1014 106.775V107.088ZM56.5234 107.088H55.2656V106.662C55.0833 106.803 54.8893 106.925 54.6836 107.029C54.4779 107.133 54.2591 107.186 54.0273 107.186C53.7591 107.186 53.5273 107.13 53.332 107.018C53.1393 106.903 52.9805 106.752 52.8555 106.564C52.7331 106.377 52.6419 106.17 52.582 105.943C52.5221 105.717 52.4922 105.49 52.4922 105.264C52.4922 104.902 52.5664 104.559 52.7148 104.236C52.8633 103.911 53.0885 103.646 53.3906 103.443C53.6927 103.238 54.0729 103.135 54.5312 103.135C54.6589 103.135 54.7969 103.148 54.9453 103.174C55.0964 103.197 55.2031 103.217 55.2656 103.232V101.768H54.6602V101.502L55.6914 101.193H56.0117V106.576C56.0117 106.686 56.0677 106.744 56.1797 106.752L56.5234 106.775V107.088ZM55.2656 106.361V103.639C55.1979 103.615 55.0964 103.59 54.9609 103.564C54.8281 103.536 54.7031 103.521 54.5859 103.521C54.1901 103.521 53.8737 103.669 53.6367 103.963C53.3997 104.255 53.2812 104.643 53.2812 105.127C53.2812 105.562 53.3828 105.923 53.5859 106.209C53.7891 106.495 54.0742 106.639 54.4414 106.639C54.6029 106.639 54.7539 106.609 54.8945 106.549C55.0378 106.486 55.1615 106.424 55.2656 106.361ZM58.3166 101.912C58.3166 102.048 58.2697 102.165 58.1759 102.264C58.0822 102.36 57.9676 102.408 57.8322 102.408C57.6968 102.408 57.5796 102.36 57.4806 102.264C57.3843 102.165 57.3361 102.048 57.3361 101.912C57.3361 101.774 57.3843 101.658 57.4806 101.564C57.5796 101.471 57.6968 101.424 57.8322 101.424C57.9676 101.424 58.0822 101.471 58.1759 101.564C58.2697 101.658 58.3166 101.774 58.3166 101.912ZM58.7267 107.088H56.8478V106.775L57.2384 106.752C57.3504 106.744 57.4064 106.686 57.4064 106.576V103.721H56.8556V103.439L57.8322 103.135H58.1486V106.576C58.1486 106.626 58.1642 106.666 58.1955 106.697C58.2293 106.729 58.2697 106.747 58.3166 106.752L58.7267 106.775V107.088ZM61.9573 101.674C61.9573 101.781 61.93 101.865 61.8753 101.928C61.8232 101.988 61.7672 102.031 61.7073 102.057C61.6474 102.083 61.6071 102.098 61.5863 102.104C61.5784 102.096 61.5368 102.066 61.4613 102.014C61.3883 101.962 61.305 101.903 61.2113 101.838C61.1201 101.773 61.0381 101.715 60.9652 101.666C60.8948 101.614 60.8571 101.587 60.8519 101.584C60.7373 101.644 60.6292 101.765 60.5277 101.947C60.4287 102.13 60.3792 102.408 60.3792 102.783V103.295H61.3714V103.705H60.3792V106.576C60.3792 106.626 60.3948 106.667 60.4261 106.701C60.4599 106.732 60.5003 106.749 60.5472 106.752L61.0198 106.775V107.088H59.0745V106.775L59.4691 106.752C59.5159 106.747 59.555 106.729 59.5863 106.697C59.6201 106.666 59.637 106.626 59.637 106.576V103.705H59.1253V103.424L59.637 103.279C59.637 103.016 59.6566 102.799 59.6956 102.627C59.7373 102.452 59.8076 102.27 59.9066 102.08C60.0628 101.778 60.2633 101.555 60.5081 101.412C60.7555 101.266 61.0094 101.193 61.2698 101.193C61.4964 101.193 61.667 101.242 61.7816 101.338C61.8988 101.432 61.9573 101.544 61.9573 101.674ZM63.0356 101.912C63.0356 102.048 62.9888 102.165 62.895 102.264C62.8013 102.36 62.6867 102.408 62.5513 102.408C62.4158 102.408 62.2986 102.36 62.1997 102.264C62.1033 102.165 62.0552 102.048 62.0552 101.912C62.0552 101.774 62.1033 101.658 62.1997 101.564C62.2986 101.471 62.4158 101.424 62.5513 101.424C62.6867 101.424 62.8013 101.471 62.895 101.564C62.9888 101.658 63.0356 101.774 63.0356 101.912ZM63.4458 107.088H61.5669V106.775L61.9575 106.752C62.0695 106.744 62.1255 106.686 62.1255 106.576V103.721H61.5747V103.439L62.5513 103.135H62.8677V106.576C62.8677 106.626 62.8833 106.666 62.9145 106.697C62.9484 106.729 62.9888 106.747 63.0356 106.752L63.4458 106.775V107.088ZM67.0202 106.334V106.791C66.8405 106.887 66.6373 106.977 66.4108 107.061C66.1868 107.144 65.9394 107.186 65.6686 107.186C65.2962 107.186 64.972 107.098 64.6959 106.924C64.4225 106.749 64.2103 106.512 64.0592 106.213C63.9108 105.911 63.8366 105.568 63.8366 105.186C63.8366 104.738 63.9251 104.361 64.1022 104.057C64.2819 103.752 64.5175 103.523 64.8092 103.369C65.1035 103.213 65.4212 103.135 65.7623 103.135C66.1139 103.135 66.4082 103.204 66.6452 103.342C66.8847 103.477 67.0045 103.675 67.0045 103.936C67.0045 104.092 66.955 104.21 66.8561 104.291C66.7597 104.369 66.6517 104.408 66.5319 104.408C66.4433 104.408 66.3665 104.394 66.3014 104.365C66.2363 104.334 66.179 104.303 66.1295 104.271V103.576C66.0071 103.506 65.8952 103.471 65.7936 103.471C65.5566 103.471 65.3522 103.541 65.1803 103.682C65.011 103.82 64.8808 104.01 64.7897 104.252C64.6985 104.494 64.653 104.77 64.653 105.08C64.653 105.374 64.7024 105.644 64.8014 105.889C64.9004 106.131 65.0475 106.324 65.2428 106.467C65.4407 106.61 65.6855 106.682 65.9772 106.682C66.1621 106.682 66.3392 106.652 66.5084 106.592C66.6777 106.532 66.8483 106.446 67.0202 106.334ZM71.0672 107.088H69.8836L69.7781 106.615C69.7781 106.615 69.7378 106.644 69.657 106.701C69.5789 106.758 69.4747 106.825 69.3445 106.9C69.2143 106.976 69.0698 107.042 68.9109 107.1C68.7547 107.157 68.5984 107.186 68.4422 107.186C68.1531 107.186 67.907 107.089 67.7039 106.896C67.5034 106.704 67.4031 106.439 67.4031 106.104C67.4031 105.955 67.4292 105.817 67.4812 105.689C67.5359 105.562 67.6427 105.441 67.8016 105.326C67.963 105.209 68.2013 105.096 68.5164 104.986C68.8341 104.874 69.2547 104.761 69.7781 104.646V104.303C69.7781 103.777 69.5294 103.514 69.032 103.514C68.894 103.514 68.7742 103.527 68.6727 103.553C68.5737 103.579 68.5047 103.6 68.4656 103.615V104.311H67.8836C67.8107 104.311 67.743 104.298 67.6805 104.271C67.618 104.243 67.5867 104.179 67.5867 104.08C67.5867 103.861 67.67 103.683 67.8367 103.545C68.0034 103.404 68.2143 103.301 68.4695 103.236C68.7273 103.169 68.9878 103.135 69.2508 103.135C69.5815 103.135 69.838 103.187 70.0203 103.291C70.2026 103.393 70.3302 103.535 70.4031 103.717C70.476 103.896 70.5125 104.102 70.5125 104.334V106.576C70.5125 106.626 70.5281 106.666 70.5594 106.697C70.5932 106.729 70.6336 106.747 70.6805 106.752L71.0672 106.775V107.088ZM69.7781 106.334V104.951C69.4187 105.04 69.1323 105.13 68.9187 105.221C68.7078 105.309 68.5503 105.399 68.4461 105.49C68.3419 105.579 68.2729 105.67 68.2391 105.764C68.2078 105.855 68.1922 105.95 68.1922 106.049C68.1922 106.213 68.2443 106.365 68.3484 106.506C68.4552 106.644 68.6036 106.713 68.7937 106.713C68.9005 106.713 69.0112 106.695 69.1258 106.658C69.2404 106.619 69.3471 106.575 69.4461 106.525C69.545 106.473 69.6245 106.429 69.6844 106.393C69.7469 106.354 69.7781 106.334 69.7781 106.334ZM73.7041 106.6V106.92C73.7041 106.92 73.6533 106.942 73.5517 106.986C73.4528 107.031 73.3212 107.075 73.1572 107.119C72.9957 107.163 72.8186 107.186 72.6259 107.186C72.3265 107.186 72.1077 107.115 71.9697 106.975C71.8343 106.831 71.7666 106.602 71.7666 106.287V103.631H71.2548V103.369L71.8017 103.111L72.1611 102.264H72.5127V103.232H73.6416V103.631H72.5127V105.865C72.5127 106.183 72.566 106.408 72.6728 106.541C72.7796 106.671 72.9397 106.736 73.1533 106.736C73.3095 106.736 73.4397 106.714 73.5439 106.67C73.6507 106.623 73.7041 106.6 73.7041 106.6ZM75.3409 101.912C75.3409 102.048 75.2941 102.165 75.2003 102.264C75.1066 102.36 74.992 102.408 74.8566 102.408C74.7211 102.408 74.604 102.36 74.505 102.264C74.4086 102.165 74.3605 102.048 74.3605 101.912C74.3605 101.774 74.4086 101.658 74.505 101.564C74.604 101.471 74.7211 101.424 74.8566 101.424C74.992 101.424 75.1066 101.471 75.2003 101.564C75.2941 101.658 75.3409 101.774 75.3409 101.912ZM75.7511 107.088H73.8722V106.775L74.2628 106.752C74.3748 106.744 74.4308 106.686 74.4308 106.576V103.721H73.88V103.439L74.8566 103.135H75.173V106.576C75.173 106.626 75.1886 106.666 75.2198 106.697C75.2537 106.729 75.2941 106.747 75.3409 106.752L75.7511 106.775V107.088ZM79.9466 105.166C79.9466 105.544 79.8684 105.886 79.7122 106.193C79.5559 106.498 79.3346 106.74 79.0481 106.92C78.7643 107.097 78.427 107.186 78.0364 107.186C77.6484 107.186 77.3124 107.097 77.0286 106.92C76.7447 106.743 76.526 106.502 76.3723 106.197C76.2187 105.893 76.1419 105.549 76.1419 105.166C76.1419 104.786 76.2187 104.442 76.3723 104.135C76.5286 103.827 76.7499 103.584 77.0364 103.404C77.3255 103.225 77.6666 103.135 78.0598 103.135C78.4583 103.135 78.7981 103.226 79.0794 103.408C79.3606 103.59 79.5755 103.835 79.7239 104.143C79.8723 104.45 79.9466 104.791 79.9466 105.166ZM79.1145 105.158C79.1145 104.867 79.0755 104.594 78.9973 104.342C78.9218 104.089 78.8046 103.885 78.6458 103.729C78.4895 103.572 78.2916 103.494 78.052 103.494C77.8046 103.494 77.6015 103.572 77.4427 103.729C77.2864 103.885 77.1705 104.089 77.095 104.342C77.0195 104.594 76.9817 104.867 76.9817 105.158C76.9817 105.447 77.0195 105.719 77.095 105.975C77.1731 106.227 77.2903 106.432 77.4466 106.588C77.6054 106.744 77.8046 106.822 78.0442 106.822C78.289 106.822 78.4895 106.744 78.6458 106.588C78.8046 106.432 78.9218 106.227 78.9973 105.975C79.0755 105.722 79.1145 105.45 79.1145 105.158ZM84.435 107.088H82.6694V106.775L83.0053 106.752C83.0522 106.747 83.0912 106.729 83.1225 106.697C83.1564 106.666 83.1733 106.626 83.1733 106.576V104.494C83.1733 104.242 83.1147 104.05 82.9975 103.92C82.8803 103.787 82.6824 103.721 82.4037 103.721C82.2527 103.721 82.1017 103.743 81.9506 103.787C81.8022 103.829 81.6603 103.883 81.5248 103.951V106.576C81.5248 106.686 81.5808 106.744 81.6928 106.752L82.0287 106.775V107.088H80.2202V106.775L80.6108 106.752C80.7228 106.744 80.7787 106.686 80.7787 106.576V103.799H80.2202V103.537L81.1967 103.232H81.5248V103.631C81.7488 103.503 81.978 103.389 82.2123 103.287C82.4493 103.186 82.6603 103.135 82.8452 103.135C83.1941 103.135 83.4597 103.244 83.642 103.463C83.8243 103.679 83.9155 103.981 83.9155 104.369V106.576C83.9155 106.626 83.9311 106.666 83.9623 106.697C83.9962 106.729 84.0366 106.747 84.0834 106.752L84.435 106.775V107.088Z" fill="url(#paint1_linear_490_13881)"/>
</g>
<path d="M51 0L51.4223 1.07073C52.2354 3.13251 53.8675 4.76456 55.9293 5.57771L57 6L55.9293 6.42229C53.8675 7.23544 52.2354 8.86749 51.4223 10.9293L51 12L50.5777 10.9293C49.7646 8.86749 48.1325 7.23544 46.0707 6.42229L45 6L46.0707 5.57771C48.1325 4.76456 49.7646 3.13251 50.5777 1.07073L51 0Z" fill="#E3C17D"/>
<defs>
<filter id="filter0_i_490_13881" x="16.7134" y="101.193" width="67.7217" height="6.52344" filterUnits="userSpaceOnUse" color-interpolation-filters="sRGB">
<feFlood flood-opacity="0" result="BackgroundImageFix"/>
<feBlend mode="normal" in="SourceGraphic" in2="BackgroundImageFix" result="shape"/>
<feColorMatrix in="SourceAlpha" type="matrix" values="0 0 0 0 0 0 0 0 0 0 0 0 0 0 0 0 0 0 127 0" result="hardAlpha"/>
<feOffset dy="0.5"/>
<feGaussianBlur stdDeviation="0.25"/>
<feComposite in2="hardAlpha" operator="arithmetic" k2="-1" k3="1"/>
<feColorMatrix type="matrix" values="0 0 0 0 1 0 0 0 0 1 0 0 0 0 1 0 0 0 0.5 0"/>
<feBlend mode="screen" in2="shape" result="effect1_innerShadow_490_13881"/>
</filter>
<linearGradient id="paint0_linear_490_13881" x1="51" y1="97.0879" x2="51" y2="112.088" gradientUnits="userSpaceOnUse">
<stop stop-color="#E4C68A"/>
<stop offset="1" stop-color="#7A5C29"/>
</linearGradient>
<linearGradient id="paint1_linear_490_13881" x1="50.5" y1="92.0879" x2="50.5" y2="116.088" gradientUnits="userSpaceOnUse">
<stop stop-color="#9F7D33"/>
<stop offset="1" stop-color="#FFFDD1"/>
</linearGradient>
</defs>
</svg>
