<svg width="101" height="114" viewBox="0 0 101 114" fill="none" xmlns="http://www.w3.org/2000/svg">
<path fill-rule="evenodd" clip-rule="evenodd" d="M97 8.08789H100H101V9.08789V104.088V105.088H100H97.0001L97 105.088L95.5 106.588H6.25L4.75 105.088L4.74986 105.088H1H0V104.088V9.08789V8.08789H1H4.75L6.25 6.58789H95.5L97 8.08789ZM5.45711 8.08789H96.2929L95.2929 7.08789H6.45711L5.45711 8.08789ZM5.45711 105.088H14V104.088H1V9.08789H100V104.088H88V105.088H96.2929L95.2929 106.088H6.45711L5.45711 105.088Z" fill="#E4C68A"/>
<rect x="14" y="97.0879" width="74" height="15" fill="#021320" stroke="#021320" stroke-opacity="0.5" stroke-width="2"/>
<rect x="14" y="97.0879" width="74" height="15" stroke="url(#paint0_linear_490_13881)"/>
<g filter="url(#filter0_i_490_13881)">
<path d="M25.0281 105.584C25.0281 105.852 24.9552 106.111 24.8094 106.361C24.6661 106.611 24.4383 106.817 24.1258 106.979C23.8159 107.137 23.4096 107.217 22.907 107.217C22.6206 107.217 22.3706 107.192 22.157 107.143C21.9435 107.093 21.7781 107.044 21.6609 106.994C21.5438 106.945 21.4852 106.92 21.4852 106.92V105.502H21.9891L22.0945 106.408C22.0997 106.439 22.1167 106.473 22.1453 106.51C22.174 106.546 22.2013 106.571 22.2273 106.584C22.2404 106.587 22.3159 106.618 22.4539 106.678C22.5945 106.738 22.7885 106.768 23.0359 106.768C23.3771 106.768 23.6583 106.684 23.8797 106.518C24.101 106.351 24.2117 106.119 24.2117 105.822C24.2117 105.661 24.1661 105.52 24.075 105.4C23.9865 105.278 23.8706 105.17 23.7273 105.076C23.5841 104.982 23.4305 104.898 23.2664 104.822C23.1049 104.744 22.9513 104.67 22.8055 104.6C22.5867 104.495 22.3836 104.385 22.1961 104.268C22.0086 104.148 21.8576 104.001 21.743 103.826C21.6284 103.652 21.5711 103.429 21.5711 103.158C21.5711 102.84 21.6518 102.564 21.8133 102.33C21.9747 102.096 22.1948 101.915 22.4734 101.787C22.7521 101.657 23.0672 101.592 23.4188 101.592C23.7052 101.592 23.9578 101.62 24.1766 101.678C24.3953 101.732 24.5893 101.787 24.7586 101.842L24.8289 101.865V103.111H24.3719L24.2508 102.346C24.2456 102.309 24.2286 102.283 24.2 102.268C24.174 102.249 24.1492 102.229 24.1258 102.205C24.1049 102.189 24.0398 102.156 23.9305 102.104C23.8237 102.051 23.657 102.025 23.4305 102.025C23.1102 102.025 22.8576 102.115 22.6727 102.295C22.4878 102.472 22.3953 102.696 22.3953 102.967C22.3953 103.212 22.4904 103.415 22.6805 103.576C22.8732 103.738 23.1492 103.887 23.5086 104.025C23.993 104.208 24.3667 104.413 24.6297 104.643C24.8953 104.869 25.0281 105.183 25.0281 105.584ZM28.833 106.689C28.609 106.827 28.3668 106.945 28.1064 107.041C27.8486 107.137 27.5843 107.186 27.3134 107.186C26.9905 107.186 26.6871 107.114 26.4033 106.971C26.122 106.825 25.8942 106.605 25.7197 106.311C25.5452 106.016 25.458 105.646 25.458 105.201C25.458 104.785 25.5387 104.421 25.7002 104.111C25.8616 103.801 26.0843 103.562 26.3681 103.393C26.652 103.221 26.9749 103.135 27.3369 103.135C27.8343 103.135 28.208 103.29 28.458 103.6C28.708 103.907 28.833 104.299 28.833 104.775C28.833 104.801 28.833 104.837 28.833 104.881C28.833 104.923 28.8304 104.962 28.8252 104.998H26.2314C26.2314 105.201 26.2522 105.404 26.2939 105.607C26.3382 105.808 26.4111 105.99 26.5127 106.154C26.6142 106.318 26.7509 106.45 26.9228 106.549C27.0947 106.648 27.3095 106.697 27.5673 106.697C27.7965 106.697 28.0192 106.645 28.2353 106.541C28.4541 106.434 28.6533 106.321 28.833 106.201V106.689ZM28.0322 104.639V104.463C28.0322 104.2 27.9684 103.979 27.8408 103.799C27.7158 103.619 27.5205 103.529 27.2548 103.529C26.9918 103.529 26.7679 103.628 26.583 103.826C26.3981 104.024 26.2952 104.295 26.2744 104.639H28.0322ZM32.8839 107.088H31.7003L31.5948 106.615C31.5948 106.615 31.5545 106.644 31.4738 106.701C31.3956 106.758 31.2915 106.825 31.1613 106.9C31.031 106.976 30.8865 107.042 30.7277 107.1C30.5714 107.157 30.4152 107.186 30.2589 107.186C29.9698 107.186 29.7238 107.089 29.5206 106.896C29.3201 106.704 29.2198 106.439 29.2198 106.104C29.2198 105.955 29.2459 105.817 29.298 105.689C29.3527 105.562 29.4594 105.441 29.6183 105.326C29.7797 105.209 30.018 105.096 30.3331 104.986C30.6508 104.874 31.0714 104.761 31.5948 104.646V104.303C31.5948 103.777 31.3461 103.514 30.8488 103.514C30.7107 103.514 30.5909 103.527 30.4894 103.553C30.3904 103.579 30.3214 103.6 30.2823 103.615V104.311H29.7003C29.6274 104.311 29.5597 104.298 29.4972 104.271C29.4347 104.243 29.4034 104.179 29.4034 104.08C29.4034 103.861 29.4868 103.683 29.6534 103.545C29.8201 103.404 30.031 103.301 30.2863 103.236C30.5441 103.169 30.8045 103.135 31.0675 103.135C31.3982 103.135 31.6547 103.187 31.837 103.291C32.0193 103.393 32.1469 103.535 32.2198 103.717C32.2928 103.896 32.3292 104.102 32.3292 104.334V106.576C32.3292 106.626 32.3448 106.666 32.3761 106.697C32.4099 106.729 32.4503 106.747 32.4972 106.752L32.8839 106.775V107.088ZM31.5948 106.334V104.951C31.2355 105.04 30.949 105.13 30.7355 105.221C30.5245 105.309 30.367 105.399 30.2628 105.49C30.1586 105.579 30.0896 105.67 30.0558 105.764C30.0245 105.855 30.0089 105.95 30.0089 106.049C30.0089 106.213 30.061 106.365 30.1652 106.506C30.2719 106.644 30.4204 106.713 30.6105 106.713C30.7172 106.713 30.8279 106.695 30.9425 106.658C31.0571 106.619 31.1639 106.575 31.2628 106.525C31.3618 106.473 31.4412 106.429 31.5011 106.393C31.5636 106.354 31.5948 106.334 31.5948 106.334ZM40.4038 107.088H36.5131V106.744L36.978 106.713C37.0353 106.708 37.0769 106.687 37.103 106.65C37.1316 106.614 37.1459 106.576 37.1459 106.537V102.271C37.1459 102.232 37.1316 102.195 37.103 102.158C37.0769 102.119 37.0353 102.098 36.978 102.096L36.5131 102.064V101.721H38.5561V102.064L38.1303 102.096C38.073 102.098 38.0288 102.119 37.9975 102.158C37.9689 102.195 37.9545 102.232 37.9545 102.271V106.697H39.6342C39.6707 106.697 39.7084 106.683 39.7475 106.654C39.7866 106.626 39.8074 106.594 39.81 106.561L39.9389 105.6H40.4038V107.088ZM44.0367 106.689C43.8128 106.827 43.5706 106.945 43.3102 107.041C43.0523 107.137 42.788 107.186 42.5172 107.186C42.1943 107.186 41.8909 107.114 41.607 106.971C41.3258 106.825 41.0979 106.605 40.9234 106.311C40.749 106.016 40.6617 105.646 40.6617 105.201C40.6617 104.785 40.7424 104.421 40.9039 104.111C41.0654 103.801 41.288 103.562 41.5719 103.393C41.8557 103.221 42.1786 103.135 42.5406 103.135C43.038 103.135 43.4117 103.29 43.6617 103.6C43.9117 103.907 44.0367 104.299 44.0367 104.775C44.0367 104.801 44.0367 104.837 44.0367 104.881C44.0367 104.923 44.0341 104.962 44.0289 104.998H41.4352C41.4352 105.201 41.456 105.404 41.4977 105.607C41.5419 105.808 41.6148 105.99 41.7164 106.154C41.818 106.318 41.9547 106.45 42.1266 106.549C42.2984 106.648 42.5133 106.697 42.7711 106.697C43.0003 106.697 43.2229 106.645 43.4391 106.541C43.6578 106.434 43.857 106.321 44.0367 106.201V106.689ZM43.2359 104.639V104.463C43.2359 104.2 43.1721 103.979 43.0445 103.799C42.9195 103.619 42.7242 103.529 42.4586 103.529C42.1956 103.529 41.9716 103.628 41.7867 103.826C41.6018 104.024 41.499 104.295 41.4781 104.639H43.2359ZM48.3025 103.545L47.8767 103.592L46.4783 107.088H45.9588L44.6697 103.592L44.2283 103.545V103.232H45.9978V103.545L45.615 103.568C45.5291 103.576 45.4861 103.619 45.4861 103.697C45.4861 103.708 45.4887 103.723 45.4939 103.744L46.3884 106.248L47.3728 103.744C47.3806 103.729 47.3845 103.712 47.3845 103.693C47.3845 103.615 47.3442 103.574 47.2634 103.568L46.9041 103.545V103.232H48.3025V103.545ZM51.873 106.689C51.649 106.827 51.4068 106.945 51.1464 107.041C50.8886 107.137 50.6243 107.186 50.3534 107.186C50.0305 107.186 49.7271 107.114 49.4433 106.971C49.162 106.825 48.9342 106.605 48.7597 106.311C48.5852 106.016 48.498 105.646 48.498 105.201C48.498 104.785 48.5787 104.421 48.7402 104.111C48.9016 103.801 49.1243 103.562 49.4081 103.393C49.692 103.221 50.0149 103.135 50.3769 103.135C50.8743 103.135 51.248 103.29 51.498 103.6C51.748 103.907 51.873 104.299 51.873 104.775C51.873 104.801 51.873 104.837 51.873 104.881C51.873 104.923 51.8704 104.962 51.8652 104.998H49.2714C49.2714 105.201 49.2922 105.404 49.3339 105.607C49.3782 105.808 49.4511 105.99 49.5527 106.154C49.6542 106.318 49.7909 106.45 49.9628 106.549C50.1347 106.648 50.3495 106.697 50.6073 106.697C50.8365 106.697 51.0592 106.645 51.2753 106.541C51.4941 106.434 51.6933 106.321 51.873 106.201V106.689ZM51.0722 104.639V104.463C51.0722 104.2 51.0084 103.979 50.8808 103.799C50.7558 103.619 50.5605 103.529 50.2948 103.529C50.0318 103.529 49.8079 103.628 49.623 103.826C49.4381 104.024 49.3352 104.295 49.3144 104.639H51.0722ZM54.1466 107.088H52.2013V106.775L52.627 106.752C52.6635 106.752 52.7013 106.732 52.7403 106.693C52.782 106.654 52.8028 106.618 52.8028 106.584V101.768H52.1934V101.502L53.2169 101.193H53.545V106.584C53.545 106.618 53.5645 106.654 53.6036 106.693C53.6427 106.732 53.6791 106.752 53.713 106.752L54.1466 106.775V107.088ZM62.8344 107.111C62.8005 107.114 62.7341 107.132 62.6352 107.166C62.5362 107.2 62.4268 107.217 62.307 107.217C62.0336 107.217 61.8161 107.171 61.6547 107.08C61.4958 106.989 61.3721 106.869 61.2836 106.721C61.1977 106.57 61.1286 106.404 61.0766 106.225C61.0271 106.045 60.9763 105.867 60.9242 105.689C60.8721 105.51 60.8005 105.346 60.7094 105.197C60.6182 105.046 60.4906 104.925 60.3266 104.834C60.1625 104.743 59.9398 104.697 59.6586 104.697C59.5753 104.697 59.4958 104.7 59.4203 104.705C59.3474 104.71 59.307 104.713 59.2992 104.713V106.537C59.2992 106.576 59.3122 106.614 59.3383 106.65C59.3669 106.687 59.4099 106.708 59.4672 106.713L59.8891 106.744V107.088H57.9008V106.744L58.3148 106.713C58.3721 106.708 58.4151 106.687 58.4438 106.65C58.475 106.614 58.4906 106.576 58.4906 106.537V102.271C58.4906 102.232 58.475 102.195 58.4438 102.158C58.4151 102.119 58.3721 102.098 58.3148 102.096L57.9008 102.064V101.721H59.9867C60.5935 101.721 61.0714 101.826 61.4203 102.037C61.7719 102.245 61.9477 102.614 61.9477 103.143C61.9477 103.421 61.8852 103.65 61.7602 103.83C61.6352 104.007 61.4724 104.146 61.2719 104.248C61.074 104.35 60.8617 104.426 60.6352 104.479C60.8826 104.538 61.0753 104.624 61.2133 104.736C61.3539 104.846 61.4581 104.971 61.5258 105.111C61.5935 105.252 61.6443 105.398 61.6781 105.549C61.712 105.7 61.7458 105.847 61.7797 105.99C61.8135 106.133 61.8643 106.262 61.932 106.377C62.0023 106.492 62.1078 106.583 62.2484 106.65C62.3891 106.718 62.5844 106.752 62.8344 106.752V107.111ZM61.0766 103.178C61.0766 102.837 60.9672 102.574 60.7484 102.389C60.5323 102.204 60.1716 102.111 59.6664 102.111H59.2992V104.303C59.3122 104.303 59.3656 104.304 59.4594 104.307C59.5557 104.309 59.6352 104.311 59.6977 104.311C60.143 104.311 60.4841 104.229 60.7211 104.064C60.9581 103.9 61.0766 103.605 61.0766 103.178ZM64.4205 101.912C64.4205 102.048 64.3736 102.165 64.2798 102.264C64.1861 102.36 64.0715 102.408 63.9361 102.408C63.8007 102.408 63.6835 102.36 63.5845 102.264C63.4882 102.165 63.44 102.048 63.44 101.912C63.44 101.774 63.4882 101.658 63.5845 101.564C63.6835 101.471 63.8007 101.424 63.9361 101.424C64.0715 101.424 64.1861 101.471 64.2798 101.564C64.3736 101.658 64.4205 101.774 64.4205 101.912ZM64.8306 107.088H62.9517V106.775L63.3423 106.752C63.4543 106.744 63.5103 106.686 63.5103 106.576V103.721H62.9595V103.439L63.9361 103.135H64.2525V106.576C64.2525 106.626 64.2681 106.666 64.2994 106.697C64.3332 106.729 64.3736 106.747 64.4205 106.752L64.8306 106.775V107.088ZM67.8581 105.928C67.8581 106.321 67.7227 106.63 67.4519 106.854C67.181 107.075 66.8073 107.186 66.3308 107.186C66.086 107.186 65.8594 107.16 65.6511 107.107C65.4454 107.058 65.3021 107.016 65.2214 106.982V105.92H65.6277L65.7253 106.6C65.806 106.652 65.905 106.702 66.0222 106.752C66.142 106.799 66.28 106.822 66.4363 106.822C66.6654 106.822 66.8425 106.758 66.9675 106.631C67.0925 106.503 67.155 106.36 67.155 106.201C67.155 105.99 67.0795 105.831 66.9284 105.725C66.7774 105.615 66.5626 105.494 66.2839 105.361L66.1784 105.311C65.8868 105.173 65.6628 105.029 65.5066 104.881C65.3529 104.73 65.2761 104.535 65.2761 104.295C65.2761 103.938 65.4011 103.656 65.6511 103.447C65.9011 103.239 66.2566 103.135 66.7175 103.135C66.9519 103.135 67.1602 103.157 67.3425 103.201C67.5274 103.243 67.6602 103.282 67.7409 103.318V104.264H67.323L67.2605 103.705C67.2032 103.661 67.1185 103.619 67.0066 103.58C66.8946 103.541 66.7761 103.521 66.6511 103.521C66.4323 103.521 66.2696 103.572 66.1628 103.674C66.056 103.773 66.0027 103.9 66.0027 104.057C66.0027 104.236 66.0665 104.38 66.1941 104.486C66.3243 104.59 66.5586 104.719 66.8972 104.873C67.1758 105.001 67.405 105.144 67.5847 105.303C67.767 105.459 67.8581 105.667 67.8581 105.928ZM69.7177 101.912C69.7177 102.048 69.6708 102.165 69.577 102.264C69.4833 102.36 69.3687 102.408 69.2333 102.408C69.0979 102.408 68.9807 102.36 68.8817 102.264C68.7854 102.165 68.7372 102.048 68.7372 101.912C68.7372 101.774 68.7854 101.658 68.8817 101.564C68.9807 101.471 69.0979 101.424 69.2333 101.424C69.3687 101.424 69.4833 101.471 69.577 101.564C69.6708 101.658 69.7177 101.774 69.7177 101.912ZM70.1278 107.088H68.2489V106.775L68.6395 106.752C68.7515 106.744 68.8075 106.686 68.8075 106.576V103.721H68.2567V103.439L69.2333 103.135H69.5497V106.576C69.5497 106.626 69.5653 106.666 69.5966 106.697C69.6304 106.729 69.6708 106.747 69.7177 106.752L70.1278 106.775V107.088ZM74.6202 107.088H72.8545V106.775L73.1905 106.752C73.2373 106.747 73.2764 106.729 73.3077 106.697C73.3415 106.666 73.3584 106.626 73.3584 106.576V104.494C73.3584 104.242 73.2998 104.05 73.1827 103.92C73.0655 103.787 72.8676 103.721 72.5889 103.721C72.4379 103.721 72.2868 103.743 72.1358 103.787C71.9873 103.829 71.8454 103.883 71.71 103.951V106.576C71.71 106.686 71.766 106.744 71.878 106.752L72.2139 106.775V107.088H70.4053V106.775L70.7959 106.752C70.9079 106.744 70.9639 106.686 70.9639 106.576V103.799H70.4053V103.537L71.3819 103.232H71.71V103.631C71.934 103.503 72.1631 103.389 72.3975 103.287C72.6345 103.186 72.8454 103.135 73.0303 103.135C73.3793 103.135 73.6449 103.244 73.8272 103.463C74.0095 103.679 74.1006 103.981 74.1006 104.369V106.576C74.1006 106.626 74.1162 106.666 74.1475 106.697C74.1814 106.729 74.2217 106.747 74.2686 106.752L74.6202 106.775V107.088ZM78.6867 103.768H77.8898C77.9497 103.864 78.0005 103.969 78.0422 104.084C78.0839 104.199 78.1047 104.333 78.1047 104.486C78.1047 104.752 78.0318 104.98 77.8859 105.17C77.7401 105.357 77.5474 105.502 77.3078 105.604C77.0708 105.705 76.813 105.756 76.5344 105.756C76.5083 105.756 76.4823 105.756 76.4562 105.756C76.4302 105.756 76.4042 105.755 76.3781 105.752C76.3443 105.807 76.3208 105.865 76.3078 105.928C76.2974 105.99 76.2922 106.049 76.2922 106.104C76.2922 106.153 76.2948 106.195 76.3 106.229C76.3052 106.262 76.3091 106.282 76.3117 106.287L76.425 106.299C76.6125 106.317 76.8221 106.343 77.0539 106.377C77.2883 106.411 77.5135 106.465 77.7297 106.541C77.9484 106.617 78.1281 106.723 78.2687 106.861C78.4094 106.999 78.4797 107.182 78.4797 107.408C78.4797 107.661 78.3872 107.902 78.2023 108.131C78.0174 108.363 77.7674 108.551 77.4523 108.697C77.1398 108.846 76.7896 108.92 76.4016 108.92C75.925 108.92 75.5552 108.811 75.2922 108.592C75.0292 108.376 74.8977 108.106 74.8977 107.783C74.8977 107.551 74.9667 107.344 75.1047 107.162C75.2427 106.982 75.4562 106.867 75.7453 106.814C75.7167 106.731 75.6958 106.671 75.6828 106.635C75.6698 106.598 75.6633 106.536 75.6633 106.447C75.6633 106.343 75.6945 106.229 75.757 106.104C75.8221 105.976 75.925 105.84 76.0656 105.697C75.8 105.637 75.5682 105.503 75.3703 105.295C75.1724 105.084 75.0734 104.817 75.0734 104.494C75.0734 104.075 75.2206 103.744 75.5148 103.502C75.8117 103.257 76.1997 103.135 76.6789 103.135C76.869 103.135 77.0448 103.163 77.2062 103.221C77.3703 103.275 77.5044 103.327 77.6086 103.377H78.6867V103.768ZM77.343 104.439C77.343 104.27 77.3143 104.111 77.257 103.963C77.1997 103.814 77.1164 103.695 77.007 103.604C76.8977 103.51 76.7622 103.463 76.6008 103.463C76.3768 103.463 76.1932 103.55 76.05 103.725C75.9094 103.896 75.8391 104.137 75.8391 104.447C75.8391 104.715 75.9029 104.946 76.0305 105.139C76.1581 105.329 76.3482 105.424 76.6008 105.424C76.8404 105.424 77.024 105.327 77.1516 105.135C77.2792 104.942 77.343 104.71 77.343 104.439ZM77.7922 107.623C77.7922 107.456 77.7336 107.327 77.6164 107.236C77.5018 107.145 77.3586 107.077 77.1867 107.033C77.0148 106.989 76.8417 106.958 76.6672 106.939C76.4927 106.919 76.3456 106.896 76.2258 106.873C75.994 106.956 75.8339 107.07 75.7453 107.213C75.6594 107.356 75.6164 107.493 75.6164 107.623C75.6164 107.751 75.6529 107.886 75.7258 108.029C75.8013 108.175 75.9159 108.299 76.0695 108.4C76.2258 108.502 76.4237 108.553 76.6633 108.553C76.9185 108.553 77.1294 108.502 77.2961 108.4C77.4628 108.299 77.5865 108.175 77.6672 108.029C77.7505 107.886 77.7922 107.751 77.7922 107.623Z" fill="url(#paint1_linear_490_13881)"/>
</g>
<path d="M51 0L51.4223 1.07073C52.2354 3.13251 53.8675 4.76456 55.9293 5.57771L57 6L55.9293 6.42229C53.8675 7.23544 52.2354 8.86749 51.4223 10.9293L51 12L50.5777 10.9293C49.7646 8.86749 48.1325 7.23544 46.0707 6.42229L45 6L46.0707 5.57771C48.1325 4.76456 49.7646 3.13251 50.5777 1.07073L51 0Z" fill="#E3C17D"/>
<defs>
<filter id="filter0_i_490_13881" x="21.4851" y="101.193" width="57.2017" height="8.22656" filterUnits="userSpaceOnUse" color-interpolation-filters="sRGB">
<feFlood flood-opacity="0" result="BackgroundImageFix"/>
<feBlend mode="normal" in="SourceGraphic" in2="BackgroundImageFix" result="shape"/>
<feColorMatrix in="SourceAlpha" type="matrix" values="0 0 0 0 0 0 0 0 0 0 0 0 0 0 0 0 0 0 127 0" result="hardAlpha"/>
<feOffset dy="0.5"/>
<feGaussianBlur stdDeviation="0.25"/>
<feComposite in2="hardAlpha" operator="arithmetic" k2="-1" k3="1"/>
<feColorMatrix type="matrix" values="0 0 0 0 1 0 0 0 0 1 0 0 0 0 1 0 0 0 0.5 0"/>
<feBlend mode="screen" in2="shape" result="effect1_innerShadow_490_13881"/>
</filter>
<linearGradient id="paint0_linear_490_13881" x1="51" y1="97.0879" x2="51" y2="112.088" gradientUnits="userSpaceOnUse">
<stop stop-color="#E4C68A"/>
<stop offset="1" stop-color="#7A5C29"/>
</linearGradient>
<linearGradient id="paint1_linear_490_13881" x1="50" y1="92.0879" x2="50" y2="116.088" gradientUnits="userSpaceOnUse">
<stop stop-color="#9F7D33"/>
<stop offset="1" stop-color="#FFFDD1"/>
</linearGradient>
</defs>
</svg>
