<svg width="101" height="114" viewBox="0 0 101 114" fill="none" xmlns="http://www.w3.org/2000/svg">
<path fill-rule="evenodd" clip-rule="evenodd" d="M97 8.08789H100H101V9.08789V104.088V105.088H100H97.0001L97 105.088L95.5 106.588H6.25L4.75 105.088L4.74986 105.088H1H0V104.088V9.08789V8.08789H1H4.75L6.25 6.58789H95.5L97 8.08789ZM5.45711 8.08789H96.2929L95.2929 7.08789H6.45711L5.45711 8.08789ZM5.45711 105.088H14V104.088H1V9.08789H100V104.088H88V105.088H96.2929L95.2929 106.088H6.45711L5.45711 105.088Z" fill="#E4C68A"/>
<rect x="14" y="97.0879" width="74" height="15" fill="#021320" stroke="#021320" stroke-opacity="0.5" stroke-width="2"/>
<rect x="14" y="97.0879" width="74" height="15" stroke="url(#paint0_linear_490_13881)"/>
<g filter="url(#filter0_i_490_13881)">
<path d="M39.3997 102.064L38.9114 102.158L37.6887 107.217H37.1028L35.7669 102.783L34.4583 107.217H33.8802L32.5755 102.158L32.1106 102.064V101.721H33.9427V102.064L33.4661 102.111C33.4062 102.119 33.3762 102.158 33.3762 102.229C33.3762 102.236 33.3789 102.251 33.3841 102.271L34.3372 105.881L35.5911 101.721H36.2083L37.4973 106.01L38.3841 102.271C38.3867 102.266 38.388 102.257 38.388 102.244C38.388 102.163 38.3489 102.119 38.2708 102.111L37.7669 102.064V101.721H39.3997V102.064ZM41.0678 101.912C41.0678 102.048 41.0209 102.165 40.9272 102.264C40.8334 102.36 40.7189 102.408 40.5834 102.408C40.448 102.408 40.3308 102.36 40.2319 102.264C40.1355 102.165 40.0873 102.048 40.0873 101.912C40.0873 101.774 40.1355 101.658 40.2319 101.564C40.3308 101.471 40.448 101.424 40.5834 101.424C40.7189 101.424 40.8334 101.471 40.9272 101.564C41.0209 101.658 41.0678 101.774 41.0678 101.912ZM41.478 107.088H39.5991V106.775L39.9897 106.752C40.1017 106.744 40.1577 106.686 40.1577 106.576V103.721H39.6069V103.439L40.5834 103.135H40.8998V106.576C40.8998 106.626 40.9155 106.666 40.9467 106.697C40.9806 106.729 41.0209 106.747 41.0678 106.752L41.478 106.775V107.088ZM43.7555 107.088H41.8102V106.775L42.2359 106.752C42.2724 106.752 42.3102 106.732 42.3492 106.693C42.3909 106.654 42.4117 106.618 42.4117 106.584V101.768H41.8023V101.502L42.8258 101.193H43.1539V106.584C43.1539 106.618 43.1734 106.654 43.2125 106.693C43.2516 106.732 43.288 106.752 43.3219 106.752L43.7555 106.775V107.088ZM48.115 107.088H46.8572V106.662C46.6749 106.803 46.4809 106.925 46.2752 107.029C46.0694 107.133 45.8507 107.186 45.6189 107.186C45.3507 107.186 45.1189 107.13 44.9236 107.018C44.7309 106.903 44.572 106.752 44.447 106.564C44.3246 106.377 44.2335 106.17 44.1736 105.943C44.1137 105.717 44.0837 105.49 44.0837 105.264C44.0837 104.902 44.158 104.559 44.3064 104.236C44.4548 103.911 44.6801 103.646 44.9822 103.443C45.2843 103.238 45.6645 103.135 46.1228 103.135C46.2504 103.135 46.3884 103.148 46.5369 103.174C46.6879 103.197 46.7947 103.217 46.8572 103.232V101.768H46.2517V101.502L47.283 101.193H47.6033V106.576C47.6033 106.686 47.6593 106.744 47.7712 106.752L48.115 106.775V107.088ZM46.8572 106.361V103.639C46.7895 103.615 46.6879 103.59 46.5525 103.564C46.4197 103.536 46.2947 103.521 46.1775 103.521C45.7817 103.521 45.4653 103.669 45.2283 103.963C44.9913 104.255 44.8728 104.643 44.8728 105.127C44.8728 105.562 44.9744 105.923 45.1775 106.209C45.3806 106.495 45.6658 106.639 46.033 106.639C46.1944 106.639 46.3455 106.609 46.4861 106.549C46.6293 106.486 46.753 106.424 46.8572 106.361ZM55.6973 102.99H55.2247L55.1114 102.256C55.1036 102.217 55.088 102.183 55.0645 102.154C55.0411 102.126 55.0111 102.111 54.9747 102.111H53.2716V104.193H54.4942C54.5307 104.193 54.5632 104.176 54.5919 104.143C54.6205 104.106 54.6361 104.075 54.6388 104.049L54.713 103.486H55.1114V105.287H54.713L54.6388 104.729C54.6361 104.7 54.6192 104.669 54.588 104.635C54.5593 104.601 54.5281 104.584 54.4942 104.584H53.2716V106.537C53.2716 106.576 53.2846 106.614 53.3106 106.65C53.3393 106.687 53.3822 106.708 53.4395 106.713L53.9747 106.744V107.088H51.8731V106.744L52.295 106.713C52.3523 106.708 52.394 106.687 52.42 106.65C52.4486 106.614 52.463 106.576 52.463 106.537V102.271C52.463 102.232 52.4486 102.195 52.42 102.158C52.394 102.119 52.3523 102.098 52.295 102.096L51.8067 102.064V101.721H55.6973V102.99ZM57.5178 101.912C57.5178 102.048 57.4709 102.165 57.3772 102.264C57.2834 102.36 57.1689 102.408 57.0334 102.408C56.898 102.408 56.7808 102.36 56.6819 102.264C56.5855 102.165 56.5373 102.048 56.5373 101.912C56.5373 101.774 56.5855 101.658 56.6819 101.564C56.7808 101.471 56.898 101.424 57.0334 101.424C57.1689 101.424 57.2834 101.471 57.3772 101.564C57.4709 101.658 57.5178 101.774 57.5178 101.912ZM57.928 107.088H56.0491V106.775L56.4397 106.752C56.5517 106.744 56.6077 106.686 56.6077 106.576V103.721H56.0569V103.439L57.0334 103.135H57.3498V106.576C57.3498 106.626 57.3655 106.666 57.3967 106.697C57.4306 106.729 57.4709 106.747 57.5178 106.752L57.928 106.775V107.088ZM61.0922 104.049H60.7797C60.7302 103.989 60.6703 103.938 60.6 103.896C60.5323 103.852 60.449 103.83 60.35 103.83C60.2224 103.83 60.0909 103.874 59.9555 103.963C59.8227 104.051 59.6872 104.173 59.5492 104.326V106.576C59.5492 106.688 59.6052 106.747 59.7172 106.752L60.2445 106.775V107.088H58.2445V106.783L58.6391 106.752C58.6859 106.747 58.725 106.729 58.7562 106.697C58.7901 106.666 58.807 106.626 58.807 106.576V103.799H58.2289V103.537L59.2211 103.232H59.5492V103.943C59.6273 103.857 59.725 103.751 59.8422 103.623C59.9594 103.495 60.0844 103.382 60.2172 103.283C60.35 103.184 60.4789 103.135 60.6039 103.135C60.6872 103.135 60.7771 103.148 60.8734 103.174C60.9698 103.2 61.0427 103.227 61.0922 103.256V104.049ZM64.6666 106.689C64.4426 106.827 64.2004 106.945 63.94 107.041C63.6822 107.137 63.4179 107.186 63.147 107.186C62.8241 107.186 62.5207 107.114 62.2369 106.971C61.9556 106.825 61.7278 106.605 61.5533 106.311C61.3788 106.016 61.2916 105.646 61.2916 105.201C61.2916 104.785 61.3723 104.421 61.5337 104.111C61.6952 103.801 61.9179 103.562 62.2017 103.393C62.4856 103.221 62.8085 103.135 63.1705 103.135C63.6679 103.135 64.0416 103.29 64.2916 103.6C64.5416 103.907 64.6666 104.299 64.6666 104.775C64.6666 104.801 64.6666 104.837 64.6666 104.881C64.6666 104.923 64.664 104.962 64.6587 104.998H62.065C62.065 105.201 62.0858 105.404 62.1275 105.607C62.1718 105.808 62.2447 105.99 62.3462 106.154C62.4478 106.318 62.5845 106.45 62.7564 106.549C62.9283 106.648 63.1431 106.697 63.4009 106.697C63.6301 106.697 63.8528 106.645 64.0689 106.541C64.2877 106.434 64.4869 106.321 64.6666 106.201V106.689ZM63.8658 104.639V104.463C63.8658 104.2 63.802 103.979 63.6744 103.799C63.5494 103.619 63.3541 103.529 63.0884 103.529C62.8254 103.529 62.6015 103.628 62.4166 103.826C62.2317 104.024 62.1288 104.295 62.108 104.639H63.8658ZM67.6902 105.928C67.6902 106.321 67.5547 106.63 67.2839 106.854C67.0131 107.075 66.6394 107.186 66.1628 107.186C65.918 107.186 65.6915 107.16 65.4831 107.107C65.2774 107.058 65.1342 107.016 65.0534 106.982V105.92H65.4597L65.5573 106.6C65.6381 106.652 65.737 106.702 65.8542 106.752C65.974 106.799 66.112 106.822 66.2683 106.822C66.4974 106.822 66.6745 106.758 66.7995 106.631C66.9245 106.503 66.987 106.36 66.987 106.201C66.987 105.99 66.9115 105.831 66.7605 105.725C66.6094 105.615 66.3946 105.494 66.1159 105.361L66.0105 105.311C65.7188 105.173 65.4948 105.029 65.3386 104.881C65.1849 104.73 65.1081 104.535 65.1081 104.295C65.1081 103.938 65.2331 103.656 65.4831 103.447C65.7331 103.239 66.0886 103.135 66.5495 103.135C66.7839 103.135 66.9922 103.157 67.1745 103.201C67.3594 103.243 67.4922 103.282 67.573 103.318V104.264H67.155L67.0925 103.705C67.0352 103.661 66.9506 103.619 66.8386 103.58C66.7266 103.541 66.6081 103.521 66.4831 103.521C66.2644 103.521 66.1016 103.572 65.9948 103.674C65.8881 103.773 65.8347 103.9 65.8347 104.057C65.8347 104.236 65.8985 104.38 66.0261 104.486C66.1563 104.59 66.3907 104.719 66.7292 104.873C67.0079 105.001 67.237 105.144 67.4167 105.303C67.599 105.459 67.6902 105.667 67.6902 105.928Z" fill="url(#paint1_linear_490_13881)"/>
</g>
<path d="M51 0L51.4223 1.07073C52.2354 3.13251 53.8675 4.76456 55.9293 5.57771L57 6L55.9293 6.42229C53.8675 7.23544 52.2354 8.86749 51.4223 10.9293L51 12L50.5777 10.9293C49.7646 8.86749 48.1325 7.23544 46.0707 6.42229L45 6L46.0707 5.57771C48.1325 4.76456 49.7646 3.13251 50.5777 1.07073L51 0Z" fill="#E3C17D"/>
<defs>
<filter id="filter0_i_490_13881" x="32.1106" y="101.193" width="35.5796" height="6.52344" filterUnits="userSpaceOnUse" color-interpolation-filters="sRGB">
<feFlood flood-opacity="0" result="BackgroundImageFix"/>
<feBlend mode="normal" in="SourceGraphic" in2="BackgroundImageFix" result="shape"/>
<feColorMatrix in="SourceAlpha" type="matrix" values="0 0 0 0 0 0 0 0 0 0 0 0 0 0 0 0 0 0 127 0" result="hardAlpha"/>
<feOffset dy="0.5"/>
<feGaussianBlur stdDeviation="0.25"/>
<feComposite in2="hardAlpha" operator="arithmetic" k2="-1" k3="1"/>
<feColorMatrix type="matrix" values="0 0 0 0 1 0 0 0 0 1 0 0 0 0 1 0 0 0 0.5 0"/>
<feBlend mode="screen" in2="shape" result="effect1_innerShadow_490_13881"/>
</filter>
<linearGradient id="paint0_linear_490_13881" x1="51" y1="97.0879" x2="51" y2="112.088" gradientUnits="userSpaceOnUse">
<stop stop-color="#E4C68A"/>
<stop offset="1" stop-color="#7A5C29"/>
</linearGradient>
<linearGradient id="paint1_linear_490_13881" x1="50" y1="92.0879" x2="50" y2="116.088" gradientUnits="userSpaceOnUse">
<stop stop-color="#9F7D33"/>
<stop offset="1" stop-color="#FFFDD1"/>
</linearGradient>
</defs>
</svg>
